M48
; DRILL file {KiCad (6.0.0)} date Sun May 15 20:33:10 2022
; FORMAT={-:-/ absolute / metric / decimal}
; #@! TF.CreationDate,2022-05-15T20:33:10+08:00
; #@! TF.GenerationSoftware,Kicad,Pcbnew,(6.0.0)
; #@! TF.FileFunction,Plated,1,2,PTH
FMAT,2
METRIC
; #@! TA.AperFunction,Plated,PTH,ViaDrill
T1C0.400
; #@! TA.AperFunction,Plated,PTH,ViaDrill
T2C0.600
; #@! TA.AperFunction,Plated,PTH,ComponentDrill
T3C0.800
; #@! TA.AperFunction,Plated,PTH,ComponentDrill
T4C1.000
; #@! TA.AperFunction,Plated,PTH,ComponentDrill
T5C1.000
; #@! TA.AperFunction,Plated,PTH,ComponentDrill
T6C1.100
; #@! TA.AperFunction,Plated,PTH,ComponentDrill
T7C1.100
; #@! TA.AperFunction,Plated,PTH,ComponentDrill
T8C1.400
%
G90
G05
T1
X93.4Y-65.7
X94.99Y-76.97
X95.0Y-75.0
X95.0Y-80.01
X95.0Y-82.5
X96.1Y-65.7
X100.0Y-57.5
X100.0Y-60.0
X100.0Y-62.5
X100.0Y-75.0
X100.0Y-76.93
X100.0Y-79.98
X100.0Y-82.5
X105.0Y-57.5
X105.0Y-60.0
X105.0Y-72.5
X105.0Y-75.0
X105.0Y-76.91
X105.0Y-80.0
X105.0Y-82.5
X108.85Y-78.9
X110.0Y-72.5
X110.0Y-76.9
X110.0Y-80.0
X110.0Y-82.5
X110.3Y-66.8
X110.4Y-60.5
X111.0Y-66.0
X111.9Y-59.0
X112.0Y-66.0
X113.9Y-59.3
X114.9Y-56.6
X114.9Y-57.5
X115.4Y-71.7
X116.5Y-71.7
X121.4Y-57.7
X122.3Y-57.7
X123.8Y-57.6
X124.7Y-57.6
X126.3Y-61.9
X127.2Y-61.9
X127.5Y-82.5
X130.0Y-82.5
X130.3Y-72.6
X130.9Y-78.9
X131.6Y-73.9
X132.2Y-77.7
X132.95Y-62.7
X133.28Y-80.81
X133.3Y-74.3
X133.85Y-62.7
X134.2Y-74.3
X134.35Y-76.6
X134.47Y-66.8
X134.65Y-58.8
X135.0Y-82.5
X137.5Y-60.8
X137.5Y-82.5
X137.55Y-56.8
X137.6Y-68.8
X142.5Y-57.5
X142.5Y-60.0
X142.5Y-62.5
X142.5Y-65.0
X142.5Y-67.5
X142.5Y-70.0
X145.9Y-82.9
X147.5Y-57.5
X147.5Y-60.0
X147.5Y-62.5
X147.5Y-65.0
X147.5Y-67.5
X147.5Y-70.0
X151.2Y-82.8
X153.7Y-64.8
X153.7Y-70.3
X153.7Y-71.3
X155.0Y-62.5
X155.0Y-67.5
X155.0Y-70.0
X155.5Y-71.3
X156.8Y-72.6
X157.5Y-82.5
X162.5Y-57.5
X162.5Y-62.5
X162.5Y-70.0
X162.5Y-72.5
X162.5Y-75.0
X162.5Y-82.5
X165.0Y-57.5
X165.0Y-62.5
X165.0Y-65.0
X165.0Y-70.0
X165.0Y-72.5
X165.0Y-75.0
X167.5Y-57.5
X167.5Y-60.0
X167.5Y-65.0
X167.5Y-67.5
X167.5Y-70.0
X167.5Y-72.5
X167.5Y-75.0
X167.5Y-82.5
X172.3Y-82.8
X172.5Y-65.0
X172.5Y-75.0
X172.5Y-77.5
X172.5Y-80.0
X173.3Y-82.8
X175.0Y-65.0
X175.0Y-67.5
T2
X128.4Y-74.6
X128.4Y-77.9
X130.9Y-76.1
T3
X107.65Y-73.73
X107.65Y-75.0
X107.65Y-76.27
T5
X120.75Y-73.2
X123.29Y-73.2
X125.83Y-73.2
X130.225Y-58.06
X130.225Y-60.6
X130.225Y-63.14
X130.225Y-65.68
X174.85Y-70.535
X174.85Y-73.075
T6
X118.345Y-61.16
X118.345Y-63.7
X118.345Y-66.24
T7
X138.9Y-76.45
X138.9Y-80.95
X140.9Y-76.45
X140.9Y-80.95
X142.9Y-76.45
X142.9Y-80.95
X145.7Y-76.45
X145.7Y-80.95
X147.7Y-76.45
X147.7Y-80.95
X149.7Y-76.45
X149.7Y-80.95
T8
X155.82Y-77.1
X158.36Y-77.1
X160.9Y-77.1
X163.44Y-77.1
X165.98Y-77.1
X168.52Y-77.1
T4
G00X100.012Y-64.978
M15
G01X100.012Y-67.277
M16
G05
G00X105.862Y-63.127
M15
G01X103.563Y-63.127
M16
G05
G00X103.463Y-69.127
M15
G01X105.962Y-69.127
M16
G05
T0
M30
