%TF.GenerationSoftware,KiCad,Pcbnew,(6.0.0)*%
%TF.CreationDate,2022-05-15T20:33:26+08:00*%
%TF.ProjectId,Solder-Reflow-Plate-ESP32,536f6c64-6572-42d5-9265-666c6f772d50,rev?*%
%TF.SameCoordinates,Original*%
%TF.FileFunction,Copper,L1,Top*%
%TF.FilePolarity,Positive*%
%FSLAX46Y46*%
G04 Gerber Fmt 4.6, Leading zero omitted, Abs format (unit mm)*
G04 Created by KiCad (PCBNEW (6.0.0)) date 2022-05-15 20:33:26*
%MOMM*%
%LPD*%
G01*
G04 APERTURE LIST*
G04 Aperture macros list*
%AMRoundRect*
0 Rectangle with rounded corners*
0 $1 Rounding radius*
0 $2 $3 $4 $5 $6 $7 $8 $9 X,Y pos of 4 corners*
0 Add a 4 corners polygon primitive as box body*
4,1,4,$2,$3,$4,$5,$6,$7,$8,$9,$2,$3,0*
0 Add four circle primitives for the rounded corners*
1,1,$1+$1,$2,$3*
1,1,$1+$1,$4,$5*
1,1,$1+$1,$6,$7*
1,1,$1+$1,$8,$9*
0 Add four rect primitives between the rounded corners*
20,1,$1+$1,$2,$3,$4,$5,0*
20,1,$1+$1,$4,$5,$6,$7,0*
20,1,$1+$1,$6,$7,$8,$9,0*
20,1,$1+$1,$8,$9,$2,$3,0*%
G04 Aperture macros list end*
%TA.AperFunction,SMDPad,CuDef*%
%ADD10RoundRect,0.250000X-0.450000X0.350000X-0.450000X-0.350000X0.450000X-0.350000X0.450000X0.350000X0*%
%TD*%
%TA.AperFunction,ComponentPad*%
%ADD11R,1.700000X1.700000*%
%TD*%
%TA.AperFunction,ComponentPad*%
%ADD12O,1.700000X1.700000*%
%TD*%
%TA.AperFunction,SMDPad,CuDef*%
%ADD13RoundRect,0.250000X0.475000X-0.337500X0.475000X0.337500X-0.475000X0.337500X-0.475000X-0.337500X0*%
%TD*%
%TA.AperFunction,SMDPad,CuDef*%
%ADD14RoundRect,0.237500X-0.237500X0.300000X-0.237500X-0.300000X0.237500X-0.300000X0.237500X0.300000X0*%
%TD*%
%TA.AperFunction,ComponentPad*%
%ADD15O,4.200000X1.800000*%
%TD*%
%TA.AperFunction,ComponentPad*%
%ADD16O,4.000000X1.800000*%
%TD*%
%TA.AperFunction,ComponentPad*%
%ADD17O,1.800000X4.000000*%
%TD*%
%TA.AperFunction,SMDPad,CuDef*%
%ADD18RoundRect,0.237500X0.287500X0.237500X-0.287500X0.237500X-0.287500X-0.237500X0.287500X-0.237500X0*%
%TD*%
%TA.AperFunction,SMDPad,CuDef*%
%ADD19R,1.200000X3.500000*%
%TD*%
%TA.AperFunction,SMDPad,CuDef*%
%ADD20R,0.700000X0.400000*%
%TD*%
%TA.AperFunction,SMDPad,CuDef*%
%ADD21RoundRect,0.250000X0.450000X-0.350000X0.450000X0.350000X-0.450000X0.350000X-0.450000X-0.350000X0*%
%TD*%
%TA.AperFunction,ComponentPad*%
%ADD22R,1.600000X0.900000*%
%TD*%
%TA.AperFunction,ComponentPad*%
%ADD23O,1.600000X0.900000*%
%TD*%
%TA.AperFunction,SMDPad,CuDef*%
%ADD24R,1.500000X2.000000*%
%TD*%
%TA.AperFunction,SMDPad,CuDef*%
%ADD25R,3.800000X2.000000*%
%TD*%
%TA.AperFunction,SMDPad,CuDef*%
%ADD26RoundRect,0.237500X0.250000X0.237500X-0.250000X0.237500X-0.250000X-0.237500X0.250000X-0.237500X0*%
%TD*%
%TA.AperFunction,ComponentPad*%
%ADD27R,2.000000X1.905000*%
%TD*%
%TA.AperFunction,ComponentPad*%
%ADD28O,2.000000X1.905000*%
%TD*%
%TA.AperFunction,ComponentPad*%
%ADD29C,2.000000*%
%TD*%
%TA.AperFunction,SMDPad,CuDef*%
%ADD30R,1.800000X1.200000*%
%TD*%
%TA.AperFunction,SMDPad,CuDef*%
%ADD31R,1.200000X1.800000*%
%TD*%
%TA.AperFunction,SMDPad,CuDef*%
%ADD32R,1.200000X1.400000*%
%TD*%
%TA.AperFunction,SMDPad,CuDef*%
%ADD33RoundRect,0.250000X-0.475000X0.337500X-0.475000X-0.337500X0.475000X-0.337500X0.475000X0.337500X0*%
%TD*%
%TA.AperFunction,SMDPad,CuDef*%
%ADD34RoundRect,0.237500X-0.250000X-0.237500X0.250000X-0.237500X0.250000X0.237500X-0.250000X0.237500X0*%
%TD*%
%TA.AperFunction,SMDPad,CuDef*%
%ADD35RoundRect,0.237500X0.237500X-0.250000X0.237500X0.250000X-0.237500X0.250000X-0.237500X-0.250000X0*%
%TD*%
%TA.AperFunction,SMDPad,CuDef*%
%ADD36RoundRect,0.237500X0.237500X-0.300000X0.237500X0.300000X-0.237500X0.300000X-0.237500X-0.300000X0*%
%TD*%
%TA.AperFunction,ComponentPad*%
%ADD37C,1.600000*%
%TD*%
%TA.AperFunction,SMDPad,CuDef*%
%ADD38RoundRect,0.250000X0.337500X0.475000X-0.337500X0.475000X-0.337500X-0.475000X0.337500X-0.475000X0*%
%TD*%
%TA.AperFunction,SMDPad,CuDef*%
%ADD39R,3.000000X1.600000*%
%TD*%
%TA.AperFunction,SMDPad,CuDef*%
%ADD40R,6.200000X5.800000*%
%TD*%
%TA.AperFunction,SMDPad,CuDef*%
%ADD41RoundRect,0.250000X-0.337500X-0.475000X0.337500X-0.475000X0.337500X0.475000X-0.337500X0.475000X0*%
%TD*%
%TA.AperFunction,SMDPad,CuDef*%
%ADD42R,1.150000X0.950000*%
%TD*%
%TA.AperFunction,SMDPad,CuDef*%
%ADD43RoundRect,0.237500X-0.237500X0.250000X-0.237500X-0.250000X0.237500X-0.250000X0.237500X0.250000X0*%
%TD*%
%TA.AperFunction,SMDPad,CuDef*%
%ADD44RoundRect,0.250000X-0.350000X-0.450000X0.350000X-0.450000X0.350000X0.450000X-0.350000X0.450000X0*%
%TD*%
%TA.AperFunction,ViaPad*%
%ADD45C,0.800000*%
%TD*%
%TA.AperFunction,ViaPad*%
%ADD46C,1.000000*%
%TD*%
%TA.AperFunction,Conductor*%
%ADD47C,1.000000*%
%TD*%
%TA.AperFunction,Conductor*%
%ADD48C,0.500000*%
%TD*%
%TA.AperFunction,Conductor*%
%ADD49C,0.250000*%
%TD*%
%TA.AperFunction,Conductor*%
%ADD50C,0.400000*%
%TD*%
%TA.AperFunction,Conductor*%
%ADD51C,1.400000*%
%TD*%
G04 APERTURE END LIST*
D10*
%TO.P,R8,1*%
%TO.N,TempData2*%
X174850000Y-79000000D03*
%TO.P,R8,2*%
%TO.N,+3V3*%
X174850000Y-81000000D03*
%TD*%
D11*
%TO.P,J3,1,Pin_1*%
%TO.N,TempData2*%
X174850000Y-73075000D03*
D12*
%TO.P,J3,2,Pin_2*%
%TO.N,GND*%
X174850000Y-70535000D03*
%TD*%
D13*
%TO.P,C12,1*%
%TO.N,TempData2*%
X172050000Y-72737500D03*
%TO.P,C12,2*%
%TO.N,GND*%
X172050000Y-70662500D03*
%TD*%
D11*
%TO.P,J2,1,Pin_1*%
%TO.N,unconnected-(J2-Pad1)*%
X120750000Y-73200000D03*
D12*
%TO.P,J2,2,Pin_2*%
%TO.N,Net-(C11-Pad1)*%
X123290000Y-73200000D03*
%TO.P,J2,3,Pin_3*%
%TO.N,+3V3*%
X125830000Y-73200000D03*
%TD*%
D14*
%TO.P,C2,1*%
%TO.N,CHIP_PU*%
X133300000Y-59737500D03*
%TO.P,C2,2*%
%TO.N,GND*%
X133300000Y-61462500D03*
%TD*%
%TO.P,C10,1*%
%TO.N,+3V3*%
X107650000Y-78537500D03*
%TO.P,C10,2*%
%TO.N,GND*%
X107650000Y-80262500D03*
%TD*%
D15*
%TO.P,DC1,1,1*%
%TO.N,Element*%
X104712500Y-69127500D03*
D16*
%TO.P,DC1,2,2*%
%TO.N,GND*%
X104712500Y-63127500D03*
D17*
%TO.P,DC1,3,3*%
X100012500Y-66127500D03*
%TD*%
D18*
%TO.P,D4,1,K*%
%TO.N,GND*%
X155475000Y-72600000D03*
%TO.P,D4,2,A*%
%TO.N,Net-(D4-Pad2)*%
X153725000Y-72600000D03*
%TD*%
D19*
%TO.P,C4,1*%
%TO.N,Element*%
X94688383Y-72416909D03*
%TO.P,C4,2*%
%TO.N,GND*%
X94688383Y-67076909D03*
%TD*%
D20*
%TO.P,D1,1,1*%
%TO.N,Element*%
X110300000Y-68450000D03*
%TO.P,D1,2,2*%
%TO.N,GND*%
X110300000Y-67750000D03*
%TD*%
D21*
%TO.P,R4,1*%
%TO.N,VCC*%
X113900000Y-64600000D03*
%TO.P,R4,2*%
%TO.N,VccDiv*%
X113900000Y-62600000D03*
%TD*%
D22*
%TO.P,U3,1,VDD*%
%TO.N,+3V3*%
X107650000Y-76270000D03*
D23*
%TO.P,U3,2,VOUT*%
%TO.N,TempData*%
X107650000Y-75000000D03*
%TO.P,U3,3,GND*%
%TO.N,GND*%
X107650000Y-73730000D03*
%TD*%
D24*
%TO.P,U2,1,GND*%
%TO.N,GND*%
X126488383Y-63696909D03*
%TO.P,U2,2,VO*%
%TO.N,Net-(C11-Pad1)*%
X124188383Y-63696909D03*
D25*
X124188383Y-69996909D03*
D24*
%TO.P,U2,3,VI*%
%TO.N,+5V*%
X121888383Y-63696909D03*
%TD*%
D26*
%TO.P,R3,1*%
%TO.N,GND*%
X144712500Y-82900000D03*
%TO.P,R3,2*%
%TO.N,DNSW*%
X142887500Y-82900000D03*
%TD*%
D27*
%TO.P,U1,1,VI*%
%TO.N,VCC*%
X118345000Y-66240000D03*
D28*
%TO.P,U1,2,GND*%
%TO.N,GND*%
X118345000Y-63700000D03*
%TO.P,U1,3,VO*%
%TO.N,+5V*%
X118345000Y-61160000D03*
%TD*%
D29*
%TO.P,CN1,1,1*%
%TO.N,+3V3*%
X155820000Y-77100000D03*
%TO.P,CN1,2,2*%
%TO.N,RXD*%
X158360000Y-77100000D03*
%TO.P,CN1,3,3*%
%TO.N,TXD*%
X160900000Y-77100000D03*
%TO.P,CN1,4,4*%
%TO.N,CHIP_PU*%
X163440000Y-77100000D03*
%TO.P,CN1,5,5*%
%TO.N,GPIO9*%
X165980000Y-77100000D03*
%TO.P,CN1,6,6*%
%TO.N,GND*%
X168520000Y-77100000D03*
%TD*%
D30*
%TO.P,L1,1,IO0*%
%TO.N,TempData2*%
X136088383Y-56796909D03*
%TO.P,L1,2,IO1*%
%TO.N,VccDiv*%
X136088383Y-58796909D03*
%TO.P,L1,3,EN*%
%TO.N,CHIP_PU*%
X136088383Y-60796909D03*
%TO.P,L1,4,IO2*%
%TO.N,SDAOLED*%
X136088383Y-62796909D03*
%TO.P,L1,5,IO3*%
%TO.N,SCKOLED*%
X136088383Y-64796909D03*
%TO.P,L1,6,IO4*%
%TO.N,TempData*%
X136088383Y-66796909D03*
%TO.P,L1,7,IO5*%
%TO.N,Gate*%
X136088383Y-68796909D03*
%TO.P,L1,8,VCC*%
%TO.N,+3V3*%
X136088383Y-70796909D03*
D31*
%TO.P,L1,9,NC*%
%TO.N,unconnected-(L1-Pad9)*%
X139088383Y-72296909D03*
%TO.P,L1,10,NC*%
%TO.N,unconnected-(L1-Pad10)*%
X141088383Y-72296909D03*
%TO.P,L1,11,NC*%
%TO.N,unconnected-(L1-Pad11)*%
X143088383Y-72296909D03*
%TO.P,L1,12,IO6*%
%TO.N,DNSW*%
X145088383Y-72296909D03*
%TO.P,L1,13,IO7*%
%TO.N,UPSW*%
X147088383Y-72296909D03*
%TO.P,L1,14,NC*%
%TO.N,unconnected-(L1-Pad14)*%
X149088383Y-72296909D03*
D30*
%TO.P,L1,15,GND*%
%TO.N,GND*%
X152088383Y-70796909D03*
%TO.P,L1,16,IO8*%
%TO.N,unconnected-(L1-Pad16)*%
X152088383Y-68796909D03*
%TO.P,L1,17,IO10*%
%TO.N,unconnected-(L1-Pad17)*%
X152088383Y-66796909D03*
%TO.P,L1,18,IO9*%
%TO.N,GPIO9*%
X152088383Y-64796909D03*
%TO.P,L1,19,IO18*%
%TO.N,unconnected-(L1-Pad19)*%
X152088383Y-62796909D03*
%TO.P,L1,20,IO19*%
%TO.N,unconnected-(L1-Pad20)*%
X152088383Y-60796909D03*
%TO.P,L1,21,RX*%
%TO.N,RXD*%
X152088383Y-58796909D03*
%TO.P,L1,22,TX*%
%TO.N,TXD*%
X152088383Y-56796909D03*
%TD*%
D32*
%TO.P,D3,1,A*%
%TO.N,Element*%
X117050000Y-78510000D03*
%TO.P,D3,2,K*%
X113650000Y-78510000D03*
%TD*%
D33*
%TO.P,C1,1*%
%TO.N,+3V3*%
X133680000Y-70812500D03*
%TO.P,C1,2*%
%TO.N,GND*%
X133680000Y-72887500D03*
%TD*%
D34*
%TO.P,R7,1*%
%TO.N,Net-(D4-Pad2)*%
X153787500Y-74400000D03*
%TO.P,R7,2*%
%TO.N,+3V3*%
X155612500Y-74400000D03*
%TD*%
D35*
%TO.P,R1,1*%
%TO.N,CHIP_PU*%
X133300000Y-57912500D03*
%TO.P,R1,2*%
%TO.N,+3V3*%
X133300000Y-56087500D03*
%TD*%
D36*
%TO.P,C5,1*%
%TO.N,Element*%
X112000000Y-69062500D03*
%TO.P,C5,2*%
%TO.N,GND*%
X112000000Y-67337500D03*
%TD*%
D37*
%TO.P,SW1,1,1*%
%TO.N,+3V3*%
X145700000Y-80950000D03*
%TO.P,SW1,2,2*%
X147700000Y-80950000D03*
%TO.P,SW1,3,3*%
%TO.N,UPSW*%
X149700000Y-80950000D03*
%TO.P,SW1,4,4*%
%TO.N,+3V3*%
X145700000Y-76450000D03*
%TO.P,SW1,5,5*%
X147700000Y-76450000D03*
%TO.P,SW1,6,6*%
%TO.N,UPSW*%
X149700000Y-76450000D03*
%TD*%
%TO.P,SW2,1,1*%
%TO.N,+3V3*%
X138900000Y-80950000D03*
%TO.P,SW2,2,2*%
X140900000Y-80950000D03*
%TO.P,SW2,3,3*%
%TO.N,DNSW*%
X142900000Y-80950000D03*
%TO.P,SW2,4,4*%
%TO.N,+3V3*%
X138900000Y-76450000D03*
%TO.P,SW2,5,5*%
X140900000Y-76450000D03*
%TO.P,SW2,6,6*%
%TO.N,DNSW*%
X142900000Y-76450000D03*
%TD*%
D38*
%TO.P,C6,1*%
%TO.N,VCC*%
X118337500Y-70200000D03*
%TO.P,C6,2*%
%TO.N,GND*%
X116262500Y-70200000D03*
%TD*%
D39*
%TO.P,Q1,1,G*%
%TO.N,Gate*%
X128400000Y-80800000D03*
D40*
%TO.P,Q1,2,D*%
%TO.N,Element*%
X121560000Y-78510000D03*
D39*
%TO.P,Q1,3,S*%
%TO.N,GND*%
X128400000Y-76220000D03*
%TD*%
D13*
%TO.P,C8,1*%
%TO.N,+5V*%
X121888383Y-61137500D03*
%TO.P,C8,2*%
%TO.N,GND*%
X121888383Y-59062500D03*
%TD*%
D41*
%TO.P,C9,1*%
%TO.N,Element*%
X113642500Y-76000000D03*
%TO.P,C9,2*%
X115717500Y-76000000D03*
%TD*%
D13*
%TO.P,C11,1*%
%TO.N,Net-(C11-Pad1)*%
X124188383Y-60984409D03*
%TO.P,C11,2*%
%TO.N,GND*%
X124188383Y-58909409D03*
%TD*%
D35*
%TO.P,R2,1*%
%TO.N,GND*%
X152350000Y-82782500D03*
%TO.P,R2,2*%
%TO.N,UPSW*%
X152350000Y-80957500D03*
%TD*%
D42*
%TO.P,D2,1,C*%
%TO.N,VCC*%
X113900000Y-66310000D03*
%TO.P,D2,2,A*%
%TO.N,Element*%
X113900000Y-69690000D03*
%TD*%
D14*
%TO.P,C3,1*%
%TO.N,+3V3*%
X131570000Y-70837500D03*
%TO.P,C3,2*%
%TO.N,GND*%
X131570000Y-72562500D03*
%TD*%
D43*
%TO.P,R6,1*%
%TO.N,GND*%
X132130000Y-78977500D03*
%TO.P,R6,2*%
%TO.N,Gate*%
X132130000Y-80802500D03*
%TD*%
D11*
%TO.P,J1,1,Pin_1*%
%TO.N,SDAOLED*%
X130225000Y-58060000D03*
D12*
%TO.P,J1,2,Pin_2*%
%TO.N,SCKOLED*%
X130225000Y-60600000D03*
%TO.P,J1,3,Pin_3*%
%TO.N,+3V3*%
X130225000Y-63140000D03*
%TO.P,J1,4,Pin_4*%
%TO.N,GND*%
X130225000Y-65680000D03*
%TD*%
D44*
%TO.P,R5,1*%
%TO.N,GND*%
X111900000Y-60500000D03*
%TO.P,R5,2*%
%TO.N,VccDiv*%
X113900000Y-60500000D03*
%TD*%
D38*
%TO.P,C7,1*%
%TO.N,+5V*%
X118337500Y-57000000D03*
%TO.P,C7,2*%
%TO.N,GND*%
X116262500Y-57000000D03*
%TD*%
D45*
%TO.N,GND*%
X95000000Y-80010000D03*
X100000000Y-79980000D03*
X94990000Y-76970000D03*
X100000000Y-76930000D03*
X105000000Y-76910000D03*
X110000000Y-76900000D03*
%TO.N,+3V3*%
X134350000Y-76600000D03*
X108850000Y-78900000D03*
%TO.N,TempData2*%
X137550000Y-56800000D03*
%TO.N,GND*%
X172500000Y-80000000D03*
X130900000Y-78900000D03*
X162500000Y-82500000D03*
X162500000Y-57500000D03*
X105000000Y-72500000D03*
X95000000Y-82500000D03*
X135000000Y-82500000D03*
D46*
X128400000Y-77900000D03*
D45*
X147500000Y-60000000D03*
X167500000Y-57500000D03*
X115400000Y-71700000D03*
X130000000Y-82500000D03*
X105000000Y-75000000D03*
X165000000Y-57500000D03*
X142500000Y-62500000D03*
X127200000Y-61900000D03*
X155000000Y-62500000D03*
X162500000Y-72500000D03*
X162500000Y-70000000D03*
X172300000Y-82800000D03*
X172500000Y-65000000D03*
X112000000Y-66000000D03*
X167500000Y-75000000D03*
X114900000Y-57500000D03*
X105000000Y-82500000D03*
X172500000Y-77500000D03*
X172500000Y-75000000D03*
X165000000Y-70000000D03*
X114900000Y-56600000D03*
X100000000Y-62500000D03*
X175000000Y-65000000D03*
X132950000Y-62700000D03*
X100000000Y-57500000D03*
X110300000Y-66800000D03*
X100000000Y-75000000D03*
X155500000Y-71300000D03*
X122300000Y-57700000D03*
X165000000Y-65000000D03*
X142500000Y-67500000D03*
X165000000Y-62500000D03*
X110000000Y-82500000D03*
X142500000Y-57500000D03*
X130300000Y-72600000D03*
X153700000Y-71300000D03*
X156800000Y-72600000D03*
X100000000Y-82500000D03*
X105000000Y-57500000D03*
X147500000Y-62500000D03*
X147500000Y-70000000D03*
D46*
X130900000Y-76100000D03*
D45*
X167500000Y-67500000D03*
X123800000Y-57600000D03*
X116500000Y-71700000D03*
X142500000Y-65000000D03*
X162500000Y-75000000D03*
X100000000Y-60000000D03*
D46*
X128400000Y-74600000D03*
D45*
X105000000Y-60000000D03*
X155000000Y-67500000D03*
X147500000Y-67500000D03*
X142500000Y-60000000D03*
X155000000Y-70000000D03*
X132200000Y-77700000D03*
X167500000Y-70000000D03*
X142500000Y-70000000D03*
X157500000Y-82500000D03*
X147500000Y-65000000D03*
X147500000Y-57500000D03*
X167500000Y-65000000D03*
X110400000Y-60500000D03*
X111900000Y-59000000D03*
X151200000Y-82800000D03*
X121400000Y-57700000D03*
X133850000Y-62700000D03*
X93400000Y-65700000D03*
X167500000Y-82500000D03*
X165000000Y-75000000D03*
X173300000Y-82800000D03*
X162500000Y-62500000D03*
X95000000Y-75000000D03*
X165000000Y-72500000D03*
X124700000Y-57600000D03*
X167500000Y-72500000D03*
X175000000Y-67500000D03*
X111000000Y-66000000D03*
X153700000Y-70300000D03*
X167500000Y-60000000D03*
X110000000Y-80000000D03*
X105000000Y-80000000D03*
X131600000Y-73900000D03*
X110000000Y-72500000D03*
X145900000Y-82900000D03*
X127500000Y-82500000D03*
X126300000Y-61900000D03*
X96100000Y-65700000D03*
X133300000Y-74300000D03*
X134200000Y-74300000D03*
X137500000Y-82500000D03*
%TO.N,CHIP_PU*%
X137500000Y-60800000D03*
%TO.N,GPIO9*%
X153700000Y-64800000D03*
%TO.N,Gate*%
X133280000Y-80810000D03*
X137600000Y-68800000D03*
%TO.N,VccDiv*%
X134650000Y-58800000D03*
X113900000Y-59300000D03*
%TO.N,TempData*%
X134470000Y-66800000D03*
%TD*%
D47*
%TO.N,+3V3*%
X134781617Y-76168383D02*
X134350000Y-76600000D01*
X135618383Y-76168383D02*
X134781617Y-76168383D01*
D48*
X108487500Y-78537500D02*
X108850000Y-78900000D01*
X107650000Y-78537500D02*
X108487500Y-78537500D01*
D47*
X135618383Y-76168383D02*
X135618383Y-76488383D01*
X135618383Y-75388383D02*
X135618383Y-76168383D01*
D49*
%TO.N,TempData2*%
X172387500Y-73075000D02*
X174850000Y-73075000D01*
X172050000Y-72737500D02*
X172387500Y-73075000D01*
D48*
%TO.N,+3V3*%
X107650000Y-78537500D02*
X107650000Y-76270000D01*
D49*
%TO.N,TempData2*%
X137546909Y-56796909D02*
X137550000Y-56800000D01*
X136088383Y-56796909D02*
X137546909Y-56796909D01*
X174850000Y-79000000D02*
X174850000Y-73075000D01*
D50*
%TO.N,+3V3*%
X157000000Y-81000000D02*
X174850000Y-81000000D01*
%TO.N,VccDiv*%
X134653091Y-58796909D02*
X136088383Y-58796909D01*
X134650000Y-58800000D02*
X134653091Y-58796909D01*
D49*
%TO.N,+3V3*%
X130225000Y-63555000D02*
X130225000Y-63140000D01*
X131570000Y-64900000D02*
X130225000Y-63555000D01*
D47*
X133680000Y-70812500D02*
X136072792Y-70812500D01*
D50*
X155612500Y-76892500D02*
X155820000Y-77100000D01*
D49*
X131570000Y-70837500D02*
X131570000Y-64900000D01*
D50*
X140900000Y-80950000D02*
X138900000Y-80950000D01*
D47*
X133655000Y-70837500D02*
X133680000Y-70812500D01*
X125830000Y-73200000D02*
X128192500Y-70837500D01*
D49*
X128350000Y-57000000D02*
X129262500Y-56087500D01*
D50*
X147700000Y-76450000D02*
X145700000Y-76450000D01*
X155612500Y-74400000D02*
X155612500Y-76892500D01*
D47*
X138400000Y-78800000D02*
X139800000Y-78800000D01*
X136072792Y-70812500D02*
X136088383Y-70796909D01*
X138900000Y-80950000D02*
X138900000Y-79700000D01*
D50*
X155820000Y-79820000D02*
X155820000Y-77100000D01*
X140900000Y-76450000D02*
X138900000Y-76450000D01*
D47*
X136088383Y-76488383D02*
X138400000Y-78800000D01*
X145700000Y-76450000D02*
X145700000Y-77700000D01*
D49*
X129262500Y-56087500D02*
X133300000Y-56087500D01*
D47*
X138900000Y-79700000D02*
X139800000Y-78800000D01*
D50*
X157000000Y-81000000D02*
X155820000Y-79820000D01*
D47*
X131570000Y-70837500D02*
X133655000Y-70837500D01*
D49*
X130225000Y-63775718D02*
X130225000Y-63140000D01*
D47*
X154120000Y-78800000D02*
X155820000Y-77100000D01*
X146800000Y-78800000D02*
X154120000Y-78800000D01*
X139800000Y-78800000D02*
X144900000Y-78800000D01*
X138900000Y-76450000D02*
X137150000Y-76450000D01*
D50*
X147700000Y-80950000D02*
X145700000Y-80950000D01*
D47*
X145700000Y-80950000D02*
X145700000Y-79600000D01*
X144900000Y-78800000D02*
X146800000Y-78800000D01*
X137150000Y-76450000D02*
X136088383Y-75388383D01*
D49*
X128890000Y-63140000D02*
X128350000Y-62600000D01*
D47*
X145700000Y-77700000D02*
X146800000Y-78800000D01*
X145700000Y-79600000D02*
X144900000Y-78800000D01*
X128192500Y-70837500D02*
X131570000Y-70837500D01*
D49*
X130225000Y-63140000D02*
X128890000Y-63140000D01*
D47*
X136088383Y-70796909D02*
X136088383Y-75388383D01*
D49*
X128350000Y-62600000D02*
X128350000Y-57000000D01*
D50*
%TO.N,GND*%
X132950000Y-62700000D02*
X132950000Y-61812500D01*
D47*
X130900000Y-76100000D02*
X128520000Y-76100000D01*
D50*
X131600000Y-73900000D02*
X131600000Y-72592500D01*
D47*
X130900000Y-76100000D02*
X129900000Y-76100000D01*
D50*
X116500000Y-70437500D02*
X116262500Y-70200000D01*
X111000000Y-66000000D02*
X111000000Y-66337500D01*
X126300000Y-63508526D02*
X126488383Y-63696909D01*
X152591474Y-71300000D02*
X152088383Y-70796909D01*
X133850000Y-62700000D02*
X133850000Y-62012500D01*
X124700000Y-58397792D02*
X124188383Y-58909409D01*
X155500000Y-71300000D02*
X155500000Y-72575000D01*
X115862500Y-56600000D02*
X116262500Y-57000000D01*
X121400000Y-58574117D02*
X121888383Y-59062500D01*
X115400000Y-71700000D02*
X115400000Y-71062500D01*
X111900000Y-59000000D02*
X111900000Y-60500000D01*
X134200000Y-74300000D02*
X134200000Y-73407500D01*
D47*
X129900000Y-76100000D02*
X128400000Y-74600000D01*
X128400000Y-74600000D02*
X128400000Y-76220000D01*
D50*
X130300000Y-72600000D02*
X131532500Y-72600000D01*
X93400000Y-65788526D02*
X94688383Y-67076909D01*
X116500000Y-71700000D02*
X116500000Y-70437500D01*
X114900000Y-56600000D02*
X115862500Y-56600000D01*
X121400000Y-57700000D02*
X121400000Y-58574117D01*
X134200000Y-73407500D02*
X133680000Y-72887500D01*
X112000000Y-66000000D02*
X112000000Y-67337500D01*
X132950000Y-61812500D02*
X133300000Y-61462500D01*
X151200000Y-82800000D02*
X152332500Y-82800000D01*
D47*
X130200000Y-76100000D02*
X128400000Y-77900000D01*
D50*
X127200000Y-61900000D02*
X127200000Y-62985292D01*
X111000000Y-66337500D02*
X112000000Y-67337500D01*
X96100000Y-65700000D02*
X96065292Y-65700000D01*
D47*
X128520000Y-76100000D02*
X128400000Y-76220000D01*
D50*
X153700000Y-70300000D02*
X152585292Y-70300000D01*
X115400000Y-71062500D02*
X116262500Y-70200000D01*
X93400000Y-65700000D02*
X93400000Y-65788526D01*
X133300000Y-73267500D02*
X133680000Y-72887500D01*
D47*
X128400000Y-77900000D02*
X128400000Y-77600000D01*
D50*
X145900000Y-82900000D02*
X144712500Y-82900000D01*
X114900000Y-57500000D02*
X115762500Y-57500000D01*
X122300000Y-57700000D02*
X122300000Y-58650883D01*
X152332500Y-82800000D02*
X152350000Y-82782500D01*
D47*
X128400000Y-77900000D02*
X128400000Y-76220000D01*
D50*
X155500000Y-72575000D02*
X155475000Y-72600000D01*
X127200000Y-62985292D02*
X126488383Y-63696909D01*
X133850000Y-62012500D02*
X133300000Y-61462500D01*
X131532500Y-72600000D02*
X131570000Y-72562500D01*
X110300000Y-66800000D02*
X110300000Y-67750000D01*
X96065292Y-65700000D02*
X94688383Y-67076909D01*
X123800000Y-58521026D02*
X124188383Y-58909409D01*
D47*
X128400000Y-77600000D02*
X129900000Y-76100000D01*
D50*
X122300000Y-58650883D02*
X121888383Y-59062500D01*
X131600000Y-72592500D02*
X131570000Y-72562500D01*
X133300000Y-74300000D02*
X133300000Y-73267500D01*
X152585292Y-70300000D02*
X152088383Y-70796909D01*
X153700000Y-71300000D02*
X152591474Y-71300000D01*
X124700000Y-57600000D02*
X124700000Y-58397792D01*
X126300000Y-61900000D02*
X126300000Y-63508526D01*
X110400000Y-60500000D02*
X111900000Y-60500000D01*
X123800000Y-57600000D02*
X123800000Y-58521026D01*
D47*
X130900000Y-76100000D02*
X130200000Y-76100000D01*
D50*
X156800000Y-72600000D02*
X155475000Y-72600000D01*
X115762500Y-57500000D02*
X116262500Y-57000000D01*
D49*
%TO.N,CHIP_PU*%
X134359409Y-60796909D02*
X134503091Y-60796909D01*
X134503091Y-60796909D02*
X136088383Y-60796909D01*
X133300000Y-59737500D02*
X134359409Y-60796909D01*
D50*
X137500000Y-60800000D02*
X136091474Y-60800000D01*
D49*
X133300000Y-59737500D02*
X133300000Y-57912500D01*
D50*
X136091474Y-60800000D02*
X136088383Y-60796909D01*
D51*
%TO.N,Element*%
X119100000Y-80970000D02*
X121560000Y-78510000D01*
X102472500Y-69127500D02*
X99183091Y-72416909D01*
X98800000Y-88400000D02*
X98800000Y-138400000D01*
X113650000Y-88150000D02*
X113400000Y-88400000D01*
X117500000Y-90200000D02*
X119200000Y-90200000D01*
X160000000Y-138400000D02*
X161700000Y-138400000D01*
X100500000Y-138400000D02*
X100500000Y-90200000D01*
X102200000Y-90200000D02*
X102200000Y-138400000D01*
X166769775Y-90200000D02*
X166800000Y-90169775D01*
X131100000Y-90200000D02*
X132800000Y-90200000D01*
X137900000Y-138400000D02*
X137900000Y-90200000D01*
X107300000Y-90200000D02*
X109000000Y-90200000D01*
X149800000Y-90200000D02*
X149800000Y-138400000D01*
X141300000Y-90200000D02*
X143000000Y-90200000D01*
X120900000Y-90200000D02*
X122600000Y-90200000D01*
X166800000Y-138369775D02*
X168422179Y-138369775D01*
X151500000Y-138400000D02*
X151500000Y-90200000D01*
X119200000Y-90200000D02*
X119200000Y-138400000D01*
X134500000Y-90200000D02*
X136200000Y-90200000D01*
X114100000Y-138400000D02*
X114100000Y-90200000D01*
X143000000Y-90200000D02*
X143000000Y-138400000D01*
X102200000Y-138400000D02*
X103900000Y-138400000D01*
X165100000Y-90200000D02*
X166769775Y-90200000D01*
X117050000Y-78510000D02*
X121560000Y-78510000D01*
X110700000Y-90200000D02*
X112400000Y-90200000D01*
X109000000Y-90200000D02*
X109000000Y-138400000D01*
X153200000Y-90200000D02*
X153200000Y-138400000D01*
X143000000Y-138400000D02*
X144700000Y-138400000D01*
X134500000Y-138400000D02*
X134500000Y-90200000D01*
X103900000Y-90200000D02*
X105600000Y-90200000D01*
X103900000Y-138400000D02*
X103900000Y-90200000D01*
X112400000Y-138400000D02*
X114100000Y-138400000D01*
X117050000Y-76410000D02*
X117050000Y-78510000D01*
X161700000Y-138400000D02*
X161700000Y-90200000D01*
X154900000Y-90200000D02*
X156600000Y-90200000D01*
X117500000Y-138400000D02*
X117500000Y-90200000D01*
X156600000Y-90200000D02*
X156600000Y-138400000D01*
X124300000Y-138400000D02*
X124300000Y-90200000D01*
X104712500Y-69127500D02*
X111935000Y-69127500D01*
X99183091Y-72416909D02*
X94688383Y-72416909D01*
X166800000Y-90169775D02*
X166800000Y-138369775D01*
X100500000Y-90200000D02*
X102200000Y-90200000D01*
X107300000Y-138400000D02*
X107300000Y-90200000D01*
X126000000Y-90200000D02*
X126000000Y-138400000D01*
X137900000Y-90200000D02*
X139600000Y-90200000D01*
X141300000Y-138400000D02*
X141300000Y-90200000D01*
X151500000Y-90200000D02*
X153200000Y-90200000D01*
X127700000Y-138400000D02*
X127700000Y-90200000D01*
X126000000Y-138400000D02*
X127700000Y-138400000D01*
X168200000Y-88400000D02*
X119100000Y-88400000D01*
X110700000Y-138400000D02*
X110700000Y-90200000D01*
X109000000Y-138400000D02*
X110700000Y-138400000D01*
X113642500Y-70835000D02*
X112497500Y-69690000D01*
X156600000Y-138400000D02*
X158300000Y-138400000D01*
X119200000Y-138400000D02*
X120900000Y-138400000D01*
X168500000Y-88700000D02*
X168300000Y-88500000D01*
X115800000Y-138400000D02*
X117500000Y-138400000D01*
X153200000Y-138400000D02*
X154900000Y-138400000D01*
X160000000Y-90200000D02*
X160000000Y-138400000D01*
X113642500Y-76000000D02*
X113642500Y-70835000D01*
X113400000Y-88400000D02*
X98800000Y-88400000D01*
X105600000Y-90200000D02*
X105600000Y-138400000D01*
X112497500Y-69690000D02*
X111935000Y-69127500D01*
X129400000Y-90200000D02*
X129400000Y-138400000D01*
X112400000Y-90200000D02*
X112400000Y-138400000D01*
X116640000Y-76000000D02*
X117050000Y-76410000D01*
X127700000Y-90200000D02*
X129400000Y-90200000D01*
X146400000Y-90200000D02*
X146400000Y-138400000D01*
X105600000Y-138400000D02*
X107300000Y-138400000D01*
X131100000Y-138400000D02*
X131100000Y-90200000D01*
X163400000Y-90200000D02*
X163400000Y-138400000D01*
X165100000Y-138400000D02*
X165100000Y-90200000D01*
X132800000Y-90200000D02*
X132800000Y-138400000D01*
X122600000Y-138400000D02*
X124300000Y-138400000D01*
X113900000Y-69690000D02*
X112497500Y-69690000D01*
X168500000Y-138291954D02*
X168500000Y-88700000D01*
X129400000Y-138400000D02*
X131100000Y-138400000D01*
X139600000Y-90200000D02*
X139600000Y-138400000D01*
X158300000Y-138400000D02*
X158300000Y-90200000D01*
X144700000Y-90200000D02*
X146400000Y-90200000D01*
X104712500Y-69127500D02*
X102472500Y-69127500D01*
X148100000Y-90200000D02*
X149800000Y-90200000D01*
X136200000Y-90200000D02*
X136200000Y-138400000D01*
X115717500Y-76000000D02*
X116640000Y-76000000D01*
X148100000Y-138400000D02*
X148100000Y-90200000D01*
X146400000Y-138400000D02*
X148100000Y-138400000D01*
X163400000Y-138400000D02*
X165100000Y-138400000D01*
X144700000Y-138400000D02*
X144700000Y-90200000D01*
X149800000Y-138400000D02*
X151500000Y-138400000D01*
X115800000Y-90200000D02*
X115800000Y-138400000D01*
X113650000Y-78510000D02*
X113650000Y-76007500D01*
X119100000Y-88100000D02*
X119100000Y-80970000D01*
X98800000Y-138400000D02*
X100500000Y-138400000D01*
X154900000Y-138400000D02*
X154900000Y-90200000D01*
X136200000Y-138400000D02*
X137900000Y-138400000D01*
X120900000Y-138400000D02*
X120900000Y-90200000D01*
X124300000Y-90200000D02*
X126000000Y-90200000D01*
X122600000Y-90200000D02*
X122600000Y-138400000D01*
X161700000Y-90200000D02*
X163400000Y-90200000D01*
X139600000Y-138400000D02*
X141300000Y-138400000D01*
X114100000Y-90200000D02*
X115800000Y-90200000D01*
X132800000Y-138400000D02*
X134500000Y-138400000D01*
X113650000Y-76007500D02*
X113642500Y-76000000D01*
X158300000Y-90200000D02*
X160000000Y-90200000D01*
X168422179Y-138369775D02*
X168500000Y-138291954D01*
X113650000Y-78510000D02*
X113650000Y-88150000D01*
D47*
%TO.N,VCC*%
X118345000Y-70192500D02*
X118337500Y-70200000D01*
X118345000Y-66240000D02*
X113970000Y-66240000D01*
X118345000Y-66240000D02*
X118345000Y-70192500D01*
X113900000Y-66310000D02*
X113900000Y-64600000D01*
X113970000Y-66240000D02*
X113900000Y-66310000D01*
%TO.N,+5V*%
X118345000Y-61160000D02*
X121865883Y-61160000D01*
X118345000Y-57007500D02*
X118337500Y-57000000D01*
X121888383Y-61137500D02*
X121888383Y-63696909D01*
X121865883Y-61160000D02*
X121888383Y-61137500D01*
X118345000Y-61160000D02*
X118345000Y-57007500D01*
D50*
%TO.N,RXD*%
X157656909Y-58796909D02*
X158360000Y-59500000D01*
X152088383Y-58796909D02*
X157656909Y-58796909D01*
X158360000Y-59500000D02*
X158360000Y-77100000D01*
%TO.N,TXD*%
X158736909Y-56796909D02*
X160900000Y-58960000D01*
X152088383Y-56796909D02*
X158736909Y-56796909D01*
X160900000Y-58960000D02*
X160900000Y-77100000D01*
%TO.N,GPIO9*%
X153700000Y-64800000D02*
X152091474Y-64800000D01*
X152091474Y-64800000D02*
X152088383Y-64796909D01*
%TO.N,Net-(D4-Pad2)*%
X153725000Y-72600000D02*
X153725000Y-74337500D01*
X153725000Y-74337500D02*
X153787500Y-74400000D01*
D49*
%TO.N,SDAOLED*%
X133950000Y-64100000D02*
X132750000Y-64100000D01*
X132150000Y-59100000D02*
X131110000Y-58060000D01*
X136088383Y-62796909D02*
X135253091Y-62796909D01*
X131110000Y-58060000D02*
X130225000Y-58060000D01*
X132750000Y-64100000D02*
X132150000Y-63500000D01*
X135253091Y-62796909D02*
X133950000Y-64100000D01*
X132150000Y-63500000D02*
X132150000Y-59100000D01*
%TO.N,SCKOLED*%
X131700480Y-64200000D02*
X131700480Y-62075480D01*
X131700480Y-64200000D02*
X132297389Y-64796909D01*
X132297389Y-64796909D02*
X136088383Y-64796909D01*
X131700480Y-62075480D02*
X130225000Y-60600000D01*
D47*
%TO.N,Net-(C11-Pad1)*%
X124188383Y-63696909D02*
X124188383Y-60984409D01*
X123290000Y-70895292D02*
X124188383Y-69996909D01*
X123290000Y-73200000D02*
X123290000Y-70895292D01*
X124188383Y-69996909D02*
X124188383Y-63696909D01*
D50*
%TO.N,UPSW*%
X152350000Y-80957500D02*
X149707500Y-80957500D01*
D49*
X147088383Y-72296909D02*
X147088383Y-73838383D01*
D50*
X149707500Y-80957500D02*
X149700000Y-80950000D01*
D49*
X147088383Y-73838383D02*
X149700000Y-76450000D01*
D50*
%TO.N,DNSW*%
X142887500Y-80962500D02*
X142900000Y-80950000D01*
D49*
X142900000Y-76450000D02*
X145100000Y-74250000D01*
X145100000Y-74000000D02*
X145088383Y-73988383D01*
D50*
X142887500Y-82900000D02*
X142887500Y-80962500D01*
D49*
X145088383Y-73988383D02*
X145088383Y-72296909D01*
X145100000Y-74250000D02*
X145100000Y-74000000D01*
D50*
%TO.N,Gate*%
X128400000Y-80800000D02*
X132127500Y-80800000D01*
X132137500Y-80810000D02*
X132130000Y-80802500D01*
X133280000Y-80810000D02*
X132137500Y-80810000D01*
X137600000Y-68800000D02*
X136091474Y-68800000D01*
X136091474Y-68800000D02*
X136088383Y-68796909D01*
X132127500Y-80800000D02*
X132130000Y-80802500D01*
%TO.N,VccDiv*%
X113900000Y-62600000D02*
X113900000Y-60500000D01*
%TO.N,TempData*%
X134470000Y-66800000D02*
X136085292Y-66800000D01*
%TO.N,VccDiv*%
X113900000Y-59300000D02*
X113900000Y-60500000D01*
%TO.N,TempData*%
X136085292Y-66800000D02*
X136088383Y-66796909D01*
%TD*%
%TA.AperFunction,Conductor*%
%TO.N,GND*%
G36*
X128710026Y-55528002D02*
G01*
X128756519Y-55581658D01*
X128766623Y-55651932D01*
X128737129Y-55716512D01*
X128731000Y-55723095D01*
X127957747Y-56496348D01*
X127949461Y-56503888D01*
X127942982Y-56508000D01*
X127937557Y-56513777D01*
X127896357Y-56557651D01*
X127893602Y-56560493D01*
X127873865Y-56580230D01*
X127871385Y-56583427D01*
X127863682Y-56592447D01*
X127833414Y-56624679D01*
X127829595Y-56631625D01*
X127829593Y-56631628D01*
X127823652Y-56642434D01*
X127812801Y-56658953D01*
X127800386Y-56674959D01*
X127797241Y-56682228D01*
X127797238Y-56682232D01*
X127782826Y-56715537D01*
X127777609Y-56726187D01*
X127756305Y-56764940D01*
X127754334Y-56772615D01*
X127754334Y-56772616D01*
X127751267Y-56784562D01*
X127744863Y-56803266D01*
X127742294Y-56809204D01*
X127736819Y-56821855D01*
X127735580Y-56829678D01*
X127735577Y-56829688D01*
X127729901Y-56865524D01*
X127727495Y-56877144D01*
X127716500Y-56919970D01*
X127716500Y-56940224D01*
X127714949Y-56959934D01*
X127711780Y-56979943D01*
X127712526Y-56987835D01*
X127715941Y-57023961D01*
X127716500Y-57035819D01*
X127716500Y-62168462D01*
X127696498Y-62236583D01*
X127642842Y-62283076D01*
X127572568Y-62293180D01*
X127514935Y-62269289D01*
X127492027Y-62252120D01*
X127476437Y-62243585D01*
X127355989Y-62198431D01*
X127340734Y-62194804D01*
X127289869Y-62189278D01*
X127283055Y-62188909D01*
X126760498Y-62188909D01*
X126745259Y-62193384D01*
X126744054Y-62194774D01*
X126742383Y-62202457D01*
X126742383Y-63424794D01*
X126746858Y-63440033D01*
X126748248Y-63441238D01*
X126755931Y-63442909D01*
X127728267Y-63442909D01*
X127743506Y-63438434D01*
X127744711Y-63437044D01*
X127746382Y-63429361D01*
X127746382Y-63196476D01*
X127766384Y-63128355D01*
X127820040Y-63081862D01*
X127890314Y-63071758D01*
X127954894Y-63101252D01*
X127961477Y-63107381D01*
X128386343Y-63532247D01*
X128393887Y-63540537D01*
X128398000Y-63547018D01*
X128403777Y-63552443D01*
X128447667Y-63593658D01*
X128450509Y-63596413D01*
X128470230Y-63616134D01*
X128473425Y-63618612D01*
X128482447Y-63626318D01*
X128514679Y-63656586D01*
X128521628Y-63660406D01*
X128532432Y-63666346D01*
X128548956Y-63677199D01*
X128564959Y-63689613D01*
X128605543Y-63707176D01*
X128616173Y-63712383D01*
X128654940Y-63733695D01*
X128662617Y-63735666D01*
X128662622Y-63735668D01*
X128674558Y-63738732D01*
X128693266Y-63745137D01*
X128711855Y-63753181D01*
X128719683Y-63754421D01*
X128719690Y-63754423D01*
X128755524Y-63760099D01*
X128767144Y-63762505D01*
X128802246Y-63771517D01*
X128809970Y-63773500D01*
X128830224Y-63773500D01*
X128849934Y-63775051D01*
X128869943Y-63778220D01*
X128877835Y-63777474D01*
X128913961Y-63774059D01*
X128925819Y-63773500D01*
X128949274Y-63773500D01*
X129017395Y-63793502D01*
X129056707Y-63833665D01*
X129124987Y-63945088D01*
X129271250Y-64113938D01*
X129443126Y-64256632D01*
X129463905Y-64268774D01*
X129516955Y-64299774D01*
X129565679Y-64351412D01*
X129578750Y-64421195D01*
X129552019Y-64486967D01*
X129511562Y-64520327D01*
X129503457Y-64524546D01*
X129494738Y-64530036D01*
X129324433Y-64657905D01*
X129316726Y-64664748D01*
X129169590Y-64818717D01*
X129163104Y-64826727D01*
X129043098Y-65002649D01*
X129038000Y-65011623D01*
X128948338Y-65204783D01*
X128944775Y-65214470D01*
X128889389Y-65414183D01*
X128890912Y-65422607D01*
X128903292Y-65426000D01*
X130353000Y-65426000D01*
X130421121Y-65446002D01*
X130467614Y-65499658D01*
X130479000Y-65552000D01*
X130479000Y-66998517D01*
X130483064Y-67012359D01*
X130496478Y-67014393D01*
X130503184Y-67013534D01*
X130513262Y-67011392D01*
X130717255Y-66950191D01*
X130726842Y-66946433D01*
X130755067Y-66932606D01*
X130825041Y-66920599D01*
X130890399Y-66948329D01*
X130930388Y-67006992D01*
X130936500Y-67045757D01*
X130936500Y-69703000D01*
X130916498Y-69771121D01*
X130862842Y-69817614D01*
X130810500Y-69829000D01*
X128254350Y-69829000D01*
X128240742Y-69828263D01*
X128209237Y-69824840D01*
X128209233Y-69824840D01*
X128203112Y-69824175D01*
X128196973Y-69824712D01*
X128196969Y-69824712D01*
X128153089Y-69828551D01*
X128148252Y-69828881D01*
X128145814Y-69829000D01*
X128142731Y-69829000D01*
X128139674Y-69829300D01*
X128139669Y-69829300D01*
X128100080Y-69833182D01*
X128098765Y-69833304D01*
X128012223Y-69840875D01*
X128012221Y-69840875D01*
X128006087Y-69841412D01*
X128000963Y-69842901D01*
X127995667Y-69843420D01*
X127906672Y-69870289D01*
X127905585Y-69870611D01*
X127816164Y-69896591D01*
X127811432Y-69899044D01*
X127806331Y-69900584D01*
X127800888Y-69903478D01*
X127724240Y-69944231D01*
X127723074Y-69944843D01*
X127696512Y-69958612D01*
X127640574Y-69987608D01*
X127636411Y-69990931D01*
X127631704Y-69993434D01*
X127626929Y-69997328D01*
X127626928Y-69997329D01*
X127559602Y-70052239D01*
X127558575Y-70053067D01*
X127522292Y-70082031D01*
X127522287Y-70082036D01*
X127519528Y-70084238D01*
X127517027Y-70086739D01*
X127516309Y-70087381D01*
X127511961Y-70091094D01*
X127507848Y-70094449D01*
X127478438Y-70118435D01*
X127474515Y-70123177D01*
X127474513Y-70123179D01*
X127449203Y-70153773D01*
X127441213Y-70162553D01*
X126811978Y-70791788D01*
X126749666Y-70825814D01*
X126678851Y-70820749D01*
X126622015Y-70778202D01*
X126597204Y-70711682D01*
X126596883Y-70702693D01*
X126596883Y-68948775D01*
X126590128Y-68886593D01*
X126538998Y-68750204D01*
X126451644Y-68633648D01*
X126335088Y-68546294D01*
X126198699Y-68495164D01*
X126136517Y-68488409D01*
X125322883Y-68488409D01*
X125254762Y-68468407D01*
X125208269Y-68414751D01*
X125196883Y-68362409D01*
X125196883Y-65947966D01*
X128893257Y-65947966D01*
X128923565Y-66082446D01*
X128926645Y-66092275D01*
X129006770Y-66289603D01*
X129011413Y-66298794D01*
X129122694Y-66480388D01*
X129128777Y-66488699D01*
X129268213Y-66649667D01*
X129275580Y-66656883D01*
X129439434Y-66792916D01*
X129447881Y-66798831D01*
X129631756Y-66906279D01*
X129641042Y-66910729D01*
X129840001Y-66986703D01*
X129849899Y-66989579D01*
X129953250Y-67010606D01*
X129967299Y-67009410D01*
X129971000Y-66999065D01*
X129971000Y-65952115D01*
X129966525Y-65936876D01*
X129965135Y-65935671D01*
X129957452Y-65934000D01*
X128908225Y-65934000D01*
X128894694Y-65937973D01*
X128893257Y-65947966D01*
X125196883Y-65947966D01*
X125196883Y-65201711D01*
X125216885Y-65133590D01*
X125247315Y-65100888D01*
X125263238Y-65088954D01*
X125329742Y-65064108D01*
X125399124Y-65079161D01*
X125414365Y-65088956D01*
X125484735Y-65141695D01*
X125500329Y-65150233D01*
X125620777Y-65195387D01*
X125636032Y-65199014D01*
X125686897Y-65204540D01*
X125693711Y-65204909D01*
X126216268Y-65204909D01*
X126231507Y-65200434D01*
X126232712Y-65199044D01*
X126234383Y-65191361D01*
X126234383Y-65186793D01*
X126742383Y-65186793D01*
X126746858Y-65202032D01*
X126748248Y-65203237D01*
X126755931Y-65204908D01*
X127283052Y-65204908D01*
X127289873Y-65204538D01*
X127340735Y-65199014D01*
X127355987Y-65195388D01*
X127476437Y-65150233D01*
X127492032Y-65141695D01*
X127594107Y-65065194D01*
X127606668Y-65052633D01*
X127683169Y-64950558D01*
X127691707Y-64934963D01*
X127736861Y-64814515D01*
X127740488Y-64799260D01*
X127746014Y-64748395D01*
X127746383Y-64741581D01*
X127746383Y-63969024D01*
X127741908Y-63953785D01*
X127740518Y-63952580D01*
X127732835Y-63950909D01*
X126760498Y-63950909D01*
X126745259Y-63955384D01*
X126744054Y-63956774D01*
X126742383Y-63964457D01*
X126742383Y-65186793D01*
X126234383Y-65186793D01*
X126234383Y-62207025D01*
X126229908Y-62191786D01*
X126228518Y-62190581D01*
X126220835Y-62188910D01*
X125693714Y-62188910D01*
X125686893Y-62189280D01*
X125636031Y-62194804D01*
X125620779Y-62198430D01*
X125500329Y-62243585D01*
X125484735Y-62252123D01*
X125414365Y-62304862D01*
X125347859Y-62329710D01*
X125278476Y-62314657D01*
X125263244Y-62304869D01*
X125247316Y-62292932D01*
X125204803Y-62236074D01*
X125196883Y-62192107D01*
X125196883Y-61913259D01*
X125216885Y-61845138D01*
X125233709Y-61824242D01*
X125257516Y-61800393D01*
X125262688Y-61795212D01*
X125266529Y-61788981D01*
X125351658Y-61650877D01*
X125351659Y-61650875D01*
X125355498Y-61644647D01*
X125389248Y-61542894D01*
X125409015Y-61483298D01*
X125409015Y-61483296D01*
X125411180Y-61476770D01*
X125421883Y-61372309D01*
X125421883Y-60596509D01*
X125418502Y-60563923D01*
X125411621Y-60497601D01*
X125411620Y-60497597D01*
X125410909Y-60490743D01*
X125354933Y-60322963D01*
X125261861Y-60172561D01*
X125253527Y-60164241D01*
X125141869Y-60052778D01*
X125136686Y-60047604D01*
X125132148Y-60044807D01*
X125091559Y-59987556D01*
X125088329Y-59916633D01*
X125123955Y-59855222D01*
X125132451Y-59847847D01*
X125142590Y-59839811D01*
X125257122Y-59725080D01*
X125266134Y-59713669D01*
X125351199Y-59575666D01*
X125357346Y-59562485D01*
X125408521Y-59408199D01*
X125411388Y-59394823D01*
X125421055Y-59300469D01*
X125421383Y-59294055D01*
X125421383Y-59181524D01*
X125416908Y-59166285D01*
X125415518Y-59165080D01*
X125407835Y-59163409D01*
X123179498Y-59163409D01*
X123164259Y-59167884D01*
X123163054Y-59169274D01*
X123161383Y-59176957D01*
X123161383Y-59190500D01*
X123141381Y-59258621D01*
X123087725Y-59305114D01*
X123035383Y-59316500D01*
X120673499Y-59316500D01*
X120658260Y-59320975D01*
X120657055Y-59322365D01*
X120655384Y-59330048D01*
X120655384Y-59447095D01*
X120655721Y-59453614D01*
X120665640Y-59549206D01*
X120668532Y-59562600D01*
X120719971Y-59716784D01*
X120726144Y-59729962D01*
X120811446Y-59867807D01*
X120820482Y-59879208D01*
X120877700Y-59936327D01*
X120911779Y-59998610D01*
X120906776Y-60069430D01*
X120864278Y-60126303D01*
X120797780Y-60151171D01*
X120788682Y-60151500D01*
X119502488Y-60151500D01*
X119434367Y-60131498D01*
X119415436Y-60116593D01*
X119392448Y-60094625D01*
X119357019Y-60033101D01*
X119353500Y-60003532D01*
X119353500Y-58790385D01*
X120655383Y-58790385D01*
X120659858Y-58805624D01*
X120661248Y-58806829D01*
X120668931Y-58808500D01*
X121616268Y-58808500D01*
X121631507Y-58804025D01*
X121632712Y-58802635D01*
X121634383Y-58794952D01*
X121634383Y-58790385D01*
X122142383Y-58790385D01*
X122146858Y-58805624D01*
X122148248Y-58806829D01*
X122155931Y-58808500D01*
X122897268Y-58808500D01*
X122912507Y-58804025D01*
X122913712Y-58802635D01*
X122915383Y-58794952D01*
X122915383Y-58781409D01*
X122935385Y-58713288D01*
X122989041Y-58666795D01*
X123041383Y-58655409D01*
X123916268Y-58655409D01*
X123931507Y-58650934D01*
X123932712Y-58649544D01*
X123934383Y-58641861D01*
X123934383Y-58637294D01*
X124442383Y-58637294D01*
X124446858Y-58652533D01*
X124448248Y-58653738D01*
X124455931Y-58655409D01*
X125403267Y-58655409D01*
X125418506Y-58650934D01*
X125419711Y-58649544D01*
X125421382Y-58641861D01*
X125421382Y-58524814D01*
X125421045Y-58518295D01*
X125411126Y-58422703D01*
X125408234Y-58409309D01*
X125356795Y-58255125D01*
X125350622Y-58241947D01*
X125265320Y-58104102D01*
X125256284Y-58092701D01*
X125141554Y-57978170D01*
X125130143Y-57969158D01*
X124992140Y-57884093D01*
X124978959Y-57877946D01*
X124824673Y-57826771D01*
X124811297Y-57823904D01*
X124716945Y-57814237D01*
X124710528Y-57813909D01*
X124460498Y-57813909D01*
X124445259Y-57818384D01*
X124444054Y-57819774D01*
X124442383Y-57827457D01*
X124442383Y-58637294D01*
X123934383Y-58637294D01*
X123934383Y-57832025D01*
X123929908Y-57816786D01*
X123928518Y-57815581D01*
X123920835Y-57813910D01*
X123666288Y-57813910D01*
X123659769Y-57814247D01*
X123564177Y-57824166D01*
X123550783Y-57827058D01*
X123396599Y-57878497D01*
X123383421Y-57884670D01*
X123245576Y-57969972D01*
X123234175Y-57979008D01*
X123119644Y-58093738D01*
X123110632Y-58105149D01*
X123081734Y-58152030D01*
X123028961Y-58199524D01*
X122958890Y-58210947D01*
X122893766Y-58182673D01*
X122885456Y-58175087D01*
X122841554Y-58131261D01*
X122830143Y-58122249D01*
X122692140Y-58037184D01*
X122678959Y-58031037D01*
X122524673Y-57979862D01*
X122511297Y-57976995D01*
X122416945Y-57967328D01*
X122410528Y-57967000D01*
X122160498Y-57967000D01*
X122145259Y-57971475D01*
X122144054Y-57972865D01*
X122142383Y-57980548D01*
X122142383Y-58790385D01*
X121634383Y-58790385D01*
X121634383Y-57985116D01*
X121629908Y-57969877D01*
X121628518Y-57968672D01*
X121620835Y-57967001D01*
X121366288Y-57967001D01*
X121359769Y-57967338D01*
X121264177Y-57977257D01*
X121250783Y-57980149D01*
X121096599Y-58031588D01*
X121083421Y-58037761D01*
X120945576Y-58123063D01*
X120934175Y-58132099D01*
X120819644Y-58246829D01*
X120810632Y-58258240D01*
X120725567Y-58396243D01*
X120719420Y-58409424D01*
X120668245Y-58563710D01*
X120665378Y-58577086D01*
X120655711Y-58671438D01*
X120655383Y-58677855D01*
X120655383Y-58790385D01*
X119353500Y-58790385D01*
X119353500Y-57852862D01*
X119364938Y-57801270D01*
X119367115Y-57797738D01*
X119380813Y-57756441D01*
X119420632Y-57636389D01*
X119420632Y-57636387D01*
X119422797Y-57629861D01*
X119424198Y-57616194D01*
X119432986Y-57530414D01*
X119433500Y-57525400D01*
X119433500Y-56474600D01*
X119426990Y-56411854D01*
X119423238Y-56375692D01*
X119423237Y-56375688D01*
X119422526Y-56368834D01*
X119366550Y-56201054D01*
X119273478Y-56050652D01*
X119148303Y-55925695D01*
X119139601Y-55920331D01*
X119003968Y-55836725D01*
X119003966Y-55836724D01*
X118997738Y-55832885D01*
X118872043Y-55791194D01*
X118836389Y-55779368D01*
X118836387Y-55779368D01*
X118829861Y-55777203D01*
X118823025Y-55776503D01*
X118823022Y-55776502D01*
X118776396Y-55771725D01*
X118725400Y-55766500D01*
X117949600Y-55766500D01*
X117946354Y-55766837D01*
X117946350Y-55766837D01*
X117850692Y-55776762D01*
X117850688Y-55776763D01*
X117843834Y-55777474D01*
X117837298Y-55779655D01*
X117837296Y-55779655D01*
X117802710Y-55791194D01*
X117676054Y-55833450D01*
X117525652Y-55926522D01*
X117400695Y-56051697D01*
X117397898Y-56056235D01*
X117340647Y-56096824D01*
X117269724Y-56100054D01*
X117208313Y-56064428D01*
X117200938Y-56055932D01*
X117192902Y-56045793D01*
X117078171Y-55931261D01*
X117066760Y-55922249D01*
X116928757Y-55837184D01*
X116915576Y-55831037D01*
X116761290Y-55779862D01*
X116747914Y-55776995D01*
X116653562Y-55767328D01*
X116647145Y-55767000D01*
X116534615Y-55767000D01*
X116519376Y-55771475D01*
X116518171Y-55772865D01*
X116516500Y-55780548D01*
X116516500Y-58214884D01*
X116520975Y-58230123D01*
X116522365Y-58231328D01*
X116530048Y-58232999D01*
X116647095Y-58232999D01*
X116653614Y-58232662D01*
X116749206Y-58222743D01*
X116762600Y-58219851D01*
X116916784Y-58168412D01*
X116929962Y-58162239D01*
X117067807Y-58076937D01*
X117079208Y-58067901D01*
X117121327Y-58025709D01*
X117183610Y-57991630D01*
X117254430Y-57996633D01*
X117311303Y-58039131D01*
X117336171Y-58105629D01*
X117336500Y-58114727D01*
X117336500Y-60003325D01*
X117316498Y-60071446D01*
X117295300Y-60096518D01*
X117237871Y-60148775D01*
X117225330Y-60160186D01*
X117222131Y-60164237D01*
X117222127Y-60164241D01*
X117079633Y-60344670D01*
X117079630Y-60344675D01*
X117076432Y-60348724D01*
X117073939Y-60353240D01*
X117073937Y-60353243D01*
X116974468Y-60533431D01*
X116960326Y-60559050D01*
X116958602Y-60563919D01*
X116958600Y-60563923D01*
X116889705Y-60758475D01*
X116880130Y-60785515D01*
X116879223Y-60790608D01*
X116879222Y-60790611D01*
X116841281Y-61003614D01*
X116837999Y-61022037D01*
X116837936Y-61027201D01*
X116835191Y-61251908D01*
X116835064Y-61262263D01*
X116871404Y-61499744D01*
X116901672Y-61592349D01*
X116944434Y-61723183D01*
X116944437Y-61723189D01*
X116946042Y-61728101D01*
X116948429Y-61732687D01*
X116948431Y-61732691D01*
X117040771Y-61910072D01*
X117056975Y-61941200D01*
X117060085Y-61945342D01*
X117191699Y-62120635D01*
X117201223Y-62133320D01*
X117204961Y-62136892D01*
X117357934Y-62283076D01*
X117374912Y-62299301D01*
X117412351Y-62324840D01*
X117457352Y-62379751D01*
X117465523Y-62450275D01*
X117434269Y-62514022D01*
X117409790Y-62534716D01*
X117407674Y-62536085D01*
X117399502Y-62542378D01*
X117229520Y-62697050D01*
X117222494Y-62704583D01*
X117080055Y-62884944D01*
X117074350Y-62893531D01*
X116963286Y-63094722D01*
X116959056Y-63104134D01*
X116882341Y-63320768D01*
X116879707Y-63330739D01*
X116862353Y-63428163D01*
X116863813Y-63441460D01*
X116878370Y-63446000D01*
X119813096Y-63446000D01*
X119826440Y-63442082D01*
X119828427Y-63427806D01*
X119818890Y-63365485D01*
X119816501Y-63355457D01*
X119745102Y-63137012D01*
X119741105Y-63127503D01*
X119634989Y-62923656D01*
X119629495Y-62914931D01*
X119491507Y-62731148D01*
X119484664Y-62723441D01*
X119318509Y-62564661D01*
X119310502Y-62558177D01*
X119277644Y-62535763D01*
X119232641Y-62480852D01*
X119224468Y-62410328D01*
X119255722Y-62346580D01*
X119280204Y-62325884D01*
X119282635Y-62324311D01*
X119286977Y-62321502D01*
X119290795Y-62318028D01*
X119290804Y-62318021D01*
X119419072Y-62201306D01*
X119482917Y-62170254D01*
X119503871Y-62168500D01*
X120647003Y-62168500D01*
X120715124Y-62188502D01*
X120761617Y-62242158D01*
X120771721Y-62312432D01*
X120747829Y-62370065D01*
X120687768Y-62450204D01*
X120636638Y-62586593D01*
X120629883Y-62648775D01*
X120629883Y-64745043D01*
X120636638Y-64807225D01*
X120687768Y-64943614D01*
X120775122Y-65060170D01*
X120891678Y-65147524D01*
X121028067Y-65198654D01*
X121090249Y-65205409D01*
X122686517Y-65205409D01*
X122748699Y-65198654D01*
X122885088Y-65147524D01*
X122962820Y-65089267D01*
X123029324Y-65064420D01*
X123098706Y-65079473D01*
X123113941Y-65089263D01*
X123129451Y-65100887D01*
X123171964Y-65157746D01*
X123179883Y-65201711D01*
X123179883Y-68362409D01*
X123159881Y-68430530D01*
X123106225Y-68477023D01*
X123053883Y-68488409D01*
X122240249Y-68488409D01*
X122178067Y-68495164D01*
X122041678Y-68546294D01*
X121925122Y-68633648D01*
X121837768Y-68750204D01*
X121786638Y-68886593D01*
X121779883Y-68948775D01*
X121779883Y-71045043D01*
X121786638Y-71107225D01*
X121837768Y-71243614D01*
X121925122Y-71360170D01*
X122041678Y-71447524D01*
X122050086Y-71450676D01*
X122170674Y-71495883D01*
X122170678Y-71495884D01*
X122178067Y-71498654D01*
X122185001Y-71499407D01*
X122246293Y-71534422D01*
X122279113Y-71597378D01*
X122281500Y-71621787D01*
X122281500Y-72035144D01*
X122261498Y-72103265D01*
X122207842Y-72149758D01*
X122137568Y-72159862D01*
X122072988Y-72130368D01*
X122050946Y-72103047D01*
X122050615Y-72103295D01*
X121991746Y-72024747D01*
X121963261Y-71986739D01*
X121846705Y-71899385D01*
X121710316Y-71848255D01*
X121648134Y-71841500D01*
X119851866Y-71841500D01*
X119789684Y-71848255D01*
X119653295Y-71899385D01*
X119536739Y-71986739D01*
X119449385Y-72103295D01*
X119398255Y-72239684D01*
X119391500Y-72301866D01*
X119391500Y-74098134D01*
X119398255Y-74160316D01*
X119449385Y-74296705D01*
X119536739Y-74413261D01*
X119653295Y-74500615D01*
X119789684Y-74551745D01*
X119851866Y-74558500D01*
X121648134Y-74558500D01*
X121710316Y-74551745D01*
X121846705Y-74500615D01*
X121963261Y-74413261D01*
X122050615Y-74296705D01*
X122060972Y-74269077D01*
X122094598Y-74179382D01*
X122137240Y-74122618D01*
X122203802Y-74097918D01*
X122273150Y-74113126D01*
X122307817Y-74141114D01*
X122336250Y-74173938D01*
X122508126Y-74316632D01*
X122701000Y-74429338D01*
X122909692Y-74509030D01*
X122914760Y-74510061D01*
X122914763Y-74510062D01*
X122978307Y-74522990D01*
X123128597Y-74553567D01*
X123133772Y-74553757D01*
X123133774Y-74553757D01*
X123346673Y-74561564D01*
X123346677Y-74561564D01*
X123351837Y-74561753D01*
X123356957Y-74561097D01*
X123356959Y-74561097D01*
X123568288Y-74534025D01*
X123568289Y-74534025D01*
X123573416Y-74533368D01*
X123578366Y-74531883D01*
X123782429Y-74470661D01*
X123782434Y-74470659D01*
X123787384Y-74469174D01*
X123987994Y-74370896D01*
X124169860Y-74241173D01*
X124175698Y-74235356D01*
X124293518Y-74117946D01*
X124328096Y-74083489D01*
X124337831Y-74069942D01*
X124458453Y-73902077D01*
X124459776Y-73903028D01*
X124506645Y-73859857D01*
X124576580Y-73847625D01*
X124642026Y-73875144D01*
X124669875Y-73906994D01*
X124684189Y-73930353D01*
X124729987Y-74005088D01*
X124876250Y-74173938D01*
X125048126Y-74316632D01*
X125241000Y-74429338D01*
X125449692Y-74509030D01*
X125454760Y-74510061D01*
X125454763Y-74510062D01*
X125518307Y-74522990D01*
X125668597Y-74553567D01*
X125673772Y-74553757D01*
X125673774Y-74553757D01*
X125886673Y-74561564D01*
X125886677Y-74561564D01*
X125891837Y-74561753D01*
X125896957Y-74561097D01*
X125896959Y-74561097D01*
X126108288Y-74534025D01*
X126108289Y-74534025D01*
X126113416Y-74533368D01*
X126118366Y-74531883D01*
X126322429Y-74470661D01*
X126322434Y-74470659D01*
X126327384Y-74469174D01*
X126527994Y-74370896D01*
X126709860Y-74241173D01*
X126715698Y-74235356D01*
X126833518Y-74117946D01*
X126868096Y-74083489D01*
X126877831Y-74069942D01*
X126995435Y-73906277D01*
X126998453Y-73902077D01*
X127002405Y-73894082D01*
X127095136Y-73706453D01*
X127095137Y-73706451D01*
X127097430Y-73701811D01*
X127153599Y-73516939D01*
X127160865Y-73493023D01*
X127160865Y-73493021D01*
X127162370Y-73488069D01*
X127186232Y-73306824D01*
X127214955Y-73241897D01*
X127222059Y-73234176D01*
X127547469Y-72908766D01*
X130587000Y-72908766D01*
X130587337Y-72915282D01*
X130597075Y-73009132D01*
X130599968Y-73022528D01*
X130650488Y-73173953D01*
X130656653Y-73187115D01*
X130740426Y-73322492D01*
X130749460Y-73333890D01*
X130862129Y-73446363D01*
X130873540Y-73455375D01*
X131009063Y-73538912D01*
X131022241Y-73545056D01*
X131173766Y-73595315D01*
X131187132Y-73598181D01*
X131279770Y-73607672D01*
X131286185Y-73608000D01*
X131297885Y-73608000D01*
X131313124Y-73603525D01*
X131314329Y-73602135D01*
X131316000Y-73594452D01*
X131316000Y-72834615D01*
X131311525Y-72819376D01*
X131310135Y-72818171D01*
X131302452Y-72816500D01*
X130605115Y-72816500D01*
X130589876Y-72820975D01*
X130588671Y-72822365D01*
X130587000Y-72830048D01*
X130587000Y-72908766D01*
X127547469Y-72908766D01*
X128573330Y-71882905D01*
X128635642Y-71848879D01*
X128662425Y-71846000D01*
X130510640Y-71846000D01*
X130578761Y-71866002D01*
X130625254Y-71919658D01*
X130635358Y-71989932D01*
X130630233Y-72011667D01*
X130599685Y-72103766D01*
X130596819Y-72117132D01*
X130587328Y-72209770D01*
X130587000Y-72216185D01*
X130587000Y-72290385D01*
X130591475Y-72305624D01*
X130592865Y-72306829D01*
X130600548Y-72308500D01*
X131698000Y-72308500D01*
X131766121Y-72328502D01*
X131812614Y-72382158D01*
X131824000Y-72434500D01*
X131824000Y-73589885D01*
X131828475Y-73605124D01*
X131829865Y-73606329D01*
X131837548Y-73608000D01*
X131853766Y-73608000D01*
X131860282Y-73607663D01*
X131954132Y-73597925D01*
X131967528Y-73595032D01*
X132118953Y-73544512D01*
X132132115Y-73538347D01*
X132267492Y-73454574D01*
X132278890Y-73445540D01*
X132285100Y-73439319D01*
X132347383Y-73405239D01*
X132418203Y-73410242D01*
X132475076Y-73452739D01*
X132493798Y-73488460D01*
X132511588Y-73541784D01*
X132517761Y-73554962D01*
X132603063Y-73692807D01*
X132612099Y-73704208D01*
X132726829Y-73818739D01*
X132738240Y-73827751D01*
X132876243Y-73912816D01*
X132889424Y-73918963D01*
X133043710Y-73970138D01*
X133057086Y-73973005D01*
X133151438Y-73982672D01*
X133157854Y-73983000D01*
X133407885Y-73983000D01*
X133423124Y-73978525D01*
X133424329Y-73977135D01*
X133426000Y-73969452D01*
X133426000Y-72759500D01*
X133446002Y-72691379D01*
X133499658Y-72644886D01*
X133552000Y-72633500D01*
X133808000Y-72633500D01*
X133876121Y-72653502D01*
X133922614Y-72707158D01*
X133934000Y-72759500D01*
X133934000Y-73964884D01*
X133938475Y-73980123D01*
X133939865Y-73981328D01*
X133947548Y-73982999D01*
X134202095Y-73982999D01*
X134208614Y-73982662D01*
X134304206Y-73972743D01*
X134317600Y-73969851D01*
X134471784Y-73918412D01*
X134484962Y-73912239D01*
X134622807Y-73826937D01*
X134634208Y-73817901D01*
X134748739Y-73703171D01*
X134757751Y-73691760D01*
X134846623Y-73547582D01*
X134899395Y-73500089D01*
X134969467Y-73488665D01*
X135034590Y-73516939D01*
X135074090Y-73575933D01*
X135079883Y-73613698D01*
X135079883Y-74466877D01*
X135059881Y-74534998D01*
X135032839Y-74565069D01*
X134909358Y-74664351D01*
X134782229Y-74815857D01*
X134779262Y-74821255D01*
X134779258Y-74821260D01*
X134723961Y-74921847D01*
X134686950Y-74989170D01*
X134685089Y-74995037D01*
X134685088Y-74995039D01*
X134683244Y-75000852D01*
X134652909Y-75096480D01*
X134613247Y-75155362D01*
X134569229Y-75178999D01*
X134495831Y-75201159D01*
X134494650Y-75201509D01*
X134411203Y-75225753D01*
X134411199Y-75225755D01*
X134405281Y-75227474D01*
X134400549Y-75229927D01*
X134395448Y-75231467D01*
X134390005Y-75234361D01*
X134313357Y-75275114D01*
X134312191Y-75275726D01*
X134237643Y-75314369D01*
X134229691Y-75318491D01*
X134225528Y-75321814D01*
X134220821Y-75324317D01*
X134216047Y-75328211D01*
X134216045Y-75328212D01*
X134148785Y-75383068D01*
X134147759Y-75383896D01*
X134121829Y-75404596D01*
X134108645Y-75415121D01*
X134106150Y-75417616D01*
X134105431Y-75418259D01*
X134101076Y-75421979D01*
X134078192Y-75440643D01*
X134067555Y-75449318D01*
X134063632Y-75454060D01*
X134063630Y-75454062D01*
X134038320Y-75484656D01*
X134030330Y-75493436D01*
X133601691Y-75922075D01*
X133599738Y-75924452D01*
X133599734Y-75924457D01*
X133590044Y-75936254D01*
X133507897Y-76036261D01*
X133414438Y-76210563D01*
X133356613Y-76399698D01*
X133352060Y-76444525D01*
X133349066Y-76474000D01*
X133336626Y-76596462D01*
X133355239Y-76793362D01*
X133368461Y-76837715D01*
X133409057Y-76973891D01*
X133411741Y-76982896D01*
X133503982Y-77157846D01*
X133507858Y-77162632D01*
X133507859Y-77162634D01*
X133617636Y-77298197D01*
X133628447Y-77311547D01*
X133633182Y-77315492D01*
X133681282Y-77355567D01*
X133780396Y-77438146D01*
X133954041Y-77532822D01*
X134048065Y-77562287D01*
X134136886Y-77590122D01*
X134136889Y-77590123D01*
X134142768Y-77591965D01*
X134148891Y-77592630D01*
X134148895Y-77592631D01*
X134333263Y-77612659D01*
X134333267Y-77612659D01*
X134339388Y-77613324D01*
X134536413Y-77596087D01*
X134542330Y-77594368D01*
X134542335Y-77594367D01*
X134673064Y-77556386D01*
X134726336Y-77540909D01*
X134901926Y-77449892D01*
X134906732Y-77446056D01*
X134906742Y-77446049D01*
X134987884Y-77381274D01*
X135053600Y-77354407D01*
X135126421Y-77368911D01*
X135220256Y-77419648D01*
X135220263Y-77419651D01*
X135225682Y-77422581D01*
X135414615Y-77481065D01*
X135420740Y-77481709D01*
X135420741Y-77481709D01*
X135605179Y-77501094D01*
X135605181Y-77501094D01*
X135611308Y-77501738D01*
X135617448Y-77501179D01*
X135623604Y-77501222D01*
X135623583Y-77504309D01*
X135680207Y-77515056D01*
X135711880Y-77538115D01*
X136661062Y-78487296D01*
X137643145Y-79469379D01*
X137652247Y-79479522D01*
X137675968Y-79509025D01*
X137680696Y-79512992D01*
X137714421Y-79541291D01*
X137718069Y-79544472D01*
X137719881Y-79546115D01*
X137722075Y-79548309D01*
X137755349Y-79575642D01*
X137756147Y-79576304D01*
X137827474Y-79636154D01*
X137832144Y-79638722D01*
X137836261Y-79642103D01*
X137836906Y-79642449D01*
X137880761Y-79696163D01*
X137890104Y-79733264D01*
X137890940Y-79742105D01*
X137891500Y-79753967D01*
X137891500Y-80069260D01*
X137868713Y-80141531D01*
X137762477Y-80293251D01*
X137760154Y-80298233D01*
X137760151Y-80298238D01*
X137697441Y-80432721D01*
X137665716Y-80500757D01*
X137664294Y-80506065D01*
X137664293Y-80506067D01*
X137635348Y-80614090D01*
X137606457Y-80721913D01*
X137586502Y-80950000D01*
X137606457Y-81178087D01*
X137607881Y-81183400D01*
X137607881Y-81183402D01*
X137655150Y-81359809D01*
X137665716Y-81399243D01*
X137668039Y-81404224D01*
X137668039Y-81404225D01*
X137760151Y-81601762D01*
X137760154Y-81601767D01*
X137762477Y-81606749D01*
X137829495Y-81702460D01*
X137890640Y-81789784D01*
X137893802Y-81794300D01*
X138055700Y-81956198D01*
X138060208Y-81959355D01*
X138060211Y-81959357D01*
X138099194Y-81986653D01*
X138243251Y-82087523D01*
X138248233Y-82089846D01*
X138248238Y-82089849D01*
X138445775Y-82181961D01*
X138450757Y-82184284D01*
X138456065Y-82185706D01*
X138456067Y-82185707D01*
X138666598Y-82242119D01*
X138666600Y-82242119D01*
X138671913Y-82243543D01*
X138900000Y-82263498D01*
X139128087Y-82243543D01*
X139133400Y-82242119D01*
X139133402Y-82242119D01*
X139343933Y-82185707D01*
X139343935Y-82185706D01*
X139349243Y-82184284D01*
X139354225Y-82181961D01*
X139551762Y-82089849D01*
X139551767Y-82089846D01*
X139556749Y-82087523D01*
X139700806Y-81986653D01*
X139739789Y-81959357D01*
X139739792Y-81959355D01*
X139744300Y-81956198D01*
X139810905Y-81889593D01*
X139873217Y-81855567D01*
X139944032Y-81860632D01*
X139989095Y-81889593D01*
X140055700Y-81956198D01*
X140060208Y-81959355D01*
X140060211Y-81959357D01*
X140099194Y-81986653D01*
X140243251Y-82087523D01*
X140248233Y-82089846D01*
X140248238Y-82089849D01*
X140445775Y-82181961D01*
X140450757Y-82184284D01*
X140456065Y-82185706D01*
X140456067Y-82185707D01*
X140666598Y-82242119D01*
X140666600Y-82242119D01*
X140671913Y-82243543D01*
X140900000Y-82263498D01*
X141128087Y-82243543D01*
X141133400Y-82242119D01*
X141133402Y-82242119D01*
X141343933Y-82185707D01*
X141343935Y-82185706D01*
X141349243Y-82184284D01*
X141354225Y-82181961D01*
X141551762Y-82089849D01*
X141551767Y-82089846D01*
X141556749Y-82087523D01*
X141700806Y-81986653D01*
X141739789Y-81959357D01*
X141739792Y-81959355D01*
X141744300Y-81956198D01*
X141810905Y-81889593D01*
X141873217Y-81855567D01*
X141944032Y-81860632D01*
X141989095Y-81889593D01*
X142055700Y-81956198D01*
X142060569Y-81959607D01*
X142069800Y-81966071D01*
X142114127Y-82021530D01*
X142121435Y-82092149D01*
X142086701Y-82158300D01*
X142048071Y-82196997D01*
X142044231Y-82203227D01*
X142044230Y-82203228D01*
X142019084Y-82244023D01*
X141956791Y-82345080D01*
X141902026Y-82510191D01*
X141901326Y-82517027D01*
X141901325Y-82517030D01*
X141900445Y-82525624D01*
X141891500Y-82612928D01*
X141891500Y-83187072D01*
X141891837Y-83190318D01*
X141891837Y-83190322D01*
X141901440Y-83282868D01*
X141902293Y-83291093D01*
X141938527Y-83399698D01*
X141947343Y-83426124D01*
X141949927Y-83497073D01*
X141913744Y-83558157D01*
X141850279Y-83589982D01*
X141827819Y-83592000D01*
X122253207Y-83592000D01*
X122232303Y-83590254D01*
X122221199Y-83588386D01*
X122212539Y-83586929D01*
X122206483Y-83586855D01*
X122204870Y-83586835D01*
X122204865Y-83586835D01*
X122200000Y-83586776D01*
X122195183Y-83587466D01*
X122194585Y-83587505D01*
X122186136Y-83588386D01*
X121928375Y-83605280D01*
X121928371Y-83605281D01*
X121924260Y-83605550D01*
X121920220Y-83606354D01*
X121920217Y-83606354D01*
X121657284Y-83658654D01*
X121657278Y-83658656D01*
X121653239Y-83659459D01*
X121649335Y-83660784D01*
X121649332Y-83660785D01*
X121395487Y-83746954D01*
X121391572Y-83748283D01*
X121387869Y-83750109D01*
X121387862Y-83750112D01*
X121199620Y-83842943D01*
X121143892Y-83855937D01*
X120434500Y-83855937D01*
X120366379Y-83835935D01*
X120319886Y-83782279D01*
X120308500Y-83729937D01*
X120308500Y-82044500D01*
X120328502Y-81976379D01*
X120382158Y-81929886D01*
X120434500Y-81918500D01*
X124708134Y-81918500D01*
X124770316Y-81911745D01*
X124906705Y-81860615D01*
X125023261Y-81773261D01*
X125110615Y-81656705D01*
X125113828Y-81648134D01*
X126391500Y-81648134D01*
X126398255Y-81710316D01*
X126449385Y-81846705D01*
X126536739Y-81963261D01*
X126653295Y-82050615D01*
X126789684Y-82101745D01*
X126851866Y-82108500D01*
X129948134Y-82108500D01*
X130010316Y-82101745D01*
X130146705Y-82050615D01*
X130263261Y-81963261D01*
X130350615Y-81846705D01*
X130401745Y-81710316D01*
X130408500Y-81648134D01*
X130408500Y-81634500D01*
X130428502Y-81566379D01*
X130482158Y-81519886D01*
X130534500Y-81508500D01*
X131241208Y-81508500D01*
X131309329Y-81528502D01*
X131330226Y-81545327D01*
X131421816Y-81636758D01*
X131421821Y-81636762D01*
X131426997Y-81641929D01*
X131433227Y-81645769D01*
X131433228Y-81645770D01*
X131567444Y-81728502D01*
X131575080Y-81733209D01*
X131740191Y-81787974D01*
X131747027Y-81788674D01*
X131747030Y-81788675D01*
X131798526Y-81793951D01*
X131842928Y-81798500D01*
X132417072Y-81798500D01*
X132420318Y-81798163D01*
X132420322Y-81798163D01*
X132514235Y-81788419D01*
X132514239Y-81788418D01*
X132521093Y-81787707D01*
X132527629Y-81785526D01*
X132527631Y-81785526D01*
X132660395Y-81741232D01*
X132686107Y-81732654D01*
X132810439Y-81655715D01*
X132878891Y-81636877D01*
X132927989Y-81647752D01*
X132997712Y-81678794D01*
X133091112Y-81698647D01*
X133178056Y-81717128D01*
X133178061Y-81717128D01*
X133184513Y-81718500D01*
X133375487Y-81718500D01*
X133381939Y-81717128D01*
X133381944Y-81717128D01*
X133468888Y-81698647D01*
X133562288Y-81678794D01*
X133591024Y-81666000D01*
X133730722Y-81603803D01*
X133730724Y-81603802D01*
X133736752Y-81601118D01*
X133891253Y-81488866D01*
X134019040Y-81346944D01*
X134114527Y-81181556D01*
X134173542Y-80999928D01*
X134175047Y-80985614D01*
X134192814Y-80816565D01*
X134193504Y-80810000D01*
X134184636Y-80725623D01*
X134174232Y-80626635D01*
X134174232Y-80626633D01*
X134173542Y-80620072D01*
X134114527Y-80438444D01*
X134019040Y-80273056D01*
X133995757Y-80247197D01*
X133895675Y-80136045D01*
X133895674Y-80136044D01*
X133891253Y-80131134D01*
X133771167Y-80043886D01*
X133742094Y-80022763D01*
X133742093Y-80022762D01*
X133736752Y-80018882D01*
X133730724Y-80016198D01*
X133730722Y-80016197D01*
X133568319Y-79943891D01*
X133568318Y-79943891D01*
X133562288Y-79941206D01*
X133463929Y-79920299D01*
X133381944Y-79902872D01*
X133381939Y-79902872D01*
X133375487Y-79901500D01*
X133184513Y-79901500D01*
X133178061Y-79902872D01*
X133178056Y-79902872D01*
X133045953Y-79930952D01*
X132975162Y-79925550D01*
X132918530Y-79882733D01*
X132894036Y-79816096D01*
X132909457Y-79746794D01*
X132930583Y-79718687D01*
X132951363Y-79697871D01*
X132960375Y-79686460D01*
X133043912Y-79550937D01*
X133050056Y-79537759D01*
X133100315Y-79386234D01*
X133103181Y-79372868D01*
X133112672Y-79280230D01*
X133113000Y-79273815D01*
X133113000Y-79249615D01*
X133108525Y-79234376D01*
X133107135Y-79233171D01*
X133099452Y-79231500D01*
X131165115Y-79231500D01*
X131149876Y-79235975D01*
X131148671Y-79237365D01*
X131147000Y-79245048D01*
X131147000Y-79273766D01*
X131147337Y-79280282D01*
X131157075Y-79374132D01*
X131159968Y-79387528D01*
X131210488Y-79538953D01*
X131216653Y-79552115D01*
X131300426Y-79687492D01*
X131309460Y-79698890D01*
X131411140Y-79800393D01*
X131445219Y-79862676D01*
X131440216Y-79933496D01*
X131411296Y-79978583D01*
X131394955Y-79994952D01*
X131335493Y-80054518D01*
X131273210Y-80088597D01*
X131246320Y-80091500D01*
X130534500Y-80091500D01*
X130466379Y-80071498D01*
X130419886Y-80017842D01*
X130408500Y-79965500D01*
X130408500Y-79951866D01*
X130401745Y-79889684D01*
X130350615Y-79753295D01*
X130263261Y-79636739D01*
X130146705Y-79549385D01*
X130010316Y-79498255D01*
X129948134Y-79491500D01*
X126851866Y-79491500D01*
X126789684Y-79498255D01*
X126653295Y-79549385D01*
X126536739Y-79636739D01*
X126449385Y-79753295D01*
X126398255Y-79889684D01*
X126391500Y-79951866D01*
X126391500Y-81648134D01*
X125113828Y-81648134D01*
X125161745Y-81520316D01*
X125168500Y-81458134D01*
X125168500Y-78705385D01*
X131147000Y-78705385D01*
X131151475Y-78720624D01*
X131152865Y-78721829D01*
X131160548Y-78723500D01*
X131857885Y-78723500D01*
X131873124Y-78719025D01*
X131874329Y-78717635D01*
X131876000Y-78709952D01*
X131876000Y-78705385D01*
X132384000Y-78705385D01*
X132388475Y-78720624D01*
X132389865Y-78721829D01*
X132397548Y-78723500D01*
X133094885Y-78723500D01*
X133110124Y-78719025D01*
X133111329Y-78717635D01*
X133113000Y-78709952D01*
X133113000Y-78681234D01*
X133112663Y-78674718D01*
X133102925Y-78580868D01*
X133100032Y-78567472D01*
X133049512Y-78416047D01*
X133043347Y-78402885D01*
X132959574Y-78267508D01*
X132950540Y-78256110D01*
X132837871Y-78143637D01*
X132826460Y-78134625D01*
X132690937Y-78051088D01*
X132677759Y-78044944D01*
X132526234Y-77994685D01*
X132512868Y-77991819D01*
X132420230Y-77982328D01*
X132413815Y-77982000D01*
X132402115Y-77982000D01*
X132386876Y-77986475D01*
X132385671Y-77987865D01*
X132384000Y-77995548D01*
X132384000Y-78705385D01*
X131876000Y-78705385D01*
X131876000Y-78000115D01*
X131871525Y-77984876D01*
X131870135Y-77983671D01*
X131862452Y-77982000D01*
X131846234Y-77982000D01*
X131839718Y-77982337D01*
X131745868Y-77992075D01*
X131732472Y-77994968D01*
X131581047Y-78045488D01*
X131567885Y-78051653D01*
X131432508Y-78135426D01*
X131421110Y-78144460D01*
X131308637Y-78257129D01*
X131299625Y-78268540D01*
X131216088Y-78404063D01*
X131209944Y-78417241D01*
X131159685Y-78568766D01*
X131156819Y-78582132D01*
X131147328Y-78674770D01*
X131147000Y-78681185D01*
X131147000Y-78705385D01*
X125168500Y-78705385D01*
X125168500Y-77064669D01*
X126392001Y-77064669D01*
X126392371Y-77071490D01*
X126397895Y-77122352D01*
X126401521Y-77137604D01*
X126446676Y-77258054D01*
X126455214Y-77273649D01*
X126531715Y-77375724D01*
X126544276Y-77388285D01*
X126646351Y-77464786D01*
X126661946Y-77473324D01*
X126782394Y-77518478D01*
X126797649Y-77522105D01*
X126848514Y-77527631D01*
X126855328Y-77528000D01*
X128127885Y-77528000D01*
X128143124Y-77523525D01*
X128144329Y-77522135D01*
X128146000Y-77514452D01*
X128146000Y-77509884D01*
X128654000Y-77509884D01*
X128658475Y-77525123D01*
X128659865Y-77526328D01*
X128667548Y-77527999D01*
X129944669Y-77527999D01*
X129951490Y-77527629D01*
X130002352Y-77522105D01*
X130017604Y-77518479D01*
X130138054Y-77473324D01*
X130153649Y-77464786D01*
X130255724Y-77388285D01*
X130268285Y-77375724D01*
X130344786Y-77273649D01*
X130353324Y-77258054D01*
X130398478Y-77137606D01*
X130402105Y-77122351D01*
X130407631Y-77071486D01*
X130408000Y-77064672D01*
X130408000Y-76492115D01*
X130403525Y-76476876D01*
X130402135Y-76475671D01*
X130394452Y-76474000D01*
X128672115Y-76474000D01*
X128656876Y-76478475D01*
X128655671Y-76479865D01*
X128654000Y-76487548D01*
X128654000Y-77509884D01*
X128146000Y-77509884D01*
X128146000Y-76492115D01*
X128141525Y-76476876D01*
X128140135Y-76475671D01*
X128132452Y-76474000D01*
X126410116Y-76474000D01*
X126394877Y-76478475D01*
X126393672Y-76479865D01*
X126392001Y-76487548D01*
X126392001Y-77064669D01*
X125168500Y-77064669D01*
X125168500Y-75947885D01*
X126392000Y-75947885D01*
X126396475Y-75963124D01*
X126397865Y-75964329D01*
X126405548Y-75966000D01*
X128127885Y-75966000D01*
X128143124Y-75961525D01*
X128144329Y-75960135D01*
X128146000Y-75952452D01*
X128146000Y-75947885D01*
X128654000Y-75947885D01*
X128658475Y-75963124D01*
X128659865Y-75964329D01*
X128667548Y-75966000D01*
X130389884Y-75966000D01*
X130405123Y-75961525D01*
X130406328Y-75960135D01*
X130407999Y-75952452D01*
X130407999Y-75375331D01*
X130407629Y-75368510D01*
X130402105Y-75317648D01*
X130398479Y-75302396D01*
X130353324Y-75181946D01*
X130344786Y-75166351D01*
X130268285Y-75064276D01*
X130255724Y-75051715D01*
X130153649Y-74975214D01*
X130138054Y-74966676D01*
X130017606Y-74921522D01*
X130002351Y-74917895D01*
X129951486Y-74912369D01*
X129944672Y-74912000D01*
X128672115Y-74912000D01*
X128656876Y-74916475D01*
X128655671Y-74917865D01*
X128654000Y-74925548D01*
X128654000Y-75947885D01*
X128146000Y-75947885D01*
X128146000Y-74930116D01*
X128141525Y-74914877D01*
X128140135Y-74913672D01*
X128132452Y-74912001D01*
X126855331Y-74912001D01*
X126848510Y-74912371D01*
X126797648Y-74917895D01*
X126782396Y-74921521D01*
X126661946Y-74966676D01*
X126646351Y-74975214D01*
X126544276Y-75051715D01*
X126531715Y-75064276D01*
X126455214Y-75166351D01*
X126446676Y-75181946D01*
X126401522Y-75302394D01*
X126397895Y-75317649D01*
X126392369Y-75368514D01*
X126392000Y-75375328D01*
X126392000Y-75947885D01*
X125168500Y-75947885D01*
X125168500Y-75561866D01*
X125161745Y-75499684D01*
X125110615Y-75363295D01*
X125023261Y-75246739D01*
X124906705Y-75159385D01*
X124770316Y-75108255D01*
X124708134Y-75101500D01*
X118411866Y-75101500D01*
X118349684Y-75108255D01*
X118213295Y-75159385D01*
X118096739Y-75246739D01*
X118009385Y-75363295D01*
X117997096Y-75396077D01*
X117954456Y-75452840D01*
X117887894Y-75477541D01*
X117818545Y-75462334D01*
X117790019Y-75440942D01*
X117556829Y-75207752D01*
X117545962Y-75195361D01*
X117536585Y-75183140D01*
X117536581Y-75183136D01*
X117533169Y-75178689D01*
X117475372Y-75126098D01*
X117471076Y-75121999D01*
X117455835Y-75106758D01*
X117443892Y-75096772D01*
X117436678Y-75090740D01*
X117432699Y-75087269D01*
X117377761Y-75037279D01*
X117377760Y-75037278D01*
X117373611Y-75033503D01*
X117368856Y-75030520D01*
X117359307Y-75024529D01*
X117345447Y-75014459D01*
X117337188Y-75007554D01*
X117332495Y-75003630D01*
X117263075Y-74964033D01*
X117258578Y-74961342D01*
X117190865Y-74918866D01*
X117184918Y-74916475D01*
X117175201Y-74912569D01*
X117159771Y-74905110D01*
X117145109Y-74896747D01*
X117139826Y-74894876D01*
X117139819Y-74894873D01*
X117069776Y-74870070D01*
X117064868Y-74868215D01*
X116990707Y-74838403D01*
X116985209Y-74837264D01*
X116985208Y-74837264D01*
X116974170Y-74834978D01*
X116957674Y-74830373D01*
X116941756Y-74824736D01*
X116936222Y-74823830D01*
X116936219Y-74823829D01*
X116862917Y-74811826D01*
X116857726Y-74810864D01*
X116844150Y-74808053D01*
X116779463Y-74794656D01*
X116774852Y-74794390D01*
X116774851Y-74794390D01*
X116753034Y-74793132D01*
X116739929Y-74791685D01*
X116734411Y-74790782D01*
X116728866Y-74789874D01*
X116723252Y-74789962D01*
X116723250Y-74789962D01*
X116626365Y-74791484D01*
X116624386Y-74791500D01*
X116273316Y-74791500D01*
X116233649Y-74785093D01*
X116216389Y-74779368D01*
X116216387Y-74779368D01*
X116209861Y-74777203D01*
X116203025Y-74776503D01*
X116203022Y-74776502D01*
X116159969Y-74772091D01*
X116105400Y-74766500D01*
X115329600Y-74766500D01*
X115326354Y-74766837D01*
X115326350Y-74766837D01*
X115230692Y-74776762D01*
X115230688Y-74776763D01*
X115223834Y-74777474D01*
X115217298Y-74779655D01*
X115217296Y-74779655D01*
X115120869Y-74811826D01*
X115056054Y-74833450D01*
X115043302Y-74841341D01*
X114974854Y-74860179D01*
X114907084Y-74839019D01*
X114861512Y-74784580D01*
X114851000Y-74734197D01*
X114851000Y-70923094D01*
X114852078Y-70906648D01*
X114854088Y-70891383D01*
X114854088Y-70891378D01*
X114854821Y-70885812D01*
X114851140Y-70807763D01*
X114851000Y-70801827D01*
X114851000Y-70780265D01*
X114848782Y-70755409D01*
X114848423Y-70750147D01*
X114844922Y-70675924D01*
X114844658Y-70670325D01*
X114842981Y-70663000D01*
X114840889Y-70653868D01*
X114838208Y-70636937D01*
X114837207Y-70625722D01*
X114836708Y-70620128D01*
X114834982Y-70613819D01*
X114834990Y-70613398D01*
X114834233Y-70609191D01*
X114835071Y-70609040D01*
X114836299Y-70542836D01*
X114855690Y-70505006D01*
X114920231Y-70418889D01*
X114920231Y-70418888D01*
X114925615Y-70411705D01*
X114928765Y-70403301D01*
X114930482Y-70400166D01*
X114980741Y-70350021D01*
X115050132Y-70335008D01*
X115116624Y-70359894D01*
X115159106Y-70416778D01*
X115167001Y-70460677D01*
X115167001Y-70722095D01*
X115167338Y-70728614D01*
X115177257Y-70824206D01*
X115180149Y-70837600D01*
X115231588Y-70991784D01*
X115237761Y-71004962D01*
X115323063Y-71142807D01*
X115332099Y-71154208D01*
X115446829Y-71268739D01*
X115458240Y-71277751D01*
X115596243Y-71362816D01*
X115609424Y-71368963D01*
X115763710Y-71420138D01*
X115777086Y-71423005D01*
X115871438Y-71432672D01*
X115877854Y-71433000D01*
X115990385Y-71433000D01*
X116005624Y-71428525D01*
X116006829Y-71427135D01*
X116008500Y-71419452D01*
X116008500Y-68985116D01*
X116004025Y-68969877D01*
X116002635Y-68968672D01*
X115994952Y-68967001D01*
X115877905Y-68967001D01*
X115871386Y-68967338D01*
X115775794Y-68977257D01*
X115762400Y-68980149D01*
X115608216Y-69031588D01*
X115595038Y-69037761D01*
X115457193Y-69123063D01*
X115445792Y-69132099D01*
X115331261Y-69246829D01*
X115322249Y-69258240D01*
X115274321Y-69335994D01*
X115221549Y-69383487D01*
X115151477Y-69394911D01*
X115086353Y-69366637D01*
X115046631Y-69306927D01*
X115042839Y-69294599D01*
X115023437Y-69231534D01*
X115020864Y-69226548D01*
X114992514Y-69171620D01*
X114979217Y-69127440D01*
X114977598Y-69112540D01*
X114976745Y-69104684D01*
X114925615Y-68968295D01*
X114838261Y-68851739D01*
X114721705Y-68764385D01*
X114713296Y-68761233D01*
X114713295Y-68761232D01*
X114669697Y-68744888D01*
X114637754Y-68727273D01*
X114633611Y-68723503D01*
X114463250Y-68616635D01*
X114455621Y-68611849D01*
X114455617Y-68611847D01*
X114450865Y-68608866D01*
X114250707Y-68528403D01*
X114039463Y-68484656D01*
X114034852Y-68484390D01*
X114034851Y-68484390D01*
X113986548Y-68481605D01*
X113986544Y-68481605D01*
X113984725Y-68481500D01*
X113050267Y-68481500D01*
X112982146Y-68461498D01*
X112961172Y-68444595D01*
X112858495Y-68341918D01*
X112840446Y-68319126D01*
X112829969Y-68302196D01*
X112826116Y-68295969D01*
X112818861Y-68288726D01*
X112817895Y-68286962D01*
X112816387Y-68285059D01*
X112816713Y-68284801D01*
X112784781Y-68226446D01*
X112789782Y-68155625D01*
X112818708Y-68110530D01*
X112821364Y-68107869D01*
X112830375Y-68096460D01*
X112913912Y-67960937D01*
X112920056Y-67947759D01*
X112970315Y-67796234D01*
X112973181Y-67782868D01*
X112982672Y-67690230D01*
X112983000Y-67683815D01*
X112983000Y-67609615D01*
X112978525Y-67594376D01*
X112977135Y-67593171D01*
X112969452Y-67591500D01*
X111872000Y-67591500D01*
X111803879Y-67571498D01*
X111757386Y-67517842D01*
X111746000Y-67465500D01*
X111746000Y-66310115D01*
X111741525Y-66294876D01*
X111740135Y-66293671D01*
X111732452Y-66292000D01*
X111716234Y-66292000D01*
X111709718Y-66292337D01*
X111615868Y-66302075D01*
X111602472Y-66304968D01*
X111451047Y-66355488D01*
X111437885Y-66361653D01*
X111302508Y-66445426D01*
X111291110Y-66454460D01*
X111178637Y-66567129D01*
X111169625Y-66578540D01*
X111086088Y-66714063D01*
X111079944Y-66727241D01*
X111029685Y-66878766D01*
X111026819Y-66892133D01*
X111018151Y-66976736D01*
X110991310Y-67042464D01*
X110933195Y-67083246D01*
X110862257Y-67086134D01*
X110848578Y-67081876D01*
X110767609Y-67051522D01*
X110752351Y-67047895D01*
X110701486Y-67042369D01*
X110694672Y-67042000D01*
X110518115Y-67042000D01*
X110502876Y-67046475D01*
X110501671Y-67047865D01*
X110500000Y-67055548D01*
X110500000Y-67615500D01*
X110479998Y-67683621D01*
X110426342Y-67730114D01*
X110374000Y-67741500D01*
X110203213Y-67741500D01*
X110135092Y-67721498D01*
X110088599Y-67667842D01*
X110078495Y-67597568D01*
X110094174Y-67563237D01*
X110100000Y-67536452D01*
X110100000Y-67060116D01*
X110095525Y-67044877D01*
X110094135Y-67043672D01*
X110086452Y-67042001D01*
X109905331Y-67042001D01*
X109898510Y-67042371D01*
X109847648Y-67047895D01*
X109832396Y-67051521D01*
X109711946Y-67096676D01*
X109696351Y-67105214D01*
X109594276Y-67181715D01*
X109581715Y-67194276D01*
X109505214Y-67296351D01*
X109496676Y-67311946D01*
X109451522Y-67432394D01*
X109447895Y-67447649D01*
X109442369Y-67498514D01*
X109442000Y-67505328D01*
X109442000Y-67531885D01*
X109446475Y-67547124D01*
X109447865Y-67548329D01*
X109455548Y-67550000D01*
X109673477Y-67550000D01*
X109741598Y-67570002D01*
X109788091Y-67623658D01*
X109798195Y-67693932D01*
X109768701Y-67758512D01*
X109717709Y-67793982D01*
X109703295Y-67799385D01*
X109586739Y-67886739D01*
X109586140Y-67885940D01*
X109530870Y-67916121D01*
X109504087Y-67919000D01*
X106670059Y-67919000D01*
X106607728Y-67902503D01*
X106505434Y-67844273D01*
X106280747Y-67762716D01*
X106275498Y-67761767D01*
X106275495Y-67761766D01*
X106049615Y-67720920D01*
X106049607Y-67720919D01*
X106045531Y-67720182D01*
X106027141Y-67719315D01*
X106021956Y-67719070D01*
X106021949Y-67719070D01*
X106020468Y-67719000D01*
X103452488Y-67719000D01*
X103274325Y-67734117D01*
X103269161Y-67735457D01*
X103269157Y-67735458D01*
X103048125Y-67792827D01*
X103048120Y-67792829D01*
X103042960Y-67794168D01*
X103038094Y-67796360D01*
X102829881Y-67890153D01*
X102829878Y-67890154D01*
X102825020Y-67892343D01*
X102817327Y-67897522D01*
X102746963Y-67919000D01*
X102560593Y-67919000D01*
X102544147Y-67917922D01*
X102528882Y-67915912D01*
X102528877Y-67915912D01*
X102523311Y-67915179D01*
X102449581Y-67918656D01*
X102445262Y-67918860D01*
X102439326Y-67919000D01*
X102417765Y-67919000D01*
X102394644Y-67921063D01*
X102392909Y-67921218D01*
X102387647Y-67921577D01*
X102307825Y-67925342D01*
X102302366Y-67926592D01*
X102302361Y-67926593D01*
X102291368Y-67929111D01*
X102274437Y-67931792D01*
X102270326Y-67932159D01*
X102257628Y-67933292D01*
X102252216Y-67934773D01*
X102252208Y-67934774D01*
X102180559Y-67954375D01*
X102175441Y-67955661D01*
X102153278Y-67960737D01*
X102097543Y-67973502D01*
X102082011Y-67980127D01*
X102065832Y-67985761D01*
X102049548Y-67990216D01*
X102044480Y-67992633D01*
X102044481Y-67992633D01*
X101977455Y-68024603D01*
X101972644Y-68026776D01*
X101960369Y-68032012D01*
X101899114Y-68058139D01*
X101884994Y-68067414D01*
X101870070Y-68075823D01*
X101854837Y-68083089D01*
X101850281Y-68086363D01*
X101789962Y-68129706D01*
X101785613Y-68132694D01*
X101722671Y-68174039D01*
X101722658Y-68174049D01*
X101718808Y-68176578D01*
X101715366Y-68179645D01*
X101699040Y-68194191D01*
X101688745Y-68202438D01*
X101679649Y-68208974D01*
X101631996Y-68258148D01*
X101608252Y-68282650D01*
X101606863Y-68284060D01*
X98719419Y-71171504D01*
X98657107Y-71205530D01*
X98630324Y-71208409D01*
X95922883Y-71208409D01*
X95854762Y-71188407D01*
X95808269Y-71134751D01*
X95796883Y-71082409D01*
X95796883Y-70618775D01*
X95790128Y-70556593D01*
X95738998Y-70420204D01*
X95651644Y-70303648D01*
X95535088Y-70216294D01*
X95398699Y-70165164D01*
X95336517Y-70158409D01*
X94040249Y-70158409D01*
X93978067Y-70165164D01*
X93841678Y-70216294D01*
X93725122Y-70303648D01*
X93637768Y-70420204D01*
X93586638Y-70556593D01*
X93579883Y-70618775D01*
X93579883Y-71908893D01*
X93569256Y-71959539D01*
X93546374Y-72011667D01*
X93538375Y-72029889D01*
X93537066Y-72035340D01*
X93537065Y-72035344D01*
X93492409Y-72221351D01*
X93488015Y-72239654D01*
X93487119Y-72255191D01*
X93476377Y-72441500D01*
X93475597Y-72455022D01*
X93501513Y-72669186D01*
X93503160Y-72674540D01*
X93503161Y-72674544D01*
X93537311Y-72785548D01*
X93564946Y-72875375D01*
X93567517Y-72880356D01*
X93569639Y-72885556D01*
X93568056Y-72886202D01*
X93579883Y-72934915D01*
X93579883Y-74215043D01*
X93586638Y-74277225D01*
X93637768Y-74413614D01*
X93725122Y-74530170D01*
X93841678Y-74617524D01*
X93978067Y-74668654D01*
X94040249Y-74675409D01*
X95336517Y-74675409D01*
X95398699Y-74668654D01*
X95535088Y-74617524D01*
X95651644Y-74530170D01*
X95738998Y-74413614D01*
X95790128Y-74277225D01*
X95796883Y-74215043D01*
X95796883Y-73751409D01*
X95816885Y-73683288D01*
X95870541Y-73636795D01*
X95922883Y-73625409D01*
X99095006Y-73625409D01*
X99111451Y-73626487D01*
X99132280Y-73629229D01*
X99137879Y-73628965D01*
X99137881Y-73628965D01*
X99210314Y-73625549D01*
X99216249Y-73625409D01*
X99237826Y-73625409D01*
X99240612Y-73625160D01*
X99240620Y-73625160D01*
X99262692Y-73623190D01*
X99267956Y-73622831D01*
X99320744Y-73620341D01*
X99347766Y-73619067D01*
X99353225Y-73617817D01*
X99353230Y-73617816D01*
X99364223Y-73615298D01*
X99381154Y-73612617D01*
X99385265Y-73612250D01*
X99397963Y-73611117D01*
X99403375Y-73609636D01*
X99403383Y-73609635D01*
X99475032Y-73590034D01*
X99480150Y-73588748D01*
X99495120Y-73585319D01*
X99558048Y-73570907D01*
X99563205Y-73568707D01*
X99563212Y-73568705D01*
X99573574Y-73564285D01*
X99589761Y-73558648D01*
X99600628Y-73555675D01*
X99600635Y-73555672D01*
X99606043Y-73554193D01*
X99611101Y-73551781D01*
X99611105Y-73551779D01*
X99678171Y-73519790D01*
X99682970Y-73517623D01*
X99756477Y-73486269D01*
X99761165Y-73483190D01*
X99761168Y-73483188D01*
X99770585Y-73477002D01*
X99785519Y-73468587D01*
X99795685Y-73463738D01*
X99795686Y-73463737D01*
X99800754Y-73461320D01*
X99804720Y-73458470D01*
X106380749Y-73458470D01*
X106381183Y-73472564D01*
X106389364Y-73476000D01*
X107377885Y-73476000D01*
X107393124Y-73471525D01*
X107394329Y-73470135D01*
X107396000Y-73462452D01*
X107396000Y-73457885D01*
X107904000Y-73457885D01*
X107908475Y-73473124D01*
X107909865Y-73474329D01*
X107917548Y-73476000D01*
X108909229Y-73476000D01*
X108922760Y-73472027D01*
X108923637Y-73465925D01*
X108867690Y-73313864D01*
X108862123Y-73302451D01*
X108766292Y-73147892D01*
X108758540Y-73137826D01*
X108633592Y-73005697D01*
X108623974Y-72997395D01*
X108475013Y-72893092D01*
X108463919Y-72886892D01*
X108297020Y-72814668D01*
X108284917Y-72810829D01*
X108105400Y-72773325D01*
X108095848Y-72772085D01*
X108092616Y-72772000D01*
X107922115Y-72772000D01*
X107906876Y-72776475D01*
X107905671Y-72777865D01*
X107904000Y-72785548D01*
X107904000Y-73457885D01*
X107396000Y-73457885D01*
X107396000Y-72790115D01*
X107391525Y-72774876D01*
X107390135Y-72773671D01*
X107382452Y-72772000D01*
X107254553Y-72772000D01*
X107248178Y-72772323D01*
X107112723Y-72786082D01*
X107100283Y-72788636D01*
X106926756Y-72843016D01*
X106915068Y-72848025D01*
X106756021Y-72936187D01*
X106745588Y-72943438D01*
X106607509Y-73061785D01*
X106598756Y-73070976D01*
X106487289Y-73214680D01*
X106480565Y-73225440D01*
X106400268Y-73388625D01*
X106395845Y-73400519D01*
X106380749Y-73458470D01*
X99804720Y-73458470D01*
X99805309Y-73458047D01*
X99805319Y-73458041D01*
X99865635Y-73414699D01*
X99869985Y-73411709D01*
X99932923Y-73370367D01*
X99932927Y-73370364D01*
X99936783Y-73367831D01*
X99956551Y-73350218D01*
X99966846Y-73341971D01*
X99971383Y-73338711D01*
X99971384Y-73338711D01*
X99975942Y-73335435D01*
X100047339Y-73261759D01*
X100048728Y-73260349D01*
X102847295Y-70461782D01*
X102909607Y-70427756D01*
X102979379Y-70432438D01*
X103085136Y-70470826D01*
X103139238Y-70490464D01*
X103139242Y-70490465D01*
X103144253Y-70492284D01*
X103149502Y-70493233D01*
X103149505Y-70493234D01*
X103375385Y-70534080D01*
X103375393Y-70534081D01*
X103379469Y-70534818D01*
X103397859Y-70535685D01*
X103403044Y-70535930D01*
X103403051Y-70535930D01*
X103404532Y-70536000D01*
X105972512Y-70536000D01*
X106150675Y-70520883D01*
X106155839Y-70519543D01*
X106155843Y-70519542D01*
X106376875Y-70462173D01*
X106376880Y-70462171D01*
X106382040Y-70460832D01*
X106508147Y-70404025D01*
X106595119Y-70364847D01*
X106595122Y-70364846D01*
X106599980Y-70362657D01*
X106607673Y-70357478D01*
X106678037Y-70336000D01*
X111382233Y-70336000D01*
X111450354Y-70356002D01*
X111471328Y-70372905D01*
X111580671Y-70482248D01*
X111591538Y-70494639D01*
X111600915Y-70506860D01*
X111600919Y-70506864D01*
X111604331Y-70511311D01*
X111660631Y-70562540D01*
X111662128Y-70563902D01*
X111666424Y-70568001D01*
X112397095Y-71298672D01*
X112431121Y-71360984D01*
X112434000Y-71387767D01*
X112434000Y-75911915D01*
X112432922Y-75928360D01*
X112430180Y-75949189D01*
X112430444Y-75954788D01*
X112430444Y-75954790D01*
X112433860Y-76027223D01*
X112434000Y-76033158D01*
X112434000Y-76054735D01*
X112434249Y-76057521D01*
X112434249Y-76057529D01*
X112436219Y-76079601D01*
X112436578Y-76084865D01*
X112440342Y-76164675D01*
X112440693Y-76166207D01*
X112441500Y-76178043D01*
X112441500Y-83729937D01*
X112421498Y-83798058D01*
X112367842Y-83844551D01*
X112315500Y-83855937D01*
X111656108Y-83855937D01*
X111600380Y-83842943D01*
X111477365Y-83782279D01*
X111408428Y-83748283D01*
X111404513Y-83746954D01*
X111150668Y-83660785D01*
X111150665Y-83660784D01*
X111146761Y-83659459D01*
X111142722Y-83658656D01*
X111142716Y-83658654D01*
X110879783Y-83606354D01*
X110879780Y-83606354D01*
X110875740Y-83605550D01*
X110871629Y-83605281D01*
X110871625Y-83605280D01*
X110782723Y-83599453D01*
X110632239Y-83589590D01*
X110619597Y-83588116D01*
X110612539Y-83586929D01*
X110606184Y-83586851D01*
X110604859Y-83586835D01*
X110604855Y-83586835D01*
X110600000Y-83586776D01*
X110575715Y-83590254D01*
X110572412Y-83590727D01*
X110554549Y-83592000D01*
X95653207Y-83592000D01*
X95632303Y-83590254D01*
X95621199Y-83588386D01*
X95612539Y-83586929D01*
X95606483Y-83586855D01*
X95604870Y-83586835D01*
X95604865Y-83586835D01*
X95600000Y-83586776D01*
X95595183Y-83587466D01*
X95594585Y-83587505D01*
X95586136Y-83588386D01*
X95328375Y-83605280D01*
X95328371Y-83605281D01*
X95324260Y-83605550D01*
X95320220Y-83606354D01*
X95320217Y-83606354D01*
X95057284Y-83658654D01*
X95057278Y-83658656D01*
X95053239Y-83659459D01*
X95049335Y-83660784D01*
X95049332Y-83660785D01*
X94795487Y-83746954D01*
X94791572Y-83748283D01*
X94787869Y-83750109D01*
X94787862Y-83750112D01*
X94599620Y-83842943D01*
X94543892Y-83855937D01*
X90634000Y-83855937D01*
X90565879Y-83835935D01*
X90519386Y-83782279D01*
X90508000Y-83729937D01*
X90508000Y-80608766D01*
X106667000Y-80608766D01*
X106667337Y-80615282D01*
X106677075Y-80709132D01*
X106679968Y-80722528D01*
X106730488Y-80873953D01*
X106736653Y-80887115D01*
X106820426Y-81022492D01*
X106829460Y-81033890D01*
X106942129Y-81146363D01*
X106953540Y-81155375D01*
X107089063Y-81238912D01*
X107102241Y-81245056D01*
X107253766Y-81295315D01*
X107267132Y-81298181D01*
X107359770Y-81307672D01*
X107366185Y-81308000D01*
X107377885Y-81308000D01*
X107393124Y-81303525D01*
X107394329Y-81302135D01*
X107396000Y-81294452D01*
X107396000Y-81289885D01*
X107904000Y-81289885D01*
X107908475Y-81305124D01*
X107909865Y-81306329D01*
X107917548Y-81308000D01*
X107933766Y-81308000D01*
X107940282Y-81307663D01*
X108034132Y-81297925D01*
X108047528Y-81295032D01*
X108198953Y-81244512D01*
X108212115Y-81238347D01*
X108347492Y-81154574D01*
X108358890Y-81145540D01*
X108471363Y-81032871D01*
X108480375Y-81021460D01*
X108563912Y-80885937D01*
X108570056Y-80872759D01*
X108620315Y-80721234D01*
X108623181Y-80707868D01*
X108632672Y-80615230D01*
X108633000Y-80608815D01*
X108633000Y-80534615D01*
X108628525Y-80519376D01*
X108627135Y-80518171D01*
X108619452Y-80516500D01*
X107922115Y-80516500D01*
X107906876Y-80520975D01*
X107905671Y-80522365D01*
X107904000Y-80530048D01*
X107904000Y-81289885D01*
X107396000Y-81289885D01*
X107396000Y-80534615D01*
X107391525Y-80519376D01*
X107390135Y-80518171D01*
X107382452Y-80516500D01*
X106685115Y-80516500D01*
X106669876Y-80520975D01*
X106668671Y-80522365D01*
X106667000Y-80530048D01*
X106667000Y-80608766D01*
X90508000Y-80608766D01*
X90508000Y-75047064D01*
X106337707Y-75047064D01*
X106356871Y-75173783D01*
X106365745Y-75232455D01*
X106366825Y-75239599D01*
X106369028Y-75245585D01*
X106369029Y-75245591D01*
X106434063Y-75422346D01*
X106432835Y-75422798D01*
X106443561Y-75485982D01*
X106419256Y-75546781D01*
X106399385Y-75573295D01*
X106348255Y-75709684D01*
X106341500Y-75771866D01*
X106341500Y-76768134D01*
X106348255Y-76830316D01*
X106399385Y-76966705D01*
X106486739Y-77083261D01*
X106603295Y-77170615D01*
X106739684Y-77221745D01*
X106766914Y-77224703D01*
X106779108Y-77226028D01*
X106844670Y-77253270D01*
X106885096Y-77311634D01*
X106891500Y-77351291D01*
X106891500Y-77651323D01*
X106871498Y-77719444D01*
X106854679Y-77740334D01*
X106823071Y-77771997D01*
X106792414Y-77821731D01*
X106746960Y-77895472D01*
X106731791Y-77920080D01*
X106677026Y-78085191D01*
X106666500Y-78187928D01*
X106666500Y-78887072D01*
X106666837Y-78890318D01*
X106666837Y-78890322D01*
X106674389Y-78963100D01*
X106677293Y-78991093D01*
X106732346Y-79156107D01*
X106823884Y-79304031D01*
X106829065Y-79309203D01*
X106831139Y-79311273D01*
X106832105Y-79313038D01*
X106833613Y-79314941D01*
X106833287Y-79315199D01*
X106865219Y-79373554D01*
X106860218Y-79444375D01*
X106831292Y-79489470D01*
X106828636Y-79492131D01*
X106819625Y-79503540D01*
X106736088Y-79639063D01*
X106729944Y-79652241D01*
X106679685Y-79803766D01*
X106676819Y-79817132D01*
X106667328Y-79909770D01*
X106667000Y-79916185D01*
X106667000Y-79990385D01*
X106671475Y-80005624D01*
X106672865Y-80006829D01*
X106680548Y-80008500D01*
X108614885Y-80008500D01*
X108630124Y-80004025D01*
X108631329Y-80002635D01*
X108633000Y-79994952D01*
X108633000Y-79934500D01*
X108653002Y-79866379D01*
X108706658Y-79819886D01*
X108759000Y-79808500D01*
X108945487Y-79808500D01*
X108951939Y-79807128D01*
X108951944Y-79807128D01*
X109038887Y-79788647D01*
X109132288Y-79768794D01*
X109148215Y-79761703D01*
X109300722Y-79693803D01*
X109300724Y-79693802D01*
X109306752Y-79691118D01*
X109321813Y-79680176D01*
X109372040Y-79643683D01*
X109461253Y-79578866D01*
X109486400Y-79550937D01*
X109584621Y-79441852D01*
X109584622Y-79441851D01*
X109589040Y-79436944D01*
X109661596Y-79311273D01*
X109681223Y-79277279D01*
X109681224Y-79277278D01*
X109684527Y-79271556D01*
X109743542Y-79089928D01*
X109763504Y-78900000D01*
X109747035Y-78743302D01*
X109744232Y-78716635D01*
X109744232Y-78716633D01*
X109743542Y-78710072D01*
X109684527Y-78528444D01*
X109671342Y-78505606D01*
X109639315Y-78450135D01*
X109589040Y-78363056D01*
X109568569Y-78340320D01*
X109465675Y-78226045D01*
X109465674Y-78226044D01*
X109461253Y-78221134D01*
X109306752Y-78108882D01*
X109300724Y-78106198D01*
X109300722Y-78106197D01*
X109189558Y-78056704D01*
X109132288Y-78031206D01*
X109071143Y-78018209D01*
X109015763Y-77990987D01*
X109005730Y-77982463D01*
X108998216Y-77975535D01*
X108992521Y-77969840D01*
X108981449Y-77961080D01*
X108970249Y-77952219D01*
X108966845Y-77949428D01*
X108916797Y-77906909D01*
X108916795Y-77906908D01*
X108911215Y-77902167D01*
X108904699Y-77898839D01*
X108899650Y-77895472D01*
X108894521Y-77892305D01*
X108888784Y-77887766D01*
X108822625Y-77856845D01*
X108818725Y-77854939D01*
X108753692Y-77821731D01*
X108746584Y-77819992D01*
X108740941Y-77817893D01*
X108735178Y-77815976D01*
X108728550Y-77812878D01*
X108657083Y-77798013D01*
X108652799Y-77797043D01*
X108630146Y-77791500D01*
X108581890Y-77779692D01*
X108576288Y-77779344D01*
X108576285Y-77779344D01*
X108570736Y-77779000D01*
X108570738Y-77778964D01*
X108566745Y-77778725D01*
X108562553Y-77778351D01*
X108555385Y-77776860D01*
X108547835Y-77777064D01*
X108538063Y-77777328D01*
X108469426Y-77759173D01*
X108445564Y-77740469D01*
X108445405Y-77740310D01*
X108411379Y-77677998D01*
X108408500Y-77651215D01*
X108408500Y-77351291D01*
X108428502Y-77283170D01*
X108482158Y-77236677D01*
X108520892Y-77226028D01*
X108533086Y-77224703D01*
X108560316Y-77221745D01*
X108696705Y-77170615D01*
X108813261Y-77083261D01*
X108900615Y-76966705D01*
X108951745Y-76830316D01*
X108958500Y-76768134D01*
X108958500Y-75771866D01*
X108951745Y-75709684D01*
X108900615Y-75573295D01*
X108894611Y-75565283D01*
X108877881Y-75542961D01*
X108853033Y-75476454D01*
X108865653Y-75411766D01*
X108900197Y-75341564D01*
X108900200Y-75341556D01*
X108903018Y-75335829D01*
X108905002Y-75328212D01*
X108950492Y-75153575D01*
X108950492Y-75153572D01*
X108952102Y-75147393D01*
X108959782Y-75000852D01*
X108961959Y-74959317D01*
X108961959Y-74959313D01*
X108962293Y-74952936D01*
X108936087Y-74779655D01*
X108934130Y-74766715D01*
X108934130Y-74766714D01*
X108933175Y-74760401D01*
X108930972Y-74754415D01*
X108930971Y-74754409D01*
X108868140Y-74583640D01*
X108868138Y-74583635D01*
X108865937Y-74577654D01*
X108773920Y-74429247D01*
X108755023Y-74360814D01*
X108776125Y-74293025D01*
X108781447Y-74285626D01*
X108812711Y-74245320D01*
X108819435Y-74234560D01*
X108899732Y-74071375D01*
X108904155Y-74059481D01*
X108919251Y-74001530D01*
X108918817Y-73987436D01*
X108910636Y-73984000D01*
X106390771Y-73984000D01*
X106377240Y-73987973D01*
X106376363Y-73994075D01*
X106432310Y-74146136D01*
X106437877Y-74157549D01*
X106526124Y-74299877D01*
X106545022Y-74368313D01*
X106523920Y-74436101D01*
X106518598Y-74443499D01*
X106486866Y-74484408D01*
X106486861Y-74484417D01*
X106482954Y-74489453D01*
X106396982Y-74664171D01*
X106395373Y-74670349D01*
X106395372Y-74670351D01*
X106351885Y-74837302D01*
X106347898Y-74852607D01*
X106344785Y-74912000D01*
X106338220Y-75037279D01*
X106337707Y-75047064D01*
X90508000Y-75047064D01*
X90508000Y-68871578D01*
X93580384Y-68871578D01*
X93580754Y-68878399D01*
X93586278Y-68929261D01*
X93589904Y-68944513D01*
X93635059Y-69064963D01*
X93643597Y-69080558D01*
X93720098Y-69182633D01*
X93732659Y-69195194D01*
X93834734Y-69271695D01*
X93850329Y-69280233D01*
X93970777Y-69325387D01*
X93986032Y-69329014D01*
X94036897Y-69334540D01*
X94043711Y-69334909D01*
X94416268Y-69334909D01*
X94431507Y-69330434D01*
X94432712Y-69329044D01*
X94434383Y-69321361D01*
X94434383Y-69316793D01*
X94942383Y-69316793D01*
X94946858Y-69332032D01*
X94948248Y-69333237D01*
X94955931Y-69334908D01*
X95333052Y-69334908D01*
X95339873Y-69334538D01*
X95390735Y-69329014D01*
X95405987Y-69325388D01*
X95526437Y-69280233D01*
X95542032Y-69271695D01*
X95644107Y-69195194D01*
X95656668Y-69182633D01*
X95733169Y-69080558D01*
X95741707Y-69064963D01*
X95786861Y-68944515D01*
X95790488Y-68929260D01*
X95796014Y-68878395D01*
X95796383Y-68871581D01*
X95796383Y-67349024D01*
X95791908Y-67333785D01*
X95790518Y-67332580D01*
X95782835Y-67330909D01*
X94960498Y-67330909D01*
X94945259Y-67335384D01*
X94944054Y-67336774D01*
X94942383Y-67344457D01*
X94942383Y-69316793D01*
X94434383Y-69316793D01*
X94434383Y-67349024D01*
X94429908Y-67333785D01*
X94428518Y-67332580D01*
X94420835Y-67330909D01*
X93598499Y-67330909D01*
X93583260Y-67335384D01*
X93582055Y-67336774D01*
X93580384Y-67344457D01*
X93580384Y-68871578D01*
X90508000Y-68871578D01*
X90508000Y-67284840D01*
X98604500Y-67284840D01*
X98604725Y-67290149D01*
X98619160Y-67460271D01*
X98620952Y-67470759D01*
X98678301Y-67691711D01*
X98681833Y-67701739D01*
X98775585Y-67909863D01*
X98780765Y-67919169D01*
X98908247Y-68108524D01*
X98914906Y-68116807D01*
X99072471Y-68281978D01*
X99080442Y-68289030D01*
X99263582Y-68425290D01*
X99272619Y-68430894D01*
X99476106Y-68534351D01*
X99485959Y-68538352D01*
X99703961Y-68606044D01*
X99714348Y-68608328D01*
X99740543Y-68611800D01*
X99754707Y-68609604D01*
X99758500Y-68596419D01*
X99758500Y-68594782D01*
X100266500Y-68594782D01*
X100270473Y-68608313D01*
X100281080Y-68609838D01*
X100413340Y-68582087D01*
X100423537Y-68579027D01*
X100635840Y-68495185D01*
X100645376Y-68490451D01*
X100840525Y-68372032D01*
X100849118Y-68365766D01*
X101021527Y-68216158D01*
X101028947Y-68208528D01*
X101173680Y-68032012D01*
X101179706Y-68023245D01*
X101292629Y-67824867D01*
X101297095Y-67815203D01*
X101374981Y-67600632D01*
X101377751Y-67590365D01*
X101418581Y-67364568D01*
X101419516Y-67356338D01*
X101420430Y-67336944D01*
X101420500Y-67333974D01*
X101420500Y-66399615D01*
X101416025Y-66384376D01*
X101414635Y-66383171D01*
X101406952Y-66381500D01*
X100284615Y-66381500D01*
X100269376Y-66385975D01*
X100268171Y-66387365D01*
X100266500Y-66395048D01*
X100266500Y-68594782D01*
X99758500Y-68594782D01*
X99758500Y-66399615D01*
X99754025Y-66384376D01*
X99752635Y-66383171D01*
X99744952Y-66381500D01*
X98622615Y-66381500D01*
X98607376Y-66385975D01*
X98606171Y-66387365D01*
X98604500Y-66395048D01*
X98604500Y-67284840D01*
X90508000Y-67284840D01*
X90508000Y-66804794D01*
X93580383Y-66804794D01*
X93584858Y-66820033D01*
X93586248Y-66821238D01*
X93593931Y-66822909D01*
X94416268Y-66822909D01*
X94431507Y-66818434D01*
X94432712Y-66817044D01*
X94434383Y-66809361D01*
X94434383Y-66804794D01*
X94942383Y-66804794D01*
X94946858Y-66820033D01*
X94948248Y-66821238D01*
X94955931Y-66822909D01*
X95778267Y-66822909D01*
X95793506Y-66818434D01*
X95794711Y-66817044D01*
X95796382Y-66809361D01*
X95796382Y-65855385D01*
X98604500Y-65855385D01*
X98608975Y-65870624D01*
X98610365Y-65871829D01*
X98618048Y-65873500D01*
X99740385Y-65873500D01*
X99755624Y-65869025D01*
X99756829Y-65867635D01*
X99758500Y-65859952D01*
X99758500Y-65855385D01*
X100266500Y-65855385D01*
X100270975Y-65870624D01*
X100272365Y-65871829D01*
X100280048Y-65873500D01*
X101402385Y-65873500D01*
X101417624Y-65869025D01*
X101418829Y-65867635D01*
X101420500Y-65859952D01*
X101420500Y-64970160D01*
X101420275Y-64964851D01*
X101405840Y-64794729D01*
X101404048Y-64784241D01*
X101346699Y-64563289D01*
X101343167Y-64553261D01*
X101249415Y-64345137D01*
X101244235Y-64335831D01*
X101116753Y-64146476D01*
X101110094Y-64138193D01*
X100952529Y-63973022D01*
X100944558Y-63965970D01*
X100761418Y-63829710D01*
X100752381Y-63824106D01*
X100548894Y-63720649D01*
X100539041Y-63716648D01*
X100321039Y-63648956D01*
X100310652Y-63646672D01*
X100284457Y-63643200D01*
X100270293Y-63645396D01*
X100266500Y-63658581D01*
X100266500Y-65855385D01*
X99758500Y-65855385D01*
X99758500Y-63660218D01*
X99754527Y-63646687D01*
X99743920Y-63645162D01*
X99611660Y-63672913D01*
X99601463Y-63675973D01*
X99389160Y-63759815D01*
X99379624Y-63764549D01*
X99184475Y-63882968D01*
X99175882Y-63889234D01*
X99003473Y-64038842D01*
X98996053Y-64046472D01*
X98851320Y-64222988D01*
X98845294Y-64231755D01*
X98732371Y-64430133D01*
X98727905Y-64439797D01*
X98650019Y-64654368D01*
X98647249Y-64664635D01*
X98606419Y-64890432D01*
X98605484Y-64898662D01*
X98604570Y-64918050D01*
X98604500Y-64921026D01*
X98604500Y-65855385D01*
X95796382Y-65855385D01*
X95796382Y-65282240D01*
X95796012Y-65275419D01*
X95790488Y-65224557D01*
X95786862Y-65209305D01*
X95741707Y-65088855D01*
X95733169Y-65073260D01*
X95656668Y-64971185D01*
X95644107Y-64958624D01*
X95542032Y-64882123D01*
X95526437Y-64873585D01*
X95405989Y-64828431D01*
X95390734Y-64824804D01*
X95339869Y-64819278D01*
X95333055Y-64818909D01*
X94960498Y-64818909D01*
X94945259Y-64823384D01*
X94944054Y-64824774D01*
X94942383Y-64832457D01*
X94942383Y-66804794D01*
X94434383Y-66804794D01*
X94434383Y-64837025D01*
X94429908Y-64821786D01*
X94428518Y-64820581D01*
X94420835Y-64818910D01*
X94043714Y-64818910D01*
X94036893Y-64819280D01*
X93986031Y-64824804D01*
X93970779Y-64828430D01*
X93850329Y-64873585D01*
X93834734Y-64882123D01*
X93732659Y-64958624D01*
X93720098Y-64971185D01*
X93643597Y-65073260D01*
X93635059Y-65088855D01*
X93589905Y-65209303D01*
X93586278Y-65224558D01*
X93580752Y-65275423D01*
X93580383Y-65282237D01*
X93580383Y-66804794D01*
X90508000Y-66804794D01*
X90508000Y-63396080D01*
X102230162Y-63396080D01*
X102257913Y-63528340D01*
X102260973Y-63538537D01*
X102344815Y-63750840D01*
X102349549Y-63760376D01*
X102467968Y-63955525D01*
X102474234Y-63964118D01*
X102623842Y-64136527D01*
X102631472Y-64143947D01*
X102807988Y-64288680D01*
X102816755Y-64294706D01*
X103015133Y-64407629D01*
X103024797Y-64412095D01*
X103239368Y-64489981D01*
X103249635Y-64492751D01*
X103475432Y-64533581D01*
X103483662Y-64534516D01*
X103503050Y-64535430D01*
X103506026Y-64535500D01*
X104440385Y-64535500D01*
X104455624Y-64531025D01*
X104456829Y-64529635D01*
X104458500Y-64521952D01*
X104458500Y-64517385D01*
X104966500Y-64517385D01*
X104970975Y-64532624D01*
X104972365Y-64533829D01*
X104980048Y-64535500D01*
X105869840Y-64535500D01*
X105875149Y-64535275D01*
X106045271Y-64520840D01*
X106055759Y-64519048D01*
X106276711Y-64461699D01*
X106286739Y-64458167D01*
X106494863Y-64364415D01*
X106504169Y-64359235D01*
X106693524Y-64231753D01*
X106701807Y-64225094D01*
X106866978Y-64067529D01*
X106874030Y-64059558D01*
X107010290Y-63876418D01*
X107015894Y-63867381D01*
X107119351Y-63663894D01*
X107123352Y-63654041D01*
X107191044Y-63436039D01*
X107193328Y-63425652D01*
X107196800Y-63399457D01*
X107194604Y-63385293D01*
X107181419Y-63381500D01*
X104984615Y-63381500D01*
X104969376Y-63385975D01*
X104968171Y-63387365D01*
X104966500Y-63395048D01*
X104966500Y-64517385D01*
X104458500Y-64517385D01*
X104458500Y-63399615D01*
X104454025Y-63384376D01*
X104452635Y-63383171D01*
X104444952Y-63381500D01*
X102245218Y-63381500D01*
X102231687Y-63385473D01*
X102230162Y-63396080D01*
X90508000Y-63396080D01*
X90508000Y-61079612D01*
X91890743Y-61079612D01*
X91891302Y-61083856D01*
X91891302Y-61083860D01*
X91895086Y-61112600D01*
X91928268Y-61364643D01*
X91929401Y-61368783D01*
X91929401Y-61368785D01*
X91944601Y-61424348D01*
X92004129Y-61641945D01*
X92005813Y-61645893D01*
X92110184Y-61890585D01*
X92116923Y-61906385D01*
X92190849Y-62029906D01*
X92254879Y-62136892D01*
X92264561Y-62153070D01*
X92444313Y-62377437D01*
X92522883Y-62451997D01*
X92618125Y-62542378D01*
X92652851Y-62575332D01*
X92886317Y-62743095D01*
X92890112Y-62745104D01*
X92890113Y-62745105D01*
X92911869Y-62756624D01*
X93140392Y-62877621D01*
X93410373Y-62976420D01*
X93691264Y-63037664D01*
X93719841Y-63039913D01*
X93914282Y-63055216D01*
X93914291Y-63055216D01*
X93916739Y-63055409D01*
X94072271Y-63055409D01*
X94074407Y-63055263D01*
X94074418Y-63055263D01*
X94282548Y-63041074D01*
X94282554Y-63041073D01*
X94286825Y-63040782D01*
X94291020Y-63039913D01*
X94291022Y-63039913D01*
X94466381Y-63003598D01*
X94568342Y-62982483D01*
X94839343Y-62886516D01*
X94899352Y-62855543D01*
X102228200Y-62855543D01*
X102230396Y-62869707D01*
X102243581Y-62873500D01*
X104440385Y-62873500D01*
X104455624Y-62869025D01*
X104456829Y-62867635D01*
X104458500Y-62859952D01*
X104458500Y-62855385D01*
X104966500Y-62855385D01*
X104970975Y-62870624D01*
X104972365Y-62871829D01*
X104980048Y-62873500D01*
X107179782Y-62873500D01*
X107193313Y-62869527D01*
X107194838Y-62858920D01*
X107167087Y-62726660D01*
X107164027Y-62716463D01*
X107080185Y-62504160D01*
X107075451Y-62494624D01*
X106957032Y-62299475D01*
X106950766Y-62290882D01*
X106801158Y-62118473D01*
X106793528Y-62111053D01*
X106617012Y-61966320D01*
X106608245Y-61960294D01*
X106409867Y-61847371D01*
X106400203Y-61842905D01*
X106185632Y-61765019D01*
X106175365Y-61762249D01*
X105949568Y-61721419D01*
X105941338Y-61720484D01*
X105921950Y-61719570D01*
X105918974Y-61719500D01*
X104984615Y-61719500D01*
X104969376Y-61723975D01*
X104968171Y-61725365D01*
X104966500Y-61733048D01*
X104966500Y-62855385D01*
X104458500Y-62855385D01*
X104458500Y-61737615D01*
X104454025Y-61722376D01*
X104452635Y-61721171D01*
X104444952Y-61719500D01*
X103555160Y-61719500D01*
X103549851Y-61719725D01*
X103379729Y-61734160D01*
X103369241Y-61735952D01*
X103148289Y-61793301D01*
X103138261Y-61796833D01*
X102930137Y-61890585D01*
X102920831Y-61895765D01*
X102731476Y-62023247D01*
X102723193Y-62029906D01*
X102558022Y-62187471D01*
X102550970Y-62195442D01*
X102414710Y-62378582D01*
X102409106Y-62387619D01*
X102305649Y-62591106D01*
X102301648Y-62600959D01*
X102233956Y-62818961D01*
X102231672Y-62829348D01*
X102228200Y-62855543D01*
X94899352Y-62855543D01*
X95094812Y-62754659D01*
X95098313Y-62752198D01*
X95098317Y-62752196D01*
X95280637Y-62624059D01*
X95330023Y-62589350D01*
X95487495Y-62443018D01*
X95537479Y-62396570D01*
X95537481Y-62396567D01*
X95540622Y-62393649D01*
X95722713Y-62171177D01*
X95872927Y-61926051D01*
X95875661Y-61919824D01*
X95986757Y-61666739D01*
X95988483Y-61662807D01*
X95991882Y-61650877D01*
X96056708Y-61423303D01*
X96067244Y-61386315D01*
X96106371Y-61111389D01*
X96107146Y-61105945D01*
X96107146Y-61105943D01*
X96107751Y-61101693D01*
X96107845Y-61083860D01*
X96108299Y-60997095D01*
X110792001Y-60997095D01*
X110792338Y-61003614D01*
X110802257Y-61099206D01*
X110805149Y-61112600D01*
X110856588Y-61266784D01*
X110862761Y-61279962D01*
X110948063Y-61417807D01*
X110957099Y-61429208D01*
X111071829Y-61543739D01*
X111083240Y-61552751D01*
X111221243Y-61637816D01*
X111234424Y-61643963D01*
X111388710Y-61695138D01*
X111402086Y-61698005D01*
X111496438Y-61707672D01*
X111502854Y-61708000D01*
X111627885Y-61708000D01*
X111643124Y-61703525D01*
X111644329Y-61702135D01*
X111646000Y-61694452D01*
X111646000Y-61689884D01*
X112154000Y-61689884D01*
X112158475Y-61705123D01*
X112159865Y-61706328D01*
X112167548Y-61707999D01*
X112297095Y-61707999D01*
X112303614Y-61707662D01*
X112399206Y-61697743D01*
X112412600Y-61694851D01*
X112566784Y-61643412D01*
X112579962Y-61637239D01*
X112717807Y-61551937D01*
X112729217Y-61542894D01*
X112776080Y-61523927D01*
X112789298Y-61485263D01*
X112803036Y-61468945D01*
X112810429Y-61461539D01*
X112872712Y-61427459D01*
X112943532Y-61432462D01*
X112988595Y-61461357D01*
X112989459Y-61462219D01*
X113023556Y-61524492D01*
X113018574Y-61595314D01*
X112979452Y-61649170D01*
X112975652Y-61651522D01*
X112970477Y-61656706D01*
X112970472Y-61656710D01*
X112923611Y-61675676D01*
X112910393Y-61714339D01*
X112896654Y-61730658D01*
X112850695Y-61776697D01*
X112846855Y-61782927D01*
X112846854Y-61782928D01*
X112766517Y-61913259D01*
X112757885Y-61927262D01*
X112752658Y-61943022D01*
X112705038Y-62086593D01*
X112702203Y-62095139D01*
X112691500Y-62199600D01*
X112691500Y-63000400D01*
X112691837Y-63003646D01*
X112691837Y-63003650D01*
X112701287Y-63094722D01*
X112702474Y-63106166D01*
X112704655Y-63112702D01*
X112704655Y-63112704D01*
X112746322Y-63237595D01*
X112758450Y-63273946D01*
X112851522Y-63424348D01*
X112856704Y-63429521D01*
X112938109Y-63510784D01*
X112972188Y-63573066D01*
X112967185Y-63643886D01*
X112938264Y-63688975D01*
X112890737Y-63736585D01*
X112850695Y-63776697D01*
X112846855Y-63782927D01*
X112846854Y-63782928D01*
X112801052Y-63857233D01*
X112757885Y-63927262D01*
X112745548Y-63964457D01*
X112705038Y-64086593D01*
X112702203Y-64095139D01*
X112701503Y-64101975D01*
X112701502Y-64101978D01*
X112699036Y-64126045D01*
X112691500Y-64199600D01*
X112691500Y-65000400D01*
X112691837Y-65003646D01*
X112691837Y-65003650D01*
X112700721Y-65089269D01*
X112702474Y-65106166D01*
X112704655Y-65112702D01*
X112704655Y-65112704D01*
X112735294Y-65204538D01*
X112758450Y-65273946D01*
X112763581Y-65282237D01*
X112845232Y-65414183D01*
X112851522Y-65424348D01*
X112856704Y-65429521D01*
X112861249Y-65435255D01*
X112859576Y-65436581D01*
X112888598Y-65489625D01*
X112891500Y-65516511D01*
X112891500Y-65527450D01*
X112876736Y-65585158D01*
X112874385Y-65588295D01*
X112823255Y-65724684D01*
X112816500Y-65786866D01*
X112816500Y-66292937D01*
X112796498Y-66361058D01*
X112742842Y-66407551D01*
X112672568Y-66417655D01*
X112624385Y-66400197D01*
X112560941Y-66361090D01*
X112547759Y-66354944D01*
X112396234Y-66304685D01*
X112382868Y-66301819D01*
X112290230Y-66292328D01*
X112283815Y-66292000D01*
X112272115Y-66292000D01*
X112256876Y-66296475D01*
X112255671Y-66297865D01*
X112254000Y-66305548D01*
X112254000Y-67065385D01*
X112258475Y-67080624D01*
X112259865Y-67081829D01*
X112267548Y-67083500D01*
X112850176Y-67083500D01*
X112918297Y-67103502D01*
X112951001Y-67133934D01*
X112961739Y-67148261D01*
X113078295Y-67235615D01*
X113214684Y-67286745D01*
X113276866Y-67293500D01*
X113646476Y-67293500D01*
X113684152Y-67299265D01*
X113692768Y-67301965D01*
X113694536Y-67302157D01*
X113696232Y-67302682D01*
X113702085Y-67303297D01*
X113702089Y-67303298D01*
X113779501Y-67311434D01*
X113792730Y-67312824D01*
X113792924Y-67312845D01*
X113889388Y-67323324D01*
X113891157Y-67323169D01*
X113892925Y-67323355D01*
X113989625Y-67314555D01*
X114080552Y-67306600D01*
X114080554Y-67306600D01*
X114086413Y-67306087D01*
X114088121Y-67305591D01*
X114089888Y-67305430D01*
X114113006Y-67298626D01*
X114148581Y-67293500D01*
X114523134Y-67293500D01*
X114585316Y-67286745D01*
X114665946Y-67256518D01*
X114710176Y-67248500D01*
X116735565Y-67248500D01*
X116803686Y-67268502D01*
X116850179Y-67322158D01*
X116853547Y-67330270D01*
X116866405Y-67364568D01*
X116894385Y-67439205D01*
X116981739Y-67555761D01*
X117098295Y-67643115D01*
X117106703Y-67646267D01*
X117227286Y-67691472D01*
X117227289Y-67691473D01*
X117234684Y-67694245D01*
X117240453Y-67694872D01*
X117301291Y-67729626D01*
X117334113Y-67792581D01*
X117336500Y-67816993D01*
X117336500Y-69085324D01*
X117316498Y-69153445D01*
X117262842Y-69199938D01*
X117192568Y-69210042D01*
X117127988Y-69180548D01*
X117121482Y-69174497D01*
X117078171Y-69131261D01*
X117066760Y-69122249D01*
X116928757Y-69037184D01*
X116915576Y-69031037D01*
X116761290Y-68979862D01*
X116747914Y-68976995D01*
X116653562Y-68967328D01*
X116647145Y-68967000D01*
X116534615Y-68967000D01*
X116519376Y-68971475D01*
X116518171Y-68972865D01*
X116516500Y-68980548D01*
X116516500Y-71414884D01*
X116520975Y-71430123D01*
X116522365Y-71431328D01*
X116530048Y-71432999D01*
X116647095Y-71432999D01*
X116653614Y-71432662D01*
X116749206Y-71422743D01*
X116762600Y-71419851D01*
X116916784Y-71368412D01*
X116929962Y-71362239D01*
X117067807Y-71276937D01*
X117079208Y-71267901D01*
X117193738Y-71153172D01*
X117200794Y-71144238D01*
X117258712Y-71103177D01*
X117329635Y-71099947D01*
X117391046Y-71135574D01*
X117397846Y-71143407D01*
X117401522Y-71149348D01*
X117526697Y-71274305D01*
X117532927Y-71278145D01*
X117532928Y-71278146D01*
X117670288Y-71362816D01*
X117677262Y-71367115D01*
X117739526Y-71387767D01*
X117838611Y-71420632D01*
X117838613Y-71420632D01*
X117845139Y-71422797D01*
X117851975Y-71423497D01*
X117851978Y-71423498D01*
X117895031Y-71427909D01*
X117949600Y-71433500D01*
X118725400Y-71433500D01*
X118728646Y-71433163D01*
X118728650Y-71433163D01*
X118824308Y-71423238D01*
X118824312Y-71423237D01*
X118831166Y-71422526D01*
X118837702Y-71420345D01*
X118837704Y-71420345D01*
X118969806Y-71376272D01*
X118998946Y-71366550D01*
X119149348Y-71273478D01*
X119274305Y-71148303D01*
X119304112Y-71099947D01*
X119363275Y-71003968D01*
X119363276Y-71003966D01*
X119367115Y-70997738D01*
X119422797Y-70829861D01*
X119426597Y-70792778D01*
X119430964Y-70750147D01*
X119433500Y-70725400D01*
X119433500Y-69674600D01*
X119432619Y-69666109D01*
X119423238Y-69575692D01*
X119423237Y-69575688D01*
X119422526Y-69568834D01*
X119390872Y-69473955D01*
X119368867Y-69407998D01*
X119368866Y-69407996D01*
X119366550Y-69401054D01*
X119364911Y-69398406D01*
X119353500Y-69347144D01*
X119353500Y-67816993D01*
X119373502Y-67748872D01*
X119427158Y-67702379D01*
X119448763Y-67694957D01*
X119455316Y-67694245D01*
X119462711Y-67691473D01*
X119462714Y-67691472D01*
X119583297Y-67646267D01*
X119591705Y-67643115D01*
X119708261Y-67555761D01*
X119795615Y-67439205D01*
X119846745Y-67302816D01*
X119853500Y-67240634D01*
X119853500Y-65239366D01*
X119846745Y-65177184D01*
X119795615Y-65040795D01*
X119708261Y-64924239D01*
X119591705Y-64836885D01*
X119571317Y-64829242D01*
X119514553Y-64786599D01*
X119489854Y-64720038D01*
X119505062Y-64650689D01*
X119516666Y-64633168D01*
X119609945Y-64515056D01*
X119615650Y-64506469D01*
X119726714Y-64305278D01*
X119730944Y-64295866D01*
X119807659Y-64079232D01*
X119810293Y-64069261D01*
X119827647Y-63971837D01*
X119826187Y-63958540D01*
X119811630Y-63954000D01*
X116876904Y-63954000D01*
X116863560Y-63957918D01*
X116861573Y-63972194D01*
X116871110Y-64034515D01*
X116873499Y-64044543D01*
X116944898Y-64262988D01*
X116948895Y-64272497D01*
X117055011Y-64476344D01*
X117060500Y-64485061D01*
X117173902Y-64636099D01*
X117198807Y-64702584D01*
X117183814Y-64771980D01*
X117133684Y-64822253D01*
X117117375Y-64829732D01*
X117098295Y-64836885D01*
X116981739Y-64924239D01*
X116894385Y-65040795D01*
X116891233Y-65049203D01*
X116853547Y-65149730D01*
X116810905Y-65206494D01*
X116744344Y-65231194D01*
X116735565Y-65231500D01*
X115224391Y-65231500D01*
X115156270Y-65211498D01*
X115109777Y-65157842D01*
X115099047Y-65092657D01*
X115099395Y-65089269D01*
X115108500Y-65000400D01*
X115108500Y-64199600D01*
X115101956Y-64136527D01*
X115098238Y-64100692D01*
X115098237Y-64100688D01*
X115097526Y-64093834D01*
X115092655Y-64079232D01*
X115043868Y-63933002D01*
X115041550Y-63926054D01*
X114948478Y-63775652D01*
X114861891Y-63689216D01*
X114827812Y-63626934D01*
X114832815Y-63556114D01*
X114861736Y-63511025D01*
X114944134Y-63428483D01*
X114949305Y-63423303D01*
X114971458Y-63387365D01*
X115038275Y-63278968D01*
X115038276Y-63278966D01*
X115042115Y-63272738D01*
X115087133Y-63137012D01*
X115095632Y-63111389D01*
X115095632Y-63111387D01*
X115097797Y-63104861D01*
X115100154Y-63081862D01*
X115102909Y-63054969D01*
X115108500Y-63000400D01*
X115108500Y-62199600D01*
X115108069Y-62195442D01*
X115098238Y-62100692D01*
X115098237Y-62100688D01*
X115097526Y-62093834D01*
X115094892Y-62085937D01*
X115043868Y-61933002D01*
X115041550Y-61926054D01*
X114948478Y-61775652D01*
X114823303Y-61650695D01*
X114820449Y-61648936D01*
X114780329Y-61592349D01*
X114777097Y-61521426D01*
X114810310Y-61462367D01*
X114844133Y-61428484D01*
X114849305Y-61423303D01*
X114860533Y-61405088D01*
X114938275Y-61278968D01*
X114938276Y-61278966D01*
X114942115Y-61272738D01*
X114997797Y-61104861D01*
X115008500Y-61000400D01*
X115008500Y-59999600D01*
X115007648Y-59991385D01*
X114998238Y-59900692D01*
X114998237Y-59900688D01*
X114997526Y-59893834D01*
X114992647Y-59879208D01*
X114943868Y-59733002D01*
X114941550Y-59726054D01*
X114848478Y-59575652D01*
X114833186Y-59560386D01*
X114799106Y-59498105D01*
X114796893Y-59458042D01*
X114797081Y-59456261D01*
X114813504Y-59300000D01*
X114808614Y-59253470D01*
X114794232Y-59116635D01*
X114794232Y-59116633D01*
X114793542Y-59110072D01*
X114734527Y-58928444D01*
X114724148Y-58910466D01*
X114663617Y-58805624D01*
X114639040Y-58763056D01*
X114536834Y-58649544D01*
X114515675Y-58626045D01*
X114515674Y-58626044D01*
X114511253Y-58621134D01*
X114400477Y-58540650D01*
X114362094Y-58512763D01*
X114362093Y-58512762D01*
X114356752Y-58508882D01*
X114350724Y-58506198D01*
X114350722Y-58506197D01*
X114188319Y-58433891D01*
X114188318Y-58433891D01*
X114182288Y-58431206D01*
X114088887Y-58411353D01*
X114001944Y-58392872D01*
X114001939Y-58392872D01*
X113995487Y-58391500D01*
X113804513Y-58391500D01*
X113798061Y-58392872D01*
X113798056Y-58392872D01*
X113711113Y-58411353D01*
X113617712Y-58431206D01*
X113611682Y-58433891D01*
X113611681Y-58433891D01*
X113449278Y-58506197D01*
X113449276Y-58506198D01*
X113443248Y-58508882D01*
X113437907Y-58512762D01*
X113437906Y-58512763D01*
X113399523Y-58540650D01*
X113288747Y-58621134D01*
X113284326Y-58626044D01*
X113284325Y-58626045D01*
X113263167Y-58649544D01*
X113160960Y-58763056D01*
X113136383Y-58805624D01*
X113075853Y-58910466D01*
X113065473Y-58928444D01*
X113006458Y-59110072D01*
X113005768Y-59116633D01*
X113005768Y-59116635D01*
X112991386Y-59253470D01*
X112986496Y-59300000D01*
X112997985Y-59409308D01*
X112985213Y-59479144D01*
X112936711Y-59530991D01*
X112867879Y-59548386D01*
X112800569Y-59525805D01*
X112783657Y-59511650D01*
X112728172Y-59456261D01*
X112716760Y-59447249D01*
X112578757Y-59362184D01*
X112565576Y-59356037D01*
X112411290Y-59304862D01*
X112397914Y-59301995D01*
X112303562Y-59292328D01*
X112297145Y-59292000D01*
X112172115Y-59292000D01*
X112156876Y-59296475D01*
X112155671Y-59297865D01*
X112154000Y-59305548D01*
X112154000Y-61689884D01*
X111646000Y-61689884D01*
X111646000Y-60772115D01*
X111641525Y-60756876D01*
X111640135Y-60755671D01*
X111632452Y-60754000D01*
X110810116Y-60754000D01*
X110794877Y-60758475D01*
X110793672Y-60759865D01*
X110792001Y-60767548D01*
X110792001Y-60997095D01*
X96108299Y-60997095D01*
X96109235Y-60818492D01*
X96109235Y-60818485D01*
X96109257Y-60814206D01*
X96106523Y-60793435D01*
X96081556Y-60603794D01*
X96071732Y-60529175D01*
X95995871Y-60251873D01*
X95985639Y-60227885D01*
X110792000Y-60227885D01*
X110796475Y-60243124D01*
X110797865Y-60244329D01*
X110805548Y-60246000D01*
X111627885Y-60246000D01*
X111643124Y-60241525D01*
X111644329Y-60240135D01*
X111646000Y-60232452D01*
X111646000Y-59310116D01*
X111641525Y-59294877D01*
X111640135Y-59293672D01*
X111632452Y-59292001D01*
X111502905Y-59292001D01*
X111496386Y-59292338D01*
X111400794Y-59302257D01*
X111387400Y-59305149D01*
X111233216Y-59356588D01*
X111220038Y-59362761D01*
X111082193Y-59448063D01*
X111070792Y-59457099D01*
X110956261Y-59571829D01*
X110947249Y-59583240D01*
X110862184Y-59721243D01*
X110856037Y-59734424D01*
X110804862Y-59888710D01*
X110801995Y-59902086D01*
X110792328Y-59996438D01*
X110792000Y-60002855D01*
X110792000Y-60227885D01*
X95985639Y-60227885D01*
X95984933Y-60226230D01*
X95884763Y-59991385D01*
X95884761Y-59991381D01*
X95883077Y-59987433D01*
X95802281Y-59852432D01*
X95737643Y-59744430D01*
X95737640Y-59744426D01*
X95735439Y-59740748D01*
X95555687Y-59516381D01*
X95429309Y-59396453D01*
X95350258Y-59321436D01*
X95350255Y-59321434D01*
X95347149Y-59318486D01*
X95113683Y-59150723D01*
X95091843Y-59139159D01*
X95036907Y-59110072D01*
X94859608Y-59016197D01*
X94636986Y-58934729D01*
X94593658Y-58918873D01*
X94593656Y-58918872D01*
X94589627Y-58917398D01*
X94308736Y-58856154D01*
X94270757Y-58853165D01*
X94085718Y-58838602D01*
X94085709Y-58838602D01*
X94083261Y-58838409D01*
X93927729Y-58838409D01*
X93925593Y-58838555D01*
X93925582Y-58838555D01*
X93717452Y-58852744D01*
X93717446Y-58852745D01*
X93713175Y-58853036D01*
X93708980Y-58853905D01*
X93708978Y-58853905D01*
X93681034Y-58859692D01*
X93431658Y-58911335D01*
X93160657Y-59007302D01*
X93125881Y-59025251D01*
X92948828Y-59116635D01*
X92905188Y-59139159D01*
X92901687Y-59141620D01*
X92901683Y-59141622D01*
X92832137Y-59190500D01*
X92669977Y-59304468D01*
X92607246Y-59362761D01*
X92470399Y-59489928D01*
X92459378Y-59500169D01*
X92277287Y-59722641D01*
X92127073Y-59967767D01*
X92125347Y-59971700D01*
X92125346Y-59971701D01*
X92038990Y-60168426D01*
X92011517Y-60231011D01*
X92010342Y-60235138D01*
X92010341Y-60235139D01*
X91979140Y-60344670D01*
X91932756Y-60507503D01*
X91902485Y-60720205D01*
X91893884Y-60780640D01*
X91892249Y-60792125D01*
X91892227Y-60796414D01*
X91892226Y-60796421D01*
X91890765Y-61075326D01*
X91890743Y-61079612D01*
X90508000Y-61079612D01*
X90508000Y-59053207D01*
X90509746Y-59032303D01*
X90512264Y-59017335D01*
X90513071Y-59012539D01*
X90513224Y-59000000D01*
X90511048Y-58984804D01*
X90509927Y-58960763D01*
X90511428Y-58930225D01*
X90524512Y-58663900D01*
X90525723Y-58651601D01*
X90527168Y-58641861D01*
X90574191Y-58324861D01*
X90576601Y-58312743D01*
X90588179Y-58266524D01*
X90656862Y-57992324D01*
X90660451Y-57980493D01*
X90771725Y-57669506D01*
X90776456Y-57658082D01*
X90840773Y-57522095D01*
X115167001Y-57522095D01*
X115167338Y-57528614D01*
X115177257Y-57624206D01*
X115180149Y-57637600D01*
X115231588Y-57791784D01*
X115237761Y-57804962D01*
X115323063Y-57942807D01*
X115332099Y-57954208D01*
X115446829Y-58068739D01*
X115458240Y-58077751D01*
X115596243Y-58162816D01*
X115609424Y-58168963D01*
X115763710Y-58220138D01*
X115777086Y-58223005D01*
X115871438Y-58232672D01*
X115877854Y-58233000D01*
X115990385Y-58233000D01*
X116005624Y-58228525D01*
X116006829Y-58227135D01*
X116008500Y-58219452D01*
X116008500Y-57272115D01*
X116004025Y-57256876D01*
X116002635Y-57255671D01*
X115994952Y-57254000D01*
X115185116Y-57254000D01*
X115169877Y-57258475D01*
X115168672Y-57259865D01*
X115167001Y-57267548D01*
X115167001Y-57522095D01*
X90840773Y-57522095D01*
X90917685Y-57359477D01*
X90923514Y-57348572D01*
X90926319Y-57343893D01*
X91014981Y-57195969D01*
X91093328Y-57065255D01*
X91100198Y-57054974D01*
X91296960Y-56789671D01*
X91304804Y-56780113D01*
X91352141Y-56727885D01*
X115167000Y-56727885D01*
X115171475Y-56743124D01*
X115172865Y-56744329D01*
X115180548Y-56746000D01*
X115990385Y-56746000D01*
X116005624Y-56741525D01*
X116006829Y-56740135D01*
X116008500Y-56732452D01*
X116008500Y-55785116D01*
X116004025Y-55769877D01*
X116002635Y-55768672D01*
X115994952Y-55767001D01*
X115877905Y-55767001D01*
X115871386Y-55767338D01*
X115775794Y-55777257D01*
X115762400Y-55780149D01*
X115608216Y-55831588D01*
X115595038Y-55837761D01*
X115457193Y-55923063D01*
X115445792Y-55932099D01*
X115331261Y-56046829D01*
X115322249Y-56058240D01*
X115237184Y-56196243D01*
X115231037Y-56209424D01*
X115179862Y-56363710D01*
X115176995Y-56377086D01*
X115167328Y-56471438D01*
X115167000Y-56477855D01*
X115167000Y-56727885D01*
X91352141Y-56727885D01*
X91526626Y-56535370D01*
X91535370Y-56526626D01*
X91780113Y-56304804D01*
X91789671Y-56296960D01*
X92054974Y-56100198D01*
X92065255Y-56093328D01*
X92338028Y-55929834D01*
X92348576Y-55923512D01*
X92359477Y-55917685D01*
X92391772Y-55902411D01*
X92508956Y-55846987D01*
X92658082Y-55776456D01*
X92669506Y-55771725D01*
X92949351Y-55671594D01*
X92980495Y-55660451D01*
X92992326Y-55656861D01*
X93012004Y-55651932D01*
X93312751Y-55576599D01*
X93324861Y-55574191D01*
X93651606Y-55525722D01*
X93663902Y-55524511D01*
X93752656Y-55520151D01*
X93957062Y-55510110D01*
X93982624Y-55511457D01*
X93984857Y-55511805D01*
X93984861Y-55511805D01*
X93993730Y-55513186D01*
X94002632Y-55512022D01*
X94002635Y-55512022D01*
X94022791Y-55509386D01*
X94025252Y-55509064D01*
X94041589Y-55508000D01*
X128641905Y-55508000D01*
X128710026Y-55528002D01*
G37*
%TD.AperFunction*%
%TA.AperFunction,Conductor*%
G36*
X173970057Y-55509500D02*
G01*
X173984858Y-55511805D01*
X173984861Y-55511805D01*
X173993730Y-55513186D01*
X174013054Y-55510659D01*
X174035570Y-55509747D01*
X174336100Y-55524512D01*
X174348394Y-55525722D01*
X174675139Y-55574191D01*
X174687249Y-55576599D01*
X174987996Y-55651932D01*
X175007674Y-55656861D01*
X175019505Y-55660451D01*
X175050649Y-55671594D01*
X175330494Y-55771725D01*
X175341918Y-55776456D01*
X175491044Y-55846987D01*
X175608229Y-55902411D01*
X175640523Y-55917685D01*
X175651424Y-55923512D01*
X175661972Y-55929834D01*
X175934745Y-56093328D01*
X175945026Y-56100198D01*
X176210329Y-56296960D01*
X176219887Y-56304804D01*
X176464630Y-56526626D01*
X176473374Y-56535370D01*
X176695196Y-56780113D01*
X176703040Y-56789671D01*
X176899802Y-57054974D01*
X176906672Y-57065255D01*
X176985019Y-57195969D01*
X177073682Y-57343893D01*
X177076486Y-57348572D01*
X177082315Y-57359477D01*
X177223544Y-57658082D01*
X177228275Y-57669506D01*
X177339549Y-57980493D01*
X177343138Y-57992324D01*
X177411822Y-58266524D01*
X177423399Y-58312743D01*
X177425809Y-58324861D01*
X177472832Y-58641861D01*
X177474277Y-58651601D01*
X177475489Y-58663907D01*
X177489890Y-58957062D01*
X177488543Y-58982624D01*
X177488195Y-58984857D01*
X177488195Y-58984861D01*
X177486814Y-58993730D01*
X177487978Y-59002632D01*
X177487978Y-59002635D01*
X177490936Y-59025251D01*
X177492000Y-59041589D01*
X177492000Y-83729937D01*
X177471998Y-83798058D01*
X177418342Y-83844551D01*
X177366000Y-83855937D01*
X171756108Y-83855937D01*
X171700380Y-83842943D01*
X171577365Y-83782279D01*
X171508428Y-83748283D01*
X171504513Y-83746954D01*
X171250668Y-83660785D01*
X171250665Y-83660784D01*
X171246761Y-83659459D01*
X171242722Y-83658656D01*
X171242716Y-83658654D01*
X170979783Y-83606354D01*
X170979780Y-83606354D01*
X170975740Y-83605550D01*
X170971629Y-83605281D01*
X170971625Y-83605280D01*
X170882723Y-83599453D01*
X170732239Y-83589590D01*
X170719597Y-83588116D01*
X170712539Y-83586929D01*
X170706184Y-83586851D01*
X170704859Y-83586835D01*
X170704855Y-83586835D01*
X170700000Y-83586776D01*
X170675715Y-83590254D01*
X170672412Y-83590727D01*
X170654549Y-83592000D01*
X153344083Y-83592000D01*
X153275962Y-83571998D01*
X153229469Y-83518342D01*
X153219365Y-83448068D01*
X153236823Y-83399885D01*
X153263910Y-83355941D01*
X153270056Y-83342759D01*
X153320315Y-83191234D01*
X153323181Y-83177868D01*
X153332672Y-83085230D01*
X153333000Y-83078815D01*
X153333000Y-83054615D01*
X153328525Y-83039376D01*
X153327135Y-83038171D01*
X153319452Y-83036500D01*
X151385115Y-83036500D01*
X151369876Y-83040975D01*
X151368671Y-83042365D01*
X151367000Y-83050048D01*
X151367000Y-83078766D01*
X151367337Y-83085282D01*
X151377075Y-83179132D01*
X151379968Y-83192528D01*
X151430488Y-83343953D01*
X151436653Y-83357115D01*
X151463004Y-83399698D01*
X151481841Y-83468150D01*
X151460679Y-83535919D01*
X151406238Y-83581490D01*
X151355859Y-83592000D01*
X145771756Y-83592000D01*
X145703635Y-83571998D01*
X145657142Y-83518342D01*
X145647038Y-83448068D01*
X145652163Y-83426333D01*
X145695315Y-83296234D01*
X145698181Y-83282868D01*
X145707672Y-83190230D01*
X145708000Y-83183815D01*
X145708000Y-83172115D01*
X145703525Y-83156876D01*
X145702135Y-83155671D01*
X145694452Y-83154000D01*
X144584500Y-83154000D01*
X144516379Y-83133998D01*
X144469886Y-83080342D01*
X144458500Y-83028000D01*
X144458500Y-82772000D01*
X144478502Y-82703879D01*
X144532158Y-82657386D01*
X144584500Y-82646000D01*
X145689885Y-82646000D01*
X145705124Y-82641525D01*
X145706329Y-82640135D01*
X145708000Y-82632452D01*
X145708000Y-82616234D01*
X145707663Y-82609718D01*
X145697925Y-82515868D01*
X145695030Y-82502463D01*
X145668244Y-82422177D01*
X145665659Y-82351228D01*
X145701842Y-82290144D01*
X145765306Y-82258319D01*
X145776784Y-82256780D01*
X145803070Y-82254481D01*
X145922606Y-82244023D01*
X145922611Y-82244022D01*
X145928087Y-82243543D01*
X145933400Y-82242119D01*
X145933402Y-82242119D01*
X146143933Y-82185707D01*
X146143935Y-82185706D01*
X146149243Y-82184284D01*
X146154225Y-82181961D01*
X146351762Y-82089849D01*
X146351767Y-82089846D01*
X146356749Y-82087523D01*
X146500806Y-81986653D01*
X146539789Y-81959357D01*
X146539792Y-81959355D01*
X146544300Y-81956198D01*
X146610905Y-81889593D01*
X146673217Y-81855567D01*
X146744032Y-81860632D01*
X146789095Y-81889593D01*
X146855700Y-81956198D01*
X146860208Y-81959355D01*
X146860211Y-81959357D01*
X146899194Y-81986653D01*
X147043251Y-82087523D01*
X147048233Y-82089846D01*
X147048238Y-82089849D01*
X147245775Y-82181961D01*
X147250757Y-82184284D01*
X147256065Y-82185706D01*
X147256067Y-82185707D01*
X147466598Y-82242119D01*
X147466600Y-82242119D01*
X147471913Y-82243543D01*
X147700000Y-82263498D01*
X147928087Y-82243543D01*
X147933400Y-82242119D01*
X147933402Y-82242119D01*
X148143933Y-82185707D01*
X148143935Y-82185706D01*
X148149243Y-82184284D01*
X148154225Y-82181961D01*
X148351762Y-82089849D01*
X148351767Y-82089846D01*
X148356749Y-82087523D01*
X148500806Y-81986653D01*
X148539789Y-81959357D01*
X148539792Y-81959355D01*
X148544300Y-81956198D01*
X148610905Y-81889593D01*
X148673217Y-81855567D01*
X148744032Y-81860632D01*
X148789095Y-81889593D01*
X148855700Y-81956198D01*
X148860208Y-81959355D01*
X148860211Y-81959357D01*
X148899194Y-81986653D01*
X149043251Y-82087523D01*
X149048233Y-82089846D01*
X149048238Y-82089849D01*
X149245775Y-82181961D01*
X149250757Y-82184284D01*
X149256065Y-82185706D01*
X149256067Y-82185707D01*
X149466598Y-82242119D01*
X149466600Y-82242119D01*
X149471913Y-82243543D01*
X149700000Y-82263498D01*
X149928087Y-82243543D01*
X149933400Y-82242119D01*
X149933402Y-82242119D01*
X150143933Y-82185707D01*
X150143935Y-82185706D01*
X150149243Y-82184284D01*
X150154225Y-82181961D01*
X150351762Y-82089849D01*
X150351767Y-82089846D01*
X150356749Y-82087523D01*
X150500806Y-81986653D01*
X150539789Y-81959357D01*
X150539792Y-81959355D01*
X150544300Y-81956198D01*
X150706198Y-81794300D01*
X150709357Y-81789789D01*
X150709361Y-81789784D01*
X150758413Y-81719730D01*
X150813870Y-81675401D01*
X150861626Y-81666000D01*
X151463712Y-81666000D01*
X151531833Y-81686002D01*
X151552729Y-81702826D01*
X151561778Y-81711859D01*
X151631141Y-81781101D01*
X151665220Y-81843381D01*
X151660217Y-81914201D01*
X151631296Y-81959291D01*
X151528637Y-82062129D01*
X151519625Y-82073540D01*
X151436088Y-82209063D01*
X151429944Y-82222241D01*
X151379685Y-82373766D01*
X151376819Y-82387132D01*
X151367328Y-82479770D01*
X151367000Y-82486185D01*
X151367000Y-82510385D01*
X151371475Y-82525624D01*
X151372865Y-82526829D01*
X151380548Y-82528500D01*
X153314885Y-82528500D01*
X153330124Y-82524025D01*
X153331329Y-82522635D01*
X153333000Y-82514952D01*
X153333000Y-82486234D01*
X153332663Y-82479718D01*
X153322925Y-82385868D01*
X153320032Y-82372472D01*
X153269512Y-82221047D01*
X153263347Y-82207885D01*
X153179574Y-82072508D01*
X153170540Y-82061110D01*
X153068860Y-81959607D01*
X153034781Y-81897324D01*
X153039784Y-81826504D01*
X153068705Y-81781416D01*
X153069022Y-81781099D01*
X153176929Y-81673003D01*
X153194365Y-81644717D01*
X153264369Y-81531150D01*
X153264370Y-81531148D01*
X153268209Y-81524920D01*
X153322974Y-81359809D01*
X153323790Y-81351852D01*
X153333172Y-81260271D01*
X153333500Y-81257072D01*
X153333500Y-80657928D01*
X153332920Y-80652339D01*
X153323419Y-80560765D01*
X153323418Y-80560761D01*
X153322707Y-80553907D01*
X153267654Y-80388893D01*
X153176116Y-80240969D01*
X153164124Y-80228998D01*
X153058184Y-80123242D01*
X153058179Y-80123238D01*
X153053003Y-80118071D01*
X153045885Y-80113683D01*
X152929204Y-80041760D01*
X152881711Y-79988988D01*
X152870287Y-79918916D01*
X152898561Y-79853792D01*
X152957555Y-79814293D01*
X152995320Y-79808500D01*
X154058157Y-79808500D01*
X154071764Y-79809237D01*
X154103262Y-79812659D01*
X154103267Y-79812659D01*
X154109388Y-79813324D01*
X154135638Y-79811027D01*
X154159388Y-79808950D01*
X154164214Y-79808621D01*
X154166686Y-79808500D01*
X154169769Y-79808500D01*
X154181738Y-79807326D01*
X154212506Y-79804310D01*
X154213819Y-79804188D01*
X154258084Y-79800315D01*
X154306413Y-79796087D01*
X154311532Y-79794600D01*
X154316833Y-79794080D01*
X154405834Y-79767209D01*
X154406967Y-79766874D01*
X154490414Y-79742630D01*
X154490418Y-79742628D01*
X154496336Y-79740909D01*
X154501068Y-79738456D01*
X154506169Y-79736916D01*
X154513038Y-79733264D01*
X154588260Y-79693269D01*
X154589426Y-79692657D01*
X154666453Y-79652729D01*
X154671926Y-79649892D01*
X154676089Y-79646569D01*
X154680796Y-79644066D01*
X154752918Y-79585245D01*
X154753774Y-79584554D01*
X154792973Y-79553262D01*
X154795477Y-79550758D01*
X154796195Y-79550116D01*
X154800528Y-79546415D01*
X154834062Y-79519065D01*
X154839325Y-79512704D01*
X154863287Y-79483738D01*
X154871277Y-79474958D01*
X154896405Y-79449830D01*
X154958717Y-79415804D01*
X155029532Y-79420869D01*
X155086368Y-79463416D01*
X155111179Y-79529936D01*
X155111500Y-79538925D01*
X155111500Y-79791088D01*
X155111208Y-79799658D01*
X155108090Y-79845404D01*
X155107275Y-79857352D01*
X155108580Y-79864829D01*
X155108580Y-79864830D01*
X155118261Y-79920299D01*
X155119223Y-79926821D01*
X155126898Y-79990242D01*
X155129581Y-79997343D01*
X155130222Y-79999952D01*
X155134685Y-80016262D01*
X155135450Y-80018798D01*
X155136757Y-80026284D01*
X155139811Y-80033241D01*
X155162442Y-80084795D01*
X155164933Y-80090899D01*
X155187513Y-80150656D01*
X155191817Y-80156919D01*
X155193054Y-80159285D01*
X155201299Y-80174097D01*
X155202632Y-80176351D01*
X155205685Y-80183305D01*
X155240748Y-80228998D01*
X155244579Y-80233991D01*
X155248459Y-80239332D01*
X155280339Y-80285720D01*
X155280344Y-80285725D01*
X155284643Y-80291981D01*
X155290313Y-80297032D01*
X155290314Y-80297034D01*
X155331170Y-80333435D01*
X155336446Y-80338416D01*
X156478550Y-81480520D01*
X156484404Y-81486785D01*
X156522439Y-81530385D01*
X156573653Y-81566379D01*
X156574719Y-81567128D01*
X156580014Y-81571061D01*
X156630282Y-81610476D01*
X156637198Y-81613599D01*
X156639484Y-81614983D01*
X156654165Y-81623357D01*
X156656525Y-81624622D01*
X156662739Y-81628990D01*
X156669818Y-81631750D01*
X156669820Y-81631751D01*
X156722275Y-81652202D01*
X156728344Y-81654753D01*
X156786573Y-81681045D01*
X156794040Y-81682429D01*
X156796595Y-81683230D01*
X156812848Y-81687859D01*
X156815428Y-81688522D01*
X156822509Y-81691282D01*
X156830040Y-81692273D01*
X156830042Y-81692274D01*
X156859661Y-81696173D01*
X156885861Y-81699622D01*
X156892359Y-81700652D01*
X156955186Y-81712296D01*
X156962766Y-81711859D01*
X156962767Y-81711859D01*
X157017392Y-81708709D01*
X157024646Y-81708500D01*
X173659631Y-81708500D01*
X173727752Y-81728502D01*
X173766772Y-81768193D01*
X173801522Y-81824348D01*
X173926697Y-81949305D01*
X173932927Y-81953145D01*
X173932928Y-81953146D01*
X174070090Y-82037694D01*
X174077262Y-82042115D01*
X174137603Y-82062129D01*
X174238611Y-82095632D01*
X174238613Y-82095632D01*
X174245139Y-82097797D01*
X174251975Y-82098497D01*
X174251978Y-82098498D01*
X174295031Y-82102909D01*
X174349600Y-82108500D01*
X175350400Y-82108500D01*
X175353646Y-82108163D01*
X175353650Y-82108163D01*
X175449308Y-82098238D01*
X175449312Y-82098237D01*
X175456166Y-82097526D01*
X175462702Y-82095345D01*
X175462704Y-82095345D01*
X175615104Y-82044500D01*
X175623946Y-82041550D01*
X175774348Y-81948478D01*
X175899305Y-81823303D01*
X175915562Y-81796929D01*
X175988275Y-81678968D01*
X175988276Y-81678966D01*
X175992115Y-81672738D01*
X176037883Y-81534752D01*
X176045632Y-81511389D01*
X176045632Y-81511387D01*
X176047797Y-81504861D01*
X176058500Y-81400400D01*
X176058500Y-80599600D01*
X176053081Y-80547369D01*
X176048238Y-80500692D01*
X176048237Y-80500688D01*
X176047526Y-80493834D01*
X176029047Y-80438444D01*
X175994817Y-80335846D01*
X175991550Y-80326054D01*
X175898478Y-80175652D01*
X175811891Y-80089216D01*
X175777812Y-80026934D01*
X175782815Y-79956114D01*
X175811736Y-79911025D01*
X175894134Y-79828483D01*
X175899305Y-79823303D01*
X175903174Y-79817026D01*
X175988275Y-79678968D01*
X175988276Y-79678966D01*
X175992115Y-79672738D01*
X176028369Y-79563435D01*
X176045632Y-79511389D01*
X176045632Y-79511387D01*
X176047797Y-79504861D01*
X176048562Y-79497402D01*
X176053435Y-79449830D01*
X176058500Y-79400400D01*
X176058500Y-78599600D01*
X176058015Y-78594923D01*
X176048238Y-78500692D01*
X176048237Y-78500688D01*
X176047526Y-78493834D01*
X176040836Y-78473780D01*
X176001272Y-78355194D01*
X175991550Y-78326054D01*
X175898478Y-78175652D01*
X175773303Y-78050695D01*
X175763973Y-78044944D01*
X175628968Y-77961725D01*
X175628966Y-77961724D01*
X175622738Y-77957885D01*
X175569832Y-77940337D01*
X175511473Y-77899906D01*
X175484236Y-77834342D01*
X175483500Y-77820744D01*
X175483500Y-74559500D01*
X175503502Y-74491379D01*
X175557158Y-74444886D01*
X175609500Y-74433500D01*
X175748134Y-74433500D01*
X175810316Y-74426745D01*
X175946705Y-74375615D01*
X176063261Y-74288261D01*
X176150615Y-74171705D01*
X176201745Y-74035316D01*
X176208500Y-73973134D01*
X176208500Y-72176866D01*
X176201745Y-72114684D01*
X176150615Y-71978295D01*
X176063261Y-71861739D01*
X175946705Y-71774385D01*
X175827687Y-71729767D01*
X175770923Y-71687125D01*
X175746223Y-71620564D01*
X175761430Y-71551215D01*
X175782977Y-71522535D01*
X175884052Y-71421812D01*
X175890730Y-71413965D01*
X176015003Y-71241020D01*
X176020313Y-71232183D01*
X176114670Y-71041267D01*
X176118469Y-71031672D01*
X176180377Y-70827910D01*
X176182555Y-70817837D01*
X176183986Y-70806962D01*
X176181775Y-70792778D01*
X176168617Y-70789000D01*
X174722000Y-70789000D01*
X174653879Y-70768998D01*
X174607386Y-70715342D01*
X174596000Y-70663000D01*
X174596000Y-70262885D01*
X175104000Y-70262885D01*
X175108475Y-70278124D01*
X175109865Y-70279329D01*
X175117548Y-70281000D01*
X176168344Y-70281000D01*
X176181875Y-70277027D01*
X176183180Y-70267947D01*
X176141214Y-70100875D01*
X176137894Y-70091124D01*
X176052972Y-69895814D01*
X176048105Y-69886739D01*
X175932426Y-69707926D01*
X175926136Y-69699757D01*
X175782806Y-69542240D01*
X175775273Y-69535215D01*
X175608139Y-69403222D01*
X175599552Y-69397517D01*
X175413117Y-69294599D01*
X175403705Y-69290369D01*
X175202959Y-69219280D01*
X175192988Y-69216646D01*
X175121837Y-69203972D01*
X175108540Y-69205432D01*
X175104000Y-69219989D01*
X175104000Y-70262885D01*
X174596000Y-70262885D01*
X174596000Y-69218102D01*
X174592082Y-69204758D01*
X174577806Y-69202771D01*
X174539324Y-69208660D01*
X174529288Y-69211051D01*
X174326868Y-69277212D01*
X174317359Y-69281209D01*
X174128463Y-69379542D01*
X174119738Y-69385036D01*
X173949433Y-69512905D01*
X173941726Y-69519748D01*
X173794590Y-69673717D01*
X173788104Y-69681727D01*
X173668098Y-69857649D01*
X173663000Y-69866623D01*
X173573338Y-70059783D01*
X173569775Y-70069470D01*
X173523590Y-70236004D01*
X173486111Y-70296302D01*
X173421982Y-70326765D01*
X173351564Y-70317721D01*
X173297214Y-70272042D01*
X173276846Y-70215335D01*
X173272743Y-70175794D01*
X173269851Y-70162400D01*
X173218412Y-70008216D01*
X173212239Y-69995038D01*
X173126937Y-69857193D01*
X173117901Y-69845792D01*
X173003171Y-69731261D01*
X172991760Y-69722249D01*
X172853757Y-69637184D01*
X172840576Y-69631037D01*
X172686290Y-69579862D01*
X172672914Y-69576995D01*
X172578562Y-69567328D01*
X172572145Y-69567000D01*
X172322115Y-69567000D01*
X172306876Y-69571475D01*
X172305671Y-69572865D01*
X172304000Y-69580548D01*
X172304000Y-70790500D01*
X172283998Y-70858621D01*
X172230342Y-70905114D01*
X172178000Y-70916500D01*
X170835116Y-70916500D01*
X170819877Y-70920975D01*
X170818672Y-70922365D01*
X170817001Y-70930048D01*
X170817001Y-71047095D01*
X170817338Y-71053614D01*
X170827257Y-71149206D01*
X170830149Y-71162600D01*
X170881588Y-71316784D01*
X170887761Y-71329962D01*
X170973063Y-71467807D01*
X170982099Y-71479208D01*
X171096828Y-71593738D01*
X171105762Y-71600794D01*
X171146823Y-71658712D01*
X171150053Y-71729635D01*
X171114426Y-71791046D01*
X171106593Y-71797846D01*
X171100652Y-71801522D01*
X171095479Y-71806704D01*
X171040540Y-71861739D01*
X170975695Y-71926697D01*
X170971855Y-71932927D01*
X170971854Y-71932928D01*
X170900405Y-72048840D01*
X170882885Y-72077262D01*
X170870473Y-72114684D01*
X170836807Y-72216185D01*
X170827203Y-72245139D01*
X170826503Y-72251975D01*
X170826502Y-72251978D01*
X170823010Y-72286060D01*
X170816500Y-72349600D01*
X170816500Y-73125400D01*
X170816837Y-73128646D01*
X170816837Y-73128650D01*
X170821538Y-73173953D01*
X170827474Y-73231166D01*
X170829655Y-73237702D01*
X170829655Y-73237704D01*
X170862261Y-73335435D01*
X170883450Y-73398946D01*
X170976522Y-73549348D01*
X171101697Y-73674305D01*
X171107927Y-73678145D01*
X171107928Y-73678146D01*
X171222326Y-73748662D01*
X171252262Y-73767115D01*
X171285960Y-73778292D01*
X171413611Y-73820632D01*
X171413613Y-73820632D01*
X171420139Y-73822797D01*
X171426975Y-73823497D01*
X171426978Y-73823498D01*
X171460545Y-73826937D01*
X171524600Y-73833500D01*
X172575400Y-73833500D01*
X172578646Y-73833163D01*
X172578650Y-73833163D01*
X172674308Y-73823238D01*
X172674312Y-73823237D01*
X172681166Y-73822526D01*
X172687702Y-73820345D01*
X172687704Y-73820345D01*
X172819806Y-73776272D01*
X172848946Y-73766550D01*
X172912283Y-73727355D01*
X172978585Y-73708500D01*
X173365500Y-73708500D01*
X173433621Y-73728502D01*
X173480114Y-73782158D01*
X173491500Y-73834500D01*
X173491500Y-73973134D01*
X173498255Y-74035316D01*
X173549385Y-74171705D01*
X173636739Y-74288261D01*
X173753295Y-74375615D01*
X173889684Y-74426745D01*
X173951866Y-74433500D01*
X174090500Y-74433500D01*
X174158621Y-74453502D01*
X174205114Y-74507158D01*
X174216500Y-74559500D01*
X174216500Y-77820803D01*
X174196498Y-77888924D01*
X174142842Y-77935417D01*
X174130377Y-77940326D01*
X174082998Y-77956133D01*
X174082996Y-77956134D01*
X174076054Y-77958450D01*
X174069830Y-77962301D01*
X174069829Y-77962302D01*
X174008724Y-78000115D01*
X173925652Y-78051522D01*
X173800695Y-78176697D01*
X173796855Y-78182927D01*
X173796854Y-78182928D01*
X173711767Y-78320965D01*
X173707885Y-78327262D01*
X173652203Y-78495139D01*
X173651503Y-78501975D01*
X173651502Y-78501978D01*
X173648147Y-78534729D01*
X173641500Y-78599600D01*
X173641500Y-79400400D01*
X173641837Y-79403646D01*
X173641837Y-79403650D01*
X173651565Y-79497402D01*
X173652474Y-79506166D01*
X173654655Y-79512702D01*
X173654655Y-79512704D01*
X173672463Y-79566081D01*
X173708450Y-79673946D01*
X173801522Y-79824348D01*
X173858638Y-79881364D01*
X173888109Y-79910784D01*
X173922188Y-79973066D01*
X173917185Y-80043886D01*
X173888264Y-80088975D01*
X173859219Y-80118071D01*
X173800695Y-80176697D01*
X173796856Y-80182925D01*
X173796852Y-80182930D01*
X173766841Y-80231617D01*
X173714069Y-80279110D01*
X173659582Y-80291500D01*
X157345660Y-80291500D01*
X157277539Y-80271498D01*
X157256565Y-80254595D01*
X156565405Y-79563435D01*
X156531379Y-79501123D01*
X156528500Y-79474340D01*
X156528500Y-78505606D01*
X156548502Y-78437485D01*
X156588665Y-78398174D01*
X156705193Y-78326765D01*
X156705203Y-78326758D01*
X156709416Y-78324176D01*
X156889969Y-78169969D01*
X156893177Y-78166213D01*
X156893182Y-78166208D01*
X156994189Y-78047944D01*
X157053639Y-78009134D01*
X157124634Y-78008628D01*
X157185811Y-78047944D01*
X157286818Y-78166208D01*
X157286823Y-78166213D01*
X157290031Y-78169969D01*
X157470584Y-78324176D01*
X157474792Y-78326755D01*
X157474798Y-78326759D01*
X157668084Y-78445205D01*
X157673037Y-78448240D01*
X157677607Y-78450133D01*
X157677611Y-78450135D01*
X157887833Y-78537211D01*
X157892406Y-78539105D01*
X157953157Y-78553690D01*
X158118476Y-78593380D01*
X158118482Y-78593381D01*
X158123289Y-78594535D01*
X158360000Y-78613165D01*
X158596711Y-78594535D01*
X158601518Y-78593381D01*
X158601524Y-78593380D01*
X158766843Y-78553690D01*
X158827594Y-78539105D01*
X158832167Y-78537211D01*
X159042389Y-78450135D01*
X159042393Y-78450133D01*
X159046963Y-78448240D01*
X159051916Y-78445205D01*
X159245202Y-78326759D01*
X159245208Y-78326755D01*
X159249416Y-78324176D01*
X159429969Y-78169969D01*
X159433177Y-78166213D01*
X159433182Y-78166208D01*
X159534189Y-78047944D01*
X159593639Y-78009134D01*
X159664634Y-78008628D01*
X159725811Y-78047944D01*
X159826818Y-78166208D01*
X159826823Y-78166213D01*
X159830031Y-78169969D01*
X160010584Y-78324176D01*
X160014792Y-78326755D01*
X160014798Y-78326759D01*
X160208084Y-78445205D01*
X160213037Y-78448240D01*
X160217607Y-78450133D01*
X160217611Y-78450135D01*
X160427833Y-78537211D01*
X160432406Y-78539105D01*
X160493157Y-78553690D01*
X160658476Y-78593380D01*
X160658482Y-78593381D01*
X160663289Y-78594535D01*
X160900000Y-78613165D01*
X161136711Y-78594535D01*
X161141518Y-78593381D01*
X161141524Y-78593380D01*
X161306843Y-78553690D01*
X161367594Y-78539105D01*
X161372167Y-78537211D01*
X161582389Y-78450135D01*
X161582393Y-78450133D01*
X161586963Y-78448240D01*
X161591916Y-78445205D01*
X161785202Y-78326759D01*
X161785208Y-78326755D01*
X161789416Y-78324176D01*
X161969969Y-78169969D01*
X161973177Y-78166213D01*
X161973182Y-78166208D01*
X162074189Y-78047944D01*
X162133639Y-78009134D01*
X162204634Y-78008628D01*
X162265811Y-78047944D01*
X162366818Y-78166208D01*
X162366823Y-78166213D01*
X162370031Y-78169969D01*
X162550584Y-78324176D01*
X162554792Y-78326755D01*
X162554798Y-78326759D01*
X162748084Y-78445205D01*
X162753037Y-78448240D01*
X162757607Y-78450133D01*
X162757611Y-78450135D01*
X162967833Y-78537211D01*
X162972406Y-78539105D01*
X163033157Y-78553690D01*
X163198476Y-78593380D01*
X163198482Y-78593381D01*
X163203289Y-78594535D01*
X163440000Y-78613165D01*
X163676711Y-78594535D01*
X163681518Y-78593381D01*
X163681524Y-78593380D01*
X163846843Y-78553690D01*
X163907594Y-78539105D01*
X163912167Y-78537211D01*
X164122389Y-78450135D01*
X164122393Y-78450133D01*
X164126963Y-78448240D01*
X164131916Y-78445205D01*
X164325202Y-78326759D01*
X164325208Y-78326755D01*
X164329416Y-78324176D01*
X164509969Y-78169969D01*
X164513177Y-78166213D01*
X164513182Y-78166208D01*
X164614189Y-78047944D01*
X164673639Y-78009134D01*
X164744634Y-78008628D01*
X164805811Y-78047944D01*
X164906818Y-78166208D01*
X164906823Y-78166213D01*
X164910031Y-78169969D01*
X165090584Y-78324176D01*
X165094792Y-78326755D01*
X165094798Y-78326759D01*
X165288084Y-78445205D01*
X165293037Y-78448240D01*
X165297607Y-78450133D01*
X165297611Y-78450135D01*
X165507833Y-78537211D01*
X165512406Y-78539105D01*
X165573157Y-78553690D01*
X165738476Y-78593380D01*
X165738482Y-78593381D01*
X165743289Y-78594535D01*
X165980000Y-78613165D01*
X166216711Y-78594535D01*
X166221518Y-78593381D01*
X166221524Y-78593380D01*
X166386843Y-78553690D01*
X166447594Y-78539105D01*
X166452167Y-78537211D01*
X166662389Y-78450135D01*
X166662393Y-78450133D01*
X166666963Y-78448240D01*
X166671916Y-78445205D01*
X166855556Y-78332670D01*
X167652160Y-78332670D01*
X167657887Y-78340320D01*
X167829042Y-78445205D01*
X167837837Y-78449687D01*
X168047988Y-78536734D01*
X168057373Y-78539783D01*
X168278554Y-78592885D01*
X168288301Y-78594428D01*
X168515070Y-78612275D01*
X168524930Y-78612275D01*
X168751699Y-78594428D01*
X168761446Y-78592885D01*
X168982627Y-78539783D01*
X168992012Y-78536734D01*
X169202163Y-78449687D01*
X169210958Y-78445205D01*
X169378445Y-78342568D01*
X169387907Y-78332110D01*
X169384124Y-78323334D01*
X168532812Y-77472022D01*
X168518868Y-77464408D01*
X168517035Y-77464539D01*
X168510420Y-77468790D01*
X167658920Y-78320290D01*
X167652160Y-78332670D01*
X166855556Y-78332670D01*
X166865202Y-78326759D01*
X166865208Y-78326755D01*
X166869416Y-78324176D01*
X167049969Y-78169969D01*
X167053177Y-78166213D01*
X167053182Y-78166208D01*
X167183706Y-78013384D01*
X167243156Y-77974574D01*
X167277558Y-77972360D01*
X167296667Y-77964123D01*
X168147978Y-77112812D01*
X168154356Y-77101132D01*
X168884408Y-77101132D01*
X168884539Y-77102965D01*
X168888790Y-77109580D01*
X169740290Y-77961080D01*
X169752670Y-77967840D01*
X169760320Y-77962113D01*
X169865205Y-77790958D01*
X169869687Y-77782163D01*
X169956734Y-77572012D01*
X169959783Y-77562627D01*
X170012885Y-77341446D01*
X170014428Y-77331699D01*
X170032275Y-77104930D01*
X170032275Y-77095070D01*
X170014428Y-76868301D01*
X170012885Y-76858554D01*
X169959783Y-76637373D01*
X169956734Y-76627988D01*
X169869687Y-76417837D01*
X169865205Y-76409042D01*
X169762568Y-76241555D01*
X169752110Y-76232093D01*
X169743334Y-76235876D01*
X168892022Y-77087188D01*
X168884408Y-77101132D01*
X168154356Y-77101132D01*
X168155592Y-77098868D01*
X168155461Y-77097035D01*
X168151210Y-77090420D01*
X167299710Y-76238920D01*
X167282898Y-76229740D01*
X167219650Y-76215980D01*
X167184225Y-76187224D01*
X167053177Y-76033787D01*
X167049969Y-76030031D01*
X166869416Y-75875824D01*
X166865208Y-75873245D01*
X166865202Y-75873241D01*
X166856470Y-75867890D01*
X167652093Y-75867890D01*
X167655876Y-75876666D01*
X168507188Y-76727978D01*
X168521132Y-76735592D01*
X168522965Y-76735461D01*
X168529580Y-76731210D01*
X169381080Y-75879710D01*
X169387840Y-75867330D01*
X169382113Y-75859680D01*
X169210958Y-75754795D01*
X169202163Y-75750313D01*
X168992012Y-75663266D01*
X168982627Y-75660217D01*
X168761446Y-75607115D01*
X168751699Y-75605572D01*
X168524930Y-75587725D01*
X168515070Y-75587725D01*
X168288301Y-75605572D01*
X168278554Y-75607115D01*
X168057373Y-75660217D01*
X168047988Y-75663266D01*
X167837837Y-75750313D01*
X167829042Y-75754795D01*
X167661555Y-75857432D01*
X167652093Y-75867890D01*
X166856470Y-75867890D01*
X166671183Y-75754346D01*
X166666963Y-75751760D01*
X166662393Y-75749867D01*
X166662389Y-75749865D01*
X166452167Y-75662789D01*
X166452165Y-75662788D01*
X166447594Y-75660895D01*
X166367391Y-75641640D01*
X166221524Y-75606620D01*
X166221518Y-75606619D01*
X166216711Y-75605465D01*
X165980000Y-75586835D01*
X165743289Y-75605465D01*
X165738482Y-75606619D01*
X165738476Y-75606620D01*
X165592609Y-75641640D01*
X165512406Y-75660895D01*
X165507835Y-75662788D01*
X165507833Y-75662789D01*
X165297611Y-75749865D01*
X165297607Y-75749867D01*
X165293037Y-75751760D01*
X165288817Y-75754346D01*
X165094798Y-75873241D01*
X165094792Y-75873245D01*
X165090584Y-75875824D01*
X164910031Y-76030031D01*
X164906823Y-76033787D01*
X164906818Y-76033792D01*
X164805811Y-76152056D01*
X164746361Y-76190866D01*
X164675366Y-76191372D01*
X164614189Y-76152056D01*
X164513182Y-76033792D01*
X164513177Y-76033787D01*
X164509969Y-76030031D01*
X164329416Y-75875824D01*
X164325208Y-75873245D01*
X164325202Y-75873241D01*
X164131183Y-75754346D01*
X164126963Y-75751760D01*
X164122393Y-75749867D01*
X164122389Y-75749865D01*
X163912167Y-75662789D01*
X163912165Y-75662788D01*
X163907594Y-75660895D01*
X163827391Y-75641640D01*
X163681524Y-75606620D01*
X163681518Y-75606619D01*
X163676711Y-75605465D01*
X163440000Y-75586835D01*
X163203289Y-75605465D01*
X163198482Y-75606619D01*
X163198476Y-75606620D01*
X163052609Y-75641640D01*
X162972406Y-75660895D01*
X162967835Y-75662788D01*
X162967833Y-75662789D01*
X162757611Y-75749865D01*
X162757607Y-75749867D01*
X162753037Y-75751760D01*
X162748817Y-75754346D01*
X162554798Y-75873241D01*
X162554792Y-75873245D01*
X162550584Y-75875824D01*
X162370031Y-76030031D01*
X162366823Y-76033787D01*
X162366818Y-76033792D01*
X162265811Y-76152056D01*
X162206361Y-76190866D01*
X162135366Y-76191372D01*
X162074189Y-76152056D01*
X161973182Y-76033792D01*
X161973177Y-76033787D01*
X161969969Y-76030031D01*
X161789416Y-75875824D01*
X161785201Y-75873241D01*
X161785193Y-75873235D01*
X161668665Y-75801826D01*
X161621034Y-75749179D01*
X161608500Y-75694394D01*
X161608500Y-70390385D01*
X170817000Y-70390385D01*
X170821475Y-70405624D01*
X170822865Y-70406829D01*
X170830548Y-70408500D01*
X171777885Y-70408500D01*
X171793124Y-70404025D01*
X171794329Y-70402635D01*
X171796000Y-70394952D01*
X171796000Y-69585116D01*
X171791525Y-69569877D01*
X171790135Y-69568672D01*
X171782452Y-69567001D01*
X171527905Y-69567001D01*
X171521386Y-69567338D01*
X171425794Y-69577257D01*
X171412400Y-69580149D01*
X171258216Y-69631588D01*
X171245038Y-69637761D01*
X171107193Y-69723063D01*
X171095792Y-69732099D01*
X170981261Y-69846829D01*
X170972249Y-69858240D01*
X170887184Y-69996243D01*
X170881037Y-70009424D01*
X170829862Y-70163710D01*
X170826995Y-70177086D01*
X170817328Y-70271438D01*
X170817000Y-70277855D01*
X170817000Y-70390385D01*
X161608500Y-70390385D01*
X161608500Y-61079612D01*
X171890743Y-61079612D01*
X171891302Y-61083856D01*
X171891302Y-61083860D01*
X171895086Y-61112600D01*
X171928268Y-61364643D01*
X171929401Y-61368783D01*
X171929401Y-61368785D01*
X171944601Y-61424348D01*
X172004129Y-61641945D01*
X172005813Y-61645893D01*
X172110184Y-61890585D01*
X172116923Y-61906385D01*
X172190849Y-62029906D01*
X172254879Y-62136892D01*
X172264561Y-62153070D01*
X172444313Y-62377437D01*
X172522883Y-62451997D01*
X172618125Y-62542378D01*
X172652851Y-62575332D01*
X172886317Y-62743095D01*
X172890112Y-62745104D01*
X172890113Y-62745105D01*
X172911869Y-62756624D01*
X173140392Y-62877621D01*
X173410373Y-62976420D01*
X173691264Y-63037664D01*
X173719841Y-63039913D01*
X173914282Y-63055216D01*
X173914291Y-63055216D01*
X173916739Y-63055409D01*
X174072271Y-63055409D01*
X174074407Y-63055263D01*
X174074418Y-63055263D01*
X174282548Y-63041074D01*
X174282554Y-63041073D01*
X174286825Y-63040782D01*
X174291020Y-63039913D01*
X174291022Y-63039913D01*
X174466381Y-63003598D01*
X174568342Y-62982483D01*
X174839343Y-62886516D01*
X175094812Y-62754659D01*
X175098313Y-62752198D01*
X175098317Y-62752196D01*
X175280637Y-62624059D01*
X175330023Y-62589350D01*
X175487495Y-62443018D01*
X175537479Y-62396570D01*
X175537481Y-62396567D01*
X175540622Y-62393649D01*
X175722713Y-62171177D01*
X175872927Y-61926051D01*
X175875661Y-61919824D01*
X175986757Y-61666739D01*
X175988483Y-61662807D01*
X175991882Y-61650877D01*
X176056708Y-61423303D01*
X176067244Y-61386315D01*
X176106371Y-61111389D01*
X176107146Y-61105945D01*
X176107146Y-61105943D01*
X176107751Y-61101693D01*
X176107845Y-61083860D01*
X176109235Y-60818492D01*
X176109235Y-60818485D01*
X176109257Y-60814206D01*
X176106523Y-60793435D01*
X176081556Y-60603794D01*
X176071732Y-60529175D01*
X175995871Y-60251873D01*
X175984933Y-60226230D01*
X175884763Y-59991385D01*
X175884761Y-59991381D01*
X175883077Y-59987433D01*
X175802281Y-59852432D01*
X175737643Y-59744430D01*
X175737640Y-59744426D01*
X175735439Y-59740748D01*
X175555687Y-59516381D01*
X175429309Y-59396453D01*
X175350258Y-59321436D01*
X175350255Y-59321434D01*
X175347149Y-59318486D01*
X175113683Y-59150723D01*
X175091843Y-59139159D01*
X175036907Y-59110072D01*
X174859608Y-59016197D01*
X174636986Y-58934729D01*
X174593658Y-58918873D01*
X174593656Y-58918872D01*
X174589627Y-58917398D01*
X174308736Y-58856154D01*
X174270757Y-58853165D01*
X174085718Y-58838602D01*
X174085709Y-58838602D01*
X174083261Y-58838409D01*
X173927729Y-58838409D01*
X173925593Y-58838555D01*
X173925582Y-58838555D01*
X173717452Y-58852744D01*
X173717446Y-58852745D01*
X173713175Y-58853036D01*
X173708980Y-58853905D01*
X173708978Y-58853905D01*
X173681034Y-58859692D01*
X173431658Y-58911335D01*
X173160657Y-59007302D01*
X173125881Y-59025251D01*
X172948828Y-59116635D01*
X172905188Y-59139159D01*
X172901687Y-59141620D01*
X172901683Y-59141622D01*
X172832137Y-59190500D01*
X172669977Y-59304468D01*
X172607246Y-59362761D01*
X172470399Y-59489928D01*
X172459378Y-59500169D01*
X172277287Y-59722641D01*
X172127073Y-59967767D01*
X172125347Y-59971700D01*
X172125346Y-59971701D01*
X172038990Y-60168426D01*
X172011517Y-60231011D01*
X172010342Y-60235138D01*
X172010341Y-60235139D01*
X171979140Y-60344670D01*
X171932756Y-60507503D01*
X171902485Y-60720205D01*
X171893884Y-60780640D01*
X171892249Y-60792125D01*
X171892227Y-60796414D01*
X171892226Y-60796421D01*
X171890765Y-61075326D01*
X171890743Y-61079612D01*
X161608500Y-61079612D01*
X161608500Y-58988927D01*
X161608792Y-58980358D01*
X161612210Y-58930225D01*
X161612210Y-58930221D01*
X161612726Y-58922648D01*
X161601736Y-58859681D01*
X161600775Y-58853165D01*
X161595370Y-58808500D01*
X161593102Y-58789758D01*
X161590419Y-58782657D01*
X161589778Y-58780048D01*
X161585313Y-58763728D01*
X161584548Y-58761195D01*
X161583243Y-58753717D01*
X161557552Y-58695190D01*
X161555067Y-58689102D01*
X161535172Y-58636449D01*
X161535171Y-58636447D01*
X161532487Y-58629344D01*
X161528186Y-58623085D01*
X161526949Y-58620720D01*
X161518727Y-58605948D01*
X161517372Y-58603656D01*
X161514316Y-58596695D01*
X161509691Y-58590668D01*
X161509689Y-58590664D01*
X161475407Y-58545987D01*
X161471529Y-58540650D01*
X161460646Y-58524814D01*
X161449696Y-58508882D01*
X161439659Y-58494278D01*
X161439658Y-58494277D01*
X161435357Y-58488019D01*
X161388838Y-58446572D01*
X161383563Y-58441592D01*
X159258351Y-56316381D01*
X159252497Y-56310115D01*
X159219465Y-56272249D01*
X159219462Y-56272246D01*
X159214470Y-56266524D01*
X159162189Y-56229780D01*
X159156895Y-56225848D01*
X159112602Y-56191118D01*
X159106627Y-56186433D01*
X159099711Y-56183310D01*
X159097425Y-56181926D01*
X159082744Y-56173552D01*
X159080384Y-56172287D01*
X159074170Y-56167919D01*
X159067091Y-56165159D01*
X159067089Y-56165158D01*
X159014634Y-56144707D01*
X159008565Y-56142156D01*
X158950336Y-56115864D01*
X158942869Y-56114480D01*
X158940314Y-56113679D01*
X158924061Y-56109050D01*
X158921481Y-56108387D01*
X158914400Y-56105627D01*
X158906869Y-56104636D01*
X158906867Y-56104635D01*
X158877248Y-56100736D01*
X158851048Y-56097287D01*
X158844550Y-56096257D01*
X158781723Y-56084613D01*
X158774143Y-56085050D01*
X158774142Y-56085050D01*
X158719517Y-56088200D01*
X158712263Y-56088409D01*
X153578137Y-56088409D01*
X153510016Y-56068407D01*
X153463523Y-56014751D01*
X153460155Y-56006639D01*
X153442150Y-55958612D01*
X153438998Y-55950204D01*
X153351644Y-55833648D01*
X153235088Y-55746294D01*
X153228505Y-55743826D01*
X153179052Y-55694261D01*
X153164038Y-55624870D01*
X153188924Y-55558378D01*
X153245807Y-55515895D01*
X153289707Y-55508000D01*
X173950672Y-55508000D01*
X173970057Y-55509500D01*
G37*
%TD.AperFunction*%
%TA.AperFunction,Conductor*%
G36*
X150955180Y-55528002D02*
G01*
X151001673Y-55581658D01*
X151011777Y-55651932D01*
X150982283Y-55716512D01*
X150948575Y-55743709D01*
X150941678Y-55746294D01*
X150825122Y-55833648D01*
X150737768Y-55950204D01*
X150686638Y-56086593D01*
X150679883Y-56148775D01*
X150679883Y-57445043D01*
X150686638Y-57507225D01*
X150737768Y-57643614D01*
X150743151Y-57650796D01*
X150743154Y-57650801D01*
X150796023Y-57721344D01*
X150820871Y-57787851D01*
X150805818Y-57857233D01*
X150796023Y-57872474D01*
X150743154Y-57943017D01*
X150737768Y-57950204D01*
X150686638Y-58086593D01*
X150679883Y-58148775D01*
X150679883Y-59445043D01*
X150686638Y-59507225D01*
X150737768Y-59643614D01*
X150743151Y-59650796D01*
X150743154Y-59650801D01*
X150796023Y-59721344D01*
X150820871Y-59787851D01*
X150805818Y-59857233D01*
X150796023Y-59872474D01*
X150762928Y-59916633D01*
X150737768Y-59950204D01*
X150686638Y-60086593D01*
X150679883Y-60148775D01*
X150679883Y-61445043D01*
X150686638Y-61507225D01*
X150737768Y-61643614D01*
X150743153Y-61650799D01*
X150743154Y-61650801D01*
X150796023Y-61721344D01*
X150820871Y-61787851D01*
X150805818Y-61857233D01*
X150796023Y-61872474D01*
X150747958Y-61936607D01*
X150737768Y-61950204D01*
X150686638Y-62086593D01*
X150679883Y-62148775D01*
X150679883Y-63445043D01*
X150686638Y-63507225D01*
X150737768Y-63643614D01*
X150743153Y-63650799D01*
X150743154Y-63650801D01*
X150796023Y-63721344D01*
X150820871Y-63787851D01*
X150805818Y-63857233D01*
X150796023Y-63872474D01*
X150743154Y-63943017D01*
X150737768Y-63950204D01*
X150686638Y-64086593D01*
X150679883Y-64148775D01*
X150679883Y-65445043D01*
X150686638Y-65507225D01*
X150737768Y-65643614D01*
X150743153Y-65650799D01*
X150743154Y-65650801D01*
X150796023Y-65721344D01*
X150820871Y-65787851D01*
X150805818Y-65857233D01*
X150796023Y-65872474D01*
X150743154Y-65943017D01*
X150737768Y-65950204D01*
X150686638Y-66086593D01*
X150679883Y-66148775D01*
X150679883Y-67445043D01*
X150686638Y-67507225D01*
X150737768Y-67643614D01*
X150743151Y-67650796D01*
X150743154Y-67650801D01*
X150796023Y-67721344D01*
X150820871Y-67787851D01*
X150805818Y-67857233D01*
X150796023Y-67872474D01*
X150743154Y-67943017D01*
X150743153Y-67943019D01*
X150737768Y-67950204D01*
X150686638Y-68086593D01*
X150679883Y-68148775D01*
X150679883Y-69445043D01*
X150686638Y-69507225D01*
X150737768Y-69643614D01*
X150766332Y-69681727D01*
X150796336Y-69721761D01*
X150821184Y-69788267D01*
X150806131Y-69857650D01*
X150796336Y-69872891D01*
X150743597Y-69943261D01*
X150735059Y-69958855D01*
X150689905Y-70079303D01*
X150686278Y-70094558D01*
X150680752Y-70145423D01*
X150680383Y-70152237D01*
X150680383Y-70524794D01*
X150684858Y-70540033D01*
X150686248Y-70541238D01*
X150693931Y-70542909D01*
X153478267Y-70542909D01*
X153493506Y-70538434D01*
X153494711Y-70537044D01*
X153496382Y-70529361D01*
X153496382Y-70152240D01*
X153496012Y-70145419D01*
X153490488Y-70094557D01*
X153486862Y-70079305D01*
X153441707Y-69958855D01*
X153433169Y-69943261D01*
X153380430Y-69872891D01*
X153355582Y-69806385D01*
X153370635Y-69737002D01*
X153380430Y-69721761D01*
X153410434Y-69681727D01*
X153438998Y-69643614D01*
X153490128Y-69507225D01*
X153496883Y-69445043D01*
X153496883Y-68148775D01*
X153490128Y-68086593D01*
X153438998Y-67950204D01*
X153433613Y-67943019D01*
X153433612Y-67943017D01*
X153380743Y-67872474D01*
X153355895Y-67805967D01*
X153370948Y-67736585D01*
X153380743Y-67721344D01*
X153433612Y-67650801D01*
X153433615Y-67650796D01*
X153438998Y-67643614D01*
X153490128Y-67507225D01*
X153496883Y-67445043D01*
X153496883Y-66148775D01*
X153490128Y-66086593D01*
X153438998Y-65950204D01*
X153429832Y-65937973D01*
X153393467Y-65889452D01*
X153368619Y-65822945D01*
X153383672Y-65753563D01*
X153433846Y-65703333D01*
X153503212Y-65688203D01*
X153520490Y-65690641D01*
X153598047Y-65707127D01*
X153598060Y-65707128D01*
X153604513Y-65708500D01*
X153795487Y-65708500D01*
X153801939Y-65707128D01*
X153801944Y-65707128D01*
X153890976Y-65688203D01*
X153982288Y-65668794D01*
X153988319Y-65666109D01*
X154150722Y-65593803D01*
X154150724Y-65593802D01*
X154156752Y-65591118D01*
X154192069Y-65565459D01*
X154259439Y-65516511D01*
X154311253Y-65478866D01*
X154349327Y-65436581D01*
X154434621Y-65341852D01*
X154434622Y-65341851D01*
X154439040Y-65336944D01*
X154509751Y-65214470D01*
X154531223Y-65177279D01*
X154531224Y-65177278D01*
X154534527Y-65171556D01*
X154593542Y-64989928D01*
X154597655Y-64950800D01*
X154612814Y-64806565D01*
X154613504Y-64800000D01*
X154599277Y-64664635D01*
X154594232Y-64616635D01*
X154594232Y-64616633D01*
X154593542Y-64610072D01*
X154534527Y-64428444D01*
X154522510Y-64407629D01*
X154453834Y-64288680D01*
X154439040Y-64263056D01*
X154410857Y-64231755D01*
X154315675Y-64126045D01*
X154315674Y-64126044D01*
X154311253Y-64121134D01*
X154156752Y-64008882D01*
X154150724Y-64006198D01*
X154150722Y-64006197D01*
X153988319Y-63933891D01*
X153988318Y-63933891D01*
X153982288Y-63931206D01*
X153885020Y-63910531D01*
X153801944Y-63892872D01*
X153801939Y-63892872D01*
X153795487Y-63891500D01*
X153604513Y-63891500D01*
X153598061Y-63892872D01*
X153598056Y-63892872D01*
X153514979Y-63910531D01*
X153444188Y-63905129D01*
X153387555Y-63862312D01*
X153363062Y-63795674D01*
X153378483Y-63726373D01*
X153387956Y-63711719D01*
X153402164Y-63692761D01*
X153438998Y-63643614D01*
X153490128Y-63507225D01*
X153496883Y-63445043D01*
X153496883Y-62148775D01*
X153490128Y-62086593D01*
X153438998Y-61950204D01*
X153428808Y-61936607D01*
X153380743Y-61872474D01*
X153355895Y-61805967D01*
X153370948Y-61736585D01*
X153380743Y-61721344D01*
X153433612Y-61650801D01*
X153433613Y-61650799D01*
X153438998Y-61643614D01*
X153490128Y-61507225D01*
X153496883Y-61445043D01*
X153496883Y-60148775D01*
X153490128Y-60086593D01*
X153438998Y-59950204D01*
X153413838Y-59916633D01*
X153380743Y-59872474D01*
X153355895Y-59805967D01*
X153370948Y-59736585D01*
X153380743Y-59721344D01*
X153433612Y-59650801D01*
X153433615Y-59650796D01*
X153438998Y-59643614D01*
X153448414Y-59618498D01*
X153460155Y-59587179D01*
X153502797Y-59530414D01*
X153569359Y-59505715D01*
X153578137Y-59505409D01*
X157311249Y-59505409D01*
X157379370Y-59525411D01*
X157400344Y-59542314D01*
X157614595Y-59756565D01*
X157648621Y-59818877D01*
X157651500Y-59845660D01*
X157651500Y-75694394D01*
X157631498Y-75762515D01*
X157591335Y-75801826D01*
X157474807Y-75873235D01*
X157474799Y-75873241D01*
X157470584Y-75875824D01*
X157290031Y-76030031D01*
X157286823Y-76033787D01*
X157286818Y-76033792D01*
X157185811Y-76152056D01*
X157126361Y-76190866D01*
X157055366Y-76191372D01*
X156994189Y-76152056D01*
X156893182Y-76033792D01*
X156893177Y-76033787D01*
X156889969Y-76030031D01*
X156709416Y-75875824D01*
X156705208Y-75873245D01*
X156705202Y-75873241D01*
X156511183Y-75754346D01*
X156506963Y-75751760D01*
X156502393Y-75749867D01*
X156502389Y-75749865D01*
X156398782Y-75706950D01*
X156343501Y-75662402D01*
X156321000Y-75590541D01*
X156321000Y-75286288D01*
X156341002Y-75218167D01*
X156357827Y-75197271D01*
X156446754Y-75108188D01*
X156446758Y-75108183D01*
X156451929Y-75103003D01*
X156482516Y-75053382D01*
X156539369Y-74961150D01*
X156539370Y-74961148D01*
X156543209Y-74954920D01*
X156597974Y-74789809D01*
X156599015Y-74779655D01*
X156607959Y-74692349D01*
X156608500Y-74687072D01*
X156608500Y-74112928D01*
X156607318Y-74101531D01*
X156601215Y-74042715D01*
X156597707Y-74008907D01*
X156591409Y-73990028D01*
X156544972Y-73850841D01*
X156542654Y-73843893D01*
X156451116Y-73695969D01*
X156445934Y-73690796D01*
X156333184Y-73578242D01*
X156333179Y-73578238D01*
X156328003Y-73573071D01*
X156311050Y-73562621D01*
X156263557Y-73509849D01*
X156252133Y-73439777D01*
X156280407Y-73374653D01*
X156287993Y-73366343D01*
X156346363Y-73307871D01*
X156355375Y-73296460D01*
X156438912Y-73160937D01*
X156445056Y-73147759D01*
X156495315Y-72996234D01*
X156498181Y-72982868D01*
X156507672Y-72890230D01*
X156508000Y-72883815D01*
X156508000Y-72872115D01*
X156503525Y-72856876D01*
X156502135Y-72855671D01*
X156494452Y-72854000D01*
X155347000Y-72854000D01*
X155278879Y-72833998D01*
X155232386Y-72780342D01*
X155221000Y-72728000D01*
X155221000Y-72327885D01*
X155729000Y-72327885D01*
X155733475Y-72343124D01*
X155734865Y-72344329D01*
X155742548Y-72346000D01*
X156489885Y-72346000D01*
X156505124Y-72341525D01*
X156506329Y-72340135D01*
X156508000Y-72332452D01*
X156508000Y-72316234D01*
X156507663Y-72309718D01*
X156497925Y-72215868D01*
X156495032Y-72202472D01*
X156444512Y-72051047D01*
X156438347Y-72037885D01*
X156354574Y-71902508D01*
X156345540Y-71891110D01*
X156232871Y-71778637D01*
X156221460Y-71769625D01*
X156085937Y-71686088D01*
X156072759Y-71679944D01*
X155921234Y-71629685D01*
X155907868Y-71626819D01*
X155815230Y-71617328D01*
X155808815Y-71617000D01*
X155747115Y-71617000D01*
X155731876Y-71621475D01*
X155730671Y-71622865D01*
X155729000Y-71630548D01*
X155729000Y-72327885D01*
X155221000Y-72327885D01*
X155221000Y-71635115D01*
X155216525Y-71619876D01*
X155215135Y-71618671D01*
X155207452Y-71617000D01*
X155141234Y-71617000D01*
X155134718Y-71617337D01*
X155040868Y-71627075D01*
X155027472Y-71629968D01*
X154876047Y-71680488D01*
X154862885Y-71686653D01*
X154727508Y-71770426D01*
X154716105Y-71779464D01*
X154689475Y-71806140D01*
X154627193Y-71840219D01*
X154556373Y-71835216D01*
X154511285Y-71806295D01*
X154503542Y-71798565D01*
X154478003Y-71773071D01*
X154471772Y-71769230D01*
X154336150Y-71685631D01*
X154336148Y-71685630D01*
X154329920Y-71681791D01*
X154164809Y-71627026D01*
X154157973Y-71626326D01*
X154157970Y-71626325D01*
X154101738Y-71620564D01*
X154062072Y-71616500D01*
X153618181Y-71616500D01*
X153550060Y-71596498D01*
X153503567Y-71542842D01*
X153492918Y-71476891D01*
X153496014Y-71448392D01*
X153496383Y-71441581D01*
X153496383Y-71069024D01*
X153491908Y-71053785D01*
X153490518Y-71052580D01*
X153482835Y-71050909D01*
X152360498Y-71050909D01*
X152345259Y-71055384D01*
X152344054Y-71056774D01*
X152342383Y-71064457D01*
X152342383Y-71886793D01*
X152346858Y-71902032D01*
X152348248Y-71903237D01*
X152355931Y-71904908D01*
X152628742Y-71904908D01*
X152696863Y-71924910D01*
X152743356Y-71978566D01*
X152753460Y-72048840D01*
X152748337Y-72070569D01*
X152702026Y-72210191D01*
X152701326Y-72217027D01*
X152701325Y-72217030D01*
X152700481Y-72225271D01*
X152691500Y-72312928D01*
X152691500Y-72887072D01*
X152691837Y-72890318D01*
X152691837Y-72890322D01*
X152701440Y-72982868D01*
X152702293Y-72991093D01*
X152704474Y-72997629D01*
X152704474Y-72997631D01*
X152725878Y-73061785D01*
X152757346Y-73156107D01*
X152848884Y-73304031D01*
X152854066Y-73309204D01*
X152867377Y-73322492D01*
X152969489Y-73424426D01*
X152969491Y-73424428D01*
X152971997Y-73426929D01*
X152971569Y-73427358D01*
X153009656Y-73481080D01*
X153016500Y-73522042D01*
X153016500Y-73576323D01*
X152996498Y-73644444D01*
X152979679Y-73665334D01*
X152948071Y-73696997D01*
X152904032Y-73768441D01*
X152861364Y-73837662D01*
X152856791Y-73845080D01*
X152802026Y-74010191D01*
X152801326Y-74017027D01*
X152801325Y-74017030D01*
X152796976Y-74059481D01*
X152791500Y-74112928D01*
X152791500Y-74687072D01*
X152791837Y-74690318D01*
X152791837Y-74690322D01*
X152800852Y-74777203D01*
X152802293Y-74791093D01*
X152804474Y-74797629D01*
X152804474Y-74797631D01*
X152842821Y-74912569D01*
X152857346Y-74956107D01*
X152948884Y-75104031D01*
X152954066Y-75109204D01*
X153066816Y-75221758D01*
X153066821Y-75221762D01*
X153071997Y-75226929D01*
X153078227Y-75230769D01*
X153078228Y-75230770D01*
X153207008Y-75310151D01*
X153220080Y-75318209D01*
X153385191Y-75372974D01*
X153392027Y-75373674D01*
X153392030Y-75373675D01*
X153443526Y-75378951D01*
X153487928Y-75383500D01*
X154087072Y-75383500D01*
X154090318Y-75383163D01*
X154090322Y-75383163D01*
X154184235Y-75373419D01*
X154184239Y-75373418D01*
X154191093Y-75372707D01*
X154197629Y-75370526D01*
X154197631Y-75370526D01*
X154330395Y-75326232D01*
X154356107Y-75317654D01*
X154504031Y-75226116D01*
X154528756Y-75201348D01*
X154610747Y-75119214D01*
X154673030Y-75085135D01*
X154743850Y-75090138D01*
X154788937Y-75119058D01*
X154796994Y-75127101D01*
X154862296Y-75192288D01*
X154867017Y-75197001D01*
X154901097Y-75259284D01*
X154904000Y-75286175D01*
X154904000Y-75840443D01*
X154883998Y-75908564D01*
X154859830Y-75936254D01*
X154753798Y-76026813D01*
X154753793Y-76026818D01*
X154750031Y-76030031D01*
X154746819Y-76033792D01*
X154746816Y-76033795D01*
X154740070Y-76041694D01*
X154595824Y-76210584D01*
X154593245Y-76214792D01*
X154593241Y-76214798D01*
X154479934Y-76399698D01*
X154471760Y-76413037D01*
X154469867Y-76417607D01*
X154469865Y-76417611D01*
X154395783Y-76596462D01*
X154380895Y-76632406D01*
X154379740Y-76637218D01*
X154331605Y-76837715D01*
X154325465Y-76863289D01*
X154306835Y-77100000D01*
X154307223Y-77104930D01*
X154307223Y-77104931D01*
X154308620Y-77122682D01*
X154294024Y-77192162D01*
X154272103Y-77221663D01*
X153739171Y-77754595D01*
X153676859Y-77788621D01*
X153650076Y-77791500D01*
X150465061Y-77791500D01*
X150396940Y-77771498D01*
X150350447Y-77717842D01*
X150340343Y-77647568D01*
X150369837Y-77582988D01*
X150392790Y-77562287D01*
X150539789Y-77459357D01*
X150539792Y-77459355D01*
X150544300Y-77456198D01*
X150706198Y-77294300D01*
X150713992Y-77283170D01*
X150796575Y-77165229D01*
X150837523Y-77106749D01*
X150839846Y-77101767D01*
X150839849Y-77101762D01*
X150931961Y-76904225D01*
X150931961Y-76904224D01*
X150934284Y-76899243D01*
X150950771Y-76837715D01*
X150992119Y-76683402D01*
X150992119Y-76683400D01*
X150993543Y-76678087D01*
X151013498Y-76450000D01*
X150993543Y-76221913D01*
X150991637Y-76214798D01*
X150935707Y-76006067D01*
X150935706Y-76006065D01*
X150934284Y-76000757D01*
X150918077Y-75966000D01*
X150839849Y-75798238D01*
X150839846Y-75798233D01*
X150837523Y-75793251D01*
X150706198Y-75605700D01*
X150544300Y-75443802D01*
X150539792Y-75440645D01*
X150539789Y-75440643D01*
X150457563Y-75383068D01*
X150356749Y-75312477D01*
X150351767Y-75310154D01*
X150351762Y-75310151D01*
X150154225Y-75218039D01*
X150154224Y-75218039D01*
X150149243Y-75215716D01*
X150143935Y-75214294D01*
X150143933Y-75214293D01*
X149933402Y-75157881D01*
X149933400Y-75157881D01*
X149928087Y-75156457D01*
X149700000Y-75136502D01*
X149471913Y-75156457D01*
X149408458Y-75173460D01*
X149337482Y-75171770D01*
X149286753Y-75140848D01*
X147956879Y-73810974D01*
X147922853Y-73748662D01*
X147927918Y-73677847D01*
X147970409Y-73621053D01*
X148012818Y-73589269D01*
X148079324Y-73564421D01*
X148148707Y-73579474D01*
X148163948Y-73589269D01*
X148217267Y-73629229D01*
X148241678Y-73647524D01*
X148378067Y-73698654D01*
X148440249Y-73705409D01*
X149736517Y-73705409D01*
X149798699Y-73698654D01*
X149935088Y-73647524D01*
X150051644Y-73560170D01*
X150138998Y-73443614D01*
X150190128Y-73307225D01*
X150196883Y-73245043D01*
X150196883Y-71441578D01*
X150680384Y-71441578D01*
X150680754Y-71448399D01*
X150686278Y-71499261D01*
X150689904Y-71514513D01*
X150735059Y-71634963D01*
X150743597Y-71650558D01*
X150820098Y-71752633D01*
X150832659Y-71765194D01*
X150934734Y-71841695D01*
X150950329Y-71850233D01*
X151070777Y-71895387D01*
X151086032Y-71899014D01*
X151136897Y-71904540D01*
X151143711Y-71904909D01*
X151816268Y-71904909D01*
X151831507Y-71900434D01*
X151832712Y-71899044D01*
X151834383Y-71891361D01*
X151834383Y-71069024D01*
X151829908Y-71053785D01*
X151828518Y-71052580D01*
X151820835Y-71050909D01*
X150698499Y-71050909D01*
X150683260Y-71055384D01*
X150682055Y-71056774D01*
X150680384Y-71064457D01*
X150680384Y-71441578D01*
X150196883Y-71441578D01*
X150196883Y-71348775D01*
X150190128Y-71286593D01*
X150138998Y-71150204D01*
X150051644Y-71033648D01*
X149935088Y-70946294D01*
X149798699Y-70895164D01*
X149736517Y-70888409D01*
X148440249Y-70888409D01*
X148378067Y-70895164D01*
X148241678Y-70946294D01*
X148234493Y-70951679D01*
X148234491Y-70951680D01*
X148163948Y-71004549D01*
X148097441Y-71029397D01*
X148028059Y-71014344D01*
X148012818Y-71004549D01*
X147942275Y-70951680D01*
X147942273Y-70951679D01*
X147935088Y-70946294D01*
X147798699Y-70895164D01*
X147736517Y-70888409D01*
X146440249Y-70888409D01*
X146378067Y-70895164D01*
X146241678Y-70946294D01*
X146234493Y-70951679D01*
X146234491Y-70951680D01*
X146163948Y-71004549D01*
X146097441Y-71029397D01*
X146028059Y-71014344D01*
X146012818Y-71004549D01*
X145942275Y-70951680D01*
X145942273Y-70951679D01*
X145935088Y-70946294D01*
X145798699Y-70895164D01*
X145736517Y-70888409D01*
X144440249Y-70888409D01*
X144378067Y-70895164D01*
X144241678Y-70946294D01*
X144234493Y-70951679D01*
X144234491Y-70951680D01*
X144163948Y-71004549D01*
X144097441Y-71029397D01*
X144028059Y-71014344D01*
X144012818Y-71004549D01*
X143942275Y-70951680D01*
X143942273Y-70951679D01*
X143935088Y-70946294D01*
X143798699Y-70895164D01*
X143736517Y-70888409D01*
X142440249Y-70888409D01*
X142378067Y-70895164D01*
X142241678Y-70946294D01*
X142234493Y-70951679D01*
X142234491Y-70951680D01*
X142163948Y-71004549D01*
X142097441Y-71029397D01*
X142028059Y-71014344D01*
X142012818Y-71004549D01*
X141942275Y-70951680D01*
X141942273Y-70951679D01*
X141935088Y-70946294D01*
X141798699Y-70895164D01*
X141736517Y-70888409D01*
X140440249Y-70888409D01*
X140378067Y-70895164D01*
X140241678Y-70946294D01*
X140234493Y-70951679D01*
X140234491Y-70951680D01*
X140163948Y-71004549D01*
X140097441Y-71029397D01*
X140028059Y-71014344D01*
X140012818Y-71004549D01*
X139942275Y-70951680D01*
X139942273Y-70951679D01*
X139935088Y-70946294D01*
X139798699Y-70895164D01*
X139736517Y-70888409D01*
X138440249Y-70888409D01*
X138378067Y-70895164D01*
X138241678Y-70946294D01*
X138125122Y-71033648D01*
X138037768Y-71150204D01*
X137986638Y-71286593D01*
X137979883Y-71348775D01*
X137979883Y-73245043D01*
X137986638Y-73307225D01*
X138037768Y-73443614D01*
X138125122Y-73560170D01*
X138241678Y-73647524D01*
X138378067Y-73698654D01*
X138440249Y-73705409D01*
X139736517Y-73705409D01*
X139798699Y-73698654D01*
X139935088Y-73647524D01*
X139959499Y-73629229D01*
X140012818Y-73589269D01*
X140079325Y-73564421D01*
X140148707Y-73579474D01*
X140163948Y-73589269D01*
X140217267Y-73629229D01*
X140241678Y-73647524D01*
X140378067Y-73698654D01*
X140440249Y-73705409D01*
X141736517Y-73705409D01*
X141798699Y-73698654D01*
X141935088Y-73647524D01*
X141959499Y-73629229D01*
X142012818Y-73589269D01*
X142079325Y-73564421D01*
X142148707Y-73579474D01*
X142163948Y-73589269D01*
X142217267Y-73629229D01*
X142241678Y-73647524D01*
X142378067Y-73698654D01*
X142440249Y-73705409D01*
X143736517Y-73705409D01*
X143798699Y-73698654D01*
X143935088Y-73647524D01*
X143959499Y-73629229D01*
X144012818Y-73589269D01*
X144079325Y-73564421D01*
X144148707Y-73579474D01*
X144163948Y-73589269D01*
X144217267Y-73629229D01*
X144241678Y-73647524D01*
X144250086Y-73650676D01*
X144373113Y-73696797D01*
X144429877Y-73739439D01*
X144454577Y-73806000D01*
X144454883Y-73814779D01*
X144454883Y-73909616D01*
X144454356Y-73920799D01*
X144452681Y-73928292D01*
X144452930Y-73936219D01*
X144452930Y-73936221D01*
X144453196Y-73944693D01*
X144435342Y-74013408D01*
X144416353Y-74037743D01*
X143313248Y-75140848D01*
X143250936Y-75174874D01*
X143191541Y-75173459D01*
X143133409Y-75157882D01*
X143133398Y-75157880D01*
X143128087Y-75156457D01*
X142900000Y-75136502D01*
X142671913Y-75156457D01*
X142666600Y-75157881D01*
X142666598Y-75157881D01*
X142456067Y-75214293D01*
X142456065Y-75214294D01*
X142450757Y-75215716D01*
X142445776Y-75218039D01*
X142445775Y-75218039D01*
X142248238Y-75310151D01*
X142248233Y-75310154D01*
X142243251Y-75312477D01*
X142142437Y-75383068D01*
X142060211Y-75440643D01*
X142060208Y-75440645D01*
X142055700Y-75443802D01*
X141989095Y-75510407D01*
X141926783Y-75544433D01*
X141855968Y-75539368D01*
X141810905Y-75510407D01*
X141744300Y-75443802D01*
X141739792Y-75440645D01*
X141739789Y-75440643D01*
X141657563Y-75383068D01*
X141556749Y-75312477D01*
X141551767Y-75310154D01*
X141551762Y-75310151D01*
X141354225Y-75218039D01*
X141354224Y-75218039D01*
X141349243Y-75215716D01*
X141343935Y-75214294D01*
X141343933Y-75214293D01*
X141133402Y-75157881D01*
X141133400Y-75157881D01*
X141128087Y-75156457D01*
X140900000Y-75136502D01*
X140671913Y-75156457D01*
X140666600Y-75157881D01*
X140666598Y-75157881D01*
X140456067Y-75214293D01*
X140456065Y-75214294D01*
X140450757Y-75215716D01*
X140445776Y-75218039D01*
X140445775Y-75218039D01*
X140248238Y-75310151D01*
X140248233Y-75310154D01*
X140243251Y-75312477D01*
X140142437Y-75383068D01*
X140060211Y-75440643D01*
X140060208Y-75440645D01*
X140055700Y-75443802D01*
X139989095Y-75510407D01*
X139926783Y-75544433D01*
X139855968Y-75539368D01*
X139810905Y-75510407D01*
X139744300Y-75443802D01*
X139739792Y-75440645D01*
X139739789Y-75440643D01*
X139657563Y-75383068D01*
X139556749Y-75312477D01*
X139551767Y-75310154D01*
X139551762Y-75310151D01*
X139354225Y-75218039D01*
X139354224Y-75218039D01*
X139349243Y-75215716D01*
X139343935Y-75214294D01*
X139343933Y-75214293D01*
X139133402Y-75157881D01*
X139133400Y-75157881D01*
X139128087Y-75156457D01*
X138900000Y-75136502D01*
X138671913Y-75156457D01*
X138666600Y-75157881D01*
X138666598Y-75157881D01*
X138456067Y-75214293D01*
X138456065Y-75214294D01*
X138450757Y-75215716D01*
X138445776Y-75218039D01*
X138445775Y-75218039D01*
X138248238Y-75310151D01*
X138248233Y-75310154D01*
X138243251Y-75312477D01*
X138142289Y-75383172D01*
X138091531Y-75418713D01*
X138019260Y-75441500D01*
X137619926Y-75441500D01*
X137551805Y-75421498D01*
X137530831Y-75404596D01*
X137133788Y-75007554D01*
X137099763Y-74945241D01*
X137096883Y-74918458D01*
X137096883Y-71986663D01*
X137116885Y-71918542D01*
X137170541Y-71872049D01*
X137178653Y-71868681D01*
X137226680Y-71850676D01*
X137235088Y-71847524D01*
X137351644Y-71760170D01*
X137438998Y-71643614D01*
X137490128Y-71507225D01*
X137496883Y-71445043D01*
X137496883Y-70148775D01*
X137490128Y-70086593D01*
X137438998Y-69950204D01*
X137408914Y-69910063D01*
X137384067Y-69843560D01*
X137399119Y-69774177D01*
X137449293Y-69723947D01*
X137509741Y-69708500D01*
X137695487Y-69708500D01*
X137701939Y-69707128D01*
X137701944Y-69707128D01*
X137821443Y-69681727D01*
X137882288Y-69668794D01*
X137920262Y-69651887D01*
X138050722Y-69593803D01*
X138050724Y-69593802D01*
X138056752Y-69591118D01*
X138071301Y-69580548D01*
X138112157Y-69550864D01*
X138211253Y-69478866D01*
X138279363Y-69403222D01*
X138334621Y-69341852D01*
X138334622Y-69341851D01*
X138339040Y-69336944D01*
X138406564Y-69219989D01*
X138431223Y-69177279D01*
X138431224Y-69177278D01*
X138434527Y-69171556D01*
X138493542Y-68989928D01*
X138495336Y-68972865D01*
X138512814Y-68806565D01*
X138513504Y-68800000D01*
X138496020Y-68633648D01*
X138494232Y-68616635D01*
X138494232Y-68616633D01*
X138493542Y-68610072D01*
X138434527Y-68428444D01*
X138339040Y-68263056D01*
X138290345Y-68208974D01*
X138215675Y-68126045D01*
X138215674Y-68126044D01*
X138211253Y-68121134D01*
X138056752Y-68008882D01*
X138050724Y-68006198D01*
X138050722Y-68006197D01*
X137888319Y-67933891D01*
X137888318Y-67933891D01*
X137882288Y-67931206D01*
X137781878Y-67909863D01*
X137701944Y-67892872D01*
X137701939Y-67892872D01*
X137695487Y-67891500D01*
X137505108Y-67891500D01*
X137436987Y-67871498D01*
X137390494Y-67817842D01*
X137380390Y-67747568D01*
X137404281Y-67689937D01*
X137438998Y-67643614D01*
X137490128Y-67507225D01*
X137496883Y-67445043D01*
X137496883Y-66148775D01*
X137490128Y-66086593D01*
X137438998Y-65950204D01*
X137433612Y-65943017D01*
X137380743Y-65872474D01*
X137355895Y-65805967D01*
X137370948Y-65736585D01*
X137380743Y-65721344D01*
X137433612Y-65650801D01*
X137433613Y-65650799D01*
X137438998Y-65643614D01*
X137490128Y-65507225D01*
X137496883Y-65445043D01*
X137496883Y-64148775D01*
X137490128Y-64086593D01*
X137438998Y-63950204D01*
X137433612Y-63943017D01*
X137380743Y-63872474D01*
X137355895Y-63805967D01*
X137370948Y-63736585D01*
X137380743Y-63721344D01*
X137433612Y-63650801D01*
X137433613Y-63650799D01*
X137438998Y-63643614D01*
X137490128Y-63507225D01*
X137496883Y-63445043D01*
X137496883Y-62148775D01*
X137490128Y-62086593D01*
X137438998Y-61950204D01*
X137408914Y-61910063D01*
X137384067Y-61843560D01*
X137399119Y-61774177D01*
X137449293Y-61723947D01*
X137509741Y-61708500D01*
X137595487Y-61708500D01*
X137601939Y-61707128D01*
X137601944Y-61707128D01*
X137688887Y-61688647D01*
X137782288Y-61668794D01*
X137795735Y-61662807D01*
X137950722Y-61593803D01*
X137950724Y-61593802D01*
X137956752Y-61591118D01*
X137975854Y-61577240D01*
X138052674Y-61521426D01*
X138111253Y-61478866D01*
X138127018Y-61461357D01*
X138234621Y-61341852D01*
X138234622Y-61341851D01*
X138239040Y-61336944D01*
X138334527Y-61171556D01*
X138393542Y-60989928D01*
X138413504Y-60800000D01*
X138411469Y-60780640D01*
X138394232Y-60616635D01*
X138394232Y-60616633D01*
X138393542Y-60610072D01*
X138334527Y-60428444D01*
X138310967Y-60387636D01*
X138291110Y-60353243D01*
X138239040Y-60263056D01*
X138226642Y-60249286D01*
X138115675Y-60126045D01*
X138115674Y-60126044D01*
X138111253Y-60121134D01*
X137996767Y-60037955D01*
X137962094Y-60012763D01*
X137962093Y-60012762D01*
X137956752Y-60008882D01*
X137950724Y-60006198D01*
X137950722Y-60006197D01*
X137788319Y-59933891D01*
X137788318Y-59933891D01*
X137782288Y-59931206D01*
X137657367Y-59904653D01*
X137601944Y-59892872D01*
X137601939Y-59892872D01*
X137595487Y-59891500D01*
X137505108Y-59891500D01*
X137436987Y-59871498D01*
X137390494Y-59817842D01*
X137380390Y-59747568D01*
X137404281Y-59689937D01*
X137438998Y-59643614D01*
X137490128Y-59507225D01*
X137496883Y-59445043D01*
X137496883Y-58148775D01*
X137490128Y-58086593D01*
X137438998Y-57950204D01*
X137408914Y-57910063D01*
X137384067Y-57843560D01*
X137399119Y-57774177D01*
X137449293Y-57723947D01*
X137509741Y-57708500D01*
X137645487Y-57708500D01*
X137651939Y-57707128D01*
X137651944Y-57707128D01*
X137738888Y-57688647D01*
X137832288Y-57668794D01*
X137843799Y-57663669D01*
X138000722Y-57593803D01*
X138000724Y-57593802D01*
X138006752Y-57591118D01*
X138161253Y-57478866D01*
X138289040Y-57336944D01*
X138384527Y-57171556D01*
X138443542Y-56989928D01*
X138444592Y-56979943D01*
X138462814Y-56806565D01*
X138463504Y-56800000D01*
X138456405Y-56732452D01*
X138444232Y-56616635D01*
X138444232Y-56616633D01*
X138443542Y-56610072D01*
X138384527Y-56428444D01*
X138358784Y-56383855D01*
X138318073Y-56313343D01*
X138289040Y-56263056D01*
X138228882Y-56196243D01*
X138165675Y-56126045D01*
X138165674Y-56126044D01*
X138161253Y-56121134D01*
X138006752Y-56008882D01*
X138000724Y-56006198D01*
X138000722Y-56006197D01*
X137838319Y-55933891D01*
X137838318Y-55933891D01*
X137832288Y-55931206D01*
X137738888Y-55911353D01*
X137651944Y-55892872D01*
X137651939Y-55892872D01*
X137645487Y-55891500D01*
X137458029Y-55891500D01*
X137389908Y-55871498D01*
X137363566Y-55846987D01*
X137363375Y-55847178D01*
X137358054Y-55841857D01*
X137357205Y-55841067D01*
X137357028Y-55840831D01*
X137357025Y-55840828D01*
X137351644Y-55833648D01*
X137235088Y-55746294D01*
X137228505Y-55743826D01*
X137179052Y-55694261D01*
X137164038Y-55624870D01*
X137188924Y-55558378D01*
X137245807Y-55515895D01*
X137289707Y-55508000D01*
X150887059Y-55508000D01*
X150955180Y-55528002D01*
G37*
%TD.AperFunction*%
%TA.AperFunction,Conductor*%
G36*
X133496121Y-61228502D02*
G01*
X133542614Y-61282158D01*
X133554000Y-61334500D01*
X133554000Y-62489885D01*
X133558475Y-62505124D01*
X133559865Y-62506329D01*
X133567548Y-62508000D01*
X133583766Y-62508000D01*
X133590282Y-62507663D01*
X133684132Y-62497925D01*
X133697528Y-62495032D01*
X133848953Y-62444512D01*
X133862115Y-62438347D01*
X133997492Y-62354574D01*
X134008890Y-62345540D01*
X134121363Y-62232871D01*
X134130375Y-62221460D01*
X134213912Y-62085937D01*
X134220056Y-62072759D01*
X134270315Y-61921234D01*
X134273181Y-61907868D01*
X134282672Y-61815230D01*
X134283000Y-61808815D01*
X134283000Y-61556409D01*
X134303002Y-61488288D01*
X134356658Y-61441795D01*
X134409000Y-61430409D01*
X134570513Y-61430409D01*
X134638634Y-61450411D01*
X134685127Y-61504067D01*
X134688495Y-61512179D01*
X134737768Y-61643614D01*
X134743153Y-61650799D01*
X134743154Y-61650801D01*
X134796023Y-61721344D01*
X134820871Y-61787851D01*
X134805818Y-61857233D01*
X134796023Y-61872474D01*
X134747958Y-61936607D01*
X134737768Y-61950204D01*
X134686638Y-62086593D01*
X134679883Y-62148775D01*
X134679883Y-62422023D01*
X134659881Y-62490144D01*
X134642982Y-62511114D01*
X133724498Y-63429597D01*
X133662188Y-63463621D01*
X133635405Y-63466500D01*
X133064595Y-63466500D01*
X132996474Y-63446498D01*
X132975499Y-63429595D01*
X132820404Y-63274499D01*
X132786379Y-63212187D01*
X132783500Y-63185404D01*
X132783500Y-62624059D01*
X132803502Y-62555938D01*
X132857158Y-62509445D01*
X132922342Y-62498715D01*
X133009767Y-62507672D01*
X133016185Y-62508000D01*
X133027885Y-62508000D01*
X133043124Y-62503525D01*
X133044329Y-62502135D01*
X133046000Y-62494452D01*
X133046000Y-61334500D01*
X133066002Y-61266379D01*
X133119658Y-61219886D01*
X133172000Y-61208500D01*
X133428000Y-61208500D01*
X133496121Y-61228502D01*
G37*
%TD.AperFunction*%
%TD*%
M02*
