%TF.GenerationSoftware,KiCad,Pcbnew,(6.0.0)*%
%TF.CreationDate,2022-05-15T20:33:26+08:00*%
%TF.ProjectId,Solder-Reflow-Plate-ESP32,536f6c64-6572-42d5-9265-666c6f772d50,rev?*%
%TF.SameCoordinates,Original*%
%TF.FileFunction,Copper,L2,Bot*%
%TF.FilePolarity,Positive*%
%FSLAX46Y46*%
G04 Gerber Fmt 4.6, Leading zero omitted, Abs format (unit mm)*
G04 Created by KiCad (PCBNEW (6.0.0)) date 2022-05-15 20:33:26*
%MOMM*%
%LPD*%
G01*
G04 APERTURE LIST*
%TA.AperFunction,ComponentPad*%
%ADD10R,1.700000X1.700000*%
%TD*%
%TA.AperFunction,ComponentPad*%
%ADD11O,1.700000X1.700000*%
%TD*%
%TA.AperFunction,ComponentPad*%
%ADD12O,4.200000X1.800000*%
%TD*%
%TA.AperFunction,ComponentPad*%
%ADD13O,4.000000X1.800000*%
%TD*%
%TA.AperFunction,ComponentPad*%
%ADD14O,1.800000X4.000000*%
%TD*%
%TA.AperFunction,ComponentPad*%
%ADD15R,1.600000X0.900000*%
%TD*%
%TA.AperFunction,ComponentPad*%
%ADD16O,1.600000X0.900000*%
%TD*%
%TA.AperFunction,ComponentPad*%
%ADD17R,2.000000X1.905000*%
%TD*%
%TA.AperFunction,ComponentPad*%
%ADD18O,2.000000X1.905000*%
%TD*%
%TA.AperFunction,ComponentPad*%
%ADD19C,2.000000*%
%TD*%
%TA.AperFunction,ComponentPad*%
%ADD20C,1.600000*%
%TD*%
%TA.AperFunction,ViaPad*%
%ADD21C,0.800000*%
%TD*%
%TA.AperFunction,ViaPad*%
%ADD22C,1.000000*%
%TD*%
%TA.AperFunction,Conductor*%
%ADD23C,0.250000*%
%TD*%
%TA.AperFunction,Conductor*%
%ADD24C,0.400000*%
%TD*%
G04 APERTURE END LIST*
D10*
%TO.P,J3,1,Pin_1*%
%TO.N,TempData2*%
X174850000Y-73075000D03*
D11*
%TO.P,J3,2,Pin_2*%
%TO.N,GND*%
X174850000Y-70535000D03*
%TD*%
D10*
%TO.P,J2,1,Pin_1*%
%TO.N,unconnected-(J2-Pad1)*%
X120750000Y-73200000D03*
D11*
%TO.P,J2,2,Pin_2*%
%TO.N,Net-(C11-Pad1)*%
X123290000Y-73200000D03*
%TO.P,J2,3,Pin_3*%
%TO.N,+3V3*%
X125830000Y-73200000D03*
%TD*%
D12*
%TO.P,DC1,1,1*%
%TO.N,Element*%
X104712500Y-69127500D03*
D13*
%TO.P,DC1,2,2*%
%TO.N,GND*%
X104712500Y-63127500D03*
D14*
%TO.P,DC1,3,3*%
X100012500Y-66127500D03*
%TD*%
D15*
%TO.P,U3,1,VDD*%
%TO.N,+3V3*%
X107650000Y-76270000D03*
D16*
%TO.P,U3,2,VOUT*%
%TO.N,TempData*%
X107650000Y-75000000D03*
%TO.P,U3,3,GND*%
%TO.N,GND*%
X107650000Y-73730000D03*
%TD*%
D17*
%TO.P,U1,1,VI*%
%TO.N,VCC*%
X118345000Y-66240000D03*
D18*
%TO.P,U1,2,GND*%
%TO.N,GND*%
X118345000Y-63700000D03*
%TO.P,U1,3,VO*%
%TO.N,+5V*%
X118345000Y-61160000D03*
%TD*%
D19*
%TO.P,CN1,1,1*%
%TO.N,+3V3*%
X155820000Y-77100000D03*
%TO.P,CN1,2,2*%
%TO.N,RXD*%
X158360000Y-77100000D03*
%TO.P,CN1,3,3*%
%TO.N,TXD*%
X160900000Y-77100000D03*
%TO.P,CN1,4,4*%
%TO.N,CHIP_PU*%
X163440000Y-77100000D03*
%TO.P,CN1,5,5*%
%TO.N,GPIO9*%
X165980000Y-77100000D03*
%TO.P,CN1,6,6*%
%TO.N,GND*%
X168520000Y-77100000D03*
%TD*%
D20*
%TO.P,SW1,1,1*%
%TO.N,+3V3*%
X145700000Y-80950000D03*
%TO.P,SW1,2,2*%
X147700000Y-80950000D03*
%TO.P,SW1,3,3*%
%TO.N,UPSW*%
X149700000Y-80950000D03*
%TO.P,SW1,4,4*%
%TO.N,+3V3*%
X145700000Y-76450000D03*
%TO.P,SW1,5,5*%
X147700000Y-76450000D03*
%TO.P,SW1,6,6*%
%TO.N,UPSW*%
X149700000Y-76450000D03*
%TD*%
%TO.P,SW2,1,1*%
%TO.N,+3V3*%
X138900000Y-80950000D03*
%TO.P,SW2,2,2*%
X140900000Y-80950000D03*
%TO.P,SW2,3,3*%
%TO.N,DNSW*%
X142900000Y-80950000D03*
%TO.P,SW2,4,4*%
%TO.N,+3V3*%
X138900000Y-76450000D03*
%TO.P,SW2,5,5*%
X140900000Y-76450000D03*
%TO.P,SW2,6,6*%
%TO.N,DNSW*%
X142900000Y-76450000D03*
%TD*%
D10*
%TO.P,J1,1,Pin_1*%
%TO.N,SDAOLED*%
X130225000Y-58060000D03*
D11*
%TO.P,J1,2,Pin_2*%
%TO.N,SCKOLED*%
X130225000Y-60600000D03*
%TO.P,J1,3,Pin_3*%
%TO.N,+3V3*%
X130225000Y-63140000D03*
%TO.P,J1,4,Pin_4*%
%TO.N,GND*%
X130225000Y-65680000D03*
%TD*%
D21*
%TO.N,GND*%
X95000000Y-80010000D03*
X100000000Y-79980000D03*
X94990000Y-76970000D03*
X100000000Y-76930000D03*
X105000000Y-76910000D03*
X110000000Y-76900000D03*
%TO.N,+3V3*%
X134350000Y-76600000D03*
X108850000Y-78900000D03*
%TO.N,TempData2*%
X137550000Y-56800000D03*
%TO.N,GND*%
X172500000Y-80000000D03*
X130900000Y-78900000D03*
X162500000Y-82500000D03*
X162500000Y-57500000D03*
X105000000Y-72500000D03*
X95000000Y-82500000D03*
X135000000Y-82500000D03*
D22*
X128400000Y-77900000D03*
D21*
X147500000Y-60000000D03*
X167500000Y-57500000D03*
X115400000Y-71700000D03*
X130000000Y-82500000D03*
X105000000Y-75000000D03*
X165000000Y-57500000D03*
X142500000Y-62500000D03*
X127200000Y-61900000D03*
X155000000Y-62500000D03*
X162500000Y-72500000D03*
X162500000Y-70000000D03*
X172300000Y-82800000D03*
X172500000Y-65000000D03*
X112000000Y-66000000D03*
X167500000Y-75000000D03*
X114900000Y-57500000D03*
X105000000Y-82500000D03*
X172500000Y-77500000D03*
X172500000Y-75000000D03*
X165000000Y-70000000D03*
X114900000Y-56600000D03*
X100000000Y-62500000D03*
X175000000Y-65000000D03*
X132950000Y-62700000D03*
X100000000Y-57500000D03*
X110300000Y-66800000D03*
X100000000Y-75000000D03*
X155500000Y-71300000D03*
X122300000Y-57700000D03*
X165000000Y-65000000D03*
X142500000Y-67500000D03*
X165000000Y-62500000D03*
X110000000Y-82500000D03*
X142500000Y-57500000D03*
X130300000Y-72600000D03*
X153700000Y-71300000D03*
X156800000Y-72600000D03*
X100000000Y-82500000D03*
X105000000Y-57500000D03*
X147500000Y-62500000D03*
X147500000Y-70000000D03*
D22*
X130900000Y-76100000D03*
D21*
X167500000Y-67500000D03*
X123800000Y-57600000D03*
X116500000Y-71700000D03*
X142500000Y-65000000D03*
X162500000Y-75000000D03*
X100000000Y-60000000D03*
D22*
X128400000Y-74600000D03*
D21*
X105000000Y-60000000D03*
X155000000Y-67500000D03*
X147500000Y-67500000D03*
X142500000Y-60000000D03*
X155000000Y-70000000D03*
X132200000Y-77700000D03*
X167500000Y-70000000D03*
X142500000Y-70000000D03*
X157500000Y-82500000D03*
X147500000Y-65000000D03*
X147500000Y-57500000D03*
X167500000Y-65000000D03*
X110400000Y-60500000D03*
X111900000Y-59000000D03*
X151200000Y-82800000D03*
X121400000Y-57700000D03*
X133850000Y-62700000D03*
X93400000Y-65700000D03*
X167500000Y-82500000D03*
X165000000Y-75000000D03*
X173300000Y-82800000D03*
X162500000Y-62500000D03*
X95000000Y-75000000D03*
X165000000Y-72500000D03*
X124700000Y-57600000D03*
X167500000Y-72500000D03*
X175000000Y-67500000D03*
X111000000Y-66000000D03*
X153700000Y-70300000D03*
X167500000Y-60000000D03*
X110000000Y-80000000D03*
X105000000Y-80000000D03*
X131600000Y-73900000D03*
X110000000Y-72500000D03*
X145900000Y-82900000D03*
X127500000Y-82500000D03*
X126300000Y-61900000D03*
X96100000Y-65700000D03*
X133300000Y-74300000D03*
X134200000Y-74300000D03*
X137500000Y-82500000D03*
%TO.N,CHIP_PU*%
X137500000Y-60800000D03*
%TO.N,GPIO9*%
X153700000Y-64800000D03*
%TO.N,Gate*%
X133280000Y-80810000D03*
X137600000Y-68800000D03*
%TO.N,VccDiv*%
X134650000Y-58800000D03*
X113900000Y-59300000D03*
%TO.N,TempData*%
X134470000Y-66800000D03*
%TD*%
D23*
%TO.N,TempData2*%
X174125000Y-73800000D02*
X174850000Y-73075000D01*
X170450000Y-73800000D02*
X174125000Y-73800000D01*
X169050000Y-62200000D02*
X169050000Y-72400000D01*
X169050000Y-72400000D02*
X170450000Y-73800000D01*
X168050000Y-61200000D02*
X169050000Y-62200000D01*
X137550000Y-58800000D02*
X139950000Y-61200000D01*
X137550000Y-56800000D02*
X137550000Y-58800000D01*
X139950000Y-61200000D02*
X168050000Y-61200000D01*
%TO.N,+3V3*%
X131850000Y-76600000D02*
X129550000Y-78900000D01*
X129550000Y-78900000D02*
X108850000Y-78900000D01*
X134350000Y-76600000D02*
X131850000Y-76600000D01*
D24*
%TO.N,TempData*%
X115350000Y-75000000D02*
X107650000Y-75000000D01*
X122550000Y-67800000D02*
X115350000Y-75000000D01*
X133470000Y-67800000D02*
X122550000Y-67800000D01*
X134470000Y-66800000D02*
X133470000Y-67800000D01*
%TO.N,VccDiv*%
X134140489Y-59309511D02*
X134650000Y-58800000D01*
X113909511Y-59309511D02*
X134140489Y-59309511D01*
X113900000Y-59300000D02*
X113909511Y-59309511D01*
%TO.N,CHIP_PU*%
X141400000Y-66700000D02*
X137500000Y-62800000D01*
X163440000Y-77100000D02*
X163440000Y-68640000D01*
X137500000Y-62800000D02*
X137500000Y-60800000D01*
X163440000Y-68640000D02*
X161500000Y-66700000D01*
X161500000Y-66700000D02*
X141400000Y-66700000D01*
%TO.N,GPIO9*%
X153700000Y-64800000D02*
X163200000Y-64800000D01*
X163200000Y-64800000D02*
X165990000Y-67590000D01*
X165990000Y-67590000D02*
X165980000Y-67600000D01*
X165980000Y-67600000D02*
X165980000Y-77100000D01*
%TO.N,UPSW*%
X149700000Y-80950000D02*
X149700000Y-76450000D01*
%TO.N,DNSW*%
X142900000Y-80950000D02*
X142900000Y-76450000D01*
%TO.N,Gate*%
X136000000Y-69000000D02*
X136200000Y-68800000D01*
X136200000Y-68800000D02*
X137600000Y-68800000D01*
X136000000Y-78090000D02*
X136000000Y-69000000D01*
X133280000Y-80810000D02*
X136000000Y-78090000D01*
%TD*%
%TA.AperFunction,Conductor*%
%TO.N,GND*%
G36*
X173970057Y-55509500D02*
G01*
X173984858Y-55511805D01*
X173984861Y-55511805D01*
X173993730Y-55513186D01*
X174013054Y-55510659D01*
X174035570Y-55509747D01*
X174336100Y-55524512D01*
X174348394Y-55525722D01*
X174675139Y-55574191D01*
X174687249Y-55576599D01*
X175007674Y-55656861D01*
X175019507Y-55660451D01*
X175330494Y-55771725D01*
X175341918Y-55776456D01*
X175640523Y-55917685D01*
X175651428Y-55923514D01*
X175934745Y-56093328D01*
X175945026Y-56100198D01*
X176210329Y-56296960D01*
X176219887Y-56304804D01*
X176464630Y-56526626D01*
X176473374Y-56535370D01*
X176695196Y-56780113D01*
X176703040Y-56789671D01*
X176899802Y-57054974D01*
X176906672Y-57065255D01*
X177076486Y-57348572D01*
X177082315Y-57359477D01*
X177223544Y-57658082D01*
X177228275Y-57669506D01*
X177339549Y-57980493D01*
X177343138Y-57992324D01*
X177409724Y-58258148D01*
X177423399Y-58312743D01*
X177425809Y-58324861D01*
X177470486Y-58626045D01*
X177474277Y-58651601D01*
X177475489Y-58663907D01*
X177489890Y-58957062D01*
X177488543Y-58982624D01*
X177488195Y-58984857D01*
X177488195Y-58984861D01*
X177486814Y-58993730D01*
X177487978Y-59002632D01*
X177487978Y-59002635D01*
X177490936Y-59025251D01*
X177492000Y-59041589D01*
X177492000Y-83726995D01*
X177471998Y-83795116D01*
X177418342Y-83841609D01*
X177366000Y-83852995D01*
X171750142Y-83852995D01*
X171694414Y-83840001D01*
X171571399Y-83779337D01*
X171508428Y-83748283D01*
X171445716Y-83726995D01*
X171250668Y-83660785D01*
X171250665Y-83660784D01*
X171246761Y-83659459D01*
X171242722Y-83658656D01*
X171242716Y-83658654D01*
X170979783Y-83606354D01*
X170979780Y-83606354D01*
X170975740Y-83605550D01*
X170971629Y-83605281D01*
X170971625Y-83605280D01*
X170882723Y-83599453D01*
X170732239Y-83589590D01*
X170719597Y-83588116D01*
X170712539Y-83586929D01*
X170706184Y-83586851D01*
X170704859Y-83586835D01*
X170704855Y-83586835D01*
X170700000Y-83586776D01*
X170675715Y-83590254D01*
X170672412Y-83590727D01*
X170654549Y-83592000D01*
X122253207Y-83592000D01*
X122232303Y-83590254D01*
X122221199Y-83588386D01*
X122212539Y-83586929D01*
X122206483Y-83586855D01*
X122204870Y-83586835D01*
X122204865Y-83586835D01*
X122200000Y-83586776D01*
X122195183Y-83587466D01*
X122194585Y-83587505D01*
X122186136Y-83588386D01*
X121928375Y-83605280D01*
X121928371Y-83605281D01*
X121924260Y-83605550D01*
X121920220Y-83606354D01*
X121920217Y-83606354D01*
X121657284Y-83658654D01*
X121657278Y-83658656D01*
X121653239Y-83659459D01*
X121649335Y-83660784D01*
X121649332Y-83660785D01*
X121454284Y-83726995D01*
X121391572Y-83748283D01*
X121387876Y-83750106D01*
X121387868Y-83750109D01*
X121205587Y-83840001D01*
X121149858Y-83852995D01*
X111650142Y-83852995D01*
X111594414Y-83840001D01*
X111471399Y-83779337D01*
X111408428Y-83748283D01*
X111345716Y-83726995D01*
X111150668Y-83660785D01*
X111150665Y-83660784D01*
X111146761Y-83659459D01*
X111142722Y-83658656D01*
X111142716Y-83658654D01*
X110879783Y-83606354D01*
X110879780Y-83606354D01*
X110875740Y-83605550D01*
X110871629Y-83605281D01*
X110871625Y-83605280D01*
X110782723Y-83599453D01*
X110632239Y-83589590D01*
X110619597Y-83588116D01*
X110612539Y-83586929D01*
X110606184Y-83586851D01*
X110604859Y-83586835D01*
X110604855Y-83586835D01*
X110600000Y-83586776D01*
X110575715Y-83590254D01*
X110572412Y-83590727D01*
X110554549Y-83592000D01*
X95653207Y-83592000D01*
X95632303Y-83590254D01*
X95621199Y-83588386D01*
X95612539Y-83586929D01*
X95606483Y-83586855D01*
X95604870Y-83586835D01*
X95604865Y-83586835D01*
X95600000Y-83586776D01*
X95595183Y-83587466D01*
X95594585Y-83587505D01*
X95586136Y-83588386D01*
X95328375Y-83605280D01*
X95328371Y-83605281D01*
X95324260Y-83605550D01*
X95320220Y-83606354D01*
X95320217Y-83606354D01*
X95057284Y-83658654D01*
X95057278Y-83658656D01*
X95053239Y-83659459D01*
X95049335Y-83660784D01*
X95049332Y-83660785D01*
X94854284Y-83726995D01*
X94791572Y-83748283D01*
X94787876Y-83750106D01*
X94787868Y-83750109D01*
X94605587Y-83840001D01*
X94549858Y-83852995D01*
X90634000Y-83852995D01*
X90565879Y-83832993D01*
X90519386Y-83779337D01*
X90508000Y-83726995D01*
X90508000Y-78900000D01*
X107936496Y-78900000D01*
X107956458Y-79089928D01*
X108015473Y-79271556D01*
X108110960Y-79436944D01*
X108115378Y-79441851D01*
X108115379Y-79441852D01*
X108197452Y-79533003D01*
X108238747Y-79578866D01*
X108393248Y-79691118D01*
X108399276Y-79693802D01*
X108399278Y-79693803D01*
X108561681Y-79766109D01*
X108567712Y-79768794D01*
X108635120Y-79783122D01*
X108748056Y-79807128D01*
X108748061Y-79807128D01*
X108754513Y-79808500D01*
X108945487Y-79808500D01*
X108951939Y-79807128D01*
X108951944Y-79807128D01*
X109064880Y-79783122D01*
X109132288Y-79768794D01*
X109138319Y-79766109D01*
X109300722Y-79693803D01*
X109300724Y-79693802D01*
X109306752Y-79691118D01*
X109461253Y-79578866D01*
X109465668Y-79573963D01*
X109470580Y-79569540D01*
X109471705Y-79570789D01*
X109525014Y-79537949D01*
X109558200Y-79533500D01*
X129471233Y-79533500D01*
X129482416Y-79534027D01*
X129489909Y-79535702D01*
X129497835Y-79535453D01*
X129497836Y-79535453D01*
X129557986Y-79533562D01*
X129561945Y-79533500D01*
X129589856Y-79533500D01*
X129593791Y-79533003D01*
X129593856Y-79532995D01*
X129605693Y-79532062D01*
X129637951Y-79531048D01*
X129641970Y-79530922D01*
X129649889Y-79530673D01*
X129669343Y-79525021D01*
X129688700Y-79521013D01*
X129700930Y-79519468D01*
X129700931Y-79519468D01*
X129708797Y-79518474D01*
X129716168Y-79515555D01*
X129716170Y-79515555D01*
X129749912Y-79502196D01*
X129761142Y-79498351D01*
X129795983Y-79488229D01*
X129795984Y-79488229D01*
X129803593Y-79486018D01*
X129810412Y-79481985D01*
X129810417Y-79481983D01*
X129821028Y-79475707D01*
X129838776Y-79467012D01*
X129857617Y-79459552D01*
X129893387Y-79433564D01*
X129903307Y-79427048D01*
X129934535Y-79408580D01*
X129934538Y-79408578D01*
X129941362Y-79404542D01*
X129955683Y-79390221D01*
X129970717Y-79377380D01*
X129980694Y-79370131D01*
X129987107Y-79365472D01*
X130015298Y-79331395D01*
X130023288Y-79322616D01*
X132075499Y-77270405D01*
X132137811Y-77236379D01*
X132164594Y-77233500D01*
X133641800Y-77233500D01*
X133709921Y-77253502D01*
X133729147Y-77269843D01*
X133729420Y-77269540D01*
X133734332Y-77273963D01*
X133738747Y-77278866D01*
X133753781Y-77289789D01*
X133824881Y-77341446D01*
X133893248Y-77391118D01*
X133899276Y-77393802D01*
X133899278Y-77393803D01*
X134058155Y-77464539D01*
X134067712Y-77468794D01*
X134161112Y-77488647D01*
X134248056Y-77507128D01*
X134248061Y-77507128D01*
X134254513Y-77508500D01*
X134445487Y-77508500D01*
X134451939Y-77507128D01*
X134451944Y-77507128D01*
X134538888Y-77488647D01*
X134632288Y-77468794D01*
X134641845Y-77464539D01*
X134800722Y-77393803D01*
X134800724Y-77393802D01*
X134806752Y-77391118D01*
X134961253Y-77278866D01*
X134999509Y-77236379D01*
X135071864Y-77156020D01*
X135132310Y-77118780D01*
X135203294Y-77120132D01*
X135262278Y-77159645D01*
X135290536Y-77224776D01*
X135291500Y-77240330D01*
X135291500Y-77744340D01*
X135271498Y-77812461D01*
X135254595Y-77833435D01*
X133213467Y-79874563D01*
X133150569Y-79908715D01*
X132997712Y-79941206D01*
X132991682Y-79943891D01*
X132991681Y-79943891D01*
X132829278Y-80016197D01*
X132829276Y-80016198D01*
X132823248Y-80018882D01*
X132817907Y-80022762D01*
X132817906Y-80022763D01*
X132788080Y-80044433D01*
X132668747Y-80131134D01*
X132540960Y-80273056D01*
X132445473Y-80438444D01*
X132386458Y-80620072D01*
X132366496Y-80810000D01*
X132386458Y-80999928D01*
X132445473Y-81181556D01*
X132540960Y-81346944D01*
X132668747Y-81488866D01*
X132823248Y-81601118D01*
X132829276Y-81603802D01*
X132829278Y-81603803D01*
X132991681Y-81676109D01*
X132997712Y-81678794D01*
X133091112Y-81698647D01*
X133178056Y-81717128D01*
X133178061Y-81717128D01*
X133184513Y-81718500D01*
X133375487Y-81718500D01*
X133381939Y-81717128D01*
X133381944Y-81717128D01*
X133468888Y-81698647D01*
X133562288Y-81678794D01*
X133568319Y-81676109D01*
X133730722Y-81603803D01*
X133730724Y-81603802D01*
X133736752Y-81601118D01*
X133891253Y-81488866D01*
X134019040Y-81346944D01*
X134114527Y-81181556D01*
X134173542Y-80999928D01*
X134178450Y-80953230D01*
X134179779Y-80950000D01*
X137586502Y-80950000D01*
X137606457Y-81178087D01*
X137607881Y-81183400D01*
X137607881Y-81183402D01*
X137653018Y-81351852D01*
X137665716Y-81399243D01*
X137668039Y-81404224D01*
X137668039Y-81404225D01*
X137760151Y-81601762D01*
X137760154Y-81601767D01*
X137762477Y-81606749D01*
X137893802Y-81794300D01*
X138055700Y-81956198D01*
X138060208Y-81959355D01*
X138060211Y-81959357D01*
X138138389Y-82014098D01*
X138243251Y-82087523D01*
X138248233Y-82089846D01*
X138248238Y-82089849D01*
X138445775Y-82181961D01*
X138450757Y-82184284D01*
X138456065Y-82185706D01*
X138456067Y-82185707D01*
X138666598Y-82242119D01*
X138666600Y-82242119D01*
X138671913Y-82243543D01*
X138900000Y-82263498D01*
X139128087Y-82243543D01*
X139133400Y-82242119D01*
X139133402Y-82242119D01*
X139343933Y-82185707D01*
X139343935Y-82185706D01*
X139349243Y-82184284D01*
X139354225Y-82181961D01*
X139551762Y-82089849D01*
X139551767Y-82089846D01*
X139556749Y-82087523D01*
X139661611Y-82014098D01*
X139739789Y-81959357D01*
X139739792Y-81959355D01*
X139744300Y-81956198D01*
X139810905Y-81889593D01*
X139873217Y-81855567D01*
X139944032Y-81860632D01*
X139989095Y-81889593D01*
X140055700Y-81956198D01*
X140060208Y-81959355D01*
X140060211Y-81959357D01*
X140138389Y-82014098D01*
X140243251Y-82087523D01*
X140248233Y-82089846D01*
X140248238Y-82089849D01*
X140445775Y-82181961D01*
X140450757Y-82184284D01*
X140456065Y-82185706D01*
X140456067Y-82185707D01*
X140666598Y-82242119D01*
X140666600Y-82242119D01*
X140671913Y-82243543D01*
X140900000Y-82263498D01*
X141128087Y-82243543D01*
X141133400Y-82242119D01*
X141133402Y-82242119D01*
X141343933Y-82185707D01*
X141343935Y-82185706D01*
X141349243Y-82184284D01*
X141354225Y-82181961D01*
X141551762Y-82089849D01*
X141551767Y-82089846D01*
X141556749Y-82087523D01*
X141661611Y-82014098D01*
X141739789Y-81959357D01*
X141739792Y-81959355D01*
X141744300Y-81956198D01*
X141810905Y-81889593D01*
X141873217Y-81855567D01*
X141944032Y-81860632D01*
X141989095Y-81889593D01*
X142055700Y-81956198D01*
X142060208Y-81959355D01*
X142060211Y-81959357D01*
X142138389Y-82014098D01*
X142243251Y-82087523D01*
X142248233Y-82089846D01*
X142248238Y-82089849D01*
X142445775Y-82181961D01*
X142450757Y-82184284D01*
X142456065Y-82185706D01*
X142456067Y-82185707D01*
X142666598Y-82242119D01*
X142666600Y-82242119D01*
X142671913Y-82243543D01*
X142900000Y-82263498D01*
X143128087Y-82243543D01*
X143133400Y-82242119D01*
X143133402Y-82242119D01*
X143343933Y-82185707D01*
X143343935Y-82185706D01*
X143349243Y-82184284D01*
X143354225Y-82181961D01*
X143551762Y-82089849D01*
X143551767Y-82089846D01*
X143556749Y-82087523D01*
X143661611Y-82014098D01*
X143739789Y-81959357D01*
X143739792Y-81959355D01*
X143744300Y-81956198D01*
X143906198Y-81794300D01*
X144037523Y-81606749D01*
X144039846Y-81601767D01*
X144039849Y-81601762D01*
X144131961Y-81404225D01*
X144131961Y-81404224D01*
X144134284Y-81399243D01*
X144146983Y-81351852D01*
X144178293Y-81235000D01*
X144215245Y-81174377D01*
X144279106Y-81143356D01*
X144349600Y-81151784D01*
X144404347Y-81196987D01*
X144421707Y-81235000D01*
X144453018Y-81351852D01*
X144465716Y-81399243D01*
X144468039Y-81404224D01*
X144468039Y-81404225D01*
X144560151Y-81601762D01*
X144560154Y-81601767D01*
X144562477Y-81606749D01*
X144693802Y-81794300D01*
X144855700Y-81956198D01*
X144860208Y-81959355D01*
X144860211Y-81959357D01*
X144938389Y-82014098D01*
X145043251Y-82087523D01*
X145048233Y-82089846D01*
X145048238Y-82089849D01*
X145245775Y-82181961D01*
X145250757Y-82184284D01*
X145256065Y-82185706D01*
X145256067Y-82185707D01*
X145466598Y-82242119D01*
X145466600Y-82242119D01*
X145471913Y-82243543D01*
X145700000Y-82263498D01*
X145928087Y-82243543D01*
X145933400Y-82242119D01*
X145933402Y-82242119D01*
X146143933Y-82185707D01*
X146143935Y-82185706D01*
X146149243Y-82184284D01*
X146154225Y-82181961D01*
X146351762Y-82089849D01*
X146351767Y-82089846D01*
X146356749Y-82087523D01*
X146461611Y-82014098D01*
X146539789Y-81959357D01*
X146539792Y-81959355D01*
X146544300Y-81956198D01*
X146610905Y-81889593D01*
X146673217Y-81855567D01*
X146744032Y-81860632D01*
X146789095Y-81889593D01*
X146855700Y-81956198D01*
X146860208Y-81959355D01*
X146860211Y-81959357D01*
X146938389Y-82014098D01*
X147043251Y-82087523D01*
X147048233Y-82089846D01*
X147048238Y-82089849D01*
X147245775Y-82181961D01*
X147250757Y-82184284D01*
X147256065Y-82185706D01*
X147256067Y-82185707D01*
X147466598Y-82242119D01*
X147466600Y-82242119D01*
X147471913Y-82243543D01*
X147700000Y-82263498D01*
X147928087Y-82243543D01*
X147933400Y-82242119D01*
X147933402Y-82242119D01*
X148143933Y-82185707D01*
X148143935Y-82185706D01*
X148149243Y-82184284D01*
X148154225Y-82181961D01*
X148351762Y-82089849D01*
X148351767Y-82089846D01*
X148356749Y-82087523D01*
X148461611Y-82014098D01*
X148539789Y-81959357D01*
X148539792Y-81959355D01*
X148544300Y-81956198D01*
X148610905Y-81889593D01*
X148673217Y-81855567D01*
X148744032Y-81860632D01*
X148789095Y-81889593D01*
X148855700Y-81956198D01*
X148860208Y-81959355D01*
X148860211Y-81959357D01*
X148938389Y-82014098D01*
X149043251Y-82087523D01*
X149048233Y-82089846D01*
X149048238Y-82089849D01*
X149245775Y-82181961D01*
X149250757Y-82184284D01*
X149256065Y-82185706D01*
X149256067Y-82185707D01*
X149466598Y-82242119D01*
X149466600Y-82242119D01*
X149471913Y-82243543D01*
X149700000Y-82263498D01*
X149928087Y-82243543D01*
X149933400Y-82242119D01*
X149933402Y-82242119D01*
X150143933Y-82185707D01*
X150143935Y-82185706D01*
X150149243Y-82184284D01*
X150154225Y-82181961D01*
X150351762Y-82089849D01*
X150351767Y-82089846D01*
X150356749Y-82087523D01*
X150461611Y-82014098D01*
X150539789Y-81959357D01*
X150539792Y-81959355D01*
X150544300Y-81956198D01*
X150706198Y-81794300D01*
X150837523Y-81606749D01*
X150839846Y-81601767D01*
X150839849Y-81601762D01*
X150931961Y-81404225D01*
X150931961Y-81404224D01*
X150934284Y-81399243D01*
X150946983Y-81351852D01*
X150992119Y-81183402D01*
X150992119Y-81183400D01*
X150993543Y-81178087D01*
X151013498Y-80950000D01*
X150993543Y-80721913D01*
X150966255Y-80620072D01*
X150935707Y-80506067D01*
X150935706Y-80506065D01*
X150934284Y-80500757D01*
X150902559Y-80432721D01*
X150839849Y-80298238D01*
X150839846Y-80298233D01*
X150837523Y-80293251D01*
X150706198Y-80105700D01*
X150544300Y-79943802D01*
X150539792Y-79940645D01*
X150539789Y-79940643D01*
X150462229Y-79886335D01*
X150417901Y-79830878D01*
X150408500Y-79783122D01*
X150408500Y-77616878D01*
X150428502Y-77548757D01*
X150462229Y-77513665D01*
X150539789Y-77459357D01*
X150539792Y-77459355D01*
X150544300Y-77456198D01*
X150706198Y-77294300D01*
X150837523Y-77106749D01*
X150839846Y-77101767D01*
X150839849Y-77101762D01*
X150931961Y-76904225D01*
X150931961Y-76904224D01*
X150934284Y-76899243D01*
X150950771Y-76837715D01*
X150992119Y-76683402D01*
X150992119Y-76683400D01*
X150993543Y-76678087D01*
X151013498Y-76450000D01*
X150993543Y-76221913D01*
X150991637Y-76214798D01*
X150935707Y-76006067D01*
X150935706Y-76006065D01*
X150934284Y-76000757D01*
X150926677Y-75984444D01*
X150839849Y-75798238D01*
X150839846Y-75798233D01*
X150837523Y-75793251D01*
X150744037Y-75659740D01*
X150709357Y-75610211D01*
X150709355Y-75610208D01*
X150706198Y-75605700D01*
X150544300Y-75443802D01*
X150539792Y-75440645D01*
X150539789Y-75440643D01*
X150461611Y-75385902D01*
X150356749Y-75312477D01*
X150351767Y-75310154D01*
X150351762Y-75310151D01*
X150154225Y-75218039D01*
X150154224Y-75218039D01*
X150149243Y-75215716D01*
X150143935Y-75214294D01*
X150143933Y-75214293D01*
X149933402Y-75157881D01*
X149933400Y-75157881D01*
X149928087Y-75156457D01*
X149700000Y-75136502D01*
X149471913Y-75156457D01*
X149466600Y-75157881D01*
X149466598Y-75157881D01*
X149256067Y-75214293D01*
X149256065Y-75214294D01*
X149250757Y-75215716D01*
X149245776Y-75218039D01*
X149245775Y-75218039D01*
X149048238Y-75310151D01*
X149048233Y-75310154D01*
X149043251Y-75312477D01*
X148938389Y-75385902D01*
X148860211Y-75440643D01*
X148860208Y-75440645D01*
X148855700Y-75443802D01*
X148789095Y-75510407D01*
X148726783Y-75544433D01*
X148655968Y-75539368D01*
X148610905Y-75510407D01*
X148544300Y-75443802D01*
X148539792Y-75440645D01*
X148539789Y-75440643D01*
X148461611Y-75385902D01*
X148356749Y-75312477D01*
X148351767Y-75310154D01*
X148351762Y-75310151D01*
X148154225Y-75218039D01*
X148154224Y-75218039D01*
X148149243Y-75215716D01*
X148143935Y-75214294D01*
X148143933Y-75214293D01*
X147933402Y-75157881D01*
X147933400Y-75157881D01*
X147928087Y-75156457D01*
X147700000Y-75136502D01*
X147471913Y-75156457D01*
X147466600Y-75157881D01*
X147466598Y-75157881D01*
X147256067Y-75214293D01*
X147256065Y-75214294D01*
X147250757Y-75215716D01*
X147245776Y-75218039D01*
X147245775Y-75218039D01*
X147048238Y-75310151D01*
X147048233Y-75310154D01*
X147043251Y-75312477D01*
X146938389Y-75385902D01*
X146860211Y-75440643D01*
X146860208Y-75440645D01*
X146855700Y-75443802D01*
X146789095Y-75510407D01*
X146726783Y-75544433D01*
X146655968Y-75539368D01*
X146610905Y-75510407D01*
X146544300Y-75443802D01*
X146539792Y-75440645D01*
X146539789Y-75440643D01*
X146461611Y-75385902D01*
X146356749Y-75312477D01*
X146351767Y-75310154D01*
X146351762Y-75310151D01*
X146154225Y-75218039D01*
X146154224Y-75218039D01*
X146149243Y-75215716D01*
X146143935Y-75214294D01*
X146143933Y-75214293D01*
X145933402Y-75157881D01*
X145933400Y-75157881D01*
X145928087Y-75156457D01*
X145700000Y-75136502D01*
X145471913Y-75156457D01*
X145466600Y-75157881D01*
X145466598Y-75157881D01*
X145256067Y-75214293D01*
X145256065Y-75214294D01*
X145250757Y-75215716D01*
X145245776Y-75218039D01*
X145245775Y-75218039D01*
X145048238Y-75310151D01*
X145048233Y-75310154D01*
X145043251Y-75312477D01*
X144938389Y-75385902D01*
X144860211Y-75440643D01*
X144860208Y-75440645D01*
X144855700Y-75443802D01*
X144693802Y-75605700D01*
X144690645Y-75610208D01*
X144690643Y-75610211D01*
X144655963Y-75659740D01*
X144562477Y-75793251D01*
X144560154Y-75798233D01*
X144560151Y-75798238D01*
X144473323Y-75984444D01*
X144465716Y-76000757D01*
X144464294Y-76006065D01*
X144464293Y-76006067D01*
X144421707Y-76165000D01*
X144384755Y-76225623D01*
X144320894Y-76256644D01*
X144250400Y-76248216D01*
X144195653Y-76203013D01*
X144178293Y-76165000D01*
X144135707Y-76006067D01*
X144135706Y-76006065D01*
X144134284Y-76000757D01*
X144126677Y-75984444D01*
X144039849Y-75798238D01*
X144039846Y-75798233D01*
X144037523Y-75793251D01*
X143944037Y-75659740D01*
X143909357Y-75610211D01*
X143909355Y-75610208D01*
X143906198Y-75605700D01*
X143744300Y-75443802D01*
X143739792Y-75440645D01*
X143739789Y-75440643D01*
X143661611Y-75385902D01*
X143556749Y-75312477D01*
X143551767Y-75310154D01*
X143551762Y-75310151D01*
X143354225Y-75218039D01*
X143354224Y-75218039D01*
X143349243Y-75215716D01*
X143343935Y-75214294D01*
X143343933Y-75214293D01*
X143133402Y-75157881D01*
X143133400Y-75157881D01*
X143128087Y-75156457D01*
X142900000Y-75136502D01*
X142671913Y-75156457D01*
X142666600Y-75157881D01*
X142666598Y-75157881D01*
X142456067Y-75214293D01*
X142456065Y-75214294D01*
X142450757Y-75215716D01*
X142445776Y-75218039D01*
X142445775Y-75218039D01*
X142248238Y-75310151D01*
X142248233Y-75310154D01*
X142243251Y-75312477D01*
X142138389Y-75385902D01*
X142060211Y-75440643D01*
X142060208Y-75440645D01*
X142055700Y-75443802D01*
X141989095Y-75510407D01*
X141926783Y-75544433D01*
X141855968Y-75539368D01*
X141810905Y-75510407D01*
X141744300Y-75443802D01*
X141739792Y-75440645D01*
X141739789Y-75440643D01*
X141661611Y-75385902D01*
X141556749Y-75312477D01*
X141551767Y-75310154D01*
X141551762Y-75310151D01*
X141354225Y-75218039D01*
X141354224Y-75218039D01*
X141349243Y-75215716D01*
X141343935Y-75214294D01*
X141343933Y-75214293D01*
X141133402Y-75157881D01*
X141133400Y-75157881D01*
X141128087Y-75156457D01*
X140900000Y-75136502D01*
X140671913Y-75156457D01*
X140666600Y-75157881D01*
X140666598Y-75157881D01*
X140456067Y-75214293D01*
X140456065Y-75214294D01*
X140450757Y-75215716D01*
X140445776Y-75218039D01*
X140445775Y-75218039D01*
X140248238Y-75310151D01*
X140248233Y-75310154D01*
X140243251Y-75312477D01*
X140138389Y-75385902D01*
X140060211Y-75440643D01*
X140060208Y-75440645D01*
X140055700Y-75443802D01*
X139989095Y-75510407D01*
X139926783Y-75544433D01*
X139855968Y-75539368D01*
X139810905Y-75510407D01*
X139744300Y-75443802D01*
X139739792Y-75440645D01*
X139739789Y-75440643D01*
X139661611Y-75385902D01*
X139556749Y-75312477D01*
X139551767Y-75310154D01*
X139551762Y-75310151D01*
X139354225Y-75218039D01*
X139354224Y-75218039D01*
X139349243Y-75215716D01*
X139343935Y-75214294D01*
X139343933Y-75214293D01*
X139133402Y-75157881D01*
X139133400Y-75157881D01*
X139128087Y-75156457D01*
X138900000Y-75136502D01*
X138671913Y-75156457D01*
X138666600Y-75157881D01*
X138666598Y-75157881D01*
X138456067Y-75214293D01*
X138456065Y-75214294D01*
X138450757Y-75215716D01*
X138445776Y-75218039D01*
X138445775Y-75218039D01*
X138248238Y-75310151D01*
X138248233Y-75310154D01*
X138243251Y-75312477D01*
X138138389Y-75385902D01*
X138060211Y-75440643D01*
X138060208Y-75440645D01*
X138055700Y-75443802D01*
X137893802Y-75605700D01*
X137890645Y-75610208D01*
X137890643Y-75610211D01*
X137855963Y-75659740D01*
X137762477Y-75793251D01*
X137760154Y-75798233D01*
X137760151Y-75798238D01*
X137673323Y-75984444D01*
X137665716Y-76000757D01*
X137664294Y-76006065D01*
X137664293Y-76006067D01*
X137608363Y-76214798D01*
X137606457Y-76221913D01*
X137586502Y-76450000D01*
X137606457Y-76678087D01*
X137607881Y-76683400D01*
X137607881Y-76683402D01*
X137649230Y-76837715D01*
X137665716Y-76899243D01*
X137668039Y-76904224D01*
X137668039Y-76904225D01*
X137760151Y-77101762D01*
X137760154Y-77101767D01*
X137762477Y-77106749D01*
X137893802Y-77294300D01*
X138055700Y-77456198D01*
X138060208Y-77459355D01*
X138060211Y-77459357D01*
X138075648Y-77470166D01*
X138243251Y-77587523D01*
X138248233Y-77589846D01*
X138248238Y-77589849D01*
X138306203Y-77616878D01*
X138450757Y-77684284D01*
X138456065Y-77685706D01*
X138456067Y-77685707D01*
X138666598Y-77742119D01*
X138666600Y-77742119D01*
X138671913Y-77743543D01*
X138900000Y-77763498D01*
X139128087Y-77743543D01*
X139133400Y-77742119D01*
X139133402Y-77742119D01*
X139343933Y-77685707D01*
X139343935Y-77685706D01*
X139349243Y-77684284D01*
X139493797Y-77616878D01*
X139551762Y-77589849D01*
X139551767Y-77589846D01*
X139556749Y-77587523D01*
X139724352Y-77470166D01*
X139739789Y-77459357D01*
X139739792Y-77459355D01*
X139744300Y-77456198D01*
X139810905Y-77389593D01*
X139873217Y-77355567D01*
X139944032Y-77360632D01*
X139989095Y-77389593D01*
X140055700Y-77456198D01*
X140060208Y-77459355D01*
X140060211Y-77459357D01*
X140075648Y-77470166D01*
X140243251Y-77587523D01*
X140248233Y-77589846D01*
X140248238Y-77589849D01*
X140306203Y-77616878D01*
X140450757Y-77684284D01*
X140456065Y-77685706D01*
X140456067Y-77685707D01*
X140666598Y-77742119D01*
X140666600Y-77742119D01*
X140671913Y-77743543D01*
X140900000Y-77763498D01*
X141128087Y-77743543D01*
X141133400Y-77742119D01*
X141133402Y-77742119D01*
X141343933Y-77685707D01*
X141343935Y-77685706D01*
X141349243Y-77684284D01*
X141493797Y-77616878D01*
X141551762Y-77589849D01*
X141551767Y-77589846D01*
X141556749Y-77587523D01*
X141724352Y-77470166D01*
X141739789Y-77459357D01*
X141739792Y-77459355D01*
X141744300Y-77456198D01*
X141810905Y-77389593D01*
X141873217Y-77355567D01*
X141944032Y-77360632D01*
X141989095Y-77389593D01*
X142055700Y-77456198D01*
X142060208Y-77459355D01*
X142060211Y-77459357D01*
X142137771Y-77513665D01*
X142182099Y-77569122D01*
X142191500Y-77616878D01*
X142191500Y-79783122D01*
X142171498Y-79851243D01*
X142137771Y-79886335D01*
X142060211Y-79940643D01*
X142060208Y-79940645D01*
X142055700Y-79943802D01*
X141989095Y-80010407D01*
X141926783Y-80044433D01*
X141855968Y-80039368D01*
X141810905Y-80010407D01*
X141744300Y-79943802D01*
X141739792Y-79940645D01*
X141739789Y-79940643D01*
X141612112Y-79851243D01*
X141556749Y-79812477D01*
X141551767Y-79810154D01*
X141551762Y-79810151D01*
X141354225Y-79718039D01*
X141354224Y-79718039D01*
X141349243Y-79715716D01*
X141343935Y-79714294D01*
X141343933Y-79714293D01*
X141133402Y-79657881D01*
X141133400Y-79657881D01*
X141128087Y-79656457D01*
X140900000Y-79636502D01*
X140671913Y-79656457D01*
X140666600Y-79657881D01*
X140666598Y-79657881D01*
X140456067Y-79714293D01*
X140456065Y-79714294D01*
X140450757Y-79715716D01*
X140445776Y-79718039D01*
X140445775Y-79718039D01*
X140248238Y-79810151D01*
X140248233Y-79810154D01*
X140243251Y-79812477D01*
X140187888Y-79851243D01*
X140060211Y-79940643D01*
X140060208Y-79940645D01*
X140055700Y-79943802D01*
X139989095Y-80010407D01*
X139926783Y-80044433D01*
X139855968Y-80039368D01*
X139810905Y-80010407D01*
X139744300Y-79943802D01*
X139739792Y-79940645D01*
X139739789Y-79940643D01*
X139612112Y-79851243D01*
X139556749Y-79812477D01*
X139551767Y-79810154D01*
X139551762Y-79810151D01*
X139354225Y-79718039D01*
X139354224Y-79718039D01*
X139349243Y-79715716D01*
X139343935Y-79714294D01*
X139343933Y-79714293D01*
X139133402Y-79657881D01*
X139133400Y-79657881D01*
X139128087Y-79656457D01*
X138900000Y-79636502D01*
X138671913Y-79656457D01*
X138666600Y-79657881D01*
X138666598Y-79657881D01*
X138456067Y-79714293D01*
X138456065Y-79714294D01*
X138450757Y-79715716D01*
X138445776Y-79718039D01*
X138445775Y-79718039D01*
X138248238Y-79810151D01*
X138248233Y-79810154D01*
X138243251Y-79812477D01*
X138187888Y-79851243D01*
X138060211Y-79940643D01*
X138060208Y-79940645D01*
X138055700Y-79943802D01*
X137893802Y-80105700D01*
X137762477Y-80293251D01*
X137760154Y-80298233D01*
X137760151Y-80298238D01*
X137697441Y-80432721D01*
X137665716Y-80500757D01*
X137664294Y-80506065D01*
X137664293Y-80506067D01*
X137633745Y-80620072D01*
X137606457Y-80721913D01*
X137586502Y-80950000D01*
X134179779Y-80950000D01*
X134205463Y-80887573D01*
X134214665Y-80877305D01*
X136480520Y-78611450D01*
X136486785Y-78605596D01*
X136487238Y-78605201D01*
X136530385Y-78567561D01*
X136567129Y-78515280D01*
X136571061Y-78509986D01*
X136605791Y-78465693D01*
X136610476Y-78459718D01*
X136613599Y-78452802D01*
X136614983Y-78450516D01*
X136623357Y-78435835D01*
X136624622Y-78433475D01*
X136628990Y-78427261D01*
X136652203Y-78367723D01*
X136654759Y-78361642D01*
X136663372Y-78342568D01*
X136681045Y-78303427D01*
X136682429Y-78295960D01*
X136683230Y-78293405D01*
X136687859Y-78277152D01*
X136688522Y-78274572D01*
X136691282Y-78267491D01*
X136699622Y-78204139D01*
X136700653Y-78197632D01*
X136710912Y-78142280D01*
X136712296Y-78134814D01*
X136711025Y-78112763D01*
X136708709Y-78072608D01*
X136708500Y-78065354D01*
X136708500Y-69634500D01*
X136728502Y-69566379D01*
X136782158Y-69519886D01*
X136834500Y-69508500D01*
X136988595Y-69508500D01*
X137056716Y-69528502D01*
X137062656Y-69532564D01*
X137143248Y-69591118D01*
X137149276Y-69593802D01*
X137149278Y-69593803D01*
X137311681Y-69666109D01*
X137317712Y-69668794D01*
X137378557Y-69681727D01*
X137498056Y-69707128D01*
X137498061Y-69707128D01*
X137504513Y-69708500D01*
X137695487Y-69708500D01*
X137701939Y-69707128D01*
X137701944Y-69707128D01*
X137821443Y-69681727D01*
X137882288Y-69668794D01*
X137888319Y-69666109D01*
X138050722Y-69593803D01*
X138050724Y-69593802D01*
X138056752Y-69591118D01*
X138211253Y-69478866D01*
X138249714Y-69436151D01*
X138334621Y-69341852D01*
X138334622Y-69341851D01*
X138339040Y-69336944D01*
X138406564Y-69219989D01*
X138431223Y-69177279D01*
X138431224Y-69177278D01*
X138434527Y-69171556D01*
X138493542Y-68989928D01*
X138496806Y-68958878D01*
X138512814Y-68806565D01*
X138513504Y-68800000D01*
X138499276Y-68664625D01*
X138494232Y-68616635D01*
X138494232Y-68616633D01*
X138493542Y-68610072D01*
X138434527Y-68428444D01*
X138339040Y-68263056D01*
X138273538Y-68190308D01*
X138215675Y-68126045D01*
X138215674Y-68126044D01*
X138211253Y-68121134D01*
X138085151Y-68029515D01*
X138062094Y-68012763D01*
X138062093Y-68012762D01*
X138056752Y-68008882D01*
X138050724Y-68006198D01*
X138050722Y-68006197D01*
X137888319Y-67933891D01*
X137888318Y-67933891D01*
X137882288Y-67931206D01*
X137781878Y-67909863D01*
X137701944Y-67892872D01*
X137701939Y-67892872D01*
X137695487Y-67891500D01*
X137504513Y-67891500D01*
X137498061Y-67892872D01*
X137498056Y-67892872D01*
X137418122Y-67909863D01*
X137317712Y-67931206D01*
X137311682Y-67933891D01*
X137311681Y-67933891D01*
X137149278Y-68006197D01*
X137149276Y-68006198D01*
X137143248Y-68008882D01*
X137137907Y-68012762D01*
X137137906Y-68012763D01*
X137062656Y-68067436D01*
X136995789Y-68091294D01*
X136988595Y-68091500D01*
X136228927Y-68091500D01*
X136220358Y-68091208D01*
X136170225Y-68087790D01*
X136170221Y-68087790D01*
X136162648Y-68087274D01*
X136099681Y-68098264D01*
X136093169Y-68099224D01*
X136029758Y-68106898D01*
X136022657Y-68109581D01*
X136020048Y-68110222D01*
X136003715Y-68114691D01*
X136001195Y-68115452D01*
X135993717Y-68116757D01*
X135986765Y-68119809D01*
X135986764Y-68119809D01*
X135935204Y-68142441D01*
X135929099Y-68144932D01*
X135876456Y-68164825D01*
X135876452Y-68164827D01*
X135869344Y-68167513D01*
X135863083Y-68171816D01*
X135860717Y-68173053D01*
X135845937Y-68181280D01*
X135843652Y-68182631D01*
X135836695Y-68185685D01*
X135830675Y-68190305D01*
X135830669Y-68190308D01*
X135806926Y-68208528D01*
X135785998Y-68224587D01*
X135780668Y-68228459D01*
X135734280Y-68260339D01*
X135734275Y-68260344D01*
X135728019Y-68264643D01*
X135722968Y-68270313D01*
X135722966Y-68270314D01*
X135686565Y-68311170D01*
X135681584Y-68316446D01*
X135519480Y-68478550D01*
X135513215Y-68484404D01*
X135469615Y-68522439D01*
X135465248Y-68528653D01*
X135432872Y-68574719D01*
X135428939Y-68580014D01*
X135389524Y-68630282D01*
X135386401Y-68637198D01*
X135385017Y-68639484D01*
X135376643Y-68654165D01*
X135375378Y-68656525D01*
X135371010Y-68662739D01*
X135368250Y-68669818D01*
X135368249Y-68669820D01*
X135347798Y-68722275D01*
X135345247Y-68728344D01*
X135318955Y-68786573D01*
X135317571Y-68794040D01*
X135316770Y-68796595D01*
X135312141Y-68812848D01*
X135311478Y-68815428D01*
X135308718Y-68822509D01*
X135307727Y-68830040D01*
X135307726Y-68830042D01*
X135300379Y-68885852D01*
X135299348Y-68892359D01*
X135287704Y-68955186D01*
X135288141Y-68962766D01*
X135288141Y-68962767D01*
X135291291Y-69017392D01*
X135291500Y-69024646D01*
X135291500Y-75959670D01*
X135271498Y-76027791D01*
X135217842Y-76074284D01*
X135147568Y-76084388D01*
X135082988Y-76054894D01*
X135071864Y-76043980D01*
X134965675Y-75926045D01*
X134965674Y-75926044D01*
X134961253Y-75921134D01*
X134806752Y-75808882D01*
X134800724Y-75806198D01*
X134800722Y-75806197D01*
X134638319Y-75733891D01*
X134638318Y-75733891D01*
X134632288Y-75731206D01*
X134526839Y-75708792D01*
X134451944Y-75692872D01*
X134451939Y-75692872D01*
X134445487Y-75691500D01*
X134254513Y-75691500D01*
X134248061Y-75692872D01*
X134248056Y-75692872D01*
X134173161Y-75708792D01*
X134067712Y-75731206D01*
X134061682Y-75733891D01*
X134061681Y-75733891D01*
X133899278Y-75806197D01*
X133899276Y-75806198D01*
X133893248Y-75808882D01*
X133887907Y-75812762D01*
X133887906Y-75812763D01*
X133812031Y-75867890D01*
X133738747Y-75921134D01*
X133734332Y-75926037D01*
X133729420Y-75930460D01*
X133728295Y-75929211D01*
X133674986Y-75962051D01*
X133641800Y-75966500D01*
X131928767Y-75966500D01*
X131917584Y-75965973D01*
X131910091Y-75964298D01*
X131902165Y-75964547D01*
X131902164Y-75964547D01*
X131842014Y-75966438D01*
X131838055Y-75966500D01*
X131810144Y-75966500D01*
X131806210Y-75966997D01*
X131806209Y-75966997D01*
X131806144Y-75967005D01*
X131794307Y-75967938D01*
X131762490Y-75968938D01*
X131758029Y-75969078D01*
X131750110Y-75969327D01*
X131732454Y-75974456D01*
X131730658Y-75974978D01*
X131711306Y-75978986D01*
X131704235Y-75979880D01*
X131691203Y-75981526D01*
X131683834Y-75984443D01*
X131683832Y-75984444D01*
X131650097Y-75997800D01*
X131638869Y-76001645D01*
X131596407Y-76013982D01*
X131589585Y-76018016D01*
X131589579Y-76018019D01*
X131578968Y-76024294D01*
X131561218Y-76032990D01*
X131549756Y-76037528D01*
X131549751Y-76037531D01*
X131542383Y-76040448D01*
X131535968Y-76045109D01*
X131506625Y-76066427D01*
X131496707Y-76072943D01*
X131494440Y-76074284D01*
X131458637Y-76095458D01*
X131444313Y-76109782D01*
X131429281Y-76122621D01*
X131412893Y-76134528D01*
X131398393Y-76152056D01*
X131384712Y-76168593D01*
X131376722Y-76177373D01*
X129324500Y-78229595D01*
X129262188Y-78263621D01*
X129235405Y-78266500D01*
X109558200Y-78266500D01*
X109490079Y-78246498D01*
X109470853Y-78230157D01*
X109470580Y-78230460D01*
X109465668Y-78226037D01*
X109461253Y-78221134D01*
X109306752Y-78108882D01*
X109300724Y-78106198D01*
X109300722Y-78106197D01*
X109138319Y-78033891D01*
X109138318Y-78033891D01*
X109132288Y-78031206D01*
X109028448Y-78009134D01*
X108951944Y-77992872D01*
X108951939Y-77992872D01*
X108945487Y-77991500D01*
X108754513Y-77991500D01*
X108748061Y-77992872D01*
X108748056Y-77992872D01*
X108671552Y-78009134D01*
X108567712Y-78031206D01*
X108561682Y-78033891D01*
X108561681Y-78033891D01*
X108399278Y-78106197D01*
X108399276Y-78106198D01*
X108393248Y-78108882D01*
X108238747Y-78221134D01*
X108234326Y-78226044D01*
X108234325Y-78226045D01*
X108131432Y-78340320D01*
X108110960Y-78363056D01*
X108015473Y-78528444D01*
X107956458Y-78710072D01*
X107936496Y-78900000D01*
X90508000Y-78900000D01*
X90508000Y-75047064D01*
X106337707Y-75047064D01*
X106366825Y-75239599D01*
X106369028Y-75245585D01*
X106369029Y-75245591D01*
X106434063Y-75422346D01*
X106432835Y-75422798D01*
X106443561Y-75485982D01*
X106419256Y-75546781D01*
X106399385Y-75573295D01*
X106348255Y-75709684D01*
X106341500Y-75771866D01*
X106341500Y-76768134D01*
X106348255Y-76830316D01*
X106399385Y-76966705D01*
X106486739Y-77083261D01*
X106603295Y-77170615D01*
X106739684Y-77221745D01*
X106801866Y-77228500D01*
X108498134Y-77228500D01*
X108560316Y-77221745D01*
X108696705Y-77170615D01*
X108813261Y-77083261D01*
X108900615Y-76966705D01*
X108951745Y-76830316D01*
X108958500Y-76768134D01*
X108958500Y-75834500D01*
X108978502Y-75766379D01*
X109032158Y-75719886D01*
X109084500Y-75708500D01*
X115321088Y-75708500D01*
X115329658Y-75708792D01*
X115379776Y-75712209D01*
X115379780Y-75712209D01*
X115387352Y-75712725D01*
X115394829Y-75711420D01*
X115394830Y-75711420D01*
X115447171Y-75702285D01*
X115450303Y-75701738D01*
X115456821Y-75700777D01*
X115520242Y-75693102D01*
X115527343Y-75690419D01*
X115529952Y-75689778D01*
X115546262Y-75685315D01*
X115548798Y-75684550D01*
X115556284Y-75683243D01*
X115614800Y-75657556D01*
X115620904Y-75655065D01*
X115673548Y-75635173D01*
X115673549Y-75635172D01*
X115680656Y-75632487D01*
X115686919Y-75628183D01*
X115689285Y-75626946D01*
X115704097Y-75618701D01*
X115706351Y-75617368D01*
X115713305Y-75614315D01*
X115764002Y-75575413D01*
X115769332Y-75571541D01*
X115815720Y-75539661D01*
X115815725Y-75539656D01*
X115821981Y-75535357D01*
X115863436Y-75488829D01*
X115868416Y-75483554D01*
X119180108Y-72171862D01*
X119242420Y-72137836D01*
X119313235Y-72142901D01*
X119370071Y-72185448D01*
X119394882Y-72251968D01*
X119394466Y-72274562D01*
X119391500Y-72301866D01*
X119391500Y-74098134D01*
X119398255Y-74160316D01*
X119449385Y-74296705D01*
X119536739Y-74413261D01*
X119653295Y-74500615D01*
X119789684Y-74551745D01*
X119851866Y-74558500D01*
X121648134Y-74558500D01*
X121710316Y-74551745D01*
X121846705Y-74500615D01*
X121963261Y-74413261D01*
X122050615Y-74296705D01*
X122060372Y-74270678D01*
X122094598Y-74179382D01*
X122137240Y-74122618D01*
X122203802Y-74097918D01*
X122273150Y-74113126D01*
X122307817Y-74141114D01*
X122336250Y-74173938D01*
X122508126Y-74316632D01*
X122701000Y-74429338D01*
X122705825Y-74431180D01*
X122705826Y-74431181D01*
X122738084Y-74443499D01*
X122909692Y-74509030D01*
X122914760Y-74510061D01*
X122914763Y-74510062D01*
X123022017Y-74531883D01*
X123128597Y-74553567D01*
X123133772Y-74553757D01*
X123133774Y-74553757D01*
X123346673Y-74561564D01*
X123346677Y-74561564D01*
X123351837Y-74561753D01*
X123356957Y-74561097D01*
X123356959Y-74561097D01*
X123568288Y-74534025D01*
X123568289Y-74534025D01*
X123573416Y-74533368D01*
X123578366Y-74531883D01*
X123782429Y-74470661D01*
X123782434Y-74470659D01*
X123787384Y-74469174D01*
X123987994Y-74370896D01*
X124169860Y-74241173D01*
X124212685Y-74198498D01*
X124288830Y-74122618D01*
X124328096Y-74083489D01*
X124345348Y-74059481D01*
X124458453Y-73902077D01*
X124459776Y-73903028D01*
X124506645Y-73859857D01*
X124576580Y-73847625D01*
X124642026Y-73875144D01*
X124669875Y-73906994D01*
X124729987Y-74005088D01*
X124876250Y-74173938D01*
X125048126Y-74316632D01*
X125241000Y-74429338D01*
X125245825Y-74431180D01*
X125245826Y-74431181D01*
X125278084Y-74443499D01*
X125449692Y-74509030D01*
X125454760Y-74510061D01*
X125454763Y-74510062D01*
X125562017Y-74531883D01*
X125668597Y-74553567D01*
X125673772Y-74553757D01*
X125673774Y-74553757D01*
X125886673Y-74561564D01*
X125886677Y-74561564D01*
X125891837Y-74561753D01*
X125896957Y-74561097D01*
X125896959Y-74561097D01*
X126108288Y-74534025D01*
X126108289Y-74534025D01*
X126113416Y-74533368D01*
X126118366Y-74531883D01*
X126322429Y-74470661D01*
X126322434Y-74470659D01*
X126327384Y-74469174D01*
X126527994Y-74370896D01*
X126709860Y-74241173D01*
X126752685Y-74198498D01*
X126828830Y-74122618D01*
X126868096Y-74083489D01*
X126885348Y-74059481D01*
X126995435Y-73906277D01*
X126998453Y-73902077D01*
X127019320Y-73859857D01*
X127095136Y-73706453D01*
X127095137Y-73706451D01*
X127097430Y-73701811D01*
X127162370Y-73488069D01*
X127191529Y-73266590D01*
X127191611Y-73263240D01*
X127193074Y-73203365D01*
X127193074Y-73203361D01*
X127193156Y-73200000D01*
X127174852Y-72977361D01*
X127120431Y-72760702D01*
X127031354Y-72555840D01*
X126910014Y-72368277D01*
X126759670Y-72203051D01*
X126755619Y-72199852D01*
X126755615Y-72199848D01*
X126588414Y-72067800D01*
X126588410Y-72067798D01*
X126584359Y-72064598D01*
X126388789Y-71956638D01*
X126383920Y-71954914D01*
X126383916Y-71954912D01*
X126183087Y-71883795D01*
X126183083Y-71883794D01*
X126178212Y-71882069D01*
X126173119Y-71881162D01*
X126173116Y-71881161D01*
X125963373Y-71843800D01*
X125963367Y-71843799D01*
X125958284Y-71842894D01*
X125884452Y-71841992D01*
X125740081Y-71840228D01*
X125740079Y-71840228D01*
X125734911Y-71840165D01*
X125514091Y-71873955D01*
X125301756Y-71943357D01*
X125103607Y-72046507D01*
X125099474Y-72049610D01*
X125099471Y-72049612D01*
X124929100Y-72177530D01*
X124924965Y-72180635D01*
X124921393Y-72184373D01*
X124779273Y-72333093D01*
X124770629Y-72342138D01*
X124663201Y-72499621D01*
X124608293Y-72544621D01*
X124537768Y-72552792D01*
X124474021Y-72521538D01*
X124453324Y-72497054D01*
X124372822Y-72372617D01*
X124372820Y-72372614D01*
X124370014Y-72368277D01*
X124219670Y-72203051D01*
X124215619Y-72199852D01*
X124215615Y-72199848D01*
X124048414Y-72067800D01*
X124048410Y-72067798D01*
X124044359Y-72064598D01*
X123848789Y-71956638D01*
X123843920Y-71954914D01*
X123843916Y-71954912D01*
X123643087Y-71883795D01*
X123643083Y-71883794D01*
X123638212Y-71882069D01*
X123633119Y-71881162D01*
X123633116Y-71881161D01*
X123423373Y-71843800D01*
X123423367Y-71843799D01*
X123418284Y-71842894D01*
X123344452Y-71841992D01*
X123200081Y-71840228D01*
X123200079Y-71840228D01*
X123194911Y-71840165D01*
X122974091Y-71873955D01*
X122761756Y-71943357D01*
X122563607Y-72046507D01*
X122559474Y-72049610D01*
X122559471Y-72049612D01*
X122389100Y-72177530D01*
X122384965Y-72180635D01*
X122328537Y-72239684D01*
X122304283Y-72265064D01*
X122242759Y-72300494D01*
X122171846Y-72297037D01*
X122114060Y-72255791D01*
X122095207Y-72222243D01*
X122053767Y-72111703D01*
X122050615Y-72103295D01*
X121963261Y-71986739D01*
X121846705Y-71899385D01*
X121710316Y-71848255D01*
X121648134Y-71841500D01*
X119851866Y-71841500D01*
X119824565Y-71844466D01*
X119754683Y-71831938D01*
X119702667Y-71783618D01*
X119685032Y-71714846D01*
X119707378Y-71647458D01*
X119721862Y-71630108D01*
X122806565Y-68545405D01*
X122868877Y-68511379D01*
X122895660Y-68508500D01*
X133441088Y-68508500D01*
X133449658Y-68508792D01*
X133499776Y-68512209D01*
X133499780Y-68512209D01*
X133507352Y-68512725D01*
X133514829Y-68511420D01*
X133514830Y-68511420D01*
X133557711Y-68503936D01*
X133570303Y-68501738D01*
X133576821Y-68500777D01*
X133640242Y-68493102D01*
X133647343Y-68490419D01*
X133649952Y-68489778D01*
X133666262Y-68485315D01*
X133668798Y-68484550D01*
X133676284Y-68483243D01*
X133734800Y-68457556D01*
X133740904Y-68455065D01*
X133793548Y-68435173D01*
X133793549Y-68435172D01*
X133800656Y-68432487D01*
X133806919Y-68428183D01*
X133809285Y-68426946D01*
X133824097Y-68418701D01*
X133826351Y-68417368D01*
X133833305Y-68414315D01*
X133884002Y-68375413D01*
X133889332Y-68371541D01*
X133935720Y-68339661D01*
X133935725Y-68339656D01*
X133941981Y-68335357D01*
X133983436Y-68288829D01*
X133988416Y-68283554D01*
X134536533Y-67735437D01*
X134599431Y-67701285D01*
X134632551Y-67694245D01*
X134752288Y-67668794D01*
X134802885Y-67646267D01*
X134920722Y-67593803D01*
X134920724Y-67593802D01*
X134926752Y-67591118D01*
X134934053Y-67585814D01*
X135040571Y-67508423D01*
X135081253Y-67478866D01*
X135110494Y-67446391D01*
X135204621Y-67341852D01*
X135204622Y-67341851D01*
X135209040Y-67336944D01*
X135304527Y-67171556D01*
X135363542Y-66989928D01*
X135383504Y-66800000D01*
X135363542Y-66610072D01*
X135304527Y-66428444D01*
X135280034Y-66386020D01*
X135212341Y-66268774D01*
X135209040Y-66263056D01*
X135130059Y-66175338D01*
X135085675Y-66126045D01*
X135085674Y-66126044D01*
X135081253Y-66121134D01*
X134926752Y-66008882D01*
X134920724Y-66006198D01*
X134920722Y-66006197D01*
X134758319Y-65933891D01*
X134758318Y-65933891D01*
X134752288Y-65931206D01*
X134658888Y-65911353D01*
X134571944Y-65892872D01*
X134571939Y-65892872D01*
X134565487Y-65891500D01*
X134374513Y-65891500D01*
X134368061Y-65892872D01*
X134368056Y-65892872D01*
X134281112Y-65911353D01*
X134187712Y-65931206D01*
X134181682Y-65933891D01*
X134181681Y-65933891D01*
X134019278Y-66006197D01*
X134019276Y-66006198D01*
X134013248Y-66008882D01*
X133858747Y-66121134D01*
X133854326Y-66126044D01*
X133854325Y-66126045D01*
X133809942Y-66175338D01*
X133730960Y-66263056D01*
X133727659Y-66268774D01*
X133659967Y-66386020D01*
X133635473Y-66428444D01*
X133576458Y-66610072D01*
X133575768Y-66616635D01*
X133575768Y-66616637D01*
X133571550Y-66656768D01*
X133544537Y-66722425D01*
X133535336Y-66732693D01*
X133213435Y-67054595D01*
X133151122Y-67088620D01*
X133124339Y-67091500D01*
X130974324Y-67091500D01*
X130906203Y-67071498D01*
X130859710Y-67017842D01*
X130849606Y-66947568D01*
X130879100Y-66882988D01*
X130914060Y-66856070D01*
X130913653Y-66855387D01*
X130926945Y-66847464D01*
X131100328Y-66723792D01*
X131108200Y-66717139D01*
X131259052Y-66566812D01*
X131265730Y-66558965D01*
X131390003Y-66386020D01*
X131395313Y-66377183D01*
X131489670Y-66186267D01*
X131493469Y-66176672D01*
X131555377Y-65972910D01*
X131557555Y-65962837D01*
X131558986Y-65951962D01*
X131556775Y-65937778D01*
X131543617Y-65934000D01*
X128908225Y-65934000D01*
X128894694Y-65937973D01*
X128893257Y-65947966D01*
X128923565Y-66082446D01*
X128926645Y-66092275D01*
X129006770Y-66289603D01*
X129011413Y-66298794D01*
X129122694Y-66480388D01*
X129128777Y-66488699D01*
X129268213Y-66649667D01*
X129275580Y-66656883D01*
X129439434Y-66792916D01*
X129447881Y-66798831D01*
X129546932Y-66856712D01*
X129595656Y-66908351D01*
X129608727Y-66978134D01*
X129581996Y-67043906D01*
X129523949Y-67084784D01*
X129483362Y-67091500D01*
X122578927Y-67091500D01*
X122570358Y-67091208D01*
X122520225Y-67087790D01*
X122520221Y-67087790D01*
X122512648Y-67087274D01*
X122449681Y-67098264D01*
X122443169Y-67099224D01*
X122379758Y-67106898D01*
X122372657Y-67109581D01*
X122370048Y-67110222D01*
X122353728Y-67114687D01*
X122351195Y-67115452D01*
X122343717Y-67116757D01*
X122285190Y-67142448D01*
X122279108Y-67144930D01*
X122273184Y-67147169D01*
X122226449Y-67164828D01*
X122226447Y-67164829D01*
X122219344Y-67167513D01*
X122213085Y-67171814D01*
X122210720Y-67173051D01*
X122195948Y-67181273D01*
X122193656Y-67182628D01*
X122186695Y-67185684D01*
X122180668Y-67190309D01*
X122180664Y-67190311D01*
X122135987Y-67224593D01*
X122130662Y-67228462D01*
X122102035Y-67248137D01*
X122088948Y-67257132D01*
X122078019Y-67264643D01*
X122072967Y-67270313D01*
X122072966Y-67270314D01*
X122036573Y-67311161D01*
X122031592Y-67316437D01*
X118555057Y-70792973D01*
X115093435Y-74254595D01*
X115031123Y-74288621D01*
X115004340Y-74291500D01*
X108993845Y-74291500D01*
X108925724Y-74271498D01*
X108879231Y-74217842D01*
X108869127Y-74147568D01*
X108880790Y-74109870D01*
X108899732Y-74071375D01*
X108904155Y-74059481D01*
X108919251Y-74001530D01*
X108918817Y-73987436D01*
X108910636Y-73984000D01*
X106390771Y-73984000D01*
X106377240Y-73987973D01*
X106376363Y-73994075D01*
X106432310Y-74146136D01*
X106437877Y-74157549D01*
X106526124Y-74299877D01*
X106545022Y-74368313D01*
X106523920Y-74436101D01*
X106518598Y-74443499D01*
X106486866Y-74484408D01*
X106486861Y-74484417D01*
X106482954Y-74489453D01*
X106396982Y-74664171D01*
X106347898Y-74852607D01*
X106337707Y-75047064D01*
X90508000Y-75047064D01*
X90508000Y-73458470D01*
X106380749Y-73458470D01*
X106381183Y-73472564D01*
X106389364Y-73476000D01*
X107377885Y-73476000D01*
X107393124Y-73471525D01*
X107394329Y-73470135D01*
X107396000Y-73462452D01*
X107396000Y-73457885D01*
X107904000Y-73457885D01*
X107908475Y-73473124D01*
X107909865Y-73474329D01*
X107917548Y-73476000D01*
X108909229Y-73476000D01*
X108922760Y-73472027D01*
X108923637Y-73465925D01*
X108867690Y-73313864D01*
X108862123Y-73302451D01*
X108766292Y-73147892D01*
X108758540Y-73137826D01*
X108633592Y-73005697D01*
X108623974Y-72997395D01*
X108475013Y-72893092D01*
X108463919Y-72886892D01*
X108297020Y-72814668D01*
X108284917Y-72810829D01*
X108105400Y-72773325D01*
X108095848Y-72772085D01*
X108092616Y-72772000D01*
X107922115Y-72772000D01*
X107906876Y-72776475D01*
X107905671Y-72777865D01*
X107904000Y-72785548D01*
X107904000Y-73457885D01*
X107396000Y-73457885D01*
X107396000Y-72790115D01*
X107391525Y-72774876D01*
X107390135Y-72773671D01*
X107382452Y-72772000D01*
X107254553Y-72772000D01*
X107248178Y-72772323D01*
X107112723Y-72786082D01*
X107100283Y-72788636D01*
X106926756Y-72843016D01*
X106915068Y-72848025D01*
X106756021Y-72936187D01*
X106745588Y-72943438D01*
X106607509Y-73061785D01*
X106598756Y-73070976D01*
X106487289Y-73214680D01*
X106480565Y-73225440D01*
X106400268Y-73388625D01*
X106395845Y-73400519D01*
X106380749Y-73458470D01*
X90508000Y-73458470D01*
X90508000Y-69060911D01*
X102100477Y-69060911D01*
X102109445Y-69299774D01*
X102158530Y-69533711D01*
X102246329Y-69756033D01*
X102370332Y-69960383D01*
X102373829Y-69964413D01*
X102492245Y-70100875D01*
X102526993Y-70140919D01*
X102531119Y-70144302D01*
X102531123Y-70144306D01*
X102630129Y-70225485D01*
X102711833Y-70292478D01*
X102716469Y-70295117D01*
X102716472Y-70295119D01*
X102829886Y-70359678D01*
X102919566Y-70410727D01*
X103144253Y-70492284D01*
X103149502Y-70493233D01*
X103149505Y-70493234D01*
X103375385Y-70534080D01*
X103375393Y-70534081D01*
X103379469Y-70534818D01*
X103397859Y-70535685D01*
X103403044Y-70535930D01*
X103403051Y-70535930D01*
X103404532Y-70536000D01*
X105972512Y-70536000D01*
X106150675Y-70520883D01*
X106155839Y-70519543D01*
X106155843Y-70519542D01*
X106376875Y-70462173D01*
X106376880Y-70462171D01*
X106382040Y-70460832D01*
X106499136Y-70408084D01*
X106595119Y-70364847D01*
X106595122Y-70364846D01*
X106599980Y-70362657D01*
X106798262Y-70229166D01*
X106971218Y-70064174D01*
X107113902Y-69872400D01*
X107116840Y-69866623D01*
X107219814Y-69664086D01*
X107219814Y-69664085D01*
X107222233Y-69659328D01*
X107267699Y-69512905D01*
X107291532Y-69436151D01*
X107291533Y-69436145D01*
X107293116Y-69431048D01*
X107321184Y-69219280D01*
X107323823Y-69199373D01*
X107323823Y-69199369D01*
X107324523Y-69194089D01*
X107315555Y-68955226D01*
X107266470Y-68721289D01*
X107178671Y-68498967D01*
X107054668Y-68294617D01*
X107045068Y-68283554D01*
X106901507Y-68118114D01*
X106901505Y-68118112D01*
X106898007Y-68114081D01*
X106893881Y-68110698D01*
X106893877Y-68110694D01*
X106717295Y-67965907D01*
X106713167Y-67962522D01*
X106708531Y-67959883D01*
X106708528Y-67959881D01*
X106510077Y-67846916D01*
X106505434Y-67844273D01*
X106280747Y-67762716D01*
X106275498Y-67761767D01*
X106275495Y-67761766D01*
X106049615Y-67720920D01*
X106049607Y-67720919D01*
X106045531Y-67720182D01*
X106027141Y-67719315D01*
X106021956Y-67719070D01*
X106021949Y-67719070D01*
X106020468Y-67719000D01*
X103452488Y-67719000D01*
X103274325Y-67734117D01*
X103269161Y-67735457D01*
X103269157Y-67735458D01*
X103048125Y-67792827D01*
X103048120Y-67792829D01*
X103042960Y-67794168D01*
X103038094Y-67796360D01*
X102829881Y-67890153D01*
X102829878Y-67890154D01*
X102825020Y-67892343D01*
X102820596Y-67895322D01*
X102820595Y-67895322D01*
X102791018Y-67915234D01*
X102626738Y-68025834D01*
X102622881Y-68029513D01*
X102622879Y-68029515D01*
X102583128Y-68067436D01*
X102453782Y-68190826D01*
X102311098Y-68382600D01*
X102308682Y-68387351D01*
X102308680Y-68387355D01*
X102244939Y-68512725D01*
X102202767Y-68595672D01*
X102167326Y-68709812D01*
X102133468Y-68818849D01*
X102133467Y-68818855D01*
X102131884Y-68823952D01*
X102131183Y-68829244D01*
X102105284Y-69024646D01*
X102100477Y-69060911D01*
X90508000Y-69060911D01*
X90508000Y-67284840D01*
X98604500Y-67284840D01*
X98604725Y-67290149D01*
X98619160Y-67460271D01*
X98620952Y-67470759D01*
X98678301Y-67691711D01*
X98681833Y-67701739D01*
X98775585Y-67909863D01*
X98780765Y-67919169D01*
X98908247Y-68108524D01*
X98914906Y-68116807D01*
X99072471Y-68281978D01*
X99080442Y-68289030D01*
X99263582Y-68425290D01*
X99272619Y-68430894D01*
X99476106Y-68534351D01*
X99485959Y-68538352D01*
X99703961Y-68606044D01*
X99714348Y-68608328D01*
X99740543Y-68611800D01*
X99754707Y-68609604D01*
X99758500Y-68596419D01*
X99758500Y-68594782D01*
X100266500Y-68594782D01*
X100270473Y-68608313D01*
X100281080Y-68609838D01*
X100413340Y-68582087D01*
X100423537Y-68579027D01*
X100635840Y-68495185D01*
X100645376Y-68490451D01*
X100840525Y-68372032D01*
X100849118Y-68365766D01*
X101021527Y-68216158D01*
X101028947Y-68208528D01*
X101173680Y-68032012D01*
X101179706Y-68023245D01*
X101292629Y-67824867D01*
X101297095Y-67815203D01*
X101374981Y-67600632D01*
X101377751Y-67590365D01*
X101418581Y-67364568D01*
X101419516Y-67356338D01*
X101420430Y-67336944D01*
X101420500Y-67333974D01*
X101420500Y-67240634D01*
X116836500Y-67240634D01*
X116843255Y-67302816D01*
X116894385Y-67439205D01*
X116981739Y-67555761D01*
X117098295Y-67643115D01*
X117234684Y-67694245D01*
X117296866Y-67701000D01*
X119393134Y-67701000D01*
X119455316Y-67694245D01*
X119591705Y-67643115D01*
X119708261Y-67555761D01*
X119795615Y-67439205D01*
X119846745Y-67302816D01*
X119853500Y-67240634D01*
X119853500Y-65239366D01*
X119846745Y-65177184D01*
X119795615Y-65040795D01*
X119708261Y-64924239D01*
X119591705Y-64836885D01*
X119571317Y-64829242D01*
X119514553Y-64786599D01*
X119489854Y-64720038D01*
X119505062Y-64650689D01*
X119516666Y-64633168D01*
X119609945Y-64515056D01*
X119615650Y-64506469D01*
X119726714Y-64305278D01*
X119730944Y-64295866D01*
X119807659Y-64079232D01*
X119810293Y-64069261D01*
X119827647Y-63971837D01*
X119826187Y-63958540D01*
X119811630Y-63954000D01*
X116876904Y-63954000D01*
X116863560Y-63957918D01*
X116861573Y-63972194D01*
X116871110Y-64034515D01*
X116873499Y-64044543D01*
X116944898Y-64262988D01*
X116948895Y-64272497D01*
X117055011Y-64476344D01*
X117060500Y-64485061D01*
X117173902Y-64636099D01*
X117198807Y-64702584D01*
X117183814Y-64771980D01*
X117133684Y-64822253D01*
X117117375Y-64829732D01*
X117098295Y-64836885D01*
X116981739Y-64924239D01*
X116894385Y-65040795D01*
X116843255Y-65177184D01*
X116836500Y-65239366D01*
X116836500Y-67240634D01*
X101420500Y-67240634D01*
X101420500Y-66399615D01*
X101416025Y-66384376D01*
X101414635Y-66383171D01*
X101406952Y-66381500D01*
X100284615Y-66381500D01*
X100269376Y-66385975D01*
X100268171Y-66387365D01*
X100266500Y-66395048D01*
X100266500Y-68594782D01*
X99758500Y-68594782D01*
X99758500Y-66399615D01*
X99754025Y-66384376D01*
X99752635Y-66383171D01*
X99744952Y-66381500D01*
X98622615Y-66381500D01*
X98607376Y-66385975D01*
X98606171Y-66387365D01*
X98604500Y-66395048D01*
X98604500Y-67284840D01*
X90508000Y-67284840D01*
X90508000Y-65855385D01*
X98604500Y-65855385D01*
X98608975Y-65870624D01*
X98610365Y-65871829D01*
X98618048Y-65873500D01*
X99740385Y-65873500D01*
X99755624Y-65869025D01*
X99756829Y-65867635D01*
X99758500Y-65859952D01*
X99758500Y-65855385D01*
X100266500Y-65855385D01*
X100270975Y-65870624D01*
X100272365Y-65871829D01*
X100280048Y-65873500D01*
X101402385Y-65873500D01*
X101417624Y-65869025D01*
X101418829Y-65867635D01*
X101420500Y-65859952D01*
X101420500Y-64970160D01*
X101420275Y-64964851D01*
X101405840Y-64794729D01*
X101404048Y-64784241D01*
X101346699Y-64563289D01*
X101343167Y-64553261D01*
X101249415Y-64345137D01*
X101244235Y-64335831D01*
X101116753Y-64146476D01*
X101110094Y-64138193D01*
X100952529Y-63973022D01*
X100944558Y-63965970D01*
X100761418Y-63829710D01*
X100752381Y-63824106D01*
X100548894Y-63720649D01*
X100539041Y-63716648D01*
X100321039Y-63648956D01*
X100310652Y-63646672D01*
X100284457Y-63643200D01*
X100270293Y-63645396D01*
X100266500Y-63658581D01*
X100266500Y-65855385D01*
X99758500Y-65855385D01*
X99758500Y-63660218D01*
X99754527Y-63646687D01*
X99743920Y-63645162D01*
X99611660Y-63672913D01*
X99601463Y-63675973D01*
X99389160Y-63759815D01*
X99379624Y-63764549D01*
X99184475Y-63882968D01*
X99175882Y-63889234D01*
X99003473Y-64038842D01*
X98996053Y-64046472D01*
X98851320Y-64222988D01*
X98845294Y-64231755D01*
X98732371Y-64430133D01*
X98727905Y-64439797D01*
X98650019Y-64654368D01*
X98647249Y-64664635D01*
X98606419Y-64890432D01*
X98605484Y-64898662D01*
X98604570Y-64918050D01*
X98604500Y-64921026D01*
X98604500Y-65855385D01*
X90508000Y-65855385D01*
X90508000Y-63396080D01*
X102230162Y-63396080D01*
X102257913Y-63528340D01*
X102260973Y-63538537D01*
X102344815Y-63750840D01*
X102349549Y-63760376D01*
X102467968Y-63955525D01*
X102474234Y-63964118D01*
X102623842Y-64136527D01*
X102631472Y-64143947D01*
X102807988Y-64288680D01*
X102816755Y-64294706D01*
X103015133Y-64407629D01*
X103024797Y-64412095D01*
X103239368Y-64489981D01*
X103249635Y-64492751D01*
X103475432Y-64533581D01*
X103483662Y-64534516D01*
X103503050Y-64535430D01*
X103506026Y-64535500D01*
X104440385Y-64535500D01*
X104455624Y-64531025D01*
X104456829Y-64529635D01*
X104458500Y-64521952D01*
X104458500Y-64517385D01*
X104966500Y-64517385D01*
X104970975Y-64532624D01*
X104972365Y-64533829D01*
X104980048Y-64535500D01*
X105869840Y-64535500D01*
X105875149Y-64535275D01*
X106045271Y-64520840D01*
X106055759Y-64519048D01*
X106276711Y-64461699D01*
X106286739Y-64458167D01*
X106494863Y-64364415D01*
X106504169Y-64359235D01*
X106693524Y-64231753D01*
X106701807Y-64225094D01*
X106866978Y-64067529D01*
X106874030Y-64059558D01*
X107010290Y-63876418D01*
X107015894Y-63867381D01*
X107119351Y-63663894D01*
X107123352Y-63654041D01*
X107191044Y-63436039D01*
X107193328Y-63425652D01*
X107196800Y-63399457D01*
X107194604Y-63385293D01*
X107181419Y-63381500D01*
X104984615Y-63381500D01*
X104969376Y-63385975D01*
X104968171Y-63387365D01*
X104966500Y-63395048D01*
X104966500Y-64517385D01*
X104458500Y-64517385D01*
X104458500Y-63399615D01*
X104454025Y-63384376D01*
X104452635Y-63383171D01*
X104444952Y-63381500D01*
X102245218Y-63381500D01*
X102231687Y-63385473D01*
X102230162Y-63396080D01*
X90508000Y-63396080D01*
X90508000Y-61079612D01*
X91890743Y-61079612D01*
X91891302Y-61083856D01*
X91891302Y-61083860D01*
X91902020Y-61165271D01*
X91928268Y-61364643D01*
X91929401Y-61368783D01*
X91929401Y-61368785D01*
X91943068Y-61418744D01*
X92004129Y-61641945D01*
X92005813Y-61645893D01*
X92112766Y-61896638D01*
X92116923Y-61906385D01*
X92190849Y-62029906D01*
X92259319Y-62144311D01*
X92264561Y-62153070D01*
X92444313Y-62377437D01*
X92533850Y-62462404D01*
X92619239Y-62543435D01*
X92652851Y-62575332D01*
X92886317Y-62743095D01*
X92890112Y-62745104D01*
X92890113Y-62745105D01*
X92911869Y-62756624D01*
X93140392Y-62877621D01*
X93159381Y-62884570D01*
X93393491Y-62970242D01*
X93410373Y-62976420D01*
X93691264Y-63037664D01*
X93719841Y-63039913D01*
X93914282Y-63055216D01*
X93914291Y-63055216D01*
X93916739Y-63055409D01*
X94072271Y-63055409D01*
X94074407Y-63055263D01*
X94074418Y-63055263D01*
X94282548Y-63041074D01*
X94282554Y-63041073D01*
X94286825Y-63040782D01*
X94291020Y-63039913D01*
X94291022Y-63039913D01*
X94427583Y-63011633D01*
X94568342Y-62982483D01*
X94839343Y-62886516D01*
X94899352Y-62855543D01*
X102228200Y-62855543D01*
X102230396Y-62869707D01*
X102243581Y-62873500D01*
X104440385Y-62873500D01*
X104455624Y-62869025D01*
X104456829Y-62867635D01*
X104458500Y-62859952D01*
X104458500Y-62855385D01*
X104966500Y-62855385D01*
X104970975Y-62870624D01*
X104972365Y-62871829D01*
X104980048Y-62873500D01*
X107179782Y-62873500D01*
X107193313Y-62869527D01*
X107194838Y-62858920D01*
X107167087Y-62726660D01*
X107164027Y-62716463D01*
X107080185Y-62504160D01*
X107075451Y-62494624D01*
X106957032Y-62299475D01*
X106950766Y-62290882D01*
X106801158Y-62118473D01*
X106793528Y-62111053D01*
X106617012Y-61966320D01*
X106608245Y-61960294D01*
X106409867Y-61847371D01*
X106400203Y-61842905D01*
X106185632Y-61765019D01*
X106175365Y-61762249D01*
X105949568Y-61721419D01*
X105941338Y-61720484D01*
X105921950Y-61719570D01*
X105918974Y-61719500D01*
X104984615Y-61719500D01*
X104969376Y-61723975D01*
X104968171Y-61725365D01*
X104966500Y-61733048D01*
X104966500Y-62855385D01*
X104458500Y-62855385D01*
X104458500Y-61737615D01*
X104454025Y-61722376D01*
X104452635Y-61721171D01*
X104444952Y-61719500D01*
X103555160Y-61719500D01*
X103549851Y-61719725D01*
X103379729Y-61734160D01*
X103369241Y-61735952D01*
X103148289Y-61793301D01*
X103138261Y-61796833D01*
X102930137Y-61890585D01*
X102920831Y-61895765D01*
X102731476Y-62023247D01*
X102723193Y-62029906D01*
X102558022Y-62187471D01*
X102550970Y-62195442D01*
X102414710Y-62378582D01*
X102409106Y-62387619D01*
X102305649Y-62591106D01*
X102301648Y-62600959D01*
X102233956Y-62818961D01*
X102231672Y-62829348D01*
X102228200Y-62855543D01*
X94899352Y-62855543D01*
X95094812Y-62754659D01*
X95098313Y-62752198D01*
X95098317Y-62752196D01*
X95212417Y-62672005D01*
X95330023Y-62589350D01*
X95456979Y-62471375D01*
X95537479Y-62396570D01*
X95537481Y-62396567D01*
X95540622Y-62393649D01*
X95722713Y-62171177D01*
X95872927Y-61926051D01*
X95879441Y-61911213D01*
X95986757Y-61666739D01*
X95988483Y-61662807D01*
X96067244Y-61386315D01*
X96107751Y-61101693D01*
X96107777Y-61096857D01*
X96109235Y-60818492D01*
X96109235Y-60818485D01*
X96109257Y-60814206D01*
X96107585Y-60801502D01*
X96077350Y-60571851D01*
X96071732Y-60529175D01*
X96065243Y-60505453D01*
X96030594Y-60378800D01*
X95995871Y-60251873D01*
X95943591Y-60129305D01*
X95884763Y-59991385D01*
X95884761Y-59991381D01*
X95883077Y-59987433D01*
X95789589Y-59831226D01*
X95737643Y-59744430D01*
X95737640Y-59744426D01*
X95735439Y-59740748D01*
X95555687Y-59516381D01*
X95347149Y-59318486D01*
X95321423Y-59300000D01*
X112986496Y-59300000D01*
X113006458Y-59489928D01*
X113065473Y-59671556D01*
X113160960Y-59836944D01*
X113165378Y-59841851D01*
X113165379Y-59841852D01*
X113284325Y-59973955D01*
X113288747Y-59978866D01*
X113363958Y-60033510D01*
X113433154Y-60083784D01*
X113443248Y-60091118D01*
X113449276Y-60093802D01*
X113449278Y-60093803D01*
X113582640Y-60153179D01*
X113617712Y-60168794D01*
X113701859Y-60186680D01*
X113798056Y-60207128D01*
X113798061Y-60207128D01*
X113804513Y-60208500D01*
X113995487Y-60208500D01*
X114001939Y-60207128D01*
X114001944Y-60207128D01*
X114098141Y-60186680D01*
X114182288Y-60168794D01*
X114217360Y-60153179D01*
X114350722Y-60093803D01*
X114350724Y-60093802D01*
X114356752Y-60091118D01*
X114366847Y-60083784D01*
X114424254Y-60042075D01*
X114498315Y-60018011D01*
X117077549Y-60018011D01*
X117145670Y-60038013D01*
X117192163Y-60091669D01*
X117202267Y-60161943D01*
X117176431Y-60222103D01*
X117079633Y-60344670D01*
X117079630Y-60344675D01*
X117076432Y-60348724D01*
X117073939Y-60353240D01*
X117073937Y-60353243D01*
X116976586Y-60529595D01*
X116960326Y-60559050D01*
X116958602Y-60563919D01*
X116958600Y-60563923D01*
X116885949Y-60769083D01*
X116880130Y-60785515D01*
X116879223Y-60790608D01*
X116879222Y-60790611D01*
X116840564Y-61007639D01*
X116837999Y-61022037D01*
X116835064Y-61262263D01*
X116871404Y-61499744D01*
X116903681Y-61598495D01*
X116944434Y-61723183D01*
X116944437Y-61723189D01*
X116946042Y-61728101D01*
X116948429Y-61732687D01*
X116948431Y-61732691D01*
X117036794Y-61902433D01*
X117056975Y-61941200D01*
X117060085Y-61945342D01*
X117191699Y-62120635D01*
X117201223Y-62133320D01*
X117374912Y-62299301D01*
X117412351Y-62324840D01*
X117457352Y-62379751D01*
X117465523Y-62450275D01*
X117434269Y-62514022D01*
X117409790Y-62534716D01*
X117407674Y-62536085D01*
X117399502Y-62542378D01*
X117229520Y-62697050D01*
X117222494Y-62704583D01*
X117080055Y-62884944D01*
X117074350Y-62893531D01*
X116963286Y-63094722D01*
X116959056Y-63104134D01*
X116882341Y-63320768D01*
X116879707Y-63330739D01*
X116862353Y-63428163D01*
X116863813Y-63441460D01*
X116878370Y-63446000D01*
X119813096Y-63446000D01*
X119826440Y-63442082D01*
X119828427Y-63427806D01*
X119818890Y-63365485D01*
X119816501Y-63355457D01*
X119745102Y-63137012D01*
X119741105Y-63127503D01*
X119634989Y-62923656D01*
X119629495Y-62914931D01*
X119491507Y-62731148D01*
X119484664Y-62723441D01*
X119318509Y-62564661D01*
X119310502Y-62558177D01*
X119277644Y-62535763D01*
X119232641Y-62480852D01*
X119224468Y-62410328D01*
X119255722Y-62346580D01*
X119280204Y-62325884D01*
X119282635Y-62324311D01*
X119286977Y-62321502D01*
X119464670Y-62159814D01*
X119572524Y-62023247D01*
X119610367Y-61975330D01*
X119610370Y-61975325D01*
X119613568Y-61971276D01*
X119619631Y-61960294D01*
X119727177Y-61765474D01*
X119727179Y-61765470D01*
X119729674Y-61760950D01*
X119733689Y-61749614D01*
X119808144Y-61539360D01*
X119808145Y-61539356D01*
X119809870Y-61534485D01*
X119815183Y-61504659D01*
X119851095Y-61303052D01*
X119851096Y-61303046D01*
X119852001Y-61297963D01*
X119853078Y-61209829D01*
X119854873Y-61062907D01*
X119854873Y-61062905D01*
X119854936Y-61057737D01*
X119818596Y-60820256D01*
X119775643Y-60688841D01*
X119745566Y-60596817D01*
X119745563Y-60596811D01*
X119743958Y-60591899D01*
X119737713Y-60579901D01*
X119635416Y-60383393D01*
X119633025Y-60378800D01*
X119513542Y-60219664D01*
X119488636Y-60153179D01*
X119503628Y-60083784D01*
X119553759Y-60033510D01*
X119614302Y-60018011D01*
X128810854Y-60018011D01*
X128878975Y-60038013D01*
X128925468Y-60091669D01*
X128935572Y-60161943D01*
X128932271Y-60177683D01*
X128909956Y-60258148D01*
X128885989Y-60344570D01*
X128862251Y-60566695D01*
X128862548Y-60571848D01*
X128862548Y-60571851D01*
X128871173Y-60721441D01*
X128875110Y-60789715D01*
X128876247Y-60794761D01*
X128876248Y-60794767D01*
X128896119Y-60882939D01*
X128924222Y-61007639D01*
X129008266Y-61214616D01*
X129010965Y-61219020D01*
X129116013Y-61390443D01*
X129124987Y-61405088D01*
X129271250Y-61573938D01*
X129443126Y-61716632D01*
X129499568Y-61749614D01*
X129516445Y-61759476D01*
X129565169Y-61811114D01*
X129578240Y-61880897D01*
X129551509Y-61946669D01*
X129511055Y-61980027D01*
X129498607Y-61986507D01*
X129494474Y-61989610D01*
X129494471Y-61989612D01*
X129347300Y-62100111D01*
X129319965Y-62120635D01*
X129165629Y-62282138D01*
X129162715Y-62286410D01*
X129162714Y-62286411D01*
X129121670Y-62346580D01*
X129039743Y-62466680D01*
X129004605Y-62542378D01*
X128974924Y-62606322D01*
X128945688Y-62669305D01*
X128885989Y-62884570D01*
X128862251Y-63106695D01*
X128862548Y-63111848D01*
X128862548Y-63111851D01*
X128874594Y-63320768D01*
X128875110Y-63329715D01*
X128876247Y-63334761D01*
X128876248Y-63334767D01*
X128898392Y-63433023D01*
X128924222Y-63547639D01*
X128962461Y-63641811D01*
X128994474Y-63720649D01*
X129008266Y-63754616D01*
X129124987Y-63945088D01*
X129271250Y-64113938D01*
X129443126Y-64256632D01*
X129457871Y-64265248D01*
X129516955Y-64299774D01*
X129565679Y-64351412D01*
X129578750Y-64421195D01*
X129552019Y-64486967D01*
X129511562Y-64520327D01*
X129503457Y-64524546D01*
X129494738Y-64530036D01*
X129324433Y-64657905D01*
X129316726Y-64664748D01*
X129169590Y-64818717D01*
X129163104Y-64826727D01*
X129043098Y-65002649D01*
X129038000Y-65011623D01*
X128948338Y-65204783D01*
X128944775Y-65214470D01*
X128889389Y-65414183D01*
X128890912Y-65422607D01*
X128903292Y-65426000D01*
X131543344Y-65426000D01*
X131556875Y-65422027D01*
X131558180Y-65412947D01*
X131516214Y-65245875D01*
X131512894Y-65236124D01*
X131427972Y-65040814D01*
X131423105Y-65031739D01*
X131307426Y-64852926D01*
X131301136Y-64844757D01*
X131157806Y-64687240D01*
X131150273Y-64680215D01*
X130983139Y-64548222D01*
X130974556Y-64542520D01*
X130937602Y-64522120D01*
X130887631Y-64471687D01*
X130872859Y-64402245D01*
X130897975Y-64335839D01*
X130925327Y-64309232D01*
X130982047Y-64268774D01*
X131104860Y-64181173D01*
X131139679Y-64146476D01*
X131226901Y-64059558D01*
X131263096Y-64023489D01*
X131270804Y-64012763D01*
X131390435Y-63846277D01*
X131393453Y-63842077D01*
X131431770Y-63764549D01*
X131490136Y-63646453D01*
X131490137Y-63646451D01*
X131492430Y-63641811D01*
X131553113Y-63442082D01*
X131555865Y-63433023D01*
X131555865Y-63433021D01*
X131557370Y-63428069D01*
X131586529Y-63206590D01*
X131586611Y-63203240D01*
X131588074Y-63143365D01*
X131588074Y-63143361D01*
X131588156Y-63140000D01*
X131569852Y-62917361D01*
X131515431Y-62700702D01*
X131426354Y-62495840D01*
X131360244Y-62393649D01*
X131307822Y-62312617D01*
X131307820Y-62312614D01*
X131305014Y-62308277D01*
X131154670Y-62143051D01*
X131150619Y-62139852D01*
X131150615Y-62139848D01*
X130983414Y-62007800D01*
X130983410Y-62007798D01*
X130979359Y-62004598D01*
X130938053Y-61981796D01*
X130888084Y-61931364D01*
X130873312Y-61861921D01*
X130898428Y-61795516D01*
X130925780Y-61768909D01*
X130988775Y-61723975D01*
X131104860Y-61641173D01*
X131147688Y-61598495D01*
X131259435Y-61487137D01*
X131263096Y-61483489D01*
X131322594Y-61400689D01*
X131390435Y-61306277D01*
X131393453Y-61302077D01*
X131398039Y-61292799D01*
X131490136Y-61106453D01*
X131490137Y-61106451D01*
X131492430Y-61101811D01*
X131557370Y-60888069D01*
X131568965Y-60800000D01*
X136586496Y-60800000D01*
X136606458Y-60989928D01*
X136665473Y-61171556D01*
X136760960Y-61336944D01*
X136765379Y-61341852D01*
X136767436Y-61344683D01*
X136791295Y-61411551D01*
X136791500Y-61418744D01*
X136791500Y-62771088D01*
X136791208Y-62779658D01*
X136787821Y-62829348D01*
X136787275Y-62837352D01*
X136788580Y-62844829D01*
X136788580Y-62844830D01*
X136798261Y-62900299D01*
X136799223Y-62906821D01*
X136806898Y-62970242D01*
X136809581Y-62977343D01*
X136810222Y-62979952D01*
X136814685Y-62996262D01*
X136815450Y-62998798D01*
X136816757Y-63006284D01*
X136819811Y-63013241D01*
X136842442Y-63064795D01*
X136844933Y-63070899D01*
X136867513Y-63130656D01*
X136871817Y-63136919D01*
X136873054Y-63139285D01*
X136881299Y-63154097D01*
X136882632Y-63156351D01*
X136885685Y-63163305D01*
X136921446Y-63209908D01*
X136924579Y-63213991D01*
X136928459Y-63219332D01*
X136960339Y-63265720D01*
X136960344Y-63265725D01*
X136964643Y-63271981D01*
X136970313Y-63277032D01*
X136970314Y-63277034D01*
X137011170Y-63313435D01*
X137016446Y-63318416D01*
X140878550Y-67180520D01*
X140884404Y-67186785D01*
X140922439Y-67230385D01*
X140960496Y-67257132D01*
X140974719Y-67267128D01*
X140980014Y-67271061D01*
X141030282Y-67310476D01*
X141037198Y-67313599D01*
X141039484Y-67314983D01*
X141054165Y-67323357D01*
X141056525Y-67324622D01*
X141062739Y-67328990D01*
X141069818Y-67331750D01*
X141069820Y-67331751D01*
X141122275Y-67352202D01*
X141128344Y-67354753D01*
X141186573Y-67381045D01*
X141194040Y-67382429D01*
X141196595Y-67383230D01*
X141212848Y-67387859D01*
X141215428Y-67388522D01*
X141222509Y-67391282D01*
X141230040Y-67392273D01*
X141230042Y-67392274D01*
X141259661Y-67396173D01*
X141285861Y-67399622D01*
X141292359Y-67400652D01*
X141355186Y-67412296D01*
X141362766Y-67411859D01*
X141362767Y-67411859D01*
X141417392Y-67408709D01*
X141424646Y-67408500D01*
X161154340Y-67408500D01*
X161222461Y-67428502D01*
X161243435Y-67445405D01*
X162694595Y-68896566D01*
X162728621Y-68958878D01*
X162731500Y-68985661D01*
X162731500Y-75694394D01*
X162711498Y-75762515D01*
X162671335Y-75801826D01*
X162554807Y-75873235D01*
X162554799Y-75873241D01*
X162550584Y-75875824D01*
X162370031Y-76030031D01*
X162366823Y-76033787D01*
X162366818Y-76033792D01*
X162265811Y-76152056D01*
X162206361Y-76190866D01*
X162135366Y-76191372D01*
X162074189Y-76152056D01*
X161973182Y-76033792D01*
X161973177Y-76033787D01*
X161969969Y-76030031D01*
X161789416Y-75875824D01*
X161785208Y-75873245D01*
X161785202Y-75873241D01*
X161591183Y-75754346D01*
X161586963Y-75751760D01*
X161582393Y-75749867D01*
X161582389Y-75749865D01*
X161372167Y-75662789D01*
X161372165Y-75662788D01*
X161367594Y-75660895D01*
X161249266Y-75632487D01*
X161141524Y-75606620D01*
X161141518Y-75606619D01*
X161136711Y-75605465D01*
X160900000Y-75586835D01*
X160663289Y-75605465D01*
X160658482Y-75606619D01*
X160658476Y-75606620D01*
X160550734Y-75632487D01*
X160432406Y-75660895D01*
X160427835Y-75662788D01*
X160427833Y-75662789D01*
X160217611Y-75749865D01*
X160217607Y-75749867D01*
X160213037Y-75751760D01*
X160208817Y-75754346D01*
X160014798Y-75873241D01*
X160014792Y-75873245D01*
X160010584Y-75875824D01*
X159830031Y-76030031D01*
X159826823Y-76033787D01*
X159826818Y-76033792D01*
X159725811Y-76152056D01*
X159666361Y-76190866D01*
X159595366Y-76191372D01*
X159534189Y-76152056D01*
X159433182Y-76033792D01*
X159433177Y-76033787D01*
X159429969Y-76030031D01*
X159249416Y-75875824D01*
X159245208Y-75873245D01*
X159245202Y-75873241D01*
X159051183Y-75754346D01*
X159046963Y-75751760D01*
X159042393Y-75749867D01*
X159042389Y-75749865D01*
X158832167Y-75662789D01*
X158832165Y-75662788D01*
X158827594Y-75660895D01*
X158709266Y-75632487D01*
X158601524Y-75606620D01*
X158601518Y-75606619D01*
X158596711Y-75605465D01*
X158360000Y-75586835D01*
X158123289Y-75605465D01*
X158118482Y-75606619D01*
X158118476Y-75606620D01*
X158010734Y-75632487D01*
X157892406Y-75660895D01*
X157887835Y-75662788D01*
X157887833Y-75662789D01*
X157677611Y-75749865D01*
X157677607Y-75749867D01*
X157673037Y-75751760D01*
X157668817Y-75754346D01*
X157474798Y-75873241D01*
X157474792Y-75873245D01*
X157470584Y-75875824D01*
X157290031Y-76030031D01*
X157286823Y-76033787D01*
X157286818Y-76033792D01*
X157185811Y-76152056D01*
X157126361Y-76190866D01*
X157055366Y-76191372D01*
X156994189Y-76152056D01*
X156893182Y-76033792D01*
X156893177Y-76033787D01*
X156889969Y-76030031D01*
X156709416Y-75875824D01*
X156705208Y-75873245D01*
X156705202Y-75873241D01*
X156511183Y-75754346D01*
X156506963Y-75751760D01*
X156502393Y-75749867D01*
X156502389Y-75749865D01*
X156292167Y-75662789D01*
X156292165Y-75662788D01*
X156287594Y-75660895D01*
X156169266Y-75632487D01*
X156061524Y-75606620D01*
X156061518Y-75606619D01*
X156056711Y-75605465D01*
X155820000Y-75586835D01*
X155583289Y-75605465D01*
X155578482Y-75606619D01*
X155578476Y-75606620D01*
X155470734Y-75632487D01*
X155352406Y-75660895D01*
X155347835Y-75662788D01*
X155347833Y-75662789D01*
X155137611Y-75749865D01*
X155137607Y-75749867D01*
X155133037Y-75751760D01*
X155128817Y-75754346D01*
X154934798Y-75873241D01*
X154934792Y-75873245D01*
X154930584Y-75875824D01*
X154750031Y-76030031D01*
X154595824Y-76210584D01*
X154593245Y-76214792D01*
X154593241Y-76214798D01*
X154474346Y-76408817D01*
X154471760Y-76413037D01*
X154469867Y-76417607D01*
X154469865Y-76417611D01*
X154394318Y-76600000D01*
X154380895Y-76632406D01*
X154379740Y-76637218D01*
X154331605Y-76837715D01*
X154325465Y-76863289D01*
X154306835Y-77100000D01*
X154325465Y-77336711D01*
X154326619Y-77341518D01*
X154326620Y-77341524D01*
X154353216Y-77452301D01*
X154380895Y-77567594D01*
X154382788Y-77572165D01*
X154382789Y-77572167D01*
X154469772Y-77782163D01*
X154471760Y-77786963D01*
X154474346Y-77791183D01*
X154593241Y-77985202D01*
X154593245Y-77985208D01*
X154595824Y-77989416D01*
X154750031Y-78169969D01*
X154930584Y-78324176D01*
X154934792Y-78326755D01*
X154934798Y-78326759D01*
X155112794Y-78435835D01*
X155133037Y-78448240D01*
X155137607Y-78450133D01*
X155137611Y-78450135D01*
X155347833Y-78537211D01*
X155352406Y-78539105D01*
X155432609Y-78558360D01*
X155578476Y-78593380D01*
X155578482Y-78593381D01*
X155583289Y-78594535D01*
X155820000Y-78613165D01*
X156056711Y-78594535D01*
X156061518Y-78593381D01*
X156061524Y-78593380D01*
X156207391Y-78558360D01*
X156287594Y-78539105D01*
X156292167Y-78537211D01*
X156502389Y-78450135D01*
X156502393Y-78450133D01*
X156506963Y-78448240D01*
X156527206Y-78435835D01*
X156705202Y-78326759D01*
X156705208Y-78326755D01*
X156709416Y-78324176D01*
X156889969Y-78169969D01*
X156893177Y-78166213D01*
X156893182Y-78166208D01*
X156994189Y-78047944D01*
X157053639Y-78009134D01*
X157124634Y-78008628D01*
X157185811Y-78047944D01*
X157286818Y-78166208D01*
X157286823Y-78166213D01*
X157290031Y-78169969D01*
X157470584Y-78324176D01*
X157474792Y-78326755D01*
X157474798Y-78326759D01*
X157652794Y-78435835D01*
X157673037Y-78448240D01*
X157677607Y-78450133D01*
X157677611Y-78450135D01*
X157887833Y-78537211D01*
X157892406Y-78539105D01*
X157972609Y-78558360D01*
X158118476Y-78593380D01*
X158118482Y-78593381D01*
X158123289Y-78594535D01*
X158360000Y-78613165D01*
X158596711Y-78594535D01*
X158601518Y-78593381D01*
X158601524Y-78593380D01*
X158747391Y-78558360D01*
X158827594Y-78539105D01*
X158832167Y-78537211D01*
X159042389Y-78450135D01*
X159042393Y-78450133D01*
X159046963Y-78448240D01*
X159067206Y-78435835D01*
X159245202Y-78326759D01*
X159245208Y-78326755D01*
X159249416Y-78324176D01*
X159429969Y-78169969D01*
X159433177Y-78166213D01*
X159433182Y-78166208D01*
X159534189Y-78047944D01*
X159593639Y-78009134D01*
X159664634Y-78008628D01*
X159725811Y-78047944D01*
X159826818Y-78166208D01*
X159826823Y-78166213D01*
X159830031Y-78169969D01*
X160010584Y-78324176D01*
X160014792Y-78326755D01*
X160014798Y-78326759D01*
X160192794Y-78435835D01*
X160213037Y-78448240D01*
X160217607Y-78450133D01*
X160217611Y-78450135D01*
X160427833Y-78537211D01*
X160432406Y-78539105D01*
X160512609Y-78558360D01*
X160658476Y-78593380D01*
X160658482Y-78593381D01*
X160663289Y-78594535D01*
X160900000Y-78613165D01*
X161136711Y-78594535D01*
X161141518Y-78593381D01*
X161141524Y-78593380D01*
X161287391Y-78558360D01*
X161367594Y-78539105D01*
X161372167Y-78537211D01*
X161582389Y-78450135D01*
X161582393Y-78450133D01*
X161586963Y-78448240D01*
X161607206Y-78435835D01*
X161785202Y-78326759D01*
X161785208Y-78326755D01*
X161789416Y-78324176D01*
X161969969Y-78169969D01*
X161973177Y-78166213D01*
X161973182Y-78166208D01*
X162074189Y-78047944D01*
X162133639Y-78009134D01*
X162204634Y-78008628D01*
X162265811Y-78047944D01*
X162366818Y-78166208D01*
X162366823Y-78166213D01*
X162370031Y-78169969D01*
X162550584Y-78324176D01*
X162554792Y-78326755D01*
X162554798Y-78326759D01*
X162732794Y-78435835D01*
X162753037Y-78448240D01*
X162757607Y-78450133D01*
X162757611Y-78450135D01*
X162967833Y-78537211D01*
X162972406Y-78539105D01*
X163052609Y-78558360D01*
X163198476Y-78593380D01*
X163198482Y-78593381D01*
X163203289Y-78594535D01*
X163440000Y-78613165D01*
X163676711Y-78594535D01*
X163681518Y-78593381D01*
X163681524Y-78593380D01*
X163827391Y-78558360D01*
X163907594Y-78539105D01*
X163912167Y-78537211D01*
X164122389Y-78450135D01*
X164122393Y-78450133D01*
X164126963Y-78448240D01*
X164147206Y-78435835D01*
X164325202Y-78326759D01*
X164325208Y-78326755D01*
X164329416Y-78324176D01*
X164509969Y-78169969D01*
X164513177Y-78166213D01*
X164513182Y-78166208D01*
X164614189Y-78047944D01*
X164673639Y-78009134D01*
X164744634Y-78008628D01*
X164805811Y-78047944D01*
X164906818Y-78166208D01*
X164906823Y-78166213D01*
X164910031Y-78169969D01*
X165090584Y-78324176D01*
X165094792Y-78326755D01*
X165094798Y-78326759D01*
X165272794Y-78435835D01*
X165293037Y-78448240D01*
X165297607Y-78450133D01*
X165297611Y-78450135D01*
X165507833Y-78537211D01*
X165512406Y-78539105D01*
X165592609Y-78558360D01*
X165738476Y-78593380D01*
X165738482Y-78593381D01*
X165743289Y-78594535D01*
X165980000Y-78613165D01*
X166216711Y-78594535D01*
X166221518Y-78593381D01*
X166221524Y-78593380D01*
X166367391Y-78558360D01*
X166447594Y-78539105D01*
X166452167Y-78537211D01*
X166662389Y-78450135D01*
X166662393Y-78450133D01*
X166666963Y-78448240D01*
X166687206Y-78435835D01*
X166855556Y-78332670D01*
X167652160Y-78332670D01*
X167657887Y-78340320D01*
X167829042Y-78445205D01*
X167837837Y-78449687D01*
X168047988Y-78536734D01*
X168057373Y-78539783D01*
X168278554Y-78592885D01*
X168288301Y-78594428D01*
X168515070Y-78612275D01*
X168524930Y-78612275D01*
X168751699Y-78594428D01*
X168761446Y-78592885D01*
X168982627Y-78539783D01*
X168992012Y-78536734D01*
X169202163Y-78449687D01*
X169210958Y-78445205D01*
X169378445Y-78342568D01*
X169387907Y-78332110D01*
X169384124Y-78323334D01*
X168532812Y-77472022D01*
X168518868Y-77464408D01*
X168517035Y-77464539D01*
X168510420Y-77468790D01*
X167658920Y-78320290D01*
X167652160Y-78332670D01*
X166855556Y-78332670D01*
X166865202Y-78326759D01*
X166865208Y-78326755D01*
X166869416Y-78324176D01*
X167049969Y-78169969D01*
X167053177Y-78166213D01*
X167053182Y-78166208D01*
X167183706Y-78013384D01*
X167243156Y-77974574D01*
X167277558Y-77972360D01*
X167296667Y-77964123D01*
X168147978Y-77112812D01*
X168154356Y-77101132D01*
X168884408Y-77101132D01*
X168884539Y-77102965D01*
X168888790Y-77109580D01*
X169740290Y-77961080D01*
X169752670Y-77967840D01*
X169760320Y-77962113D01*
X169865205Y-77790958D01*
X169869687Y-77782163D01*
X169956734Y-77572012D01*
X169959783Y-77562627D01*
X170012885Y-77341446D01*
X170014428Y-77331699D01*
X170032275Y-77104930D01*
X170032275Y-77095070D01*
X170014428Y-76868301D01*
X170012885Y-76858554D01*
X169959783Y-76637373D01*
X169956734Y-76627988D01*
X169869687Y-76417837D01*
X169865205Y-76409042D01*
X169762568Y-76241555D01*
X169752110Y-76232093D01*
X169743334Y-76235876D01*
X168892022Y-77087188D01*
X168884408Y-77101132D01*
X168154356Y-77101132D01*
X168155592Y-77098868D01*
X168155461Y-77097035D01*
X168151210Y-77090420D01*
X167299710Y-76238920D01*
X167282898Y-76229740D01*
X167219650Y-76215980D01*
X167184225Y-76187224D01*
X167053177Y-76033787D01*
X167049969Y-76030031D01*
X166869416Y-75875824D01*
X166865201Y-75873241D01*
X166865193Y-75873235D01*
X166856471Y-75867890D01*
X167652093Y-75867890D01*
X167655876Y-75876666D01*
X168507188Y-76727978D01*
X168521132Y-76735592D01*
X168522965Y-76735461D01*
X168529580Y-76731210D01*
X169381080Y-75879710D01*
X169387840Y-75867330D01*
X169382113Y-75859680D01*
X169210958Y-75754795D01*
X169202163Y-75750313D01*
X168992012Y-75663266D01*
X168982627Y-75660217D01*
X168761446Y-75607115D01*
X168751699Y-75605572D01*
X168524930Y-75587725D01*
X168515070Y-75587725D01*
X168288301Y-75605572D01*
X168278554Y-75607115D01*
X168057373Y-75660217D01*
X168047988Y-75663266D01*
X167837837Y-75750313D01*
X167829042Y-75754795D01*
X167661555Y-75857432D01*
X167652093Y-75867890D01*
X166856471Y-75867890D01*
X166748665Y-75801826D01*
X166701034Y-75749179D01*
X166688500Y-75694394D01*
X166688500Y-67744210D01*
X166690171Y-67726529D01*
X166691063Y-67723735D01*
X166693623Y-67686186D01*
X166695441Y-67671797D01*
X166700911Y-67642283D01*
X166700911Y-67642281D01*
X166702295Y-67634814D01*
X166700382Y-67601634D01*
X166700465Y-67585814D01*
X166702210Y-67560224D01*
X166702210Y-67560220D01*
X166702726Y-67552648D01*
X166701421Y-67545172D01*
X166701421Y-67545166D01*
X166696257Y-67515578D01*
X166694590Y-67501172D01*
X166693020Y-67473955D01*
X166692424Y-67463615D01*
X166684915Y-67439205D01*
X166682652Y-67431851D01*
X166678958Y-67416464D01*
X166674549Y-67391200D01*
X166674549Y-67391199D01*
X166673243Y-67383717D01*
X166658119Y-67349263D01*
X166653063Y-67335668D01*
X166644235Y-67306971D01*
X166644233Y-67306967D01*
X166642001Y-67299711D01*
X166624930Y-67271188D01*
X166617676Y-67257132D01*
X166607369Y-67233652D01*
X166607369Y-67233651D01*
X166604315Y-67226695D01*
X166581408Y-67196842D01*
X166573255Y-67184844D01*
X166557840Y-67159087D01*
X166557839Y-67159086D01*
X166553937Y-67152566D01*
X166525692Y-67124024D01*
X166524787Y-67123052D01*
X166524011Y-67122041D01*
X166497417Y-67095447D01*
X166496951Y-67094980D01*
X166436408Y-67033799D01*
X166436403Y-67033795D01*
X166433316Y-67030675D01*
X166431988Y-67029861D01*
X166430552Y-67028582D01*
X163721450Y-64319480D01*
X163715596Y-64313215D01*
X163708672Y-64305278D01*
X163677561Y-64269615D01*
X163625280Y-64232871D01*
X163619986Y-64228939D01*
X163575693Y-64194209D01*
X163569718Y-64189524D01*
X163562802Y-64186401D01*
X163560516Y-64185017D01*
X163545835Y-64176643D01*
X163543475Y-64175378D01*
X163537261Y-64171010D01*
X163530182Y-64168250D01*
X163530180Y-64168249D01*
X163477725Y-64147798D01*
X163471656Y-64145247D01*
X163413427Y-64118955D01*
X163405960Y-64117571D01*
X163403405Y-64116770D01*
X163387152Y-64112141D01*
X163384572Y-64111478D01*
X163377491Y-64108718D01*
X163369960Y-64107727D01*
X163369958Y-64107726D01*
X163340339Y-64103827D01*
X163314139Y-64100378D01*
X163307641Y-64099348D01*
X163244814Y-64087704D01*
X163237234Y-64088141D01*
X163237233Y-64088141D01*
X163182608Y-64091291D01*
X163175354Y-64091500D01*
X154311405Y-64091500D01*
X154243284Y-64071498D01*
X154237344Y-64067436D01*
X154162094Y-64012763D01*
X154162093Y-64012762D01*
X154156752Y-64008882D01*
X154150724Y-64006198D01*
X154150722Y-64006197D01*
X153988319Y-63933891D01*
X153988318Y-63933891D01*
X153982288Y-63931206D01*
X153888888Y-63911353D01*
X153801944Y-63892872D01*
X153801939Y-63892872D01*
X153795487Y-63891500D01*
X153604513Y-63891500D01*
X153598061Y-63892872D01*
X153598056Y-63892872D01*
X153511112Y-63911353D01*
X153417712Y-63931206D01*
X153411682Y-63933891D01*
X153411681Y-63933891D01*
X153249278Y-64006197D01*
X153249276Y-64006198D01*
X153243248Y-64008882D01*
X153088747Y-64121134D01*
X153084326Y-64126044D01*
X153084325Y-64126045D01*
X152989144Y-64231755D01*
X152960960Y-64263056D01*
X152953869Y-64275338D01*
X152876599Y-64409174D01*
X152865473Y-64428444D01*
X152806458Y-64610072D01*
X152805768Y-64616633D01*
X152805768Y-64616635D01*
X152800723Y-64664635D01*
X152786496Y-64800000D01*
X152787186Y-64806565D01*
X152800309Y-64931419D01*
X152806458Y-64989928D01*
X152865473Y-65171556D01*
X152960960Y-65336944D01*
X153088747Y-65478866D01*
X153243248Y-65591118D01*
X153249276Y-65593802D01*
X153249278Y-65593803D01*
X153411681Y-65666109D01*
X153417712Y-65668794D01*
X153511113Y-65688647D01*
X153598056Y-65707128D01*
X153598061Y-65707128D01*
X153604513Y-65708500D01*
X153795487Y-65708500D01*
X153801939Y-65707128D01*
X153801944Y-65707128D01*
X153888887Y-65688647D01*
X153982288Y-65668794D01*
X153988319Y-65666109D01*
X154150722Y-65593803D01*
X154150724Y-65593802D01*
X154156752Y-65591118D01*
X154237344Y-65532564D01*
X154304211Y-65508706D01*
X154311405Y-65508500D01*
X162854340Y-65508500D01*
X162922461Y-65528502D01*
X162943435Y-65545405D01*
X165234595Y-67836565D01*
X165268621Y-67898877D01*
X165271500Y-67925660D01*
X165271500Y-75694394D01*
X165251498Y-75762515D01*
X165211335Y-75801826D01*
X165094807Y-75873235D01*
X165094799Y-75873241D01*
X165090584Y-75875824D01*
X164910031Y-76030031D01*
X164906823Y-76033787D01*
X164906818Y-76033792D01*
X164805811Y-76152056D01*
X164746361Y-76190866D01*
X164675366Y-76191372D01*
X164614189Y-76152056D01*
X164513182Y-76033792D01*
X164513177Y-76033787D01*
X164509969Y-76030031D01*
X164329416Y-75875824D01*
X164325201Y-75873241D01*
X164325193Y-75873235D01*
X164208665Y-75801826D01*
X164161034Y-75749179D01*
X164148500Y-75694394D01*
X164148500Y-68668912D01*
X164148792Y-68660342D01*
X164152209Y-68610224D01*
X164152209Y-68610220D01*
X164152725Y-68602648D01*
X164141739Y-68539703D01*
X164140777Y-68533182D01*
X164138873Y-68517447D01*
X164133102Y-68469758D01*
X164130416Y-68462650D01*
X164129779Y-68460056D01*
X164125318Y-68443750D01*
X164124548Y-68441199D01*
X164123242Y-68433716D01*
X164097561Y-68375212D01*
X164095069Y-68369105D01*
X164075173Y-68316452D01*
X164075173Y-68316451D01*
X164072487Y-68309344D01*
X164068184Y-68303083D01*
X164066947Y-68300717D01*
X164058720Y-68285937D01*
X164057369Y-68283652D01*
X164054315Y-68276695D01*
X164049695Y-68270675D01*
X164049692Y-68270669D01*
X164015421Y-68226009D01*
X164011541Y-68220668D01*
X163979661Y-68174280D01*
X163979656Y-68174275D01*
X163975357Y-68168019D01*
X163928829Y-68126564D01*
X163923554Y-68121584D01*
X162021450Y-66219480D01*
X162015596Y-66213215D01*
X162015201Y-66212762D01*
X161977561Y-66169615D01*
X161925280Y-66132871D01*
X161919986Y-66128939D01*
X161875693Y-66094209D01*
X161869718Y-66089524D01*
X161862802Y-66086401D01*
X161860516Y-66085017D01*
X161845835Y-66076643D01*
X161843475Y-66075378D01*
X161837261Y-66071010D01*
X161830182Y-66068250D01*
X161830180Y-66068249D01*
X161777725Y-66047798D01*
X161771656Y-66045247D01*
X161713427Y-66018955D01*
X161705960Y-66017571D01*
X161703405Y-66016770D01*
X161687152Y-66012141D01*
X161684572Y-66011478D01*
X161677491Y-66008718D01*
X161669960Y-66007727D01*
X161669958Y-66007726D01*
X161640339Y-66003827D01*
X161614139Y-66000378D01*
X161607641Y-65999348D01*
X161544814Y-65987704D01*
X161537234Y-65988141D01*
X161537233Y-65988141D01*
X161482608Y-65991291D01*
X161475354Y-65991500D01*
X141745660Y-65991500D01*
X141677539Y-65971498D01*
X141656565Y-65954595D01*
X138245405Y-62543435D01*
X138211379Y-62481123D01*
X138208500Y-62454340D01*
X138208500Y-61418744D01*
X138228502Y-61350623D01*
X138232564Y-61344683D01*
X138234621Y-61341852D01*
X138239040Y-61336944D01*
X138334527Y-61171556D01*
X138393542Y-60989928D01*
X138408774Y-60845007D01*
X138435787Y-60779350D01*
X138494009Y-60738721D01*
X138564954Y-60736018D01*
X138623179Y-60769083D01*
X139446343Y-61592247D01*
X139453887Y-61600537D01*
X139458000Y-61607018D01*
X139463777Y-61612443D01*
X139507667Y-61653658D01*
X139510509Y-61656413D01*
X139530231Y-61676135D01*
X139533355Y-61678558D01*
X139533359Y-61678562D01*
X139533424Y-61678612D01*
X139542445Y-61686317D01*
X139574679Y-61716586D01*
X139581627Y-61720405D01*
X139581629Y-61720407D01*
X139592432Y-61726346D01*
X139608959Y-61737202D01*
X139618698Y-61744757D01*
X139618700Y-61744758D01*
X139624960Y-61749614D01*
X139665540Y-61767174D01*
X139676188Y-61772391D01*
X139688725Y-61779283D01*
X139714940Y-61793695D01*
X139722616Y-61795666D01*
X139722619Y-61795667D01*
X139734562Y-61798733D01*
X139753266Y-61805137D01*
X139761357Y-61808638D01*
X139771855Y-61813181D01*
X139779678Y-61814420D01*
X139779688Y-61814423D01*
X139815524Y-61820099D01*
X139827144Y-61822505D01*
X139853759Y-61829338D01*
X139869970Y-61833500D01*
X139890224Y-61833500D01*
X139909934Y-61835051D01*
X139929943Y-61838220D01*
X139937835Y-61837474D01*
X139973961Y-61834059D01*
X139985819Y-61833500D01*
X167735406Y-61833500D01*
X167803527Y-61853502D01*
X167824501Y-61870405D01*
X168379595Y-62425499D01*
X168413621Y-62487811D01*
X168416500Y-62514594D01*
X168416500Y-72321233D01*
X168415973Y-72332416D01*
X168414298Y-72339909D01*
X168414547Y-72347835D01*
X168414547Y-72347836D01*
X168416438Y-72407986D01*
X168416500Y-72411945D01*
X168416500Y-72439856D01*
X168416997Y-72443790D01*
X168416997Y-72443791D01*
X168417005Y-72443856D01*
X168417938Y-72455693D01*
X168419327Y-72499889D01*
X168424978Y-72519339D01*
X168428987Y-72538700D01*
X168431526Y-72558797D01*
X168434445Y-72566168D01*
X168434445Y-72566170D01*
X168447804Y-72599912D01*
X168451649Y-72611142D01*
X168463982Y-72653593D01*
X168468015Y-72660412D01*
X168468017Y-72660417D01*
X168474293Y-72671028D01*
X168482988Y-72688776D01*
X168490448Y-72707617D01*
X168495110Y-72714033D01*
X168495110Y-72714034D01*
X168516436Y-72743387D01*
X168522952Y-72753307D01*
X168537476Y-72777865D01*
X168545458Y-72791362D01*
X168559779Y-72805683D01*
X168572619Y-72820716D01*
X168584528Y-72837107D01*
X168590634Y-72842158D01*
X168618605Y-72865298D01*
X168627384Y-72873288D01*
X169946348Y-74192253D01*
X169953888Y-74200539D01*
X169958000Y-74207018D01*
X169963777Y-74212443D01*
X170007651Y-74253643D01*
X170010493Y-74256398D01*
X170030230Y-74276135D01*
X170033427Y-74278615D01*
X170042447Y-74286318D01*
X170074679Y-74316586D01*
X170081625Y-74320405D01*
X170081628Y-74320407D01*
X170092434Y-74326348D01*
X170108953Y-74337199D01*
X170124959Y-74349614D01*
X170132228Y-74352759D01*
X170132232Y-74352762D01*
X170165537Y-74367174D01*
X170176187Y-74372391D01*
X170214940Y-74393695D01*
X170222615Y-74395666D01*
X170222616Y-74395666D01*
X170234562Y-74398733D01*
X170253266Y-74405137D01*
X170255448Y-74406081D01*
X170271855Y-74413181D01*
X170279678Y-74414420D01*
X170279688Y-74414423D01*
X170315524Y-74420099D01*
X170327144Y-74422505D01*
X170362289Y-74431528D01*
X170369970Y-74433500D01*
X170390224Y-74433500D01*
X170409934Y-74435051D01*
X170429943Y-74438220D01*
X170437835Y-74437474D01*
X170449263Y-74436394D01*
X170473962Y-74434059D01*
X170485819Y-74433500D01*
X174046233Y-74433500D01*
X174057416Y-74434027D01*
X174064909Y-74435702D01*
X174072835Y-74435453D01*
X174072836Y-74435453D01*
X174132986Y-74433562D01*
X174136945Y-74433500D01*
X175748134Y-74433500D01*
X175810316Y-74426745D01*
X175946705Y-74375615D01*
X176063261Y-74288261D01*
X176150615Y-74171705D01*
X176201745Y-74035316D01*
X176208500Y-73973134D01*
X176208500Y-72176866D01*
X176201745Y-72114684D01*
X176150615Y-71978295D01*
X176063261Y-71861739D01*
X175946705Y-71774385D01*
X175827687Y-71729767D01*
X175770923Y-71687125D01*
X175746223Y-71620564D01*
X175761430Y-71551215D01*
X175782977Y-71522535D01*
X175884052Y-71421812D01*
X175890730Y-71413965D01*
X176015003Y-71241020D01*
X176020313Y-71232183D01*
X176114670Y-71041267D01*
X176118469Y-71031672D01*
X176180377Y-70827910D01*
X176182555Y-70817837D01*
X176183986Y-70806962D01*
X176181775Y-70792778D01*
X176168617Y-70789000D01*
X173533225Y-70789000D01*
X173519694Y-70792973D01*
X173518257Y-70802966D01*
X173548565Y-70937446D01*
X173551645Y-70947275D01*
X173631770Y-71144603D01*
X173636413Y-71153794D01*
X173747694Y-71335388D01*
X173753777Y-71343699D01*
X173893213Y-71504667D01*
X173900577Y-71511879D01*
X173905522Y-71515985D01*
X173945156Y-71574889D01*
X173946653Y-71645870D01*
X173909537Y-71706392D01*
X173869264Y-71730910D01*
X173761705Y-71771232D01*
X173761704Y-71771233D01*
X173753295Y-71774385D01*
X173636739Y-71861739D01*
X173549385Y-71978295D01*
X173498255Y-72114684D01*
X173491500Y-72176866D01*
X173491500Y-73040500D01*
X173471498Y-73108621D01*
X173417842Y-73155114D01*
X173365500Y-73166500D01*
X170764594Y-73166500D01*
X170696473Y-73146498D01*
X170675503Y-73129599D01*
X169720403Y-72174498D01*
X169686379Y-72112188D01*
X169683500Y-72085405D01*
X169683500Y-70269183D01*
X173514389Y-70269183D01*
X173515912Y-70277607D01*
X173528292Y-70281000D01*
X174577885Y-70281000D01*
X174593124Y-70276525D01*
X174594329Y-70275135D01*
X174596000Y-70267452D01*
X174596000Y-70262885D01*
X175104000Y-70262885D01*
X175108475Y-70278124D01*
X175109865Y-70279329D01*
X175117548Y-70281000D01*
X176168344Y-70281000D01*
X176181875Y-70277027D01*
X176183180Y-70267947D01*
X176141214Y-70100875D01*
X176137894Y-70091124D01*
X176052972Y-69895814D01*
X176048105Y-69886739D01*
X175932426Y-69707926D01*
X175926136Y-69699757D01*
X175782806Y-69542240D01*
X175775273Y-69535215D01*
X175608139Y-69403222D01*
X175599552Y-69397517D01*
X175413117Y-69294599D01*
X175403705Y-69290369D01*
X175202959Y-69219280D01*
X175192988Y-69216646D01*
X175121837Y-69203972D01*
X175108540Y-69205432D01*
X175104000Y-69219989D01*
X175104000Y-70262885D01*
X174596000Y-70262885D01*
X174596000Y-69218102D01*
X174592082Y-69204758D01*
X174577806Y-69202771D01*
X174539324Y-69208660D01*
X174529288Y-69211051D01*
X174326868Y-69277212D01*
X174317359Y-69281209D01*
X174128463Y-69379542D01*
X174119738Y-69385036D01*
X173949433Y-69512905D01*
X173941726Y-69519748D01*
X173794590Y-69673717D01*
X173788104Y-69681727D01*
X173668098Y-69857649D01*
X173663000Y-69866623D01*
X173573338Y-70059783D01*
X173569775Y-70069470D01*
X173514389Y-70269183D01*
X169683500Y-70269183D01*
X169683500Y-62278768D01*
X169684027Y-62267585D01*
X169685702Y-62260092D01*
X169683562Y-62192001D01*
X169683500Y-62188044D01*
X169683500Y-62160144D01*
X169682996Y-62156153D01*
X169682063Y-62144311D01*
X169682024Y-62143051D01*
X169680674Y-62100111D01*
X169675021Y-62080652D01*
X169671012Y-62061293D01*
X169670846Y-62059983D01*
X169668474Y-62041203D01*
X169665558Y-62033837D01*
X169665556Y-62033831D01*
X169652200Y-62000098D01*
X169648355Y-61988868D01*
X169638230Y-61954017D01*
X169638230Y-61954016D01*
X169636019Y-61946407D01*
X169625705Y-61928966D01*
X169617008Y-61911213D01*
X169612472Y-61899758D01*
X169609552Y-61892383D01*
X169583563Y-61856612D01*
X169577047Y-61846692D01*
X169554542Y-61808638D01*
X169540221Y-61794317D01*
X169527380Y-61779283D01*
X169515472Y-61762893D01*
X169509368Y-61757843D01*
X169509363Y-61757838D01*
X169481402Y-61734707D01*
X169472621Y-61726717D01*
X168825517Y-61079612D01*
X171890743Y-61079612D01*
X171891302Y-61083856D01*
X171891302Y-61083860D01*
X171902020Y-61165271D01*
X171928268Y-61364643D01*
X171929401Y-61368783D01*
X171929401Y-61368785D01*
X171943068Y-61418744D01*
X172004129Y-61641945D01*
X172005813Y-61645893D01*
X172112766Y-61896638D01*
X172116923Y-61906385D01*
X172190849Y-62029906D01*
X172259319Y-62144311D01*
X172264561Y-62153070D01*
X172444313Y-62377437D01*
X172533850Y-62462404D01*
X172619239Y-62543435D01*
X172652851Y-62575332D01*
X172886317Y-62743095D01*
X172890112Y-62745104D01*
X172890113Y-62745105D01*
X172911869Y-62756624D01*
X173140392Y-62877621D01*
X173159381Y-62884570D01*
X173393491Y-62970242D01*
X173410373Y-62976420D01*
X173691264Y-63037664D01*
X173719841Y-63039913D01*
X173914282Y-63055216D01*
X173914291Y-63055216D01*
X173916739Y-63055409D01*
X174072271Y-63055409D01*
X174074407Y-63055263D01*
X174074418Y-63055263D01*
X174282548Y-63041074D01*
X174282554Y-63041073D01*
X174286825Y-63040782D01*
X174291020Y-63039913D01*
X174291022Y-63039913D01*
X174427583Y-63011633D01*
X174568342Y-62982483D01*
X174839343Y-62886516D01*
X175094812Y-62754659D01*
X175098313Y-62752198D01*
X175098317Y-62752196D01*
X175212417Y-62672005D01*
X175330023Y-62589350D01*
X175456979Y-62471375D01*
X175537479Y-62396570D01*
X175537481Y-62396567D01*
X175540622Y-62393649D01*
X175722713Y-62171177D01*
X175872927Y-61926051D01*
X175879441Y-61911213D01*
X175986757Y-61666739D01*
X175988483Y-61662807D01*
X176067244Y-61386315D01*
X176107751Y-61101693D01*
X176107777Y-61096857D01*
X176109235Y-60818492D01*
X176109235Y-60818485D01*
X176109257Y-60814206D01*
X176107585Y-60801502D01*
X176077350Y-60571851D01*
X176071732Y-60529175D01*
X176065243Y-60505453D01*
X176030594Y-60378800D01*
X175995871Y-60251873D01*
X175943591Y-60129305D01*
X175884763Y-59991385D01*
X175884761Y-59991381D01*
X175883077Y-59987433D01*
X175789589Y-59831226D01*
X175737643Y-59744430D01*
X175737640Y-59744426D01*
X175735439Y-59740748D01*
X175555687Y-59516381D01*
X175347149Y-59318486D01*
X175113683Y-59150723D01*
X175091843Y-59139159D01*
X175032270Y-59107617D01*
X174859608Y-59016197D01*
X174681258Y-58950930D01*
X174593658Y-58918873D01*
X174593656Y-58918872D01*
X174589627Y-58917398D01*
X174308736Y-58856154D01*
X174277685Y-58853710D01*
X174085718Y-58838602D01*
X174085709Y-58838602D01*
X174083261Y-58838409D01*
X173927729Y-58838409D01*
X173925593Y-58838555D01*
X173925582Y-58838555D01*
X173717452Y-58852744D01*
X173717446Y-58852745D01*
X173713175Y-58853036D01*
X173708980Y-58853905D01*
X173708978Y-58853905D01*
X173572416Y-58882186D01*
X173431658Y-58911335D01*
X173160657Y-59007302D01*
X173146281Y-59014722D01*
X172948828Y-59116635D01*
X172905188Y-59139159D01*
X172901687Y-59141620D01*
X172901683Y-59141622D01*
X172822927Y-59196973D01*
X172669977Y-59304468D01*
X172654892Y-59318486D01*
X172463643Y-59496206D01*
X172459378Y-59500169D01*
X172277287Y-59722641D01*
X172127073Y-59967767D01*
X172011517Y-60231011D01*
X171932756Y-60507503D01*
X171915256Y-60630467D01*
X171892900Y-60787554D01*
X171892249Y-60792125D01*
X171892227Y-60796414D01*
X171892226Y-60796421D01*
X171890765Y-61075326D01*
X171890743Y-61079612D01*
X168825517Y-61079612D01*
X168553647Y-60807742D01*
X168546113Y-60799463D01*
X168542000Y-60792982D01*
X168492348Y-60746356D01*
X168489507Y-60743602D01*
X168469770Y-60723865D01*
X168466573Y-60721385D01*
X168457551Y-60713680D01*
X168431100Y-60688841D01*
X168425321Y-60683414D01*
X168418375Y-60679595D01*
X168418372Y-60679593D01*
X168407566Y-60673652D01*
X168391047Y-60662801D01*
X168390583Y-60662441D01*
X168375041Y-60650386D01*
X168367772Y-60647241D01*
X168367768Y-60647238D01*
X168334463Y-60632826D01*
X168323813Y-60627609D01*
X168285060Y-60606305D01*
X168275281Y-60603794D01*
X168265438Y-60601267D01*
X168246734Y-60594863D01*
X168235420Y-60589967D01*
X168235419Y-60589967D01*
X168228145Y-60586819D01*
X168220322Y-60585580D01*
X168220312Y-60585577D01*
X168184476Y-60579901D01*
X168172856Y-60577495D01*
X168137711Y-60568472D01*
X168137710Y-60568472D01*
X168130030Y-60566500D01*
X168109776Y-60566500D01*
X168090065Y-60564949D01*
X168077886Y-60563020D01*
X168070057Y-60561780D01*
X168062165Y-60562526D01*
X168026039Y-60565941D01*
X168014181Y-60566500D01*
X140264594Y-60566500D01*
X140196473Y-60546498D01*
X140175499Y-60529595D01*
X138220405Y-58574500D01*
X138186379Y-58512188D01*
X138183500Y-58485405D01*
X138183500Y-57502524D01*
X138203502Y-57434403D01*
X138215858Y-57418221D01*
X138289040Y-57336944D01*
X138384527Y-57171556D01*
X138443542Y-56989928D01*
X138447097Y-56956109D01*
X138462814Y-56806565D01*
X138463504Y-56800000D01*
X138443542Y-56610072D01*
X138384527Y-56428444D01*
X138289040Y-56263056D01*
X138161253Y-56121134D01*
X138006752Y-56008882D01*
X138000724Y-56006198D01*
X138000722Y-56006197D01*
X137838319Y-55933891D01*
X137838318Y-55933891D01*
X137832288Y-55931206D01*
X137738888Y-55911353D01*
X137651944Y-55892872D01*
X137651939Y-55892872D01*
X137645487Y-55891500D01*
X137454513Y-55891500D01*
X137448061Y-55892872D01*
X137448056Y-55892872D01*
X137361112Y-55911353D01*
X137267712Y-55931206D01*
X137261682Y-55933891D01*
X137261681Y-55933891D01*
X137099278Y-56006197D01*
X137099276Y-56006198D01*
X137093248Y-56008882D01*
X136938747Y-56121134D01*
X136810960Y-56263056D01*
X136715473Y-56428444D01*
X136656458Y-56610072D01*
X136636496Y-56800000D01*
X136637186Y-56806565D01*
X136652904Y-56956109D01*
X136656458Y-56989928D01*
X136715473Y-57171556D01*
X136810960Y-57336944D01*
X136884137Y-57418215D01*
X136914853Y-57482221D01*
X136916500Y-57502524D01*
X136916500Y-58721233D01*
X136915973Y-58732416D01*
X136914298Y-58739909D01*
X136914547Y-58747835D01*
X136914547Y-58747836D01*
X136916438Y-58807986D01*
X136916500Y-58811945D01*
X136916500Y-58839856D01*
X136916997Y-58843790D01*
X136916997Y-58843791D01*
X136917005Y-58843856D01*
X136917938Y-58855693D01*
X136919327Y-58899889D01*
X136924978Y-58919339D01*
X136928987Y-58938700D01*
X136931526Y-58958797D01*
X136934445Y-58966168D01*
X136934445Y-58966170D01*
X136947804Y-58999912D01*
X136951649Y-59011142D01*
X136960812Y-59042681D01*
X136963982Y-59053593D01*
X136968015Y-59060412D01*
X136968017Y-59060417D01*
X136974293Y-59071028D01*
X136982988Y-59088776D01*
X136990448Y-59107617D01*
X136995110Y-59114033D01*
X136995110Y-59114034D01*
X137016436Y-59143387D01*
X137022952Y-59153307D01*
X137033745Y-59171556D01*
X137045458Y-59191362D01*
X137059779Y-59205683D01*
X137072619Y-59220716D01*
X137084528Y-59237107D01*
X137090634Y-59242158D01*
X137118605Y-59265298D01*
X137127384Y-59273288D01*
X137530501Y-59676405D01*
X137564527Y-59738717D01*
X137559462Y-59809532D01*
X137516915Y-59866368D01*
X137450395Y-59891179D01*
X137441406Y-59891500D01*
X137404513Y-59891500D01*
X137398061Y-59892872D01*
X137398056Y-59892872D01*
X137311112Y-59911353D01*
X137217712Y-59931206D01*
X137211682Y-59933891D01*
X137211681Y-59933891D01*
X137049278Y-60006197D01*
X137049276Y-60006198D01*
X137043248Y-60008882D01*
X137037907Y-60012762D01*
X137037906Y-60012763D01*
X137003153Y-60038013D01*
X136888747Y-60121134D01*
X136884326Y-60126044D01*
X136884325Y-60126045D01*
X136786097Y-60235139D01*
X136760960Y-60263056D01*
X136665473Y-60428444D01*
X136606458Y-60610072D01*
X136605768Y-60616633D01*
X136605768Y-60616635D01*
X136598179Y-60688841D01*
X136586496Y-60800000D01*
X131568965Y-60800000D01*
X131586529Y-60666590D01*
X131588050Y-60604334D01*
X131588074Y-60603365D01*
X131588074Y-60603361D01*
X131588156Y-60600000D01*
X131569852Y-60377361D01*
X131561616Y-60344570D01*
X131518949Y-60174706D01*
X131521753Y-60103765D01*
X131562466Y-60045602D01*
X131628161Y-60018683D01*
X131641153Y-60018011D01*
X134111577Y-60018011D01*
X134120147Y-60018303D01*
X134170265Y-60021720D01*
X134170269Y-60021720D01*
X134177841Y-60022236D01*
X134185318Y-60020931D01*
X134185319Y-60020931D01*
X134232119Y-60012763D01*
X134240792Y-60011249D01*
X134247310Y-60010288D01*
X134310731Y-60002613D01*
X134317832Y-59999930D01*
X134320441Y-59999289D01*
X134336751Y-59994826D01*
X134339287Y-59994061D01*
X134346773Y-59992754D01*
X134405289Y-59967067D01*
X134411393Y-59964576D01*
X134412627Y-59964110D01*
X134471145Y-59941998D01*
X134477408Y-59937694D01*
X134479774Y-59936457D01*
X134494586Y-59928212D01*
X134496840Y-59926879D01*
X134503794Y-59923826D01*
X134554491Y-59884924D01*
X134559821Y-59881052D01*
X134606209Y-59849172D01*
X134606214Y-59849167D01*
X134612470Y-59844868D01*
X134653925Y-59798340D01*
X134658905Y-59793065D01*
X134716533Y-59735437D01*
X134779431Y-59701285D01*
X134795589Y-59697850D01*
X134932288Y-59668794D01*
X134940201Y-59665271D01*
X135100722Y-59593803D01*
X135100724Y-59593802D01*
X135106752Y-59591118D01*
X135261253Y-59478866D01*
X135389040Y-59336944D01*
X135464824Y-59205683D01*
X135481223Y-59177279D01*
X135481224Y-59177278D01*
X135484527Y-59171556D01*
X135543542Y-58989928D01*
X135545646Y-58969915D01*
X135562814Y-58806565D01*
X135563504Y-58800000D01*
X135549200Y-58663906D01*
X135544232Y-58616635D01*
X135544232Y-58616633D01*
X135543542Y-58610072D01*
X135484527Y-58428444D01*
X135463990Y-58392872D01*
X135392341Y-58268774D01*
X135389040Y-58263056D01*
X135261253Y-58121134D01*
X135106752Y-58008882D01*
X135100724Y-58006198D01*
X135100722Y-58006197D01*
X134938319Y-57933891D01*
X134938318Y-57933891D01*
X134932288Y-57931206D01*
X134838888Y-57911353D01*
X134751944Y-57892872D01*
X134751939Y-57892872D01*
X134745487Y-57891500D01*
X134554513Y-57891500D01*
X134548061Y-57892872D01*
X134548056Y-57892872D01*
X134461112Y-57911353D01*
X134367712Y-57931206D01*
X134361682Y-57933891D01*
X134361681Y-57933891D01*
X134199278Y-58006197D01*
X134199276Y-58006198D01*
X134193248Y-58008882D01*
X134038747Y-58121134D01*
X133910960Y-58263056D01*
X133815473Y-58428444D01*
X133813432Y-58434726D01*
X133813431Y-58434728D01*
X133787691Y-58513947D01*
X133747618Y-58572553D01*
X133682221Y-58600190D01*
X133667858Y-58601011D01*
X131709500Y-58601011D01*
X131641379Y-58581009D01*
X131594886Y-58527353D01*
X131583500Y-58475011D01*
X131583500Y-57161866D01*
X131576745Y-57099684D01*
X131525615Y-56963295D01*
X131438261Y-56846739D01*
X131321705Y-56759385D01*
X131185316Y-56708255D01*
X131123134Y-56701500D01*
X129326866Y-56701500D01*
X129264684Y-56708255D01*
X129128295Y-56759385D01*
X129011739Y-56846739D01*
X128924385Y-56963295D01*
X128873255Y-57099684D01*
X128866500Y-57161866D01*
X128866500Y-58475011D01*
X128846498Y-58543132D01*
X128792842Y-58589625D01*
X128740500Y-58601011D01*
X114524496Y-58601011D01*
X114456375Y-58581009D01*
X114450435Y-58576947D01*
X114362094Y-58512763D01*
X114362093Y-58512762D01*
X114356752Y-58508882D01*
X114350724Y-58506198D01*
X114350722Y-58506197D01*
X114188319Y-58433891D01*
X114188318Y-58433891D01*
X114182288Y-58431206D01*
X114088887Y-58411353D01*
X114001944Y-58392872D01*
X114001939Y-58392872D01*
X113995487Y-58391500D01*
X113804513Y-58391500D01*
X113798061Y-58392872D01*
X113798056Y-58392872D01*
X113711113Y-58411353D01*
X113617712Y-58431206D01*
X113611682Y-58433891D01*
X113611681Y-58433891D01*
X113449278Y-58506197D01*
X113449276Y-58506198D01*
X113443248Y-58508882D01*
X113437907Y-58512762D01*
X113437906Y-58512763D01*
X113417825Y-58527353D01*
X113288747Y-58621134D01*
X113284326Y-58626044D01*
X113284325Y-58626045D01*
X113181802Y-58739909D01*
X113160960Y-58763056D01*
X113135840Y-58806565D01*
X113075853Y-58910466D01*
X113065473Y-58928444D01*
X113006458Y-59110072D01*
X113005768Y-59116633D01*
X113005768Y-59116635D01*
X112987186Y-59293435D01*
X112986496Y-59300000D01*
X95321423Y-59300000D01*
X95113683Y-59150723D01*
X95091843Y-59139159D01*
X95032270Y-59107617D01*
X94859608Y-59016197D01*
X94681258Y-58950930D01*
X94593658Y-58918873D01*
X94593656Y-58918872D01*
X94589627Y-58917398D01*
X94308736Y-58856154D01*
X94277685Y-58853710D01*
X94085718Y-58838602D01*
X94085709Y-58838602D01*
X94083261Y-58838409D01*
X93927729Y-58838409D01*
X93925593Y-58838555D01*
X93925582Y-58838555D01*
X93717452Y-58852744D01*
X93717446Y-58852745D01*
X93713175Y-58853036D01*
X93708980Y-58853905D01*
X93708978Y-58853905D01*
X93572416Y-58882186D01*
X93431658Y-58911335D01*
X93160657Y-59007302D01*
X93146281Y-59014722D01*
X92948828Y-59116635D01*
X92905188Y-59139159D01*
X92901687Y-59141620D01*
X92901683Y-59141622D01*
X92822927Y-59196973D01*
X92669977Y-59304468D01*
X92654892Y-59318486D01*
X92463643Y-59496206D01*
X92459378Y-59500169D01*
X92277287Y-59722641D01*
X92127073Y-59967767D01*
X92011517Y-60231011D01*
X91932756Y-60507503D01*
X91915256Y-60630467D01*
X91892900Y-60787554D01*
X91892249Y-60792125D01*
X91892227Y-60796414D01*
X91892226Y-60796421D01*
X91890765Y-61075326D01*
X91890743Y-61079612D01*
X90508000Y-61079612D01*
X90508000Y-59053207D01*
X90509746Y-59032303D01*
X90512264Y-59017335D01*
X90513071Y-59012539D01*
X90513224Y-59000000D01*
X90511048Y-58984804D01*
X90509927Y-58960763D01*
X90511495Y-58928861D01*
X90524512Y-58663900D01*
X90525723Y-58651601D01*
X90529514Y-58626045D01*
X90574191Y-58324861D01*
X90576601Y-58312743D01*
X90590277Y-58258148D01*
X90656862Y-57992324D01*
X90660451Y-57980493D01*
X90771725Y-57669506D01*
X90776456Y-57658082D01*
X90917685Y-57359477D01*
X90923514Y-57348572D01*
X91093328Y-57065255D01*
X91100198Y-57054974D01*
X91296960Y-56789671D01*
X91304804Y-56780113D01*
X91526626Y-56535370D01*
X91535370Y-56526626D01*
X91780113Y-56304804D01*
X91789671Y-56296960D01*
X92054974Y-56100198D01*
X92065255Y-56093328D01*
X92348572Y-55923514D01*
X92359477Y-55917685D01*
X92658082Y-55776456D01*
X92669506Y-55771725D01*
X92980493Y-55660451D01*
X92992326Y-55656861D01*
X93312751Y-55576599D01*
X93324861Y-55574191D01*
X93651606Y-55525722D01*
X93663902Y-55524511D01*
X93752656Y-55520151D01*
X93957062Y-55510110D01*
X93982624Y-55511457D01*
X93984857Y-55511805D01*
X93984861Y-55511805D01*
X93993730Y-55513186D01*
X94002632Y-55512022D01*
X94002635Y-55512022D01*
X94022791Y-55509386D01*
X94025252Y-55509064D01*
X94041589Y-55508000D01*
X173950672Y-55508000D01*
X173970057Y-55509500D01*
G37*
%TD.AperFunction*%
%TD*%
M02*
