%TF.GenerationSoftware,KiCad,Pcbnew,(6.0.0)*%
%TF.CreationDate,2022-05-15T20:33:26+08:00*%
%TF.ProjectId,Solder-Reflow-Plate-ESP32,536f6c64-6572-42d5-9265-666c6f772d50,rev?*%
%TF.SameCoordinates,Original*%
%TF.FileFunction,Legend,Top*%
%TF.FilePolarity,Positive*%
%FSLAX46Y46*%
G04 Gerber Fmt 4.6, Leading zero omitted, Abs format (unit mm)*
G04 Created by KiCad (PCBNEW (6.0.0)) date 2022-05-15 20:33:26*
%MOMM*%
%LPD*%
G01*
G04 APERTURE LIST*
%ADD10C,0.150000*%
%ADD11C,0.120000*%
%ADD12C,0.250000*%
%ADD13C,0.100000*%
%ADD14C,0.500000*%
G04 APERTURE END LIST*
D10*
X114710000Y-70285714D02*
X114781428Y-70357142D01*
X114710000Y-70428571D01*
X114638571Y-70357142D01*
X114710000Y-70285714D01*
X114710000Y-70428571D01*
X127916666Y-72752380D02*
X128250000Y-73752380D01*
X128583333Y-72752380D01*
X116769047Y-79971428D02*
X117530952Y-79971428D01*
X117150000Y-80352380D02*
X117150000Y-79590476D01*
X144850000Y-79400000D02*
X144050000Y-79400000D01*
X144050000Y-79400000D02*
X144050000Y-79100000D01*
X144050000Y-79100000D02*
X144450000Y-79100000D01*
X144450000Y-79100000D02*
X144450000Y-78700000D01*
X144450000Y-78700000D02*
X144050000Y-78700000D01*
X144050000Y-78700000D02*
X144050000Y-78300000D01*
X144050000Y-78300000D02*
X144850000Y-78300000D01*
X144850000Y-78300000D02*
X144850000Y-79400000D01*
G36*
X144850000Y-79400000D02*
G01*
X144050000Y-79400000D01*
X144050000Y-79100000D01*
X144450000Y-79100000D01*
X144450000Y-78700000D01*
X144050000Y-78700000D01*
X144050000Y-78300000D01*
X144850000Y-78300000D01*
X144850000Y-79400000D01*
G37*
X144850000Y-79400000D02*
X144050000Y-79400000D01*
X144050000Y-79100000D01*
X144450000Y-79100000D01*
X144450000Y-78700000D01*
X144050000Y-78700000D01*
X144050000Y-78300000D01*
X144850000Y-78300000D01*
X144850000Y-79400000D01*
X137950000Y-79400000D02*
X137150000Y-79400000D01*
X137150000Y-79400000D02*
X137150000Y-79100000D01*
X137150000Y-79100000D02*
X137550000Y-79100000D01*
X137550000Y-79100000D02*
X137550000Y-78700000D01*
X137550000Y-78700000D02*
X137150000Y-78700000D01*
X137150000Y-78700000D02*
X137150000Y-78300000D01*
X137150000Y-78300000D02*
X137950000Y-78300000D01*
X137950000Y-78300000D02*
X137950000Y-79400000D01*
G36*
X137950000Y-79400000D02*
G01*
X137150000Y-79400000D01*
X137150000Y-79100000D01*
X137550000Y-79100000D01*
X137550000Y-78700000D01*
X137150000Y-78700000D01*
X137150000Y-78300000D01*
X137950000Y-78300000D01*
X137950000Y-79400000D01*
G37*
X137950000Y-79400000D02*
X137150000Y-79400000D01*
X137150000Y-79100000D01*
X137550000Y-79100000D01*
X137550000Y-78700000D01*
X137150000Y-78700000D01*
X137150000Y-78300000D01*
X137950000Y-78300000D01*
X137950000Y-79400000D01*
X152850000Y-73235714D02*
X152921428Y-73307142D01*
X152850000Y-73378571D01*
X152778571Y-73307142D01*
X152850000Y-73235714D01*
X152850000Y-73378571D01*
X109750000Y-69035714D02*
X109821428Y-69107142D01*
X109750000Y-69178571D01*
X109678571Y-69107142D01*
X109750000Y-69035714D01*
X109750000Y-69178571D01*
X93169047Y-73871428D02*
X93930952Y-73871428D01*
X93550000Y-74252380D02*
X93550000Y-73490476D01*
X98800000Y-88400000D02*
X169000000Y-88400000D01*
X169000000Y-88400000D02*
X169000000Y-138400000D01*
X169000000Y-138400000D02*
X98800000Y-138400000D01*
X98800000Y-138400000D02*
X98800000Y-88400000D01*
X127500000Y-68060000D02*
X127500000Y-55560000D01*
X165600000Y-55460000D02*
X127500000Y-55560000D01*
X165600000Y-55460000D02*
X165600000Y-68060000D01*
X165600000Y-68060000D02*
X127500000Y-68060000D01*
X126516666Y-58752380D02*
X126850000Y-59752380D01*
X127183333Y-58752380D01*
X155795238Y-58252380D02*
X155985714Y-58252380D01*
X156080952Y-58300000D01*
X156176190Y-58395238D01*
X156223809Y-58585714D01*
X156223809Y-58919047D01*
X156176190Y-59109523D01*
X156080952Y-59204761D01*
X155985714Y-59252380D01*
X155795238Y-59252380D01*
X155700000Y-59204761D01*
X155604761Y-59109523D01*
X155557142Y-58919047D01*
X155557142Y-58585714D01*
X155604761Y-58395238D01*
X155700000Y-58300000D01*
X155795238Y-58252380D01*
X157128571Y-59252380D02*
X156652380Y-59252380D01*
X156652380Y-58252380D01*
X157461904Y-58728571D02*
X157795238Y-58728571D01*
X157938095Y-59252380D02*
X157461904Y-59252380D01*
X157461904Y-58252380D01*
X157938095Y-58252380D01*
X158366666Y-59252380D02*
X158366666Y-58252380D01*
X158604761Y-58252380D01*
X158747619Y-58300000D01*
X158842857Y-58395238D01*
X158890476Y-58490476D01*
X158938095Y-58680952D01*
X158938095Y-58823809D01*
X158890476Y-59014285D01*
X158842857Y-59109523D01*
X158747619Y-59204761D01*
X158604761Y-59252380D01*
X158366666Y-59252380D01*
X160319047Y-58252380D02*
X160414285Y-58252380D01*
X160509523Y-58300000D01*
X160557142Y-58347619D01*
X160604761Y-58442857D01*
X160652380Y-58633333D01*
X160652380Y-58871428D01*
X160604761Y-59061904D01*
X160557142Y-59157142D01*
X160509523Y-59204761D01*
X160414285Y-59252380D01*
X160319047Y-59252380D01*
X160223809Y-59204761D01*
X160176190Y-59157142D01*
X160128571Y-59061904D01*
X160080952Y-58871428D01*
X160080952Y-58633333D01*
X160128571Y-58442857D01*
X160176190Y-58347619D01*
X160223809Y-58300000D01*
X160319047Y-58252380D01*
X161080952Y-59157142D02*
X161128571Y-59204761D01*
X161080952Y-59252380D01*
X161033333Y-59204761D01*
X161080952Y-59157142D01*
X161080952Y-59252380D01*
X161604761Y-59252380D02*
X161795238Y-59252380D01*
X161890476Y-59204761D01*
X161938095Y-59157142D01*
X162033333Y-59014285D01*
X162080952Y-58823809D01*
X162080952Y-58442857D01*
X162033333Y-58347619D01*
X161985714Y-58300000D01*
X161890476Y-58252380D01*
X161700000Y-58252380D01*
X161604761Y-58300000D01*
X161557142Y-58347619D01*
X161509523Y-58442857D01*
X161509523Y-58680952D01*
X161557142Y-58776190D01*
X161604761Y-58823809D01*
X161700000Y-58871428D01*
X161890476Y-58871428D01*
X161985714Y-58823809D01*
X162033333Y-58776190D01*
X162080952Y-58680952D01*
X162461904Y-58252380D02*
X162461904Y-58442857D01*
X162842857Y-58252380D02*
X162842857Y-58442857D01*
X126638095Y-56852380D02*
X126638095Y-55852380D01*
X126876190Y-55852380D01*
X127019047Y-55900000D01*
X127114285Y-55995238D01*
X127161904Y-56090476D01*
X127209523Y-56280952D01*
X127209523Y-56423809D01*
X127161904Y-56614285D01*
X127114285Y-56709523D01*
X127019047Y-56804761D01*
X126876190Y-56852380D01*
X126638095Y-56852380D01*
X154561904Y-79952380D02*
X155180952Y-79952380D01*
X154847619Y-80333333D01*
X154990476Y-80333333D01*
X155085714Y-80380952D01*
X155133333Y-80428571D01*
X155180952Y-80523809D01*
X155180952Y-80761904D01*
X155133333Y-80857142D01*
X155085714Y-80904761D01*
X154990476Y-80952380D01*
X154704761Y-80952380D01*
X154609523Y-80904761D01*
X154561904Y-80857142D01*
X155466666Y-79952380D02*
X155800000Y-80952380D01*
X156133333Y-79952380D01*
X156371428Y-79952380D02*
X156990476Y-79952380D01*
X156657142Y-80333333D01*
X156800000Y-80333333D01*
X156895238Y-80380952D01*
X156942857Y-80428571D01*
X156990476Y-80523809D01*
X156990476Y-80761904D01*
X156942857Y-80857142D01*
X156895238Y-80904761D01*
X156800000Y-80952380D01*
X156514285Y-80952380D01*
X156419047Y-80904761D01*
X156371428Y-80857142D01*
X160138095Y-79952380D02*
X160709523Y-79952380D01*
X160423809Y-80952380D02*
X160423809Y-79952380D01*
X160947619Y-79952380D02*
X161614285Y-80952380D01*
X161614285Y-79952380D02*
X160947619Y-80952380D01*
X99126190Y-79852380D02*
X99459523Y-80852380D01*
X99792857Y-79852380D01*
X100650000Y-80852380D02*
X100078571Y-80852380D01*
X100364285Y-80852380D02*
X100364285Y-79852380D01*
X100269047Y-79995238D01*
X100173809Y-80090476D01*
X100078571Y-80138095D01*
X101078571Y-80757142D02*
X101126190Y-80804761D01*
X101078571Y-80852380D01*
X101030952Y-80804761D01*
X101078571Y-80757142D01*
X101078571Y-80852380D01*
X102078571Y-80852380D02*
X101507142Y-80852380D01*
X101792857Y-80852380D02*
X101792857Y-79852380D01*
X101697619Y-79995238D01*
X101602380Y-80090476D01*
X101507142Y-80138095D01*
X139319047Y-74852380D02*
X139319047Y-73852380D01*
X139557142Y-73852380D01*
X139700000Y-73900000D01*
X139795238Y-73995238D01*
X139842857Y-74090476D01*
X139890476Y-74280952D01*
X139890476Y-74423809D01*
X139842857Y-74614285D01*
X139795238Y-74709523D01*
X139700000Y-74804761D01*
X139557142Y-74852380D01*
X139319047Y-74852380D01*
X140509523Y-73852380D02*
X140700000Y-73852380D01*
X140795238Y-73900000D01*
X140890476Y-73995238D01*
X140938095Y-74185714D01*
X140938095Y-74519047D01*
X140890476Y-74709523D01*
X140795238Y-74804761D01*
X140700000Y-74852380D01*
X140509523Y-74852380D01*
X140414285Y-74804761D01*
X140319047Y-74709523D01*
X140271428Y-74519047D01*
X140271428Y-74185714D01*
X140319047Y-73995238D01*
X140414285Y-73900000D01*
X140509523Y-73852380D01*
X141271428Y-73852380D02*
X141509523Y-74852380D01*
X141700000Y-74138095D01*
X141890476Y-74852380D01*
X142128571Y-73852380D01*
X142509523Y-74852380D02*
X142509523Y-73852380D01*
X143080952Y-74852380D01*
X143080952Y-73852380D01*
X162761904Y-80328571D02*
X163095238Y-80328571D01*
X163238095Y-80852380D02*
X162761904Y-80852380D01*
X162761904Y-79852380D01*
X163238095Y-79852380D01*
X163666666Y-80852380D02*
X163666666Y-79852380D01*
X164238095Y-80852380D01*
X164238095Y-79852380D01*
X168861904Y-79900000D02*
X168766666Y-79852380D01*
X168623809Y-79852380D01*
X168480952Y-79900000D01*
X168385714Y-79995238D01*
X168338095Y-80090476D01*
X168290476Y-80280952D01*
X168290476Y-80423809D01*
X168338095Y-80614285D01*
X168385714Y-80709523D01*
X168480952Y-80804761D01*
X168623809Y-80852380D01*
X168719047Y-80852380D01*
X168861904Y-80804761D01*
X168909523Y-80757142D01*
X168909523Y-80423809D01*
X168719047Y-80423809D01*
X90697619Y-78028571D02*
X91030952Y-78028571D01*
X91173809Y-78552380D02*
X90697619Y-78552380D01*
X90697619Y-77552380D01*
X91173809Y-77552380D01*
X91554761Y-78504761D02*
X91697619Y-78552380D01*
X91935714Y-78552380D01*
X92030952Y-78504761D01*
X92078571Y-78457142D01*
X92126190Y-78361904D01*
X92126190Y-78266666D01*
X92078571Y-78171428D01*
X92030952Y-78123809D01*
X91935714Y-78076190D01*
X91745238Y-78028571D01*
X91650000Y-77980952D01*
X91602380Y-77933333D01*
X91554761Y-77838095D01*
X91554761Y-77742857D01*
X91602380Y-77647619D01*
X91650000Y-77600000D01*
X91745238Y-77552380D01*
X91983333Y-77552380D01*
X92126190Y-77600000D01*
X92554761Y-78552380D02*
X92554761Y-77552380D01*
X92935714Y-77552380D01*
X93030952Y-77600000D01*
X93078571Y-77647619D01*
X93126190Y-77742857D01*
X93126190Y-77885714D01*
X93078571Y-77980952D01*
X93030952Y-78028571D01*
X92935714Y-78076190D01*
X92554761Y-78076190D01*
X93507142Y-78504761D02*
X93650000Y-78552380D01*
X93888095Y-78552380D01*
X93983333Y-78504761D01*
X94030952Y-78457142D01*
X94078571Y-78361904D01*
X94078571Y-78266666D01*
X94030952Y-78171428D01*
X93983333Y-78123809D01*
X93888095Y-78076190D01*
X93697619Y-78028571D01*
X93602380Y-77980952D01*
X93554761Y-77933333D01*
X93507142Y-77838095D01*
X93507142Y-77742857D01*
X93554761Y-77647619D01*
X93602380Y-77600000D01*
X93697619Y-77552380D01*
X93935714Y-77552380D01*
X94078571Y-77600000D01*
X94650000Y-78552380D02*
X94554761Y-78504761D01*
X94507142Y-78457142D01*
X94459523Y-78361904D01*
X94459523Y-78076190D01*
X94507142Y-77980952D01*
X94554761Y-77933333D01*
X94650000Y-77885714D01*
X94792857Y-77885714D01*
X94888095Y-77933333D01*
X94935714Y-77980952D01*
X94983333Y-78076190D01*
X94983333Y-78361904D01*
X94935714Y-78457142D01*
X94888095Y-78504761D01*
X94792857Y-78552380D01*
X94650000Y-78552380D01*
X95554761Y-78552380D02*
X95459523Y-78504761D01*
X95411904Y-78409523D01*
X95411904Y-77552380D01*
X96364285Y-78552380D02*
X96364285Y-77552380D01*
X96364285Y-78504761D02*
X96269047Y-78552380D01*
X96078571Y-78552380D01*
X95983333Y-78504761D01*
X95935714Y-78457142D01*
X95888095Y-78361904D01*
X95888095Y-78076190D01*
X95935714Y-77980952D01*
X95983333Y-77933333D01*
X96078571Y-77885714D01*
X96269047Y-77885714D01*
X96364285Y-77933333D01*
X97221428Y-78504761D02*
X97126190Y-78552380D01*
X96935714Y-78552380D01*
X96840476Y-78504761D01*
X96792857Y-78409523D01*
X96792857Y-78028571D01*
X96840476Y-77933333D01*
X96935714Y-77885714D01*
X97126190Y-77885714D01*
X97221428Y-77933333D01*
X97269047Y-78028571D01*
X97269047Y-78123809D01*
X96792857Y-78219047D01*
X97697619Y-78552380D02*
X97697619Y-77885714D01*
X97697619Y-78076190D02*
X97745238Y-77980952D01*
X97792857Y-77933333D01*
X97888095Y-77885714D01*
X97983333Y-77885714D01*
X98888095Y-78552380D02*
X98554761Y-78076190D01*
X98316666Y-78552380D02*
X98316666Y-77552380D01*
X98697619Y-77552380D01*
X98792857Y-77600000D01*
X98840476Y-77647619D01*
X98888095Y-77742857D01*
X98888095Y-77885714D01*
X98840476Y-77980952D01*
X98792857Y-78028571D01*
X98697619Y-78076190D01*
X98316666Y-78076190D01*
X99697619Y-78504761D02*
X99602380Y-78552380D01*
X99411904Y-78552380D01*
X99316666Y-78504761D01*
X99269047Y-78409523D01*
X99269047Y-78028571D01*
X99316666Y-77933333D01*
X99411904Y-77885714D01*
X99602380Y-77885714D01*
X99697619Y-77933333D01*
X99745238Y-78028571D01*
X99745238Y-78123809D01*
X99269047Y-78219047D01*
X100030952Y-77885714D02*
X100411904Y-77885714D01*
X100173809Y-78552380D02*
X100173809Y-77695238D01*
X100221428Y-77600000D01*
X100316666Y-77552380D01*
X100411904Y-77552380D01*
X100888095Y-78552380D02*
X100792857Y-78504761D01*
X100745238Y-78409523D01*
X100745238Y-77552380D01*
X101411904Y-78552380D02*
X101316666Y-78504761D01*
X101269047Y-78457142D01*
X101221428Y-78361904D01*
X101221428Y-78076190D01*
X101269047Y-77980952D01*
X101316666Y-77933333D01*
X101411904Y-77885714D01*
X101554761Y-77885714D01*
X101650000Y-77933333D01*
X101697619Y-77980952D01*
X101745238Y-78076190D01*
X101745238Y-78361904D01*
X101697619Y-78457142D01*
X101650000Y-78504761D01*
X101554761Y-78552380D01*
X101411904Y-78552380D01*
X102078571Y-77885714D02*
X102269047Y-78552380D01*
X102459523Y-78076190D01*
X102650000Y-78552380D01*
X102840476Y-77885714D01*
X103221428Y-78552380D02*
X103221428Y-77552380D01*
X103602380Y-77552380D01*
X103697619Y-77600000D01*
X103745238Y-77647619D01*
X103792857Y-77742857D01*
X103792857Y-77885714D01*
X103745238Y-77980952D01*
X103697619Y-78028571D01*
X103602380Y-78076190D01*
X103221428Y-78076190D01*
X104364285Y-78552380D02*
X104269047Y-78504761D01*
X104221428Y-78409523D01*
X104221428Y-77552380D01*
X105173809Y-78552380D02*
X105173809Y-78028571D01*
X105126190Y-77933333D01*
X105030952Y-77885714D01*
X104840476Y-77885714D01*
X104745238Y-77933333D01*
X105173809Y-78504761D02*
X105078571Y-78552380D01*
X104840476Y-78552380D01*
X104745238Y-78504761D01*
X104697619Y-78409523D01*
X104697619Y-78314285D01*
X104745238Y-78219047D01*
X104840476Y-78171428D01*
X105078571Y-78171428D01*
X105173809Y-78123809D01*
X105507142Y-77885714D02*
X105888095Y-77885714D01*
X105650000Y-77552380D02*
X105650000Y-78409523D01*
X105697619Y-78504761D01*
X105792857Y-78552380D01*
X105888095Y-78552380D01*
X106602380Y-78504761D02*
X106507142Y-78552380D01*
X106316666Y-78552380D01*
X106221428Y-78504761D01*
X106173809Y-78409523D01*
X106173809Y-78028571D01*
X106221428Y-77933333D01*
X106316666Y-77885714D01*
X106507142Y-77885714D01*
X106602380Y-77933333D01*
X106650000Y-78028571D01*
X106650000Y-78123809D01*
X106173809Y-78219047D01*
X127109523Y-58257142D02*
X127061904Y-58304761D01*
X126919047Y-58352380D01*
X126823809Y-58352380D01*
X126680952Y-58304761D01*
X126585714Y-58209523D01*
X126538095Y-58114285D01*
X126490476Y-57923809D01*
X126490476Y-57780952D01*
X126538095Y-57590476D01*
X126585714Y-57495238D01*
X126680952Y-57400000D01*
X126823809Y-57352380D01*
X126919047Y-57352380D01*
X127061904Y-57400000D01*
X127109523Y-57447619D01*
X127111904Y-60200000D02*
X127016666Y-60152380D01*
X126873809Y-60152380D01*
X126730952Y-60200000D01*
X126635714Y-60295238D01*
X126588095Y-60390476D01*
X126540476Y-60580952D01*
X126540476Y-60723809D01*
X126588095Y-60914285D01*
X126635714Y-61009523D01*
X126730952Y-61104761D01*
X126873809Y-61152380D01*
X126969047Y-61152380D01*
X127111904Y-61104761D01*
X127159523Y-61057142D01*
X127159523Y-60723809D01*
X126969047Y-60723809D01*
X146914285Y-73952380D02*
X146914285Y-74761904D01*
X146961904Y-74857142D01*
X147009523Y-74904761D01*
X147104761Y-74952380D01*
X147295238Y-74952380D01*
X147390476Y-74904761D01*
X147438095Y-74857142D01*
X147485714Y-74761904D01*
X147485714Y-73952380D01*
X147961904Y-74952380D02*
X147961904Y-73952380D01*
X148342857Y-73952380D01*
X148438095Y-74000000D01*
X148485714Y-74047619D01*
X148533333Y-74142857D01*
X148533333Y-74285714D01*
X148485714Y-74380952D01*
X148438095Y-74428571D01*
X148342857Y-74476190D01*
X147961904Y-74476190D01*
X173026666Y-67222380D02*
X173598095Y-67222380D01*
X173312380Y-68222380D02*
X173312380Y-67222380D01*
X174312380Y-68174761D02*
X174217142Y-68222380D01*
X174026666Y-68222380D01*
X173931428Y-68174761D01*
X173883809Y-68079523D01*
X173883809Y-67698571D01*
X173931428Y-67603333D01*
X174026666Y-67555714D01*
X174217142Y-67555714D01*
X174312380Y-67603333D01*
X174360000Y-67698571D01*
X174360000Y-67793809D01*
X173883809Y-67889047D01*
X174788571Y-68222380D02*
X174788571Y-67555714D01*
X174788571Y-67650952D02*
X174836190Y-67603333D01*
X174931428Y-67555714D01*
X175074285Y-67555714D01*
X175169523Y-67603333D01*
X175217142Y-67698571D01*
X175217142Y-68222380D01*
X175217142Y-67698571D02*
X175264761Y-67603333D01*
X175360000Y-67555714D01*
X175502857Y-67555714D01*
X175598095Y-67603333D01*
X175645714Y-67698571D01*
X175645714Y-68222380D01*
X176121904Y-67555714D02*
X176121904Y-68555714D01*
X176121904Y-67603333D02*
X176217142Y-67555714D01*
X176407619Y-67555714D01*
X176502857Y-67603333D01*
X176550476Y-67650952D01*
X176598095Y-67746190D01*
X176598095Y-68031904D01*
X176550476Y-68127142D01*
X176502857Y-68174761D01*
X176407619Y-68222380D01*
X176217142Y-68222380D01*
X176121904Y-68174761D01*
X165576190Y-80852380D02*
X165576190Y-79852380D01*
X166242857Y-79852380D02*
X166433333Y-79852380D01*
X166528571Y-79900000D01*
X166623809Y-79995238D01*
X166671428Y-80185714D01*
X166671428Y-80519047D01*
X166623809Y-80709523D01*
X166528571Y-80804761D01*
X166433333Y-80852380D01*
X166242857Y-80852380D01*
X166147619Y-80804761D01*
X166052380Y-80709523D01*
X166004761Y-80519047D01*
X166004761Y-80185714D01*
X166052380Y-79995238D01*
X166147619Y-79900000D01*
X166242857Y-79852380D01*
X158233333Y-80952380D02*
X157900000Y-80476190D01*
X157661904Y-80952380D02*
X157661904Y-79952380D01*
X158042857Y-79952380D01*
X158138095Y-80000000D01*
X158185714Y-80047619D01*
X158233333Y-80142857D01*
X158233333Y-80285714D01*
X158185714Y-80380952D01*
X158138095Y-80428571D01*
X158042857Y-80476190D01*
X157661904Y-80476190D01*
X158566666Y-79952380D02*
X159233333Y-80952380D01*
X159233333Y-79952380D02*
X158566666Y-80952380D01*
X90830952Y-80652380D02*
X90830952Y-79652380D01*
X90830952Y-80033333D02*
X90926190Y-79985714D01*
X91116666Y-79985714D01*
X91211904Y-80033333D01*
X91259523Y-80080952D01*
X91307142Y-80176190D01*
X91307142Y-80461904D01*
X91259523Y-80557142D01*
X91211904Y-80604761D01*
X91116666Y-80652380D01*
X90926190Y-80652380D01*
X90830952Y-80604761D01*
X91640476Y-79985714D02*
X91878571Y-80652380D01*
X92116666Y-79985714D02*
X91878571Y-80652380D01*
X91783333Y-80890476D01*
X91735714Y-80938095D01*
X91640476Y-80985714D01*
X93688095Y-80604761D02*
X93592857Y-80652380D01*
X93402380Y-80652380D01*
X93307142Y-80604761D01*
X93259523Y-80557142D01*
X93211904Y-80461904D01*
X93211904Y-80176190D01*
X93259523Y-80080952D01*
X93307142Y-80033333D01*
X93402380Y-79985714D01*
X93592857Y-79985714D01*
X93688095Y-80033333D01*
X94116666Y-80652380D02*
X94116666Y-79652380D01*
X94545238Y-80652380D02*
X94545238Y-80128571D01*
X94497619Y-80033333D01*
X94402380Y-79985714D01*
X94259523Y-79985714D01*
X94164285Y-80033333D01*
X94116666Y-80080952D01*
X94926190Y-79985714D02*
X95450000Y-79985714D01*
X94926190Y-80652380D01*
X95450000Y-80652380D01*
X95830952Y-80652380D02*
X95830952Y-79652380D01*
X96259523Y-80652380D02*
X96259523Y-80128571D01*
X96211904Y-80033333D01*
X96116666Y-79985714D01*
X95973809Y-79985714D01*
X95878571Y-80033333D01*
X95830952Y-80080952D01*
X96735714Y-79985714D02*
X96735714Y-80842857D01*
X96688095Y-80938095D01*
X96592857Y-80985714D01*
X96545238Y-80985714D01*
X96735714Y-79652380D02*
X96688095Y-79700000D01*
X96735714Y-79747619D01*
X96783333Y-79700000D01*
X96735714Y-79652380D01*
X96735714Y-79747619D01*
X97211904Y-80652380D02*
X97211904Y-79985714D01*
X97211904Y-79652380D02*
X97164285Y-79700000D01*
X97211904Y-79747619D01*
X97259523Y-79700000D01*
X97211904Y-79652380D01*
X97211904Y-79747619D01*
X98069047Y-80604761D02*
X97973809Y-80652380D01*
X97783333Y-80652380D01*
X97688095Y-80604761D01*
X97640476Y-80509523D01*
X97640476Y-80128571D01*
X97688095Y-80033333D01*
X97783333Y-79985714D01*
X97973809Y-79985714D01*
X98069047Y-80033333D01*
X98116666Y-80128571D01*
X98116666Y-80223809D01*
X97640476Y-80319047D01*
%TO.C,R8*%
X174783333Y-83252380D02*
X174450000Y-82776190D01*
X174211904Y-83252380D02*
X174211904Y-82252380D01*
X174592857Y-82252380D01*
X174688095Y-82300000D01*
X174735714Y-82347619D01*
X174783333Y-82442857D01*
X174783333Y-82585714D01*
X174735714Y-82680952D01*
X174688095Y-82728571D01*
X174592857Y-82776190D01*
X174211904Y-82776190D01*
X175354761Y-82680952D02*
X175259523Y-82633333D01*
X175211904Y-82585714D01*
X175164285Y-82490476D01*
X175164285Y-82442857D01*
X175211904Y-82347619D01*
X175259523Y-82300000D01*
X175354761Y-82252380D01*
X175545238Y-82252380D01*
X175640476Y-82300000D01*
X175688095Y-82347619D01*
X175735714Y-82442857D01*
X175735714Y-82490476D01*
X175688095Y-82585714D01*
X175640476Y-82633333D01*
X175545238Y-82680952D01*
X175354761Y-82680952D01*
X175259523Y-82728571D01*
X175211904Y-82776190D01*
X175164285Y-82871428D01*
X175164285Y-83061904D01*
X175211904Y-83157142D01*
X175259523Y-83204761D01*
X175354761Y-83252380D01*
X175545238Y-83252380D01*
X175640476Y-83204761D01*
X175688095Y-83157142D01*
X175735714Y-83061904D01*
X175735714Y-82871428D01*
X175688095Y-82776190D01*
X175640476Y-82728571D01*
X175545238Y-82680952D01*
%TO.C,C12*%
X170807142Y-69457142D02*
X170759523Y-69504761D01*
X170616666Y-69552380D01*
X170521428Y-69552380D01*
X170378571Y-69504761D01*
X170283333Y-69409523D01*
X170235714Y-69314285D01*
X170188095Y-69123809D01*
X170188095Y-68980952D01*
X170235714Y-68790476D01*
X170283333Y-68695238D01*
X170378571Y-68600000D01*
X170521428Y-68552380D01*
X170616666Y-68552380D01*
X170759523Y-68600000D01*
X170807142Y-68647619D01*
X171759523Y-69552380D02*
X171188095Y-69552380D01*
X171473809Y-69552380D02*
X171473809Y-68552380D01*
X171378571Y-68695238D01*
X171283333Y-68790476D01*
X171188095Y-68838095D01*
X172140476Y-68647619D02*
X172188095Y-68600000D01*
X172283333Y-68552380D01*
X172521428Y-68552380D01*
X172616666Y-68600000D01*
X172664285Y-68647619D01*
X172711904Y-68742857D01*
X172711904Y-68838095D01*
X172664285Y-68980952D01*
X172092857Y-69552380D01*
X172711904Y-69552380D01*
%TO.C,C2*%
X133183333Y-65857142D02*
X133135714Y-65904761D01*
X132992857Y-65952380D01*
X132897619Y-65952380D01*
X132754761Y-65904761D01*
X132659523Y-65809523D01*
X132611904Y-65714285D01*
X132564285Y-65523809D01*
X132564285Y-65380952D01*
X132611904Y-65190476D01*
X132659523Y-65095238D01*
X132754761Y-65000000D01*
X132897619Y-64952380D01*
X132992857Y-64952380D01*
X133135714Y-65000000D01*
X133183333Y-65047619D01*
X133564285Y-65047619D02*
X133611904Y-65000000D01*
X133707142Y-64952380D01*
X133945238Y-64952380D01*
X134040476Y-65000000D01*
X134088095Y-65047619D01*
X134135714Y-65142857D01*
X134135714Y-65238095D01*
X134088095Y-65380952D01*
X133516666Y-65952380D01*
X134135714Y-65952380D01*
%TO.C,C10*%
X106907142Y-82457142D02*
X106859523Y-82504761D01*
X106716666Y-82552380D01*
X106621428Y-82552380D01*
X106478571Y-82504761D01*
X106383333Y-82409523D01*
X106335714Y-82314285D01*
X106288095Y-82123809D01*
X106288095Y-81980952D01*
X106335714Y-81790476D01*
X106383333Y-81695238D01*
X106478571Y-81600000D01*
X106621428Y-81552380D01*
X106716666Y-81552380D01*
X106859523Y-81600000D01*
X106907142Y-81647619D01*
X107859523Y-82552380D02*
X107288095Y-82552380D01*
X107573809Y-82552380D02*
X107573809Y-81552380D01*
X107478571Y-81695238D01*
X107383333Y-81790476D01*
X107288095Y-81838095D01*
X108478571Y-81552380D02*
X108573809Y-81552380D01*
X108669047Y-81600000D01*
X108716666Y-81647619D01*
X108764285Y-81742857D01*
X108811904Y-81933333D01*
X108811904Y-82171428D01*
X108764285Y-82361904D01*
X108716666Y-82457142D01*
X108669047Y-82504761D01*
X108573809Y-82552380D01*
X108478571Y-82552380D01*
X108383333Y-82504761D01*
X108335714Y-82457142D01*
X108288095Y-82361904D01*
X108240476Y-82171428D01*
X108240476Y-81933333D01*
X108288095Y-81742857D01*
X108335714Y-81647619D01*
X108383333Y-81600000D01*
X108478571Y-81552380D01*
%TO.C,D4*%
X157361904Y-73052380D02*
X157361904Y-72052380D01*
X157600000Y-72052380D01*
X157742857Y-72100000D01*
X157838095Y-72195238D01*
X157885714Y-72290476D01*
X157933333Y-72480952D01*
X157933333Y-72623809D01*
X157885714Y-72814285D01*
X157838095Y-72909523D01*
X157742857Y-73004761D01*
X157600000Y-73052380D01*
X157361904Y-73052380D01*
X158790476Y-72385714D02*
X158790476Y-73052380D01*
X158552380Y-72004761D02*
X158314285Y-72719047D01*
X158933333Y-72719047D01*
%TO.C,C4*%
X96421716Y-74457142D02*
X96374097Y-74504761D01*
X96231240Y-74552380D01*
X96136002Y-74552380D01*
X95993144Y-74504761D01*
X95897906Y-74409523D01*
X95850287Y-74314285D01*
X95802668Y-74123809D01*
X95802668Y-73980952D01*
X95850287Y-73790476D01*
X95897906Y-73695238D01*
X95993144Y-73600000D01*
X96136002Y-73552380D01*
X96231240Y-73552380D01*
X96374097Y-73600000D01*
X96421716Y-73647619D01*
X97278859Y-73885714D02*
X97278859Y-74552380D01*
X97040763Y-73504761D02*
X96802668Y-74219047D01*
X97421716Y-74219047D01*
%TO.C,D1*%
X109561904Y-71052380D02*
X109561904Y-70052380D01*
X109800000Y-70052380D01*
X109942857Y-70100000D01*
X110038095Y-70195238D01*
X110085714Y-70290476D01*
X110133333Y-70480952D01*
X110133333Y-70623809D01*
X110085714Y-70814285D01*
X110038095Y-70909523D01*
X109942857Y-71004761D01*
X109800000Y-71052380D01*
X109561904Y-71052380D01*
X111085714Y-71052380D02*
X110514285Y-71052380D01*
X110800000Y-71052380D02*
X110800000Y-70052380D01*
X110704761Y-70195238D01*
X110609523Y-70290476D01*
X110514285Y-70338095D01*
%TO.C,R4*%
X111833333Y-63152380D02*
X111500000Y-62676190D01*
X111261904Y-63152380D02*
X111261904Y-62152380D01*
X111642857Y-62152380D01*
X111738095Y-62200000D01*
X111785714Y-62247619D01*
X111833333Y-62342857D01*
X111833333Y-62485714D01*
X111785714Y-62580952D01*
X111738095Y-62628571D01*
X111642857Y-62676190D01*
X111261904Y-62676190D01*
X112690476Y-62485714D02*
X112690476Y-63152380D01*
X112452380Y-62104761D02*
X112214285Y-62819047D01*
X112833333Y-62819047D01*
%TO.C,R3*%
X140733333Y-83452380D02*
X140400000Y-82976190D01*
X140161904Y-83452380D02*
X140161904Y-82452380D01*
X140542857Y-82452380D01*
X140638095Y-82500000D01*
X140685714Y-82547619D01*
X140733333Y-82642857D01*
X140733333Y-82785714D01*
X140685714Y-82880952D01*
X140638095Y-82928571D01*
X140542857Y-82976190D01*
X140161904Y-82976190D01*
X141066666Y-82452380D02*
X141685714Y-82452380D01*
X141352380Y-82833333D01*
X141495238Y-82833333D01*
X141590476Y-82880952D01*
X141638095Y-82928571D01*
X141685714Y-83023809D01*
X141685714Y-83261904D01*
X141638095Y-83357142D01*
X141590476Y-83404761D01*
X141495238Y-83452380D01*
X141209523Y-83452380D01*
X141114285Y-83404761D01*
X141066666Y-83357142D01*
%TO.C,D3*%
X111011904Y-79262380D02*
X111011904Y-78262380D01*
X111250000Y-78262380D01*
X111392857Y-78310000D01*
X111488095Y-78405238D01*
X111535714Y-78500476D01*
X111583333Y-78690952D01*
X111583333Y-78833809D01*
X111535714Y-79024285D01*
X111488095Y-79119523D01*
X111392857Y-79214761D01*
X111250000Y-79262380D01*
X111011904Y-79262380D01*
X111916666Y-78262380D02*
X112535714Y-78262380D01*
X112202380Y-78643333D01*
X112345238Y-78643333D01*
X112440476Y-78690952D01*
X112488095Y-78738571D01*
X112535714Y-78833809D01*
X112535714Y-79071904D01*
X112488095Y-79167142D01*
X112440476Y-79214761D01*
X112345238Y-79262380D01*
X112059523Y-79262380D01*
X111964285Y-79214761D01*
X111916666Y-79167142D01*
%TO.C,C1*%
X133413333Y-69507142D02*
X133365714Y-69554761D01*
X133222857Y-69602380D01*
X133127619Y-69602380D01*
X132984761Y-69554761D01*
X132889523Y-69459523D01*
X132841904Y-69364285D01*
X132794285Y-69173809D01*
X132794285Y-69030952D01*
X132841904Y-68840476D01*
X132889523Y-68745238D01*
X132984761Y-68650000D01*
X133127619Y-68602380D01*
X133222857Y-68602380D01*
X133365714Y-68650000D01*
X133413333Y-68697619D01*
X134365714Y-69602380D02*
X133794285Y-69602380D01*
X134080000Y-69602380D02*
X134080000Y-68602380D01*
X133984761Y-68745238D01*
X133889523Y-68840476D01*
X133794285Y-68888095D01*
%TO.C,R7*%
X157933333Y-74952380D02*
X157600000Y-74476190D01*
X157361904Y-74952380D02*
X157361904Y-73952380D01*
X157742857Y-73952380D01*
X157838095Y-74000000D01*
X157885714Y-74047619D01*
X157933333Y-74142857D01*
X157933333Y-74285714D01*
X157885714Y-74380952D01*
X157838095Y-74428571D01*
X157742857Y-74476190D01*
X157361904Y-74476190D01*
X158266666Y-73952380D02*
X158933333Y-73952380D01*
X158504761Y-74952380D01*
%TO.C,R1*%
X133233333Y-64552380D02*
X132900000Y-64076190D01*
X132661904Y-64552380D02*
X132661904Y-63552380D01*
X133042857Y-63552380D01*
X133138095Y-63600000D01*
X133185714Y-63647619D01*
X133233333Y-63742857D01*
X133233333Y-63885714D01*
X133185714Y-63980952D01*
X133138095Y-64028571D01*
X133042857Y-64076190D01*
X132661904Y-64076190D01*
X134185714Y-64552380D02*
X133614285Y-64552380D01*
X133900000Y-64552380D02*
X133900000Y-63552380D01*
X133804761Y-63695238D01*
X133709523Y-63790476D01*
X133614285Y-63838095D01*
%TO.C,C5*%
X111933333Y-70957142D02*
X111885714Y-71004761D01*
X111742857Y-71052380D01*
X111647619Y-71052380D01*
X111504761Y-71004761D01*
X111409523Y-70909523D01*
X111361904Y-70814285D01*
X111314285Y-70623809D01*
X111314285Y-70480952D01*
X111361904Y-70290476D01*
X111409523Y-70195238D01*
X111504761Y-70100000D01*
X111647619Y-70052380D01*
X111742857Y-70052380D01*
X111885714Y-70100000D01*
X111933333Y-70147619D01*
X112838095Y-70052380D02*
X112361904Y-70052380D01*
X112314285Y-70528571D01*
X112361904Y-70480952D01*
X112457142Y-70433333D01*
X112695238Y-70433333D01*
X112790476Y-70480952D01*
X112838095Y-70528571D01*
X112885714Y-70623809D01*
X112885714Y-70861904D01*
X112838095Y-70957142D01*
X112790476Y-71004761D01*
X112695238Y-71052380D01*
X112457142Y-71052380D01*
X112361904Y-71004761D01*
X112314285Y-70957142D01*
%TO.C,C6*%
X117783333Y-72257142D02*
X117735714Y-72304761D01*
X117592857Y-72352380D01*
X117497619Y-72352380D01*
X117354761Y-72304761D01*
X117259523Y-72209523D01*
X117211904Y-72114285D01*
X117164285Y-71923809D01*
X117164285Y-71780952D01*
X117211904Y-71590476D01*
X117259523Y-71495238D01*
X117354761Y-71400000D01*
X117497619Y-71352380D01*
X117592857Y-71352380D01*
X117735714Y-71400000D01*
X117783333Y-71447619D01*
X118640476Y-71352380D02*
X118450000Y-71352380D01*
X118354761Y-71400000D01*
X118307142Y-71447619D01*
X118211904Y-71590476D01*
X118164285Y-71780952D01*
X118164285Y-72161904D01*
X118211904Y-72257142D01*
X118259523Y-72304761D01*
X118354761Y-72352380D01*
X118545238Y-72352380D01*
X118640476Y-72304761D01*
X118688095Y-72257142D01*
X118735714Y-72161904D01*
X118735714Y-71923809D01*
X118688095Y-71828571D01*
X118640476Y-71780952D01*
X118545238Y-71733333D01*
X118354761Y-71733333D01*
X118259523Y-71780952D01*
X118211904Y-71828571D01*
X118164285Y-71923809D01*
%TO.C,Q1*%
X121504761Y-83347619D02*
X121409523Y-83300000D01*
X121314285Y-83204761D01*
X121171428Y-83061904D01*
X121076190Y-83014285D01*
X120980952Y-83014285D01*
X121028571Y-83252380D02*
X120933333Y-83204761D01*
X120838095Y-83109523D01*
X120790476Y-82919047D01*
X120790476Y-82585714D01*
X120838095Y-82395238D01*
X120933333Y-82300000D01*
X121028571Y-82252380D01*
X121219047Y-82252380D01*
X121314285Y-82300000D01*
X121409523Y-82395238D01*
X121457142Y-82585714D01*
X121457142Y-82919047D01*
X121409523Y-83109523D01*
X121314285Y-83204761D01*
X121219047Y-83252380D01*
X121028571Y-83252380D01*
X122409523Y-83252380D02*
X121838095Y-83252380D01*
X122123809Y-83252380D02*
X122123809Y-82252380D01*
X122028571Y-82395238D01*
X121933333Y-82490476D01*
X121838095Y-82538095D01*
%TO.C,C8*%
X121533333Y-57057142D02*
X121485714Y-57104761D01*
X121342857Y-57152380D01*
X121247619Y-57152380D01*
X121104761Y-57104761D01*
X121009523Y-57009523D01*
X120961904Y-56914285D01*
X120914285Y-56723809D01*
X120914285Y-56580952D01*
X120961904Y-56390476D01*
X121009523Y-56295238D01*
X121104761Y-56200000D01*
X121247619Y-56152380D01*
X121342857Y-56152380D01*
X121485714Y-56200000D01*
X121533333Y-56247619D01*
X122104761Y-56580952D02*
X122009523Y-56533333D01*
X121961904Y-56485714D01*
X121914285Y-56390476D01*
X121914285Y-56342857D01*
X121961904Y-56247619D01*
X122009523Y-56200000D01*
X122104761Y-56152380D01*
X122295238Y-56152380D01*
X122390476Y-56200000D01*
X122438095Y-56247619D01*
X122485714Y-56342857D01*
X122485714Y-56390476D01*
X122438095Y-56485714D01*
X122390476Y-56533333D01*
X122295238Y-56580952D01*
X122104761Y-56580952D01*
X122009523Y-56628571D01*
X121961904Y-56676190D01*
X121914285Y-56771428D01*
X121914285Y-56961904D01*
X121961904Y-57057142D01*
X122009523Y-57104761D01*
X122104761Y-57152380D01*
X122295238Y-57152380D01*
X122390476Y-57104761D01*
X122438095Y-57057142D01*
X122485714Y-56961904D01*
X122485714Y-56771428D01*
X122438095Y-56676190D01*
X122390476Y-56628571D01*
X122295238Y-56580952D01*
%TO.C,C9*%
X111713333Y-76457142D02*
X111665714Y-76504761D01*
X111522857Y-76552380D01*
X111427619Y-76552380D01*
X111284761Y-76504761D01*
X111189523Y-76409523D01*
X111141904Y-76314285D01*
X111094285Y-76123809D01*
X111094285Y-75980952D01*
X111141904Y-75790476D01*
X111189523Y-75695238D01*
X111284761Y-75600000D01*
X111427619Y-75552380D01*
X111522857Y-75552380D01*
X111665714Y-75600000D01*
X111713333Y-75647619D01*
X112189523Y-76552380D02*
X112380000Y-76552380D01*
X112475238Y-76504761D01*
X112522857Y-76457142D01*
X112618095Y-76314285D01*
X112665714Y-76123809D01*
X112665714Y-75742857D01*
X112618095Y-75647619D01*
X112570476Y-75600000D01*
X112475238Y-75552380D01*
X112284761Y-75552380D01*
X112189523Y-75600000D01*
X112141904Y-75647619D01*
X112094285Y-75742857D01*
X112094285Y-75980952D01*
X112141904Y-76076190D01*
X112189523Y-76123809D01*
X112284761Y-76171428D01*
X112475238Y-76171428D01*
X112570476Y-76123809D01*
X112618095Y-76076190D01*
X112665714Y-75980952D01*
%TO.C,C11*%
X123645525Y-56957142D02*
X123597906Y-57004761D01*
X123455049Y-57052380D01*
X123359811Y-57052380D01*
X123216954Y-57004761D01*
X123121716Y-56909523D01*
X123074097Y-56814285D01*
X123026478Y-56623809D01*
X123026478Y-56480952D01*
X123074097Y-56290476D01*
X123121716Y-56195238D01*
X123216954Y-56100000D01*
X123359811Y-56052380D01*
X123455049Y-56052380D01*
X123597906Y-56100000D01*
X123645525Y-56147619D01*
X124597906Y-57052380D02*
X124026478Y-57052380D01*
X124312192Y-57052380D02*
X124312192Y-56052380D01*
X124216954Y-56195238D01*
X124121716Y-56290476D01*
X124026478Y-56338095D01*
X125550287Y-57052380D02*
X124978859Y-57052380D01*
X125264573Y-57052380D02*
X125264573Y-56052380D01*
X125169335Y-56195238D01*
X125074097Y-56290476D01*
X124978859Y-56338095D01*
%TO.C,R2*%
X153883333Y-82722380D02*
X153550000Y-82246190D01*
X153311904Y-82722380D02*
X153311904Y-81722380D01*
X153692857Y-81722380D01*
X153788095Y-81770000D01*
X153835714Y-81817619D01*
X153883333Y-81912857D01*
X153883333Y-82055714D01*
X153835714Y-82150952D01*
X153788095Y-82198571D01*
X153692857Y-82246190D01*
X153311904Y-82246190D01*
X154264285Y-81817619D02*
X154311904Y-81770000D01*
X154407142Y-81722380D01*
X154645238Y-81722380D01*
X154740476Y-81770000D01*
X154788095Y-81817619D01*
X154835714Y-81912857D01*
X154835714Y-82008095D01*
X154788095Y-82150952D01*
X154216666Y-82722380D01*
X154835714Y-82722380D01*
%TO.C,D2*%
X113261904Y-71752380D02*
X113261904Y-70752380D01*
X113500000Y-70752380D01*
X113642857Y-70800000D01*
X113738095Y-70895238D01*
X113785714Y-70990476D01*
X113833333Y-71180952D01*
X113833333Y-71323809D01*
X113785714Y-71514285D01*
X113738095Y-71609523D01*
X113642857Y-71704761D01*
X113500000Y-71752380D01*
X113261904Y-71752380D01*
X114214285Y-70847619D02*
X114261904Y-70800000D01*
X114357142Y-70752380D01*
X114595238Y-70752380D01*
X114690476Y-70800000D01*
X114738095Y-70847619D01*
X114785714Y-70942857D01*
X114785714Y-71038095D01*
X114738095Y-71180952D01*
X114166666Y-71752380D01*
X114785714Y-71752380D01*
%TO.C,C3*%
X131103333Y-69557142D02*
X131055714Y-69604761D01*
X130912857Y-69652380D01*
X130817619Y-69652380D01*
X130674761Y-69604761D01*
X130579523Y-69509523D01*
X130531904Y-69414285D01*
X130484285Y-69223809D01*
X130484285Y-69080952D01*
X130531904Y-68890476D01*
X130579523Y-68795238D01*
X130674761Y-68700000D01*
X130817619Y-68652380D01*
X130912857Y-68652380D01*
X131055714Y-68700000D01*
X131103333Y-68747619D01*
X131436666Y-68652380D02*
X132055714Y-68652380D01*
X131722380Y-69033333D01*
X131865238Y-69033333D01*
X131960476Y-69080952D01*
X132008095Y-69128571D01*
X132055714Y-69223809D01*
X132055714Y-69461904D01*
X132008095Y-69557142D01*
X131960476Y-69604761D01*
X131865238Y-69652380D01*
X131579523Y-69652380D01*
X131484285Y-69604761D01*
X131436666Y-69557142D01*
%TO.C,R6*%
X132033333Y-82752380D02*
X131700000Y-82276190D01*
X131461904Y-82752380D02*
X131461904Y-81752380D01*
X131842857Y-81752380D01*
X131938095Y-81800000D01*
X131985714Y-81847619D01*
X132033333Y-81942857D01*
X132033333Y-82085714D01*
X131985714Y-82180952D01*
X131938095Y-82228571D01*
X131842857Y-82276190D01*
X131461904Y-82276190D01*
X132890476Y-81752380D02*
X132700000Y-81752380D01*
X132604761Y-81800000D01*
X132557142Y-81847619D01*
X132461904Y-81990476D01*
X132414285Y-82180952D01*
X132414285Y-82561904D01*
X132461904Y-82657142D01*
X132509523Y-82704761D01*
X132604761Y-82752380D01*
X132795238Y-82752380D01*
X132890476Y-82704761D01*
X132938095Y-82657142D01*
X132985714Y-82561904D01*
X132985714Y-82323809D01*
X132938095Y-82228571D01*
X132890476Y-82180952D01*
X132795238Y-82133333D01*
X132604761Y-82133333D01*
X132509523Y-82180952D01*
X132461904Y-82228571D01*
X132414285Y-82323809D01*
%TO.C,R5*%
X110133333Y-59752380D02*
X109800000Y-59276190D01*
X109561904Y-59752380D02*
X109561904Y-58752380D01*
X109942857Y-58752380D01*
X110038095Y-58800000D01*
X110085714Y-58847619D01*
X110133333Y-58942857D01*
X110133333Y-59085714D01*
X110085714Y-59180952D01*
X110038095Y-59228571D01*
X109942857Y-59276190D01*
X109561904Y-59276190D01*
X111038095Y-58752380D02*
X110561904Y-58752380D01*
X110514285Y-59228571D01*
X110561904Y-59180952D01*
X110657142Y-59133333D01*
X110895238Y-59133333D01*
X110990476Y-59180952D01*
X111038095Y-59228571D01*
X111085714Y-59323809D01*
X111085714Y-59561904D01*
X111038095Y-59657142D01*
X110990476Y-59704761D01*
X110895238Y-59752380D01*
X110657142Y-59752380D01*
X110561904Y-59704761D01*
X110514285Y-59657142D01*
%TO.C,C7*%
X113633333Y-56657142D02*
X113585714Y-56704761D01*
X113442857Y-56752380D01*
X113347619Y-56752380D01*
X113204761Y-56704761D01*
X113109523Y-56609523D01*
X113061904Y-56514285D01*
X113014285Y-56323809D01*
X113014285Y-56180952D01*
X113061904Y-55990476D01*
X113109523Y-55895238D01*
X113204761Y-55800000D01*
X113347619Y-55752380D01*
X113442857Y-55752380D01*
X113585714Y-55800000D01*
X113633333Y-55847619D01*
X113966666Y-55752380D02*
X114633333Y-55752380D01*
X114204761Y-56752380D01*
D11*
%TO.C,R8*%
X175585000Y-79772936D02*
X175585000Y-80227064D01*
X174115000Y-79772936D02*
X174115000Y-80227064D01*
%TO.C,J3*%
X176180000Y-69205000D02*
X173520000Y-69205000D01*
X176180000Y-71805000D02*
X176180000Y-69205000D01*
X173520000Y-71805000D02*
X173520000Y-69205000D01*
X176180000Y-71805000D02*
X173520000Y-71805000D01*
X176180000Y-73075000D02*
X176180000Y-74405000D01*
X176180000Y-74405000D02*
X174850000Y-74405000D01*
%TO.C,C12*%
X171315000Y-71961252D02*
X171315000Y-71438748D01*
X172785000Y-71961252D02*
X172785000Y-71438748D01*
%TO.C,J2*%
X122020000Y-74530000D02*
X127160000Y-74530000D01*
X127160000Y-74530000D02*
X127160000Y-71870000D01*
X120750000Y-74530000D02*
X119420000Y-74530000D01*
X122020000Y-71870000D02*
X127160000Y-71870000D01*
X122020000Y-74530000D02*
X122020000Y-71870000D01*
X119420000Y-74530000D02*
X119420000Y-73200000D01*
%TO.C,C2*%
X133810000Y-60453733D02*
X133810000Y-60746267D01*
X132790000Y-60453733D02*
X132790000Y-60746267D01*
%TO.C,C10*%
X107140000Y-79253733D02*
X107140000Y-79546267D01*
X108160000Y-79253733D02*
X108160000Y-79546267D01*
D12*
%TO.C,DC1*%
X109162500Y-55097500D02*
X100162500Y-55097500D01*
X100162500Y-55097500D02*
X100162500Y-63907500D01*
X109152500Y-55097500D02*
X109152500Y-69507500D01*
X109152500Y-69507500D02*
X106972500Y-69507500D01*
X102442500Y-69507500D02*
X100162500Y-69507500D01*
X100162500Y-68347500D02*
X100162500Y-69507500D01*
X109152500Y-58377500D02*
X100152500Y-58377500D01*
D11*
%TO.C,D4*%
X156260000Y-73335000D02*
X156260000Y-71865000D01*
X156260000Y-71865000D02*
X153800000Y-71865000D01*
X153800000Y-73335000D02*
X156260000Y-73335000D01*
D10*
%TO.C,C4*%
X98058383Y-71726909D02*
X96668383Y-73126909D01*
X92708383Y-73126909D02*
X93998383Y-73126909D01*
X98058383Y-66366909D02*
X98058383Y-71726909D01*
X95428383Y-66386909D02*
X98058383Y-66366909D01*
X91308383Y-71726909D02*
X92708383Y-73126909D01*
X91308383Y-66366909D02*
X91308383Y-71726909D01*
X96668383Y-73126909D02*
X95368383Y-73106909D01*
X93978383Y-66376909D02*
X91308383Y-66366909D01*
D13*
%TO.C,D1*%
X109790000Y-67390000D02*
X110810000Y-67390000D01*
X109790000Y-68950000D02*
X109790000Y-67390000D01*
X110810000Y-68950000D02*
X110810000Y-67390000D01*
X109790000Y-68810000D02*
X110810000Y-68810000D01*
X109790000Y-68950000D02*
X110810000Y-68950000D01*
D11*
%TO.C,R4*%
X114635000Y-63827064D02*
X114635000Y-63372936D01*
X113165000Y-63827064D02*
X113165000Y-63372936D01*
%TO.C,G\u002A\u002A\u002A*%
G36*
X132292605Y-124459292D02*
G01*
X132347847Y-124548288D01*
X132361000Y-124700883D01*
X132367437Y-125019423D01*
X132367193Y-125264391D01*
X132360960Y-125391912D01*
X132289223Y-125428148D01*
X132115284Y-125457207D01*
X131998636Y-125466340D01*
X131742006Y-125501190D01*
X131560304Y-125593694D01*
X131438383Y-125710313D01*
X131232942Y-125935887D01*
X131232942Y-127092649D01*
X131232320Y-127530824D01*
X131228332Y-127841670D01*
X131217793Y-128047270D01*
X131197516Y-128169708D01*
X131164316Y-128231066D01*
X131115009Y-128253428D01*
X131064853Y-128257928D01*
X130670926Y-128274838D01*
X130410697Y-128278288D01*
X130269050Y-128268155D01*
X130231368Y-128251219D01*
X130226555Y-128168717D01*
X130222765Y-127957592D01*
X130220126Y-127638631D01*
X130218766Y-127232620D01*
X130218814Y-126760345D01*
X130219826Y-126381765D01*
X130226648Y-124551471D01*
X130692442Y-124529230D01*
X131158236Y-124506988D01*
X131158236Y-125123229D01*
X131353899Y-124890696D01*
X131638352Y-124629555D01*
X131949403Y-124473789D01*
X132163055Y-124439412D01*
X132292605Y-124459292D01*
G37*
G36*
X143219596Y-125589434D02*
G01*
X143409610Y-125149080D01*
X143578912Y-124914205D01*
X143870710Y-124651496D01*
X144204534Y-124499285D01*
X144619927Y-124441190D01*
X144724812Y-124439412D01*
X145006477Y-124467269D01*
X145277334Y-124540175D01*
X145498355Y-124642137D01*
X145630507Y-124757160D01*
X145651177Y-124819034D01*
X145708207Y-124885694D01*
X145725883Y-124887647D01*
X145782041Y-124823715D01*
X145800589Y-124700883D01*
X145810312Y-124596667D01*
X145863074Y-124540809D01*
X145994261Y-124518297D01*
X146239261Y-124514118D01*
X146240831Y-124514118D01*
X146530527Y-124530328D01*
X146686761Y-124577739D01*
X146710692Y-124607500D01*
X146718129Y-124704566D01*
X146723965Y-124930460D01*
X146728029Y-125264607D01*
X146730152Y-125686430D01*
X146730163Y-126175355D01*
X146727981Y-126696421D01*
X146723831Y-127295890D01*
X146718604Y-127765751D01*
X146710703Y-128125808D01*
X146698531Y-128395865D01*
X146680489Y-128595724D01*
X146654981Y-128745188D01*
X146620408Y-128864062D01*
X146575174Y-128972149D01*
X146538267Y-129048070D01*
X146326522Y-129356952D01*
X146034704Y-129576051D01*
X145644732Y-129714493D01*
X145138522Y-129781404D01*
X145078993Y-129784599D01*
X144765190Y-129790612D01*
X144481452Y-129780595D01*
X144283957Y-129756730D01*
X144269118Y-129753145D01*
X143879588Y-129601118D01*
X143566479Y-129382168D01*
X143353016Y-129118455D01*
X143262424Y-128832143D01*
X143260868Y-128791030D01*
X143271665Y-128701214D01*
X143326565Y-128650780D01*
X143458770Y-128628465D01*
X143701480Y-128623004D01*
X143756287Y-128622941D01*
X144036616Y-128630227D01*
X144215298Y-128660911D01*
X144339752Y-128728236D01*
X144425073Y-128809706D01*
X144567094Y-128928431D01*
X144742008Y-128983890D01*
X144978652Y-128996471D01*
X145325832Y-128952133D01*
X145559837Y-128812980D01*
X145689945Y-128569804D01*
X145725883Y-128255059D01*
X145725883Y-127880385D01*
X145453987Y-128064899D01*
X145232286Y-128184387D01*
X144985720Y-128239428D01*
X144749145Y-128249412D01*
X144339112Y-128221802D01*
X144023119Y-128128451D01*
X143754391Y-127953580D01*
X143683306Y-127889806D01*
X143406077Y-127531097D01*
X143219887Y-127087352D01*
X143125940Y-126592924D01*
X143125593Y-126237984D01*
X144169429Y-126237984D01*
X144178767Y-126698703D01*
X144269776Y-127039085D01*
X144448182Y-127267462D01*
X144719711Y-127392166D01*
X144983414Y-127422591D01*
X145274696Y-127365825D01*
X145417549Y-127271062D01*
X145590389Y-127057408D01*
X145688434Y-126789750D01*
X145724838Y-126428188D01*
X145725883Y-126335839D01*
X145677354Y-125932074D01*
X145544122Y-125611005D01*
X145344716Y-125385026D01*
X145097669Y-125266534D01*
X144821510Y-125267924D01*
X144534770Y-125401593D01*
X144441321Y-125476542D01*
X144314481Y-125601999D01*
X144238686Y-125727193D01*
X144197342Y-125898594D01*
X144173856Y-126162674D01*
X144169429Y-126237984D01*
X143125593Y-126237984D01*
X143125441Y-126082167D01*
X143219596Y-125589434D01*
G37*
G36*
X139450589Y-116894118D02*
G01*
X127497647Y-116894118D01*
X127497647Y-115624118D01*
X139450589Y-115624118D01*
X139450589Y-116894118D01*
G37*
G36*
X130524128Y-105398075D02*
G01*
X130734424Y-105556672D01*
X130834056Y-105662302D01*
X130838046Y-105742790D01*
X130761414Y-105825961D01*
X130757069Y-105829584D01*
X130674845Y-105938070D01*
X130559110Y-106139436D01*
X130439569Y-106380349D01*
X130344832Y-106597689D01*
X130282774Y-106786872D01*
X130246581Y-106989869D01*
X130229438Y-107248648D01*
X130224528Y-107605179D01*
X130224412Y-107705294D01*
X130227703Y-108092535D01*
X130241821Y-108371342D01*
X130273135Y-108582625D01*
X130328013Y-108767296D01*
X130412822Y-108966267D01*
X130424638Y-108991607D01*
X130576417Y-109288875D01*
X130749190Y-109589385D01*
X130848400Y-109743701D01*
X131277558Y-110481843D01*
X131564963Y-111246973D01*
X131651000Y-111609703D01*
X131730763Y-112350388D01*
X131669025Y-113062052D01*
X131463123Y-113763724D01*
X131298366Y-114130626D01*
X131126211Y-114464688D01*
X130997608Y-114678465D01*
X130894508Y-114787799D01*
X130798864Y-114808526D01*
X130692627Y-114756486D01*
X130635294Y-114712525D01*
X130452367Y-114569136D01*
X130304259Y-114459694D01*
X130206183Y-114372628D01*
X130226682Y-114288919D01*
X130282093Y-114223519D01*
X130377079Y-114085741D01*
X130501594Y-113862778D01*
X130609988Y-113642386D01*
X130717678Y-113379316D01*
X130785568Y-113122830D01*
X130824755Y-112817991D01*
X130843531Y-112486471D01*
X130841299Y-111984240D01*
X130783053Y-111547026D01*
X130655860Y-111132272D01*
X130446787Y-110697421D01*
X130153637Y-110216340D01*
X129842932Y-109703243D01*
X129622197Y-109240366D01*
X129471438Y-108776777D01*
X129370662Y-108261544D01*
X129361687Y-108198938D01*
X129333971Y-107475382D01*
X129443434Y-106744693D01*
X129682975Y-106038561D01*
X129963578Y-105512498D01*
X130188843Y-105157292D01*
X130524128Y-105398075D01*
G37*
G36*
X143058470Y-131880033D02*
G01*
X143348479Y-131986802D01*
X143454568Y-132062799D01*
X143595292Y-132228155D01*
X143731186Y-132442081D01*
X143829233Y-132646999D01*
X143858236Y-132766718D01*
X143791187Y-132789874D01*
X143620581Y-132804204D01*
X143502421Y-132806471D01*
X143274215Y-132794369D01*
X143147290Y-132745793D01*
X143074614Y-132642340D01*
X143072862Y-132638383D01*
X142939298Y-132496920D01*
X142735770Y-132437220D01*
X142519508Y-132462652D01*
X142347743Y-132576582D01*
X142333863Y-132594889D01*
X142256384Y-132795633D01*
X142219293Y-133080309D01*
X142224260Y-133388538D01*
X142272956Y-133659946D01*
X142302220Y-133738570D01*
X142453224Y-133919975D01*
X142660233Y-133993588D01*
X142875862Y-133959393D01*
X143052728Y-133817373D01*
X143098238Y-133738858D01*
X143174039Y-133622310D01*
X143293967Y-133567779D01*
X143508382Y-133553574D01*
X143528556Y-133553530D01*
X143737534Y-133558403D01*
X143831153Y-133588451D01*
X143843451Y-133666818D01*
X143824014Y-133754414D01*
X143666837Y-134099433D01*
X143406515Y-134364531D01*
X143073018Y-134537637D01*
X142696319Y-134606683D01*
X142306390Y-134559596D01*
X142064129Y-134463149D01*
X141791177Y-134241768D01*
X141600580Y-133928050D01*
X141492297Y-133554301D01*
X141466291Y-133152823D01*
X141522521Y-132755920D01*
X141660948Y-132395898D01*
X141881533Y-132105059D01*
X142067156Y-131969403D01*
X142363934Y-131867707D01*
X142712330Y-131839126D01*
X143058470Y-131880033D01*
G37*
G36*
X138180589Y-128236663D02*
G01*
X137209099Y-128286765D01*
X137209255Y-126400441D01*
X137209412Y-124514118D01*
X138180589Y-124514118D01*
X138180589Y-128236663D01*
G37*
G36*
X120848824Y-132283530D02*
G01*
X122342942Y-132283530D01*
X122342942Y-131013530D01*
X123090000Y-131013530D01*
X123090000Y-134524706D01*
X122342942Y-134524706D01*
X122342942Y-132955883D01*
X120848824Y-132955883D01*
X120848824Y-134524706D01*
X120120461Y-134524706D01*
X120109403Y-132769118D01*
X120098346Y-131013530D01*
X120848824Y-131013530D01*
X120848824Y-132283530D01*
G37*
G36*
X119333955Y-117400645D02*
G01*
X119625596Y-116894118D01*
X119920596Y-116384915D01*
X120181684Y-115934214D01*
X120422784Y-115517966D01*
X120657823Y-115112126D01*
X120900723Y-114692645D01*
X121165411Y-114235476D01*
X121465811Y-113716571D01*
X121815848Y-113111884D01*
X122145438Y-112542500D01*
X122373638Y-112148062D01*
X122629048Y-111706273D01*
X122870243Y-111288796D01*
X122965916Y-111123088D01*
X123080085Y-110925524D01*
X123260522Y-110613590D01*
X123498593Y-110202199D01*
X123785666Y-109706263D01*
X124113107Y-109140696D01*
X124472282Y-108520408D01*
X124854560Y-107860313D01*
X125251306Y-107175323D01*
X125420328Y-106883530D01*
X125963046Y-105946604D01*
X126441960Y-105119751D01*
X126868177Y-104383766D01*
X127252803Y-103719444D01*
X127606945Y-103107580D01*
X127941707Y-102528971D01*
X128268197Y-101964412D01*
X128597520Y-101394698D01*
X128940783Y-100800625D01*
X129309092Y-100162988D01*
X129713553Y-99462583D01*
X130165272Y-98680206D01*
X130669517Y-97806765D01*
X131039526Y-97168037D01*
X131391543Y-96564608D01*
X131717676Y-96009714D01*
X132010032Y-95516586D01*
X132260721Y-95098459D01*
X132461849Y-94768564D01*
X132605526Y-94540136D01*
X132683860Y-94426408D01*
X132688826Y-94420744D01*
X132916495Y-94274660D01*
X133218488Y-94201439D01*
X133533641Y-94210960D01*
X133697287Y-94257842D01*
X133761097Y-94287653D01*
X133824269Y-94329228D01*
X133893710Y-94393339D01*
X133976330Y-94490756D01*
X134079038Y-94632248D01*
X134208742Y-94828585D01*
X134372350Y-95090538D01*
X134576773Y-95428876D01*
X134828918Y-95854370D01*
X135135695Y-96377788D01*
X135504013Y-97009903D01*
X135901995Y-97694706D01*
X136230368Y-98259919D01*
X136552614Y-98814324D01*
X136856580Y-99337038D01*
X137130120Y-99807178D01*
X137361083Y-100203860D01*
X137537320Y-100506201D01*
X137618731Y-100645588D01*
X137715216Y-100810902D01*
X137880616Y-101094733D01*
X138108738Y-101486436D01*
X138393386Y-101975368D01*
X138728367Y-102550886D01*
X139107485Y-103202345D01*
X139524548Y-103919101D01*
X139973361Y-104690512D01*
X140447728Y-105505932D01*
X140941457Y-106354718D01*
X141357661Y-107070294D01*
X141865163Y-107942800D01*
X142360196Y-108793730D01*
X142836364Y-109612094D01*
X143287267Y-110386903D01*
X143706509Y-111107167D01*
X144087691Y-111761897D01*
X144424416Y-112340105D01*
X144710286Y-112830800D01*
X144938904Y-113222993D01*
X145103870Y-113505696D01*
X145184996Y-113644412D01*
X145429154Y-114061047D01*
X145645163Y-114429969D01*
X145847770Y-114776456D01*
X146051725Y-115125788D01*
X146271773Y-115503243D01*
X146522663Y-115934099D01*
X146819142Y-116443636D01*
X147175233Y-117055886D01*
X147491329Y-117603765D01*
X147735748Y-118041862D01*
X147914625Y-118387946D01*
X148034094Y-118659787D01*
X148100287Y-118875155D01*
X148119338Y-119051819D01*
X148097381Y-119207549D01*
X148040550Y-119360114D01*
X147999450Y-119443713D01*
X147975552Y-119496234D01*
X147956316Y-119544404D01*
X147935479Y-119588408D01*
X147906775Y-119628434D01*
X147863941Y-119664667D01*
X147800712Y-119697293D01*
X147710825Y-119726499D01*
X147588016Y-119752471D01*
X147426020Y-119775396D01*
X147218573Y-119795459D01*
X146959412Y-119812847D01*
X146642272Y-119827745D01*
X146260889Y-119840342D01*
X145808998Y-119850822D01*
X145280337Y-119859371D01*
X144668640Y-119866177D01*
X143967644Y-119871425D01*
X143171085Y-119875302D01*
X142272698Y-119877994D01*
X141266219Y-119879687D01*
X140145385Y-119880567D01*
X138903930Y-119880821D01*
X137535592Y-119880635D01*
X136034106Y-119880195D01*
X134393208Y-119879687D01*
X133345782Y-119879429D01*
X131609707Y-119878930D01*
X130017071Y-119878157D01*
X128561901Y-119877066D01*
X127238224Y-119875613D01*
X126040067Y-119873752D01*
X124961456Y-119871440D01*
X123996421Y-119868631D01*
X123138987Y-119865282D01*
X122383181Y-119861347D01*
X121723031Y-119856782D01*
X121152564Y-119851543D01*
X120665806Y-119845584D01*
X120256786Y-119838862D01*
X119919530Y-119831332D01*
X119648065Y-119822949D01*
X119436419Y-119813668D01*
X119278618Y-119803446D01*
X119168690Y-119792238D01*
X119100661Y-119779998D01*
X119079394Y-119773009D01*
X118831699Y-119587972D01*
X118668584Y-119301316D01*
X118608110Y-118945209D01*
X118608071Y-118933563D01*
X118621971Y-118821129D01*
X118668485Y-118671957D01*
X118755276Y-118470683D01*
X118890008Y-118201948D01*
X118950937Y-118089412D01*
X121002436Y-118089412D01*
X133334799Y-118089412D01*
X134949568Y-118089269D01*
X136421204Y-118088804D01*
X137755985Y-118087965D01*
X138960189Y-118086698D01*
X140040094Y-118084951D01*
X141001978Y-118082670D01*
X141852119Y-118079804D01*
X142596797Y-118076298D01*
X143242287Y-118072101D01*
X143794870Y-118067158D01*
X144260823Y-118061418D01*
X144646424Y-118054828D01*
X144957952Y-118047334D01*
X145201684Y-118038883D01*
X145383898Y-118029423D01*
X145510874Y-118018901D01*
X145588889Y-118007264D01*
X145624220Y-117994459D01*
X145627418Y-117985840D01*
X145585076Y-117908345D01*
X145472439Y-117710417D01*
X145294502Y-117400675D01*
X145056263Y-116987739D01*
X144762719Y-116480227D01*
X144418868Y-115886761D01*
X144029706Y-115215960D01*
X143600231Y-114476443D01*
X143135440Y-113676830D01*
X142640330Y-112825741D01*
X142119898Y-111931795D01*
X141653716Y-111131575D01*
X141057596Y-110108502D01*
X140442339Y-109052347D01*
X139817267Y-107979125D01*
X139191702Y-106904851D01*
X138574966Y-105845540D01*
X137976382Y-104817207D01*
X137405271Y-103835867D01*
X136870957Y-102917536D01*
X136382760Y-102078228D01*
X135950004Y-101333959D01*
X135582009Y-100700744D01*
X135540909Y-100629993D01*
X135143280Y-99946730D01*
X134767532Y-99303488D01*
X134420407Y-98711650D01*
X134108649Y-98182597D01*
X133839000Y-97727709D01*
X133618203Y-97358368D01*
X133453001Y-97085955D01*
X133350138Y-96921851D01*
X133316772Y-96876023D01*
X133303927Y-96882529D01*
X133280969Y-96908432D01*
X133243394Y-96961414D01*
X133186698Y-97049158D01*
X133106376Y-97179345D01*
X132997924Y-97359657D01*
X132856838Y-97597777D01*
X132678613Y-97901385D01*
X132458746Y-98278164D01*
X132192732Y-98735796D01*
X131876066Y-99281963D01*
X131504244Y-99924347D01*
X131072763Y-100670630D01*
X130577117Y-101528493D01*
X130012803Y-102505619D01*
X129814288Y-102849412D01*
X129412150Y-103545746D01*
X129011507Y-104239270D01*
X128622658Y-104912174D01*
X128255901Y-105546643D01*
X127921534Y-106124867D01*
X127629857Y-106629032D01*
X127391167Y-107041326D01*
X127215763Y-107343937D01*
X127201149Y-107369118D01*
X127042724Y-107642382D01*
X126818715Y-108029256D01*
X126538247Y-108513959D01*
X126210445Y-109080709D01*
X125844436Y-109713724D01*
X125449344Y-110397222D01*
X125034295Y-111115422D01*
X124608414Y-111852541D01*
X124285385Y-112411765D01*
X123862872Y-113143233D01*
X123448664Y-113860220D01*
X123051256Y-114548032D01*
X122679141Y-115191971D01*
X122340814Y-115777342D01*
X122044767Y-116289449D01*
X121799495Y-116713595D01*
X121613491Y-117035085D01*
X121511255Y-117211618D01*
X121002436Y-118089412D01*
X118950937Y-118089412D01*
X119080347Y-117850389D01*
X119333955Y-117400645D01*
G37*
G36*
X123669814Y-132795125D02*
G01*
X123814284Y-132423261D01*
X124055163Y-132112929D01*
X124160037Y-132026433D01*
X124397627Y-131922444D01*
X124719900Y-131868724D01*
X125072413Y-131865265D01*
X125400719Y-131912057D01*
X125650374Y-132009092D01*
X125675936Y-132026675D01*
X125917408Y-132231612D01*
X126071072Y-132439279D01*
X126155086Y-132691717D01*
X126187614Y-133030968D01*
X126190294Y-133217353D01*
X126174474Y-133608258D01*
X126115034Y-133893823D01*
X125994005Y-134115903D01*
X125793419Y-134316350D01*
X125680609Y-134404542D01*
X125453490Y-134507748D01*
X125139715Y-134569057D01*
X124797159Y-134584457D01*
X124483694Y-134549936D01*
X124322647Y-134498684D01*
X124015481Y-134281479D01*
X123794587Y-133971699D01*
X123661993Y-133600166D01*
X123619828Y-133198677D01*
X124334732Y-133198677D01*
X124355497Y-133427688D01*
X124429056Y-133674453D01*
X124531150Y-133861555D01*
X124548433Y-133880701D01*
X124739376Y-133979311D01*
X124986145Y-133995312D01*
X125221479Y-133930791D01*
X125327010Y-133856520D01*
X125458557Y-133641976D01*
X125523227Y-133360380D01*
X125523337Y-133057504D01*
X125461207Y-132779124D01*
X125339155Y-132571014D01*
X125258749Y-132508866D01*
X124992659Y-132434098D01*
X124730680Y-132470635D01*
X124511999Y-132600192D01*
X124375799Y-132804483D01*
X124350662Y-132932616D01*
X124340374Y-133111040D01*
X124334732Y-133198677D01*
X123619828Y-133198677D01*
X123619726Y-133197701D01*
X123669814Y-132795125D01*
G37*
G36*
X125354816Y-123229358D02*
G01*
X125593172Y-123235052D01*
X125787347Y-123245486D01*
X125889104Y-123259955D01*
X125893894Y-123262947D01*
X125877441Y-123336440D01*
X125824125Y-123537047D01*
X125738534Y-123848333D01*
X125625254Y-124253865D01*
X125488871Y-124737209D01*
X125333973Y-125281930D01*
X125190261Y-125784118D01*
X124472059Y-128286765D01*
X123994702Y-128270094D01*
X123743471Y-128256833D01*
X123558914Y-128238677D01*
X123485214Y-128221293D01*
X123462190Y-128142185D01*
X123414425Y-127936740D01*
X123346278Y-127625169D01*
X123262107Y-127227685D01*
X123166273Y-126764501D01*
X123088094Y-126379859D01*
X122986362Y-125880276D01*
X122893068Y-125431075D01*
X122812555Y-125052448D01*
X122749166Y-124764585D01*
X122707242Y-124587678D01*
X122692383Y-124539834D01*
X122661747Y-124584444D01*
X122623165Y-124733356D01*
X122612132Y-124791762D01*
X122582384Y-124948962D01*
X122527700Y-125225938D01*
X122453414Y-125596149D01*
X122364859Y-126033060D01*
X122267369Y-126510130D01*
X122240031Y-126643236D01*
X121917460Y-128212059D01*
X121410949Y-128249412D01*
X121126464Y-128259607D01*
X120940442Y-128243567D01*
X120880280Y-128212059D01*
X120854597Y-128124873D01*
X120792640Y-127911220D01*
X120699352Y-127588247D01*
X120579677Y-127173100D01*
X120438560Y-126682927D01*
X120280943Y-126134874D01*
X120153317Y-125690736D01*
X119450512Y-123244118D01*
X120538224Y-123244118D01*
X120928315Y-124868971D01*
X121043674Y-125344625D01*
X121150032Y-125774049D01*
X121241696Y-126134990D01*
X121312976Y-126405190D01*
X121358180Y-126562397D01*
X121368596Y-126590537D01*
X121396880Y-126548771D01*
X121449124Y-126379268D01*
X121520635Y-126100927D01*
X121606719Y-125732650D01*
X121702684Y-125293338D01*
X121764900Y-124994490D01*
X121864516Y-124512046D01*
X121955464Y-124080585D01*
X122033190Y-123720977D01*
X122093144Y-123454094D01*
X122130772Y-123300807D01*
X122140531Y-123272214D01*
X122236110Y-123248810D01*
X122431264Y-123237051D01*
X122677183Y-123236061D01*
X122925055Y-123244963D01*
X123126069Y-123262879D01*
X123231414Y-123288933D01*
X123234741Y-123291876D01*
X123265601Y-123381315D01*
X123319816Y-123595030D01*
X123392300Y-123910613D01*
X123477967Y-124305662D01*
X123571731Y-124757769D01*
X123605452Y-124925000D01*
X123700426Y-125395294D01*
X123787755Y-125819852D01*
X123862521Y-126175401D01*
X123919810Y-126438665D01*
X123954703Y-126586369D01*
X123960501Y-126605883D01*
X123988377Y-126568673D01*
X124044739Y-126404241D01*
X124124409Y-126130934D01*
X124222210Y-125767099D01*
X124332964Y-125331085D01*
X124413759Y-124999706D01*
X124530991Y-124514939D01*
X124637879Y-124080303D01*
X124729223Y-123716342D01*
X124799826Y-123443601D01*
X124844491Y-123282624D01*
X124857031Y-123247775D01*
X124938509Y-123235014D01*
X125120516Y-123229110D01*
X125354816Y-123229358D01*
G37*
G36*
X138778128Y-133365012D02*
G01*
X138806944Y-133311528D01*
X138956746Y-133187370D01*
X139186087Y-133066364D01*
X139427714Y-132979527D01*
X139578924Y-132955466D01*
X139737156Y-132935673D01*
X139954010Y-132887536D01*
X139992206Y-132877249D01*
X140201491Y-132776976D01*
X140276874Y-132638911D01*
X140211278Y-132479005D01*
X140182706Y-132447883D01*
X140026196Y-132371800D01*
X139823431Y-132367516D01*
X139626260Y-132422676D01*
X139486529Y-132524926D01*
X139450589Y-132622335D01*
X139403520Y-132695064D01*
X139246232Y-132727873D01*
X139114412Y-132731765D01*
X138906191Y-132723268D01*
X138807555Y-132684461D01*
X138779036Y-132595369D01*
X138778236Y-132561623D01*
X138847230Y-132309704D01*
X139034157Y-132078587D01*
X139227296Y-131946926D01*
X139489963Y-131864059D01*
X139814190Y-131836781D01*
X140156601Y-131859765D01*
X140473818Y-131927688D01*
X140722465Y-132035224D01*
X140842204Y-132145172D01*
X140869257Y-132254161D01*
X140897501Y-132481547D01*
X140923943Y-132796370D01*
X140945591Y-133167674D01*
X140949448Y-133254706D01*
X140969284Y-133637685D01*
X140993875Y-133974319D01*
X141020365Y-134232500D01*
X141045896Y-134380121D01*
X141050823Y-134393971D01*
X141068412Y-134470895D01*
X141010619Y-134510074D01*
X140847440Y-134523682D01*
X140728581Y-134524706D01*
X140501351Y-134517026D01*
X140386897Y-134484663D01*
X140348966Y-134413633D01*
X140347059Y-134377546D01*
X140338031Y-134292825D01*
X140288855Y-134283359D01*
X140166392Y-134353701D01*
X140075164Y-134414899D01*
X139736222Y-134573275D01*
X139396501Y-134603549D01*
X139087020Y-134506631D01*
X138921901Y-134381041D01*
X138780901Y-134210829D01*
X138718009Y-134030128D01*
X138705906Y-133802070D01*
X138712249Y-133729762D01*
X139375883Y-133729762D01*
X139434791Y-133931304D01*
X139585904Y-134050118D01*
X139790808Y-134076017D01*
X140011086Y-133998813D01*
X140108855Y-133924149D01*
X140247561Y-133696670D01*
X140272353Y-133520028D01*
X140272353Y-133268230D01*
X139905466Y-133365013D01*
X139630253Y-133443898D01*
X139470707Y-133513520D01*
X139396198Y-133594975D01*
X139376098Y-133709356D01*
X139375883Y-133729762D01*
X138712249Y-133729762D01*
X138727164Y-133559736D01*
X138778128Y-133365012D01*
G37*
G36*
X133100589Y-132866235D02*
G01*
X133107819Y-133345289D01*
X133129683Y-133678687D01*
X133166446Y-133869490D01*
X133190236Y-133912118D01*
X133362806Y-133991734D01*
X133586420Y-133984490D01*
X133795074Y-133896388D01*
X133847647Y-133852353D01*
X133911791Y-133773100D01*
X133954613Y-133668227D01*
X133980295Y-133508473D01*
X133993015Y-133264574D01*
X133996955Y-132907269D01*
X133997059Y-132806471D01*
X133997059Y-131910000D01*
X134744118Y-131910000D01*
X134744118Y-134524706D01*
X134370589Y-134524706D01*
X134129308Y-134510816D01*
X134014238Y-134465258D01*
X133997059Y-134420701D01*
X133969516Y-134367573D01*
X133867635Y-134388598D01*
X133719793Y-134458053D01*
X133344373Y-134581767D01*
X132985335Y-134569999D01*
X132801765Y-134503889D01*
X132634176Y-134388802D01*
X132511766Y-134221440D01*
X132428616Y-133980615D01*
X132378806Y-133645137D01*
X132356418Y-133193818D01*
X132353646Y-132899853D01*
X132353530Y-131910000D01*
X133100589Y-131910000D01*
X133100589Y-132866235D01*
G37*
G36*
X137452201Y-123219692D02*
G01*
X137716538Y-123231329D01*
X137937794Y-123238368D01*
X138180589Y-123244118D01*
X138180589Y-124140588D01*
X137209412Y-124140588D01*
X137209407Y-123673677D01*
X137209401Y-123206765D01*
X137452201Y-123219692D01*
G37*
G36*
X133333805Y-105305214D02*
G01*
X133459444Y-105395907D01*
X133633352Y-105534986D01*
X133738542Y-105641100D01*
X133754385Y-105678426D01*
X133511705Y-106152239D01*
X133339606Y-106536306D01*
X133225653Y-106865109D01*
X133157415Y-107173131D01*
X133128497Y-107414326D01*
X133130365Y-108045317D01*
X133251325Y-108649995D01*
X133498974Y-109253931D01*
X133847647Y-109834412D01*
X134257580Y-110553504D01*
X134526930Y-111295941D01*
X134655460Y-112049253D01*
X134642930Y-112800972D01*
X134489103Y-113538628D01*
X134193740Y-114249752D01*
X133940022Y-114670988D01*
X133800663Y-114875800D01*
X133484709Y-114643444D01*
X133311502Y-114505127D01*
X133206584Y-114399887D01*
X133190701Y-114363927D01*
X133232744Y-114278505D01*
X133323387Y-114096719D01*
X133444110Y-113855694D01*
X133460993Y-113822055D01*
X133714921Y-113159125D01*
X133821916Y-112478305D01*
X133780755Y-111787465D01*
X133778952Y-111776765D01*
X133720773Y-111504431D01*
X133634110Y-111235710D01*
X133506192Y-110943275D01*
X133324250Y-110599797D01*
X133075515Y-110177948D01*
X132896139Y-109887441D01*
X132561371Y-109214035D01*
X132357546Y-108490955D01*
X132285676Y-107742298D01*
X132346771Y-106992158D01*
X132541844Y-106264632D01*
X132726354Y-105843621D01*
X132889285Y-105528920D01*
X133007563Y-105332344D01*
X133105122Y-105239278D01*
X133205892Y-105235107D01*
X133333805Y-105305214D01*
G37*
G36*
X130923292Y-131845646D02*
G01*
X131261793Y-131923708D01*
X131543004Y-132077240D01*
X131721821Y-132289893D01*
X131820423Y-132520079D01*
X131814369Y-132655749D01*
X131692625Y-132718828D01*
X131499446Y-132731765D01*
X131279812Y-132717463D01*
X131165094Y-132663330D01*
X131120938Y-132582527D01*
X131018725Y-132452846D01*
X130843907Y-132380785D01*
X130643319Y-132366392D01*
X130463799Y-132409718D01*
X130352183Y-132510813D01*
X130336471Y-132581690D01*
X130369444Y-132666658D01*
X130480788Y-132746320D01*
X130689139Y-132828527D01*
X131013133Y-132921131D01*
X131323348Y-132997438D01*
X131616683Y-133131600D01*
X131819072Y-133357330D01*
X131903981Y-133643458D01*
X131905015Y-133680698D01*
X131841934Y-134036469D01*
X131662883Y-134313563D01*
X131382008Y-134491661D01*
X131327793Y-134509844D01*
X130968849Y-134578524D01*
X130583424Y-134590680D01*
X130235547Y-134547026D01*
X130074971Y-134495876D01*
X129815081Y-134337007D01*
X129654095Y-134109415D01*
X129591489Y-133934299D01*
X129525136Y-133702941D01*
X129852702Y-133702941D01*
X130115490Y-133731699D01*
X130307354Y-133834970D01*
X130367032Y-133889706D01*
X130602782Y-134038438D01*
X130866837Y-134071904D01*
X131107104Y-133983699D01*
X131110670Y-133981118D01*
X131203475Y-133852738D01*
X131160826Y-133721082D01*
X130994997Y-133605252D01*
X130833054Y-133549067D01*
X130452509Y-133446149D01*
X130187738Y-133363222D01*
X130008592Y-133288171D01*
X129884923Y-133208886D01*
X129808722Y-133137530D01*
X129684495Y-132908282D01*
X129650768Y-132620028D01*
X129713001Y-132336609D01*
X129736121Y-132288580D01*
X129933917Y-132064520D01*
X130222368Y-131916027D01*
X130564488Y-131843077D01*
X130923292Y-131845646D01*
G37*
G36*
X136761057Y-131847774D02*
G01*
X136815606Y-131910654D01*
X136834179Y-132062096D01*
X136835883Y-132208824D01*
X136831554Y-132429882D01*
X136801550Y-132540107D01*
X136720339Y-132578076D01*
X136588691Y-132582353D01*
X136379550Y-132595570D01*
X136231902Y-132650012D01*
X136134163Y-132767866D01*
X136074751Y-132971319D01*
X136042082Y-133282557D01*
X136026366Y-133659422D01*
X136001261Y-134524706D01*
X135341765Y-134524706D01*
X135341765Y-131910000D01*
X135640589Y-131910000D01*
X135832831Y-131919864D01*
X135918292Y-131967791D01*
X135939225Y-132081286D01*
X135939412Y-132104504D01*
X135939412Y-132299008D01*
X136203482Y-132067151D01*
X136402112Y-131926255D01*
X136591879Y-131844004D01*
X136651717Y-131835294D01*
X136761057Y-131847774D01*
G37*
G36*
X136169153Y-105210028D02*
G01*
X136319792Y-105325350D01*
X136452462Y-105435630D01*
X136629526Y-105595674D01*
X136705673Y-105698426D01*
X136698705Y-105777309D01*
X136661378Y-105827836D01*
X136409339Y-106213484D01*
X136225160Y-106697822D01*
X136114130Y-107243859D01*
X136081538Y-107814606D01*
X136132672Y-108373073D01*
X136238096Y-108788123D01*
X136355128Y-109067120D01*
X136526548Y-109403355D01*
X136719282Y-109732931D01*
X136759587Y-109795648D01*
X137056411Y-110276438D01*
X137270174Y-110697837D01*
X137421198Y-111108322D01*
X137529807Y-111556371D01*
X137554998Y-111692942D01*
X137610370Y-112094444D01*
X137620640Y-112455154D01*
X137582745Y-112829725D01*
X137493620Y-113272810D01*
X137458155Y-113420294D01*
X137382032Y-113660917D01*
X137266393Y-113949872D01*
X137129556Y-114249264D01*
X136989837Y-114521198D01*
X136865554Y-114727781D01*
X136776698Y-114830114D01*
X136689781Y-114809472D01*
X136531042Y-114718410D01*
X136432402Y-114649145D01*
X136257789Y-114517558D01*
X136139951Y-114426157D01*
X136114960Y-114405156D01*
X136135665Y-114331894D01*
X136217735Y-114168107D01*
X136337933Y-113958532D01*
X136597051Y-113394246D01*
X136731210Y-112764473D01*
X136742860Y-112057583D01*
X136741729Y-112040651D01*
X136698348Y-111663861D01*
X136614141Y-111317169D01*
X136475027Y-110965331D01*
X136266921Y-110573098D01*
X135975742Y-110105225D01*
X135956919Y-110076416D01*
X135564794Y-109354564D01*
X135316693Y-108611410D01*
X135213861Y-107855571D01*
X135257541Y-107095662D01*
X135426847Y-106404356D01*
X135523507Y-106154947D01*
X135650325Y-105877816D01*
X135789192Y-105606658D01*
X135921996Y-105375167D01*
X136030627Y-105217038D01*
X136092831Y-105165294D01*
X136169153Y-105210028D01*
G37*
G36*
X127030736Y-131173522D02*
G01*
X127286536Y-131195675D01*
X127426994Y-131253612D01*
X127486044Y-131376792D01*
X127497647Y-131578858D01*
X127505666Y-131784336D01*
X127544870Y-131880934D01*
X127637985Y-131908942D01*
X127684412Y-131910000D01*
X127810713Y-131929536D01*
X127862419Y-132017446D01*
X127871177Y-132171471D01*
X127857223Y-132348293D01*
X127794430Y-132420680D01*
X127684412Y-132432941D01*
X127497647Y-132432941D01*
X127497647Y-134001765D01*
X127684412Y-134001765D01*
X127810713Y-134021300D01*
X127862419Y-134109210D01*
X127871177Y-134263236D01*
X127871177Y-134524706D01*
X127464531Y-134524706D01*
X127210305Y-134513336D01*
X127056350Y-134469044D01*
X126954571Y-134376561D01*
X126941589Y-134358672D01*
X126887630Y-134242712D01*
X126852226Y-134060709D01*
X126832465Y-133786465D01*
X126825433Y-133393782D01*
X126825294Y-133312789D01*
X126825294Y-132432941D01*
X126638530Y-132432941D01*
X126512228Y-132413406D01*
X126460523Y-132325496D01*
X126451765Y-132171471D01*
X126465719Y-131994649D01*
X126528512Y-131922261D01*
X126638530Y-131910000D01*
X126749465Y-131897853D01*
X126804750Y-131835914D01*
X126823552Y-131685934D01*
X126825294Y-131537308D01*
X126830468Y-131316688D01*
X126860124Y-131207900D01*
X126935464Y-131173402D01*
X127030736Y-131173522D01*
G37*
G36*
X144559508Y-132144426D02*
G01*
X144844379Y-131940255D01*
X145126639Y-131856688D01*
X145473267Y-131841617D01*
X145816780Y-131893254D01*
X146025872Y-131971557D01*
X146275867Y-132177005D01*
X146474606Y-132481877D01*
X146596469Y-132838404D01*
X146622353Y-133083771D01*
X146622353Y-133404118D01*
X145763236Y-133404118D01*
X145392308Y-133406196D01*
X145145883Y-133414996D01*
X144999078Y-133434363D01*
X144927010Y-133468143D01*
X144904797Y-133520182D01*
X144904118Y-133536907D01*
X144945585Y-133697558D01*
X145020413Y-133835731D01*
X145183610Y-133960261D01*
X145407267Y-134009595D01*
X145632297Y-133982500D01*
X145799615Y-133877744D01*
X145817926Y-133852353D01*
X145935010Y-133746472D01*
X146136558Y-133705182D01*
X146225032Y-133702941D01*
X146428067Y-133716272D01*
X146558651Y-133749652D01*
X146576720Y-133764249D01*
X146566432Y-133862183D01*
X146492493Y-134025028D01*
X146472000Y-134060059D01*
X146233317Y-134319139D01*
X145905405Y-134498717D01*
X145530867Y-134589609D01*
X145152303Y-134582630D01*
X144812317Y-134468595D01*
X144751117Y-134431070D01*
X144449546Y-134145911D01*
X144258168Y-133767332D01*
X144179990Y-133380593D01*
X144188861Y-132894437D01*
X144194043Y-132877656D01*
X144918600Y-132877656D01*
X145032057Y-132934397D01*
X145274422Y-132954758D01*
X145389706Y-132955883D01*
X145653078Y-132950959D01*
X145799937Y-132929710D01*
X145863039Y-132882416D01*
X145875294Y-132811807D01*
X145812111Y-132621381D01*
X145652533Y-132490557D01*
X145441515Y-132430528D01*
X145224015Y-132452487D01*
X145044989Y-132567624D01*
X145020413Y-132598976D01*
X144919552Y-132770520D01*
X144918600Y-132877656D01*
X144194043Y-132877656D01*
X144317575Y-132477595D01*
X144559508Y-132144426D01*
G37*
G36*
X138399434Y-130989005D02*
G01*
X138466715Y-131108783D01*
X138479412Y-131274447D01*
X138462549Y-131449900D01*
X138387272Y-131527181D01*
X138273971Y-131550185D01*
X138105044Y-131612086D01*
X138044657Y-131741912D01*
X138050142Y-131859507D01*
X138139564Y-131904611D01*
X138254832Y-131910000D01*
X138413851Y-131923166D01*
X138470118Y-131993670D01*
X138465469Y-132152794D01*
X138429184Y-132323420D01*
X138340887Y-132389333D01*
X138255294Y-132396913D01*
X138068530Y-132398238D01*
X138027074Y-134524706D01*
X137358824Y-134524706D01*
X137358824Y-132432941D01*
X137172059Y-132432941D01*
X137045758Y-132413406D01*
X136994052Y-132325496D01*
X136985294Y-132171471D01*
X136999248Y-131994649D01*
X137062041Y-131922261D01*
X137172059Y-131910000D01*
X137292388Y-131893690D01*
X137345871Y-131816757D01*
X137358757Y-131637200D01*
X137358824Y-131611177D01*
X137409374Y-131319881D01*
X137568398Y-131119997D01*
X137846960Y-131000232D01*
X137983135Y-130973875D01*
X138247922Y-130949899D01*
X138399434Y-130989005D01*
G37*
G36*
X141754886Y-124523421D02*
G01*
X141977477Y-124639732D01*
X142124432Y-124760016D01*
X142236704Y-124891940D01*
X142318868Y-125056677D01*
X142375500Y-125275398D01*
X142411176Y-125569275D01*
X142430471Y-125959479D01*
X142437960Y-126467182D01*
X142438708Y-126773971D01*
X142438824Y-128249412D01*
X142252059Y-128257416D01*
X142051468Y-128265468D01*
X141803161Y-128274773D01*
X141766471Y-128276093D01*
X141467647Y-128286765D01*
X141461504Y-127166177D01*
X141456321Y-126644510D01*
X141445912Y-126249239D01*
X141428245Y-125957382D01*
X141401287Y-125745956D01*
X141363007Y-125591980D01*
X141311793Y-125473257D01*
X141158630Y-125328739D01*
X140931470Y-125273490D01*
X140672842Y-125303258D01*
X140425271Y-125413788D01*
X140246307Y-125579810D01*
X140189004Y-125667827D01*
X140148143Y-125770776D01*
X140121105Y-125913800D01*
X140105268Y-126122041D01*
X140098011Y-126420642D01*
X140096713Y-126834748D01*
X140097178Y-127010465D01*
X140101360Y-128235777D01*
X139832003Y-128261271D01*
X139568046Y-128272408D01*
X139319853Y-128263355D01*
X139077059Y-128239945D01*
X139077059Y-124514118D01*
X140048236Y-124514118D01*
X140048236Y-124975635D01*
X140270455Y-124788649D01*
X140602548Y-124587335D01*
X140990057Y-124473460D01*
X141388872Y-124450873D01*
X141754886Y-124523421D01*
G37*
G36*
X126238997Y-126564674D02*
G01*
X126460596Y-126338222D01*
X126794692Y-126169382D01*
X127255051Y-126046398D01*
X127527150Y-125999868D01*
X127946051Y-125912650D01*
X128219280Y-125796929D01*
X128347964Y-125652022D01*
X128344631Y-125505665D01*
X128212880Y-125309742D01*
X127978919Y-125206955D01*
X127744839Y-125186471D01*
X127466746Y-125231621D01*
X127251598Y-125351316D01*
X127135102Y-125521919D01*
X127124118Y-125597353D01*
X127091985Y-125659880D01*
X126977040Y-125694807D01*
X126751466Y-125708473D01*
X126632594Y-125709412D01*
X126141070Y-125709412D01*
X126191761Y-125466618D01*
X126337619Y-125060132D01*
X126586030Y-124756911D01*
X126940714Y-124554456D01*
X127405390Y-124450269D01*
X127729409Y-124433880D01*
X128256252Y-124461454D01*
X128660912Y-124549652D01*
X128960741Y-124705671D01*
X129173089Y-124936711D01*
X129242069Y-125061431D01*
X129288953Y-125187687D01*
X129322769Y-125354608D01*
X129345392Y-125586089D01*
X129358698Y-125906029D01*
X129364562Y-126338321D01*
X129365294Y-126631440D01*
X129369483Y-127117620D01*
X129381452Y-127511782D01*
X129400302Y-127797623D01*
X129425135Y-127958841D01*
X129440000Y-127987941D01*
X129508739Y-128096032D01*
X129514706Y-128141762D01*
X129479983Y-128200895D01*
X129358552Y-128234641D01*
X129124517Y-128248345D01*
X128993188Y-128249412D01*
X128718521Y-128245798D01*
X128557602Y-128227247D01*
X128474807Y-128182197D01*
X128434513Y-128099084D01*
X128425420Y-128065134D01*
X128379169Y-127880855D01*
X128082825Y-128119003D01*
X127892781Y-128254684D01*
X127709705Y-128331587D01*
X127473062Y-128369719D01*
X127287212Y-128381965D01*
X126978434Y-128386004D01*
X126762898Y-128354916D01*
X126586708Y-128279556D01*
X126548774Y-128256693D01*
X126288184Y-128021755D01*
X126134055Y-127702868D01*
X126078646Y-127283264D01*
X126078236Y-127237443D01*
X126087677Y-127143536D01*
X127049412Y-127143536D01*
X127107397Y-127409052D01*
X127266195Y-127580728D01*
X127503074Y-127648749D01*
X127795302Y-127603299D01*
X127955478Y-127534744D01*
X128171169Y-127346963D01*
X128324996Y-127061883D01*
X128392847Y-126726770D01*
X128394118Y-126674995D01*
X128378377Y-126515878D01*
X128318573Y-126474903D01*
X128272441Y-126487177D01*
X128128432Y-126532590D01*
X127907250Y-126592625D01*
X127805529Y-126618140D01*
X127447832Y-126720293D01*
X127217282Y-126827681D01*
X127091950Y-126955543D01*
X127049904Y-127119117D01*
X127049412Y-127143536D01*
X126087677Y-127143536D01*
X126116132Y-126860495D01*
X126238997Y-126564674D01*
G37*
G36*
X135310646Y-124466036D02*
G01*
X135707830Y-124575485D01*
X136000638Y-124785114D01*
X136148672Y-124992123D01*
X136196709Y-125147889D01*
X136237402Y-125409638D01*
X136270290Y-125751419D01*
X136294916Y-126147277D01*
X136310819Y-126571260D01*
X136317540Y-126997414D01*
X136314621Y-127399786D01*
X136301602Y-127752424D01*
X136278023Y-128029374D01*
X136243427Y-128204682D01*
X136206389Y-128254392D01*
X136066755Y-128258184D01*
X135840628Y-128262345D01*
X135696618Y-128264414D01*
X135304412Y-128269456D01*
X135283948Y-126936316D01*
X135275508Y-126456576D01*
X135265233Y-126103057D01*
X135250329Y-125852572D01*
X135228005Y-125681934D01*
X135195468Y-125567954D01*
X135149927Y-125487447D01*
X135102837Y-125432177D01*
X134872919Y-125284461D01*
X134604352Y-125269576D01*
X134324096Y-125386120D01*
X134203679Y-125478984D01*
X133959706Y-125696792D01*
X133922353Y-126991778D01*
X133885000Y-128286765D01*
X133503181Y-128290227D01*
X133266890Y-128286981D01*
X133088851Y-128274857D01*
X133036269Y-128265325D01*
X133007218Y-128203099D01*
X132984668Y-128032163D01*
X132968222Y-127743698D01*
X132957482Y-127328884D01*
X132952052Y-126778903D01*
X132951177Y-126375539D01*
X132951177Y-124514118D01*
X133922353Y-124514118D01*
X133922353Y-124977831D01*
X134182227Y-124749659D01*
X134521992Y-124536781D01*
X134922950Y-124448495D01*
X135310646Y-124466036D01*
G37*
D12*
%TO.C,U3*%
X109150000Y-73020000D02*
X109150000Y-76980000D01*
X109154324Y-73023261D02*
G75*
G03*
X109150000Y-76980000I-1494324J-1976739D01*
G01*
D11*
%TO.C,U2*%
X127598383Y-62746909D02*
X127598383Y-68756909D01*
X127598383Y-68756909D02*
X126338383Y-68756909D01*
X120778383Y-64996909D02*
X120778383Y-68756909D01*
X120778383Y-68756909D02*
X122038383Y-68756909D01*
%TO.C,R3*%
X144054724Y-82377500D02*
X143545276Y-82377500D01*
X144054724Y-83422500D02*
X143545276Y-83422500D01*
%TO.C,U1*%
X115075000Y-61849000D02*
X116585000Y-61849000D01*
X115075000Y-68820000D02*
X115075000Y-58580000D01*
X116585000Y-68820000D02*
X116585000Y-58580000D01*
X115075000Y-65550000D02*
X116585000Y-65550000D01*
X115075000Y-68820000D02*
X119716000Y-68820000D01*
X115075000Y-58580000D02*
X119716000Y-58580000D01*
X119716000Y-68820000D02*
X119716000Y-58580000D01*
D12*
%TO.C,CN1*%
X170040000Y-77860000D02*
X170040000Y-79390000D01*
X153420000Y-75500000D02*
X153420000Y-79410000D01*
X153420000Y-79410000D02*
X170920000Y-79410000D01*
X154300000Y-77860000D02*
X170040000Y-77860000D01*
X154300000Y-79390000D02*
X154300000Y-77860000D01*
X154300000Y-78620000D02*
X170040000Y-78620000D01*
X170920000Y-75500000D02*
X170920000Y-79410000D01*
X153420000Y-75500000D02*
X170920000Y-75500000D01*
%TO.C,L1*%
X136088383Y-55176909D02*
X152088383Y-55176909D01*
X147918383Y-72296909D02*
X148258383Y-72296909D01*
X145918383Y-72296909D02*
X146258383Y-72296909D01*
X152088383Y-72296909D02*
X152088383Y-71626909D01*
X152088383Y-57966909D02*
X152088383Y-57626909D01*
X152088383Y-61966909D02*
X152088383Y-61626909D01*
X152088383Y-67966909D02*
X152088383Y-67626909D01*
X152088383Y-69966909D02*
X152088383Y-69626909D01*
X136088383Y-65626909D02*
X136088383Y-65966909D01*
X144088383Y-48296909D02*
X136088383Y-48296909D01*
X141918383Y-72296909D02*
X142258383Y-72296909D01*
X143918383Y-72296909D02*
X144258383Y-72296909D01*
X136088383Y-57626909D02*
X136088383Y-57966909D01*
X136088383Y-67626909D02*
X136088383Y-67966909D01*
X136088383Y-59626909D02*
X136088383Y-59966909D01*
X144088383Y-48296909D02*
X152088383Y-48296909D01*
X136088383Y-61626909D02*
X136088383Y-61966909D01*
X139918383Y-72296909D02*
X140258383Y-72296909D01*
X149918383Y-72296909D02*
X152088383Y-72296909D01*
X152088383Y-59966909D02*
X152088383Y-59626909D01*
X136088383Y-63626909D02*
X136088383Y-63966909D01*
X152088383Y-55966909D02*
X152088383Y-48286909D01*
X136088383Y-72296909D02*
X138258383Y-72296909D01*
X136088383Y-71626909D02*
X136088383Y-72296909D01*
X152088383Y-65966909D02*
X152088383Y-65626909D01*
X152088383Y-63966909D02*
X152088383Y-63626909D01*
X136088383Y-69626909D02*
X136088383Y-69966909D01*
X136088383Y-48296909D02*
X136088383Y-55966909D01*
D14*
X135018383Y-54896909D02*
G75*
G03*
X135018383Y-54896909I-200000J0D01*
G01*
D12*
%TO.C,D3*%
X114840000Y-78000000D02*
X114840000Y-79020000D01*
X116850000Y-79510000D02*
X113850000Y-79510000D01*
X115860000Y-78920000D02*
X114840000Y-78510000D01*
X116850000Y-77510000D02*
X113850000Y-77510000D01*
X115860000Y-78100000D02*
X115860000Y-78920000D01*
X114840000Y-78510000D02*
X115860000Y-78100000D01*
X114590000Y-78510000D02*
X116110000Y-78510000D01*
D11*
%TO.C,C1*%
X132945000Y-71588748D02*
X132945000Y-72111252D01*
X134415000Y-71588748D02*
X134415000Y-72111252D01*
%TO.C,R7*%
X154445276Y-73877500D02*
X154954724Y-73877500D01*
X154445276Y-74922500D02*
X154954724Y-74922500D01*
%TO.C,R1*%
X132777500Y-57254724D02*
X132777500Y-56745276D01*
X133822500Y-57254724D02*
X133822500Y-56745276D01*
%TO.C,C5*%
X111490000Y-68346267D02*
X111490000Y-68053733D01*
X112510000Y-68346267D02*
X112510000Y-68053733D01*
D12*
%TO.C,SW1*%
X149300000Y-79700000D02*
X146100000Y-79700000D01*
X146900000Y-81600000D02*
X146500000Y-81600000D01*
X150500000Y-75800000D02*
X150600000Y-75800000D01*
X150600000Y-81450000D02*
X150600000Y-81600000D01*
X148900000Y-81600000D02*
X148500000Y-81600000D01*
X148500000Y-78100000D02*
X148500000Y-79300000D01*
X144800000Y-80450000D02*
X144800000Y-76950000D01*
X144800000Y-81600000D02*
X144800000Y-81450000D01*
X146100000Y-79700000D02*
X146100000Y-77700000D01*
X150600000Y-76950000D02*
X150600000Y-80450000D01*
X146900000Y-79300000D02*
X146900000Y-78300000D01*
X146900000Y-78300000D02*
X146900000Y-78100000D01*
X150600000Y-75800000D02*
X150600000Y-75950000D01*
X144900000Y-81600000D02*
X144800000Y-81600000D01*
X146100000Y-77700000D02*
X149300000Y-77700000D01*
X149300000Y-77700000D02*
X149300000Y-79700000D01*
X148500000Y-79300000D02*
X146900000Y-79300000D01*
X144800000Y-75950000D02*
X144800000Y-75800000D01*
X144800000Y-75800000D02*
X144900000Y-75800000D01*
X150600000Y-81600000D02*
X150500000Y-81600000D01*
X148500000Y-75800000D02*
X148900000Y-75800000D01*
X146500000Y-75800000D02*
X146900000Y-75800000D01*
X146900000Y-78100000D02*
X148500000Y-78100000D01*
%TO.C,SW2*%
X138000000Y-81600000D02*
X138000000Y-81450000D01*
X143700000Y-75800000D02*
X143800000Y-75800000D01*
X143800000Y-81450000D02*
X143800000Y-81600000D01*
X138000000Y-75800000D02*
X138100000Y-75800000D01*
X142500000Y-77700000D02*
X142500000Y-79700000D01*
X140100000Y-79300000D02*
X140100000Y-78300000D01*
X139300000Y-77700000D02*
X142500000Y-77700000D01*
X138000000Y-80450000D02*
X138000000Y-76950000D01*
X139300000Y-79700000D02*
X139300000Y-77700000D01*
X141700000Y-79300000D02*
X140100000Y-79300000D01*
X139700000Y-75800000D02*
X140100000Y-75800000D01*
X138000000Y-75950000D02*
X138000000Y-75800000D01*
X143800000Y-81600000D02*
X143700000Y-81600000D01*
X140100000Y-81600000D02*
X139700000Y-81600000D01*
X143800000Y-76950000D02*
X143800000Y-80450000D01*
X142500000Y-79700000D02*
X139300000Y-79700000D01*
X143800000Y-75800000D02*
X143800000Y-75950000D01*
X141700000Y-75800000D02*
X142100000Y-75800000D01*
X140100000Y-78100000D02*
X141700000Y-78100000D01*
X138100000Y-81600000D02*
X138000000Y-81600000D01*
X140100000Y-78300000D02*
X140100000Y-78100000D01*
X142100000Y-81600000D02*
X141700000Y-81600000D01*
X141700000Y-78100000D02*
X141700000Y-79300000D01*
D11*
%TO.C,C6*%
X117561252Y-70935000D02*
X117038748Y-70935000D01*
X117561252Y-69465000D02*
X117038748Y-69465000D01*
D10*
%TO.C,Q1*%
X120400000Y-75160000D02*
X126360000Y-75160000D01*
X120400000Y-81860000D02*
X126360000Y-81860000D01*
X126360000Y-81860000D02*
X126360000Y-75160000D01*
D11*
%TO.C,C8*%
X121153383Y-60361252D02*
X121153383Y-59838748D01*
X122623383Y-60361252D02*
X122623383Y-59838748D01*
%TO.C,C9*%
X114418748Y-75265000D02*
X114941252Y-75265000D01*
X114418748Y-76735000D02*
X114941252Y-76735000D01*
%TO.C,C11*%
X124923383Y-60208161D02*
X124923383Y-59685657D01*
X123453383Y-60208161D02*
X123453383Y-59685657D01*
%TO.C,R2*%
X151827500Y-82124724D02*
X151827500Y-81615276D01*
X152872500Y-82124724D02*
X152872500Y-81615276D01*
D10*
%TO.C,D2*%
X113030000Y-69410000D02*
X113200000Y-69410000D01*
X113030000Y-66590000D02*
X113030000Y-69410000D01*
X114770000Y-66950000D02*
X113030000Y-66950000D01*
X114770000Y-66590000D02*
X114770000Y-69410000D01*
X114770000Y-69410000D02*
X114600000Y-69410000D01*
D11*
%TO.C,C3*%
X131060000Y-71553733D02*
X131060000Y-71846267D01*
X132080000Y-71553733D02*
X132080000Y-71846267D01*
%TO.C,R6*%
X132652500Y-79635276D02*
X132652500Y-80144724D01*
X131607500Y-79635276D02*
X131607500Y-80144724D01*
%TO.C,J1*%
X131555000Y-59330000D02*
X131555000Y-67010000D01*
X131555000Y-56730000D02*
X131555000Y-58060000D01*
X130225000Y-56730000D02*
X131555000Y-56730000D01*
X128895000Y-59330000D02*
X128895000Y-67010000D01*
X128895000Y-59330000D02*
X131555000Y-59330000D01*
X128895000Y-67010000D02*
X131555000Y-67010000D01*
%TO.C,R5*%
X112672936Y-61235000D02*
X113127064Y-61235000D01*
X112672936Y-59765000D02*
X113127064Y-59765000D01*
%TO.C,C7*%
X117561252Y-57735000D02*
X117038748Y-57735000D01*
X117561252Y-56265000D02*
X117038748Y-56265000D01*
%TD*%
M02*
